%TF.GenerationSoftware,KiCad,Pcbnew,7.0.8*%
%TF.CreationDate,2023-10-14T12:30:27+02:00*%
%TF.ProjectId,RotorflightF7,526f746f-7266-46c6-9967-687446372e6b,rev?*%
%TF.SameCoordinates,Original*%
%TF.FileFunction,Copper,L2,Inr*%
%TF.FilePolarity,Positive*%
%FSLAX46Y46*%
G04 Gerber Fmt 4.6, Leading zero omitted, Abs format (unit mm)*
G04 Created by KiCad (PCBNEW 7.0.8) date 2023-10-14 12:30:27*
%MOMM*%
%LPD*%
G01*
G04 APERTURE LIST*
%TA.AperFunction,ComponentPad*%
%ADD10C,1.700000*%
%TD*%
%TA.AperFunction,ComponentPad*%
%ADD11O,1.700000X1.700000*%
%TD*%
%TA.AperFunction,ComponentPad*%
%ADD12R,1.700000X1.700000*%
%TD*%
%TA.AperFunction,ComponentPad*%
%ADD13O,2.100000X1.000000*%
%TD*%
%TA.AperFunction,ComponentPad*%
%ADD14O,1.600000X1.000000*%
%TD*%
%TA.AperFunction,ViaPad*%
%ADD15C,0.400000*%
%TD*%
%TA.AperFunction,ViaPad*%
%ADD16C,0.800000*%
%TD*%
%TA.AperFunction,Conductor*%
%ADD17C,0.600000*%
%TD*%
%TA.AperFunction,Conductor*%
%ADD18C,0.400000*%
%TD*%
G04 APERTURE END LIST*
D10*
%TO.N,Net-(J2-Pin_1)*%
%TO.C,J2*%
X105000000Y-57550000D03*
D11*
%TO.N,Net-(J2-Pin_2)*%
X105000000Y-55010000D03*
%TO.N,Net-(J2-Pin_3)*%
X105000000Y-52470000D03*
%TO.N,Net-(J2-Pin_4)*%
X105000000Y-49930000D03*
%TO.N,Net-(J2-Pin_5)*%
X105000000Y-44850000D03*
%TO.N,Net-(J2-Pin_6)*%
X105000000Y-42310000D03*
%TO.N,Net-(J2-Pin_7)*%
X105000000Y-39770000D03*
D10*
%TO.N,VBUS*%
X102460000Y-57550000D03*
D11*
X102460000Y-55010000D03*
X102460000Y-52470000D03*
X102460000Y-49930000D03*
X102460000Y-44850000D03*
X102460000Y-42310000D03*
X102460000Y-39770000D03*
D12*
%TO.N,GND*%
X99920000Y-57550000D03*
X99920000Y-55010000D03*
X99920000Y-52470000D03*
X99920000Y-49930000D03*
X99920000Y-44850000D03*
X99920000Y-42310000D03*
X99920000Y-39770000D03*
%TD*%
D13*
%TO.N,GND*%
%TO.C,J1*%
X129020000Y-48250000D03*
D14*
X133200000Y-48250000D03*
D13*
X129020000Y-39610000D03*
D14*
X133200000Y-39610000D03*
%TD*%
D15*
%TO.N,GND*%
X125674601Y-42280000D03*
X122790000Y-54580000D03*
D16*
X111590000Y-44230000D03*
X110190000Y-45730000D03*
X111590000Y-45730000D03*
D15*
X125290000Y-47930000D03*
D16*
X134490000Y-55830000D03*
D15*
X117690000Y-55930000D03*
X115140000Y-47130500D03*
X125542950Y-58329500D03*
X111990000Y-53780000D03*
D16*
X108290000Y-39430000D03*
D15*
X129145506Y-57351605D03*
D16*
X116580500Y-43947562D03*
D15*
X124876411Y-44216411D03*
X125460862Y-54660519D03*
X111590000Y-48530000D03*
D16*
%TO.N,+3V3*%
X120590000Y-41730000D03*
D15*
X123990000Y-55030000D03*
X116990000Y-52030000D03*
X116590000Y-45430000D03*
X119164500Y-46929500D03*
X133490000Y-45930000D03*
X114049385Y-49023357D03*
X111590000Y-47530000D03*
X116890000Y-54530000D03*
X125390000Y-46849500D03*
X117090000Y-55930000D03*
D16*
X122790000Y-41330000D03*
D15*
X127790000Y-50330000D03*
X125590000Y-55430000D03*
X125374920Y-48630923D03*
D16*
X121790000Y-41730000D03*
D15*
X127785619Y-48833662D03*
X123390000Y-42130000D03*
X129190000Y-58030000D03*
D16*
%TO.N,VBUS*%
X107590000Y-45130000D03*
X106990000Y-42130000D03*
X107390000Y-43530000D03*
X108390000Y-45930000D03*
D15*
%TO.N,+5V*%
X112990000Y-50854500D03*
D16*
X117090000Y-39530000D03*
X118890000Y-39530000D03*
X134439500Y-54630000D03*
D15*
X113690000Y-54330000D03*
D16*
X106890000Y-40630000D03*
X115690000Y-45030000D03*
D15*
%TO.N,/S1*%
X110540000Y-57304500D03*
%TO.N,/S2*%
X109738378Y-56705500D03*
%TO.N,/S3*%
X109467500Y-55352500D03*
X122140000Y-53129500D03*
X118140500Y-54015310D03*
%TO.N,/TAIL*%
X111390000Y-53830000D03*
%TO.N,/ESC*%
X109490000Y-52730000D03*
%TO.N,/RPM*%
X109490000Y-51730000D03*
X122000370Y-48401437D03*
X109490000Y-50205500D03*
%TO.N,/SBUS*%
X122016280Y-49212171D03*
%TO.N,Net-(U6-VCAP_1)*%
X122890000Y-53330000D03*
%TO.N,/MCU_D-*%
X119393200Y-51633200D03*
%TO.N,/MCU_D+*%
X118690000Y-51630000D03*
%TO.N,Net-(U6-BOOT0)*%
X117790000Y-53529500D03*
%TO.N,/BARO_SCL*%
X117590000Y-49230000D03*
%TO.N,/BARO_SDA*%
X117590000Y-48630000D03*
%TO.N,Net-(U6-NRST)*%
X120103957Y-46843957D03*
%TO.N,/UART4_TX*%
X121318851Y-50995094D03*
%TO.N,/UART4_RX*%
X121901444Y-51554604D03*
%TO.N,/LED_RD*%
X120007886Y-55652964D03*
%TO.N,/LED_GR*%
X119639500Y-55180000D03*
%TO.N,/BMI_NSS*%
X122612650Y-49273376D03*
%TO.N,/BMI_SCK*%
X122390000Y-49830000D03*
%TO.N,/BMI_MISO*%
X122918351Y-50902327D03*
%TO.N,/BMI_MOSI*%
X122612650Y-50386624D03*
%TO.N,/BMI_INT*%
X114169602Y-54689702D03*
X120892700Y-54237274D03*
X125390000Y-51230000D03*
%TD*%
D17*
%TO.N,+5V*%
X129146282Y-41873719D02*
X129187563Y-41915000D01*
D18*
X112990000Y-46230000D02*
X114190000Y-45030000D01*
D17*
X129187563Y-41915000D02*
X133275000Y-41915000D01*
X134494911Y-54574589D02*
X134439500Y-54630000D01*
D18*
X114190000Y-45030000D02*
X115690000Y-45030000D01*
D17*
X115990000Y-40630000D02*
X117090000Y-39530000D01*
X134494911Y-43134911D02*
X134494911Y-54574589D01*
D18*
X112990000Y-50854500D02*
X112990000Y-46230000D01*
D17*
X106890000Y-40630000D02*
X115990000Y-40630000D01*
X126802563Y-39530000D02*
X129146282Y-41873719D01*
X133275000Y-41915000D02*
X134290000Y-42930000D01*
X134290000Y-42930000D02*
X134494911Y-43134911D01*
X118890000Y-39530000D02*
X126802563Y-39530000D01*
%TD*%
%TA.AperFunction,Conductor*%
%TO.N,VBUS*%
G36*
X102160042Y-38550185D02*
G01*
X102205797Y-38602989D01*
X102215741Y-38672147D01*
X102186716Y-38735703D01*
X102128998Y-38773161D01*
X102056233Y-38795233D01*
X101873833Y-38892728D01*
X101873826Y-38892732D01*
X101713944Y-39023944D01*
X101582732Y-39183826D01*
X101582728Y-39183833D01*
X101485233Y-39366233D01*
X101438590Y-39520000D01*
X102026314Y-39520000D01*
X102000507Y-39560156D01*
X101960000Y-39698111D01*
X101960000Y-39841889D01*
X102000507Y-39979844D01*
X102026314Y-40020000D01*
X101438590Y-40020000D01*
X101485233Y-40173766D01*
X101582728Y-40356166D01*
X101582732Y-40356173D01*
X101713944Y-40516055D01*
X101873826Y-40647267D01*
X101873833Y-40647271D01*
X102056233Y-40744766D01*
X102210000Y-40791410D01*
X102210000Y-40205501D01*
X102317685Y-40254680D01*
X102424237Y-40270000D01*
X102495763Y-40270000D01*
X102602315Y-40254680D01*
X102710000Y-40205501D01*
X102710000Y-40791410D01*
X102863766Y-40744766D01*
X103046166Y-40647271D01*
X103046173Y-40647267D01*
X103206055Y-40516055D01*
X103337267Y-40356173D01*
X103337271Y-40356166D01*
X103434766Y-40173766D01*
X103481410Y-40020000D01*
X102893686Y-40020000D01*
X102919493Y-39979844D01*
X102960000Y-39841889D01*
X102960000Y-39698111D01*
X102919493Y-39560156D01*
X102893686Y-39520000D01*
X103481410Y-39520000D01*
X103434766Y-39366233D01*
X103337271Y-39183833D01*
X103337267Y-39183826D01*
X103206055Y-39023944D01*
X103046173Y-38892732D01*
X103046166Y-38892728D01*
X102863766Y-38795233D01*
X102791002Y-38773161D01*
X102732563Y-38734863D01*
X102704107Y-38671051D01*
X102714667Y-38601984D01*
X102760891Y-38549590D01*
X102826997Y-38530500D01*
X104631282Y-38530500D01*
X104698321Y-38550185D01*
X104744076Y-38602989D01*
X104754020Y-38672147D01*
X104724995Y-38735703D01*
X104667278Y-38773160D01*
X104596046Y-38794768D01*
X104596043Y-38794769D01*
X104502152Y-38844956D01*
X104413550Y-38892315D01*
X104413548Y-38892316D01*
X104413547Y-38892317D01*
X104253589Y-39023589D01*
X104122317Y-39183547D01*
X104122315Y-39183550D01*
X104122164Y-39183833D01*
X104024769Y-39366043D01*
X103964699Y-39564067D01*
X103944417Y-39770000D01*
X103964699Y-39975932D01*
X103964700Y-39975934D01*
X104024768Y-40173954D01*
X104122315Y-40356450D01*
X104122317Y-40356452D01*
X104253589Y-40516410D01*
X104350209Y-40595702D01*
X104413550Y-40647685D01*
X104596046Y-40745232D01*
X104794066Y-40805300D01*
X104794065Y-40805300D01*
X104812529Y-40807118D01*
X105000000Y-40825583D01*
X105205934Y-40805300D01*
X105403954Y-40745232D01*
X105586450Y-40647685D01*
X105746410Y-40516410D01*
X105877685Y-40356450D01*
X105975232Y-40173954D01*
X106035300Y-39975934D01*
X106055583Y-39770000D01*
X106035300Y-39564066D01*
X105975232Y-39366046D01*
X105877685Y-39183550D01*
X105746701Y-39023944D01*
X105746410Y-39023589D01*
X105606212Y-38908533D01*
X105586450Y-38892315D01*
X105403954Y-38794768D01*
X105332721Y-38773160D01*
X105274284Y-38734863D01*
X105245828Y-38671051D01*
X105256388Y-38601984D01*
X105302612Y-38549591D01*
X105368718Y-38530500D01*
X108639138Y-38530500D01*
X108706177Y-38550185D01*
X108726819Y-38566819D01*
X108784378Y-38624378D01*
X108817863Y-38685701D01*
X108813243Y-38750292D01*
X108814226Y-38750581D01*
X108812900Y-38755095D01*
X108812879Y-38755393D01*
X108812608Y-38756088D01*
X108792824Y-38823464D01*
X108792482Y-38825844D01*
X108792148Y-38826574D01*
X108791886Y-38827780D01*
X108791623Y-38827722D01*
X108763447Y-38889395D01*
X108704663Y-38927161D01*
X108634794Y-38927150D01*
X108599934Y-38909435D01*
X108599881Y-38909528D01*
X108598158Y-38908533D01*
X108594258Y-38906551D01*
X108592841Y-38905464D01*
X108446762Y-38844956D01*
X108446760Y-38844955D01*
X108290001Y-38824318D01*
X108289999Y-38824318D01*
X108133239Y-38844955D01*
X108133237Y-38844956D01*
X107987160Y-38905463D01*
X107861718Y-39001718D01*
X107765463Y-39127160D01*
X107704956Y-39273237D01*
X107704955Y-39273239D01*
X107684318Y-39429998D01*
X107684318Y-39430001D01*
X107704955Y-39586760D01*
X107704956Y-39586762D01*
X107765464Y-39732841D01*
X107861718Y-39858282D01*
X107925371Y-39907125D01*
X107966573Y-39963552D01*
X107970728Y-40033298D01*
X107936515Y-40094219D01*
X107874798Y-40126971D01*
X107849884Y-40129500D01*
X107266257Y-40129500D01*
X107199218Y-40109815D01*
X107193900Y-40106075D01*
X107192836Y-40105461D01*
X107046765Y-40044957D01*
X107046760Y-40044955D01*
X106890001Y-40024318D01*
X106889999Y-40024318D01*
X106733239Y-40044955D01*
X106733237Y-40044956D01*
X106587160Y-40105463D01*
X106461718Y-40201718D01*
X106365463Y-40327160D01*
X106304956Y-40473237D01*
X106304955Y-40473239D01*
X106284318Y-40629998D01*
X106284318Y-40630001D01*
X106304955Y-40786760D01*
X106304956Y-40786762D01*
X106365464Y-40932841D01*
X106461718Y-41058282D01*
X106587159Y-41154536D01*
X106733238Y-41215044D01*
X106811619Y-41225363D01*
X106889999Y-41235682D01*
X106890000Y-41235682D01*
X106890001Y-41235682D01*
X106942254Y-41228802D01*
X107046762Y-41215044D01*
X107192841Y-41154536D01*
X107192845Y-41154532D01*
X107199876Y-41150474D01*
X107200882Y-41152216D01*
X107255932Y-41130931D01*
X107266257Y-41130500D01*
X108660500Y-41130500D01*
X108727539Y-41150185D01*
X108773294Y-41202989D01*
X108784500Y-41254500D01*
X108784500Y-45886135D01*
X108784720Y-45892856D01*
X108785691Y-45907669D01*
X108786351Y-45914376D01*
X108786281Y-45913839D01*
X108786283Y-45946138D01*
X108786352Y-45945612D01*
X108785691Y-45952326D01*
X108784720Y-45967143D01*
X108784500Y-45973864D01*
X108784500Y-46284138D01*
X108785090Y-46295144D01*
X108785090Y-46295145D01*
X108788511Y-46326961D01*
X108788513Y-46326970D01*
X108805076Y-46379865D01*
X108812471Y-46403482D01*
X108812473Y-46403486D01*
X108812474Y-46403488D01*
X108839887Y-46453691D01*
X108854739Y-46521964D01*
X108836536Y-46578309D01*
X108740190Y-46734200D01*
X108690163Y-46779918D01*
X104058328Y-49095835D01*
X104058327Y-49095836D01*
X103790000Y-49230000D01*
X103790000Y-49529999D01*
X103790000Y-58578638D01*
X103770315Y-58645677D01*
X103753681Y-58666319D01*
X103526819Y-58893181D01*
X103465496Y-58926666D01*
X103439138Y-58929500D01*
X99040862Y-58929500D01*
X98973823Y-58909815D01*
X98953181Y-58893181D01*
X98847201Y-58787201D01*
X98813716Y-58725878D01*
X98818700Y-58656186D01*
X98860572Y-58600253D01*
X98926036Y-58575836D01*
X98982338Y-58584960D01*
X98991766Y-58588865D01*
X98991769Y-58588867D01*
X98991772Y-58588867D01*
X98991773Y-58588868D01*
X99050247Y-58600499D01*
X99050250Y-58600500D01*
X99050252Y-58600500D01*
X100789750Y-58600500D01*
X100789751Y-58600499D01*
X100804568Y-58597552D01*
X100848229Y-58588868D01*
X100848229Y-58588867D01*
X100848231Y-58588867D01*
X100914552Y-58544552D01*
X100958867Y-58478231D01*
X100958867Y-58478229D01*
X100958868Y-58478229D01*
X100970499Y-58419752D01*
X100970500Y-58419750D01*
X100970500Y-57550000D01*
X101404919Y-57550000D01*
X101425191Y-57755834D01*
X101485233Y-57953766D01*
X101560975Y-58095469D01*
X101560976Y-58095469D01*
X101976922Y-57679523D01*
X102000507Y-57759844D01*
X102078239Y-57880798D01*
X102186900Y-57974952D01*
X102317685Y-58034680D01*
X102327466Y-58036086D01*
X101914528Y-58449023D01*
X102056233Y-58524766D01*
X102254165Y-58584808D01*
X102460000Y-58605080D01*
X102665834Y-58584808D01*
X102863764Y-58524766D01*
X103005470Y-58449022D01*
X102592534Y-58036086D01*
X102602315Y-58034680D01*
X102733100Y-57974952D01*
X102841761Y-57880798D01*
X102919493Y-57759844D01*
X102943076Y-57679523D01*
X103359022Y-58095469D01*
X103434766Y-57953764D01*
X103494808Y-57755834D01*
X103515080Y-57550000D01*
X103494808Y-57344165D01*
X103434766Y-57146233D01*
X103359023Y-57004528D01*
X102943076Y-57420475D01*
X102919493Y-57340156D01*
X102841761Y-57219202D01*
X102733100Y-57125048D01*
X102602315Y-57065320D01*
X102592533Y-57063913D01*
X103005469Y-56650976D01*
X103005469Y-56650975D01*
X102863766Y-56575233D01*
X102665834Y-56515191D01*
X102460000Y-56494919D01*
X102254166Y-56515191D01*
X102056234Y-56575234D01*
X101914529Y-56650975D01*
X101914529Y-56650976D01*
X102327466Y-57063913D01*
X102317685Y-57065320D01*
X102186900Y-57125048D01*
X102078239Y-57219202D01*
X102000507Y-57340156D01*
X101976923Y-57420476D01*
X101560976Y-57004529D01*
X101560975Y-57004529D01*
X101485234Y-57146234D01*
X101425191Y-57344166D01*
X101404919Y-57550000D01*
X100970500Y-57550000D01*
X100970500Y-56680249D01*
X100970499Y-56680247D01*
X100958868Y-56621770D01*
X100958867Y-56621769D01*
X100914552Y-56555447D01*
X100848230Y-56511132D01*
X100848229Y-56511131D01*
X100789752Y-56499500D01*
X100789748Y-56499500D01*
X99050252Y-56499500D01*
X99050247Y-56499500D01*
X98991770Y-56511131D01*
X98991769Y-56511132D01*
X98925448Y-56555447D01*
X98917601Y-56567191D01*
X98863988Y-56611995D01*
X98794663Y-56620701D01*
X98731636Y-56590545D01*
X98694918Y-56531102D01*
X98690500Y-56498298D01*
X98690500Y-56061701D01*
X98710185Y-55994662D01*
X98762989Y-55948907D01*
X98832147Y-55938963D01*
X98895703Y-55967988D01*
X98917602Y-55992811D01*
X98925446Y-56004551D01*
X98991769Y-56048867D01*
X98991770Y-56048868D01*
X99050247Y-56060499D01*
X99050250Y-56060500D01*
X99050252Y-56060500D01*
X100789750Y-56060500D01*
X100789751Y-56060499D01*
X100804568Y-56057552D01*
X100848229Y-56048868D01*
X100848229Y-56048867D01*
X100848231Y-56048867D01*
X100914552Y-56004552D01*
X100958867Y-55938231D01*
X100958867Y-55938229D01*
X100958868Y-55938229D01*
X100968921Y-55887685D01*
X100970500Y-55879748D01*
X100970500Y-55260000D01*
X101438590Y-55260000D01*
X101485233Y-55413766D01*
X101582728Y-55596166D01*
X101582732Y-55596173D01*
X101713944Y-55756055D01*
X101873826Y-55887267D01*
X101873833Y-55887271D01*
X102056233Y-55984766D01*
X102210000Y-56031410D01*
X102210000Y-55445501D01*
X102317685Y-55494680D01*
X102424237Y-55510000D01*
X102495763Y-55510000D01*
X102602315Y-55494680D01*
X102710000Y-55445501D01*
X102710000Y-56031410D01*
X102863766Y-55984766D01*
X103046166Y-55887271D01*
X103046173Y-55887267D01*
X103206055Y-55756055D01*
X103337267Y-55596173D01*
X103337271Y-55596166D01*
X103434766Y-55413766D01*
X103481410Y-55260000D01*
X102893686Y-55260000D01*
X102919493Y-55219844D01*
X102960000Y-55081889D01*
X102960000Y-54938111D01*
X102919493Y-54800156D01*
X102893686Y-54760000D01*
X103481410Y-54760000D01*
X103434766Y-54606233D01*
X103337271Y-54423833D01*
X103337267Y-54423826D01*
X103206055Y-54263944D01*
X103046173Y-54132732D01*
X103046166Y-54132728D01*
X102863763Y-54035232D01*
X102710000Y-53988587D01*
X102710000Y-54574498D01*
X102602315Y-54525320D01*
X102495763Y-54510000D01*
X102424237Y-54510000D01*
X102317685Y-54525320D01*
X102210000Y-54574498D01*
X102210000Y-53988587D01*
X102056236Y-54035232D01*
X101873833Y-54132728D01*
X101873826Y-54132732D01*
X101713944Y-54263944D01*
X101582732Y-54423826D01*
X101582728Y-54423833D01*
X101485233Y-54606233D01*
X101438590Y-54760000D01*
X102026314Y-54760000D01*
X102000507Y-54800156D01*
X101960000Y-54938111D01*
X101960000Y-55081889D01*
X102000507Y-55219844D01*
X102026314Y-55260000D01*
X101438590Y-55260000D01*
X100970500Y-55260000D01*
X100970500Y-54140252D01*
X100970500Y-54140249D01*
X100970499Y-54140247D01*
X100958868Y-54081770D01*
X100958867Y-54081769D01*
X100914552Y-54015447D01*
X100848230Y-53971132D01*
X100848229Y-53971131D01*
X100789752Y-53959500D01*
X100789748Y-53959500D01*
X99050252Y-53959500D01*
X99050247Y-53959500D01*
X98991770Y-53971131D01*
X98991769Y-53971132D01*
X98925448Y-54015447D01*
X98917601Y-54027191D01*
X98863988Y-54071995D01*
X98794663Y-54080701D01*
X98731636Y-54050545D01*
X98694918Y-53991102D01*
X98690500Y-53958298D01*
X98690500Y-53521701D01*
X98710185Y-53454662D01*
X98762989Y-53408907D01*
X98832147Y-53398963D01*
X98895703Y-53427988D01*
X98917602Y-53452811D01*
X98925446Y-53464551D01*
X98991769Y-53508867D01*
X98991770Y-53508868D01*
X99050247Y-53520499D01*
X99050250Y-53520500D01*
X99050252Y-53520500D01*
X100789750Y-53520500D01*
X100789751Y-53520499D01*
X100804568Y-53517552D01*
X100848229Y-53508868D01*
X100848229Y-53508867D01*
X100848231Y-53508867D01*
X100914552Y-53464552D01*
X100958867Y-53398231D01*
X100958867Y-53398229D01*
X100958868Y-53398229D01*
X100968921Y-53347685D01*
X100970500Y-53339748D01*
X100970500Y-52720000D01*
X101438590Y-52720000D01*
X101485233Y-52873766D01*
X101582728Y-53056166D01*
X101582732Y-53056173D01*
X101713944Y-53216055D01*
X101873826Y-53347267D01*
X101873833Y-53347271D01*
X102056233Y-53444766D01*
X102210000Y-53491410D01*
X102210000Y-52905501D01*
X102317685Y-52954680D01*
X102424237Y-52970000D01*
X102495763Y-52970000D01*
X102602315Y-52954680D01*
X102710000Y-52905501D01*
X102710000Y-53491410D01*
X102863766Y-53444766D01*
X103046166Y-53347271D01*
X103046173Y-53347267D01*
X103206055Y-53216055D01*
X103337267Y-53056173D01*
X103337271Y-53056166D01*
X103434766Y-52873766D01*
X103481410Y-52720000D01*
X102893686Y-52720000D01*
X102919493Y-52679844D01*
X102960000Y-52541889D01*
X102960000Y-52398111D01*
X102919493Y-52260156D01*
X102893686Y-52220000D01*
X103481410Y-52220000D01*
X103434766Y-52066233D01*
X103337271Y-51883833D01*
X103337267Y-51883826D01*
X103206055Y-51723944D01*
X103046173Y-51592732D01*
X103046166Y-51592728D01*
X102863763Y-51495232D01*
X102710000Y-51448587D01*
X102710000Y-52034498D01*
X102602315Y-51985320D01*
X102495763Y-51970000D01*
X102424237Y-51970000D01*
X102317685Y-51985320D01*
X102210000Y-52034498D01*
X102210000Y-51448587D01*
X102056236Y-51495232D01*
X101873833Y-51592728D01*
X101873826Y-51592732D01*
X101713944Y-51723944D01*
X101582732Y-51883826D01*
X101582728Y-51883833D01*
X101485233Y-52066233D01*
X101438590Y-52220000D01*
X102026314Y-52220000D01*
X102000507Y-52260156D01*
X101960000Y-52398111D01*
X101960000Y-52541889D01*
X102000507Y-52679844D01*
X102026314Y-52720000D01*
X101438590Y-52720000D01*
X100970500Y-52720000D01*
X100970500Y-51600252D01*
X100970500Y-51600249D01*
X100970499Y-51600247D01*
X100958868Y-51541770D01*
X100958867Y-51541769D01*
X100914552Y-51475447D01*
X100848230Y-51431132D01*
X100848229Y-51431131D01*
X100789752Y-51419500D01*
X100789748Y-51419500D01*
X99050252Y-51419500D01*
X99050247Y-51419500D01*
X98991770Y-51431131D01*
X98991769Y-51431132D01*
X98925448Y-51475447D01*
X98917601Y-51487191D01*
X98863988Y-51531995D01*
X98794663Y-51540701D01*
X98731636Y-51510545D01*
X98694918Y-51451102D01*
X98690500Y-51418298D01*
X98690500Y-50981701D01*
X98710185Y-50914662D01*
X98762989Y-50868907D01*
X98832147Y-50858963D01*
X98895703Y-50887988D01*
X98917602Y-50912811D01*
X98925446Y-50924551D01*
X98991769Y-50968867D01*
X98991770Y-50968868D01*
X99050247Y-50980499D01*
X99050250Y-50980500D01*
X99050252Y-50980500D01*
X100789750Y-50980500D01*
X100789751Y-50980499D01*
X100804568Y-50977552D01*
X100848229Y-50968868D01*
X100848229Y-50968867D01*
X100848231Y-50968867D01*
X100914552Y-50924552D01*
X100958867Y-50858231D01*
X100958867Y-50858229D01*
X100958868Y-50858229D01*
X100968921Y-50807685D01*
X100970500Y-50799748D01*
X100970500Y-50180000D01*
X101438590Y-50180000D01*
X101485233Y-50333766D01*
X101582728Y-50516166D01*
X101582732Y-50516173D01*
X101713944Y-50676055D01*
X101873826Y-50807267D01*
X101873833Y-50807271D01*
X102056233Y-50904766D01*
X102210000Y-50951410D01*
X102210000Y-50365501D01*
X102317685Y-50414680D01*
X102424237Y-50430000D01*
X102495763Y-50430000D01*
X102602315Y-50414680D01*
X102710000Y-50365501D01*
X102710000Y-50951410D01*
X102863766Y-50904766D01*
X103046166Y-50807271D01*
X103046173Y-50807267D01*
X103206055Y-50676055D01*
X103337267Y-50516173D01*
X103337271Y-50516166D01*
X103434766Y-50333766D01*
X103481410Y-50180000D01*
X102893686Y-50180000D01*
X102919493Y-50139844D01*
X102960000Y-50001889D01*
X102960000Y-49858111D01*
X102919493Y-49720156D01*
X102893686Y-49680000D01*
X103481410Y-49680000D01*
X103434766Y-49526233D01*
X103337271Y-49343833D01*
X103337267Y-49343826D01*
X103206055Y-49183944D01*
X103046173Y-49052732D01*
X103046166Y-49052728D01*
X102863763Y-48955232D01*
X102710000Y-48908587D01*
X102710000Y-49494498D01*
X102602315Y-49445320D01*
X102495763Y-49430000D01*
X102424237Y-49430000D01*
X102317685Y-49445320D01*
X102210000Y-49494498D01*
X102210000Y-48908587D01*
X102056236Y-48955232D01*
X101873833Y-49052728D01*
X101873826Y-49052732D01*
X101713944Y-49183944D01*
X101582732Y-49343826D01*
X101582728Y-49343833D01*
X101485233Y-49526233D01*
X101438590Y-49680000D01*
X102026314Y-49680000D01*
X102000507Y-49720156D01*
X101960000Y-49858111D01*
X101960000Y-50001889D01*
X102000507Y-50139844D01*
X102026314Y-50180000D01*
X101438590Y-50180000D01*
X100970500Y-50180000D01*
X100970500Y-49060252D01*
X100970500Y-49060249D01*
X100970499Y-49060247D01*
X100958868Y-49001770D01*
X100958867Y-49001769D01*
X100914552Y-48935447D01*
X100848230Y-48891132D01*
X100848229Y-48891131D01*
X100789752Y-48879500D01*
X100789748Y-48879500D01*
X99050252Y-48879500D01*
X99050247Y-48879500D01*
X98991770Y-48891131D01*
X98991769Y-48891132D01*
X98925448Y-48935447D01*
X98917601Y-48947191D01*
X98863988Y-48991995D01*
X98794663Y-49000701D01*
X98731636Y-48970545D01*
X98694918Y-48911102D01*
X98690500Y-48878298D01*
X98690500Y-45901701D01*
X98710185Y-45834662D01*
X98762989Y-45788907D01*
X98832147Y-45778963D01*
X98895703Y-45807988D01*
X98917602Y-45832811D01*
X98925446Y-45844551D01*
X98991769Y-45888867D01*
X98991770Y-45888868D01*
X99050247Y-45900499D01*
X99050250Y-45900500D01*
X99050252Y-45900500D01*
X100789750Y-45900500D01*
X100789751Y-45900499D01*
X100804568Y-45897552D01*
X100848229Y-45888868D01*
X100848229Y-45888867D01*
X100848231Y-45888867D01*
X100914552Y-45844552D01*
X100958867Y-45778231D01*
X100958867Y-45778229D01*
X100958868Y-45778229D01*
X100968922Y-45727682D01*
X100970500Y-45719748D01*
X100970500Y-45100000D01*
X101438590Y-45100000D01*
X101485233Y-45253766D01*
X101582728Y-45436166D01*
X101582732Y-45436173D01*
X101713944Y-45596055D01*
X101873826Y-45727267D01*
X101873833Y-45727271D01*
X102056233Y-45824766D01*
X102210000Y-45871410D01*
X102210000Y-45285501D01*
X102317685Y-45334680D01*
X102424237Y-45350000D01*
X102495763Y-45350000D01*
X102602315Y-45334680D01*
X102710000Y-45285501D01*
X102710000Y-45871410D01*
X102863766Y-45824766D01*
X103046166Y-45727271D01*
X103046173Y-45727267D01*
X103206055Y-45596055D01*
X103337267Y-45436173D01*
X103337271Y-45436166D01*
X103434766Y-45253766D01*
X103481410Y-45100000D01*
X102893686Y-45100000D01*
X102919493Y-45059844D01*
X102960000Y-44921889D01*
X102960000Y-44850000D01*
X103944417Y-44850000D01*
X103964699Y-45055932D01*
X103964700Y-45055934D01*
X104024768Y-45253954D01*
X104122315Y-45436450D01*
X104122317Y-45436452D01*
X104253589Y-45596410D01*
X104322342Y-45652833D01*
X104413550Y-45727685D01*
X104596046Y-45825232D01*
X104794066Y-45885300D01*
X104794065Y-45885300D01*
X104812529Y-45887118D01*
X105000000Y-45905583D01*
X105205934Y-45885300D01*
X105403954Y-45825232D01*
X105586450Y-45727685D01*
X105746410Y-45596410D01*
X105877685Y-45436450D01*
X105975232Y-45253954D01*
X106035300Y-45055934D01*
X106055583Y-44850000D01*
X106035300Y-44644066D01*
X105975232Y-44446046D01*
X105877685Y-44263550D01*
X105825702Y-44200209D01*
X105746410Y-44103589D01*
X105596121Y-43980252D01*
X105586450Y-43972315D01*
X105403954Y-43874768D01*
X105205934Y-43814700D01*
X105205932Y-43814699D01*
X105205934Y-43814699D01*
X105000000Y-43794417D01*
X104794067Y-43814699D01*
X104596043Y-43874769D01*
X104510112Y-43920701D01*
X104413550Y-43972315D01*
X104413548Y-43972316D01*
X104413547Y-43972317D01*
X104253589Y-44103589D01*
X104122317Y-44263547D01*
X104122315Y-44263550D01*
X104122164Y-44263833D01*
X104024769Y-44446043D01*
X103964699Y-44644067D01*
X103944417Y-44850000D01*
X102960000Y-44850000D01*
X102960000Y-44778111D01*
X102919493Y-44640156D01*
X102893686Y-44600000D01*
X103481410Y-44600000D01*
X103434766Y-44446233D01*
X103337271Y-44263833D01*
X103337267Y-44263826D01*
X103206055Y-44103944D01*
X103046173Y-43972732D01*
X103046166Y-43972728D01*
X102863763Y-43875232D01*
X102710000Y-43828587D01*
X102710000Y-44414498D01*
X102602315Y-44365320D01*
X102495763Y-44350000D01*
X102424237Y-44350000D01*
X102317685Y-44365320D01*
X102210000Y-44414498D01*
X102210000Y-43828587D01*
X102056236Y-43875232D01*
X101873833Y-43972728D01*
X101873826Y-43972732D01*
X101713944Y-44103944D01*
X101582732Y-44263826D01*
X101582728Y-44263833D01*
X101485233Y-44446233D01*
X101438590Y-44600000D01*
X102026314Y-44600000D01*
X102000507Y-44640156D01*
X101960000Y-44778111D01*
X101960000Y-44921889D01*
X102000507Y-45059844D01*
X102026314Y-45100000D01*
X101438590Y-45100000D01*
X100970500Y-45100000D01*
X100970500Y-43980252D01*
X100970500Y-43980249D01*
X100970499Y-43980247D01*
X100958868Y-43921770D01*
X100958867Y-43921769D01*
X100914552Y-43855447D01*
X100848230Y-43811132D01*
X100848229Y-43811131D01*
X100789752Y-43799500D01*
X100789748Y-43799500D01*
X99050252Y-43799500D01*
X99050247Y-43799500D01*
X98991770Y-43811131D01*
X98991769Y-43811132D01*
X98925448Y-43855447D01*
X98917601Y-43867191D01*
X98863988Y-43911995D01*
X98794663Y-43920701D01*
X98731636Y-43890545D01*
X98694918Y-43831102D01*
X98690500Y-43798298D01*
X98690500Y-43361701D01*
X98710185Y-43294662D01*
X98762989Y-43248907D01*
X98832147Y-43238963D01*
X98895703Y-43267988D01*
X98917602Y-43292811D01*
X98925446Y-43304551D01*
X98991769Y-43348867D01*
X98991770Y-43348868D01*
X99050247Y-43360499D01*
X99050250Y-43360500D01*
X99050252Y-43360500D01*
X100789750Y-43360500D01*
X100789751Y-43360499D01*
X100804568Y-43357552D01*
X100848229Y-43348868D01*
X100848229Y-43348867D01*
X100848231Y-43348867D01*
X100914552Y-43304552D01*
X100958867Y-43238231D01*
X100958867Y-43238229D01*
X100958868Y-43238229D01*
X100968922Y-43187682D01*
X100970500Y-43179748D01*
X100970500Y-42560000D01*
X101438590Y-42560000D01*
X101485233Y-42713766D01*
X101582728Y-42896166D01*
X101582732Y-42896173D01*
X101713944Y-43056055D01*
X101873826Y-43187267D01*
X101873833Y-43187271D01*
X102056233Y-43284766D01*
X102210000Y-43331410D01*
X102210000Y-42745501D01*
X102317685Y-42794680D01*
X102424237Y-42810000D01*
X102495763Y-42810000D01*
X102602315Y-42794680D01*
X102710000Y-42745501D01*
X102710000Y-43331410D01*
X102863766Y-43284766D01*
X103046166Y-43187271D01*
X103046173Y-43187267D01*
X103206055Y-43056055D01*
X103337267Y-42896173D01*
X103337271Y-42896166D01*
X103434766Y-42713766D01*
X103481410Y-42560000D01*
X102893686Y-42560000D01*
X102919493Y-42519844D01*
X102960000Y-42381889D01*
X102960000Y-42310000D01*
X103944417Y-42310000D01*
X103964699Y-42515932D01*
X103964700Y-42515934D01*
X104024768Y-42713954D01*
X104122315Y-42896450D01*
X104131578Y-42907737D01*
X104253589Y-43056410D01*
X104350209Y-43135702D01*
X104413550Y-43187685D01*
X104596046Y-43285232D01*
X104794066Y-43345300D01*
X104794065Y-43345300D01*
X104812529Y-43347118D01*
X105000000Y-43365583D01*
X105205934Y-43345300D01*
X105403954Y-43285232D01*
X105586450Y-43187685D01*
X105746410Y-43056410D01*
X105877685Y-42896450D01*
X105975232Y-42713954D01*
X106035300Y-42515934D01*
X106055583Y-42310000D01*
X106035300Y-42104066D01*
X105975232Y-41906046D01*
X105877685Y-41723550D01*
X105746701Y-41563944D01*
X105746410Y-41563589D01*
X105596121Y-41440252D01*
X105586450Y-41432315D01*
X105403954Y-41334768D01*
X105205934Y-41274700D01*
X105205932Y-41274699D01*
X105205934Y-41274699D01*
X105000000Y-41254417D01*
X104794067Y-41274699D01*
X104596043Y-41334769D01*
X104510112Y-41380701D01*
X104413550Y-41432315D01*
X104413548Y-41432316D01*
X104413547Y-41432317D01*
X104253589Y-41563589D01*
X104122317Y-41723547D01*
X104122315Y-41723550D01*
X104122164Y-41723833D01*
X104024769Y-41906043D01*
X103964699Y-42104067D01*
X103944417Y-42310000D01*
X102960000Y-42310000D01*
X102960000Y-42238111D01*
X102919493Y-42100156D01*
X102893686Y-42060000D01*
X103481410Y-42060000D01*
X103434766Y-41906233D01*
X103337271Y-41723833D01*
X103337267Y-41723826D01*
X103206055Y-41563944D01*
X103046173Y-41432732D01*
X103046166Y-41432728D01*
X102863763Y-41335232D01*
X102710000Y-41288587D01*
X102710000Y-41874498D01*
X102602315Y-41825320D01*
X102495763Y-41810000D01*
X102424237Y-41810000D01*
X102317685Y-41825320D01*
X102210000Y-41874498D01*
X102210000Y-41288587D01*
X102056236Y-41335232D01*
X101873833Y-41432728D01*
X101873826Y-41432732D01*
X101713944Y-41563944D01*
X101582732Y-41723826D01*
X101582728Y-41723833D01*
X101485233Y-41906233D01*
X101438590Y-42060000D01*
X102026314Y-42060000D01*
X102000507Y-42100156D01*
X101960000Y-42238111D01*
X101960000Y-42381889D01*
X102000507Y-42519844D01*
X102026314Y-42560000D01*
X101438590Y-42560000D01*
X100970500Y-42560000D01*
X100970500Y-41440252D01*
X100970500Y-41440249D01*
X100970499Y-41440247D01*
X100958868Y-41381770D01*
X100958867Y-41381769D01*
X100914552Y-41315447D01*
X100848230Y-41271132D01*
X100848229Y-41271131D01*
X100789752Y-41259500D01*
X100789748Y-41259500D01*
X99050252Y-41259500D01*
X99050247Y-41259500D01*
X98991770Y-41271131D01*
X98991769Y-41271132D01*
X98925448Y-41315447D01*
X98917601Y-41327191D01*
X98863988Y-41371995D01*
X98794663Y-41380701D01*
X98731636Y-41350545D01*
X98694918Y-41291102D01*
X98690500Y-41258298D01*
X98690500Y-40821701D01*
X98710185Y-40754662D01*
X98762989Y-40708907D01*
X98832147Y-40698963D01*
X98895703Y-40727988D01*
X98917602Y-40752811D01*
X98925446Y-40764551D01*
X98991769Y-40808867D01*
X98991770Y-40808868D01*
X99050247Y-40820499D01*
X99050250Y-40820500D01*
X99050252Y-40820500D01*
X100789750Y-40820500D01*
X100789751Y-40820499D01*
X100804568Y-40817552D01*
X100848229Y-40808868D01*
X100848229Y-40808867D01*
X100848231Y-40808867D01*
X100914552Y-40764552D01*
X100958867Y-40698231D01*
X100958867Y-40698229D01*
X100958868Y-40698229D01*
X100968922Y-40647682D01*
X100970500Y-40639748D01*
X100970500Y-38900252D01*
X100970500Y-38900249D01*
X100970499Y-38900247D01*
X100958868Y-38841770D01*
X100958867Y-38841769D01*
X100914551Y-38775446D01*
X100887844Y-38757601D01*
X100843040Y-38703989D01*
X100834333Y-38634664D01*
X100864488Y-38571636D01*
X100923932Y-38534918D01*
X100956736Y-38530500D01*
X102093003Y-38530500D01*
X102160042Y-38550185D01*
G37*
%TD.AperFunction*%
%TD*%
%TA.AperFunction,Conductor*%
%TO.N,+3V3*%
G36*
X136206177Y-38550185D02*
G01*
X136226819Y-38566819D01*
X136453181Y-38793181D01*
X136486666Y-38854504D01*
X136489500Y-38880862D01*
X136489500Y-58579138D01*
X136469815Y-58646177D01*
X136453181Y-58666819D01*
X136226819Y-58893181D01*
X136165496Y-58926666D01*
X136139138Y-58929500D01*
X125764057Y-58929500D01*
X125697018Y-58909815D01*
X125651263Y-58857011D01*
X125641319Y-58787853D01*
X125670344Y-58724297D01*
X125707759Y-58695016D01*
X125781292Y-58657550D01*
X125871000Y-58567842D01*
X125928596Y-58454804D01*
X125928596Y-58454802D01*
X125928597Y-58454801D01*
X125928597Y-58454800D01*
X125948442Y-58329503D01*
X125948442Y-58329496D01*
X125928597Y-58204199D01*
X125928597Y-58204198D01*
X125923488Y-58194172D01*
X125871000Y-58091158D01*
X125870996Y-58091154D01*
X125870995Y-58091152D01*
X125781297Y-58001454D01*
X125781294Y-58001452D01*
X125781292Y-58001450D01*
X125668254Y-57943854D01*
X125668253Y-57943853D01*
X125668250Y-57943852D01*
X125542953Y-57924008D01*
X125542947Y-57924008D01*
X125417649Y-57943852D01*
X125417648Y-57943852D01*
X125342287Y-57982251D01*
X125304608Y-58001450D01*
X125304607Y-58001451D01*
X125304602Y-58001454D01*
X125214904Y-58091152D01*
X125214901Y-58091157D01*
X125157302Y-58204198D01*
X125157302Y-58204199D01*
X125137458Y-58329496D01*
X125137458Y-58329503D01*
X125157302Y-58454800D01*
X125157302Y-58454801D01*
X125157304Y-58454804D01*
X125214900Y-58567842D01*
X125214902Y-58567844D01*
X125214904Y-58567847D01*
X125304602Y-58657545D01*
X125304604Y-58657546D01*
X125304608Y-58657550D01*
X125378139Y-58695016D01*
X125428934Y-58742990D01*
X125445729Y-58810811D01*
X125423191Y-58876946D01*
X125368476Y-58920397D01*
X125321843Y-58929500D01*
X104140862Y-58929500D01*
X104073823Y-58909815D01*
X104053181Y-58893181D01*
X103995622Y-58835622D01*
X103962137Y-58774299D01*
X103966756Y-58709708D01*
X103965774Y-58709420D01*
X103967099Y-58704905D01*
X103967121Y-58704607D01*
X103967392Y-58703907D01*
X103967488Y-58703577D01*
X103967490Y-58703575D01*
X103987175Y-58636536D01*
X103995500Y-58578638D01*
X103995500Y-58328483D01*
X104015185Y-58261444D01*
X104067989Y-58215689D01*
X104137147Y-58205745D01*
X104200703Y-58234770D01*
X104215354Y-58249819D01*
X104253589Y-58296410D01*
X104293914Y-58329503D01*
X104413550Y-58427685D01*
X104596046Y-58525232D01*
X104794066Y-58585300D01*
X104794065Y-58585300D01*
X104812529Y-58587118D01*
X105000000Y-58605583D01*
X105205934Y-58585300D01*
X105403954Y-58525232D01*
X105586450Y-58427685D01*
X105746410Y-58296410D01*
X105877685Y-58136450D01*
X105975232Y-57953954D01*
X106035300Y-57755934D01*
X106055583Y-57550000D01*
X106035300Y-57344066D01*
X105975232Y-57146046D01*
X105877685Y-56963550D01*
X105816926Y-56889515D01*
X105746410Y-56803589D01*
X105626890Y-56705503D01*
X109332886Y-56705503D01*
X109352730Y-56830800D01*
X109352730Y-56830801D01*
X109356201Y-56837613D01*
X109410328Y-56943842D01*
X109410330Y-56943844D01*
X109410332Y-56943847D01*
X109500030Y-57033545D01*
X109500032Y-57033546D01*
X109500036Y-57033550D01*
X109613074Y-57091146D01*
X109613075Y-57091146D01*
X109613077Y-57091147D01*
X109738375Y-57110992D01*
X109738378Y-57110992D01*
X109738381Y-57110992D01*
X109863678Y-57091147D01*
X109863680Y-57091146D01*
X109863682Y-57091146D01*
X109976720Y-57033550D01*
X109976722Y-57033547D01*
X109979573Y-57032095D01*
X110048242Y-57019198D01*
X110112983Y-57045474D01*
X110153240Y-57102579D01*
X110156233Y-57172385D01*
X110154435Y-57178673D01*
X110134508Y-57304496D01*
X110134508Y-57304503D01*
X110154352Y-57429800D01*
X110154352Y-57429801D01*
X110154354Y-57429804D01*
X110211950Y-57542842D01*
X110211952Y-57542844D01*
X110211954Y-57542847D01*
X110301652Y-57632545D01*
X110301654Y-57632546D01*
X110301658Y-57632550D01*
X110414696Y-57690146D01*
X110414697Y-57690146D01*
X110414699Y-57690147D01*
X110539997Y-57709992D01*
X110540000Y-57709992D01*
X110540003Y-57709992D01*
X110665300Y-57690147D01*
X110665301Y-57690147D01*
X110665302Y-57690146D01*
X110665304Y-57690146D01*
X110778342Y-57632550D01*
X110868050Y-57542842D01*
X110925646Y-57429804D01*
X110925646Y-57429802D01*
X110925647Y-57429801D01*
X110925647Y-57429800D01*
X110938031Y-57351608D01*
X128740014Y-57351608D01*
X128759858Y-57476905D01*
X128759858Y-57476906D01*
X128760605Y-57478372D01*
X128817456Y-57589947D01*
X128817458Y-57589949D01*
X128817460Y-57589952D01*
X128907158Y-57679650D01*
X128907160Y-57679651D01*
X128907164Y-57679655D01*
X129020202Y-57737251D01*
X129020203Y-57737251D01*
X129020205Y-57737252D01*
X129145503Y-57757097D01*
X129145506Y-57757097D01*
X129145509Y-57757097D01*
X129270806Y-57737252D01*
X129270807Y-57737252D01*
X129270808Y-57737251D01*
X129270810Y-57737251D01*
X129383848Y-57679655D01*
X129473556Y-57589947D01*
X129531152Y-57476909D01*
X129531152Y-57476907D01*
X129531153Y-57476906D01*
X129531153Y-57476905D01*
X129550998Y-57351608D01*
X129550998Y-57351601D01*
X129531153Y-57226304D01*
X129531153Y-57226303D01*
X129507152Y-57179199D01*
X129473556Y-57113263D01*
X129473552Y-57113259D01*
X129473551Y-57113257D01*
X129383853Y-57023559D01*
X129383850Y-57023557D01*
X129383848Y-57023555D01*
X129270810Y-56965959D01*
X129270809Y-56965958D01*
X129270806Y-56965957D01*
X129145509Y-56946113D01*
X129145503Y-56946113D01*
X129020205Y-56965957D01*
X129020204Y-56965957D01*
X128944843Y-57004356D01*
X128907164Y-57023555D01*
X128907163Y-57023556D01*
X128907158Y-57023559D01*
X128817460Y-57113257D01*
X128817457Y-57113262D01*
X128759858Y-57226303D01*
X128759858Y-57226304D01*
X128740014Y-57351601D01*
X128740014Y-57351608D01*
X110938031Y-57351608D01*
X110945492Y-57304503D01*
X110945492Y-57304496D01*
X110925647Y-57179199D01*
X110925647Y-57179198D01*
X110925646Y-57179196D01*
X110868050Y-57066158D01*
X110868046Y-57066154D01*
X110868045Y-57066152D01*
X110778347Y-56976454D01*
X110778344Y-56976452D01*
X110778342Y-56976450D01*
X110665304Y-56918854D01*
X110665303Y-56918853D01*
X110665300Y-56918852D01*
X110540003Y-56899008D01*
X110539997Y-56899008D01*
X110414699Y-56918852D01*
X110414698Y-56918852D01*
X110361197Y-56946113D01*
X110301658Y-56976450D01*
X110301657Y-56976450D01*
X110298803Y-56977905D01*
X110230134Y-56990801D01*
X110165393Y-56964525D01*
X110125136Y-56907418D01*
X110122144Y-56837613D01*
X110123942Y-56831320D01*
X110124025Y-56830800D01*
X110140801Y-56724877D01*
X110143870Y-56705503D01*
X110143870Y-56705496D01*
X110124025Y-56580199D01*
X110124025Y-56580198D01*
X110112985Y-56558531D01*
X110066428Y-56467158D01*
X110066424Y-56467154D01*
X110066423Y-56467152D01*
X109976725Y-56377454D01*
X109976722Y-56377452D01*
X109976720Y-56377450D01*
X109863682Y-56319854D01*
X109863681Y-56319853D01*
X109863678Y-56319852D01*
X109738381Y-56300008D01*
X109738375Y-56300008D01*
X109613077Y-56319852D01*
X109613076Y-56319852D01*
X109545007Y-56354536D01*
X109500036Y-56377450D01*
X109500035Y-56377451D01*
X109500030Y-56377454D01*
X109410332Y-56467152D01*
X109410329Y-56467157D01*
X109352730Y-56580198D01*
X109352730Y-56580199D01*
X109332886Y-56705496D01*
X109332886Y-56705503D01*
X105626890Y-56705503D01*
X105586452Y-56672317D01*
X105586453Y-56672317D01*
X105586450Y-56672315D01*
X105403954Y-56574768D01*
X105205934Y-56514700D01*
X105205932Y-56514699D01*
X105205934Y-56514699D01*
X105000000Y-56494417D01*
X104794067Y-56514699D01*
X104596043Y-56574769D01*
X104485898Y-56633643D01*
X104413550Y-56672315D01*
X104413548Y-56672316D01*
X104413547Y-56672317D01*
X104253589Y-56803590D01*
X104215353Y-56850181D01*
X104157607Y-56889515D01*
X104087763Y-56891386D01*
X104027994Y-56855198D01*
X103997279Y-56792442D01*
X103995500Y-56771516D01*
X103995500Y-56130000D01*
X116690000Y-56130000D01*
X116890000Y-56330000D01*
X117290000Y-56330000D01*
X117328526Y-56291473D01*
X117389847Y-56257989D01*
X117459539Y-56262973D01*
X117472499Y-56268669D01*
X117564696Y-56315646D01*
X117564697Y-56315646D01*
X117564699Y-56315647D01*
X117689997Y-56335492D01*
X117690000Y-56335492D01*
X117690003Y-56335492D01*
X117815300Y-56315647D01*
X117815301Y-56315647D01*
X117815302Y-56315646D01*
X117815304Y-56315646D01*
X117928342Y-56258050D01*
X118018050Y-56168342D01*
X118075646Y-56055304D01*
X118075646Y-56055302D01*
X118075647Y-56055301D01*
X118075647Y-56055300D01*
X118095492Y-55930003D01*
X118095492Y-55929996D01*
X118075647Y-55804699D01*
X118075647Y-55804698D01*
X118062180Y-55778268D01*
X118018050Y-55691658D01*
X118018046Y-55691654D01*
X118018045Y-55691652D01*
X117928347Y-55601954D01*
X117928344Y-55601952D01*
X117928342Y-55601950D01*
X117815304Y-55544354D01*
X117815303Y-55544353D01*
X117815300Y-55544352D01*
X117690003Y-55524508D01*
X117689997Y-55524508D01*
X117564699Y-55544352D01*
X117564695Y-55544353D01*
X117472500Y-55591329D01*
X117403831Y-55604225D01*
X117339090Y-55577948D01*
X117328525Y-55568525D01*
X117290000Y-55530000D01*
X116890000Y-55530000D01*
X116889999Y-55530000D01*
X116690000Y-55729999D01*
X116690000Y-55730000D01*
X116690000Y-56130000D01*
X103995500Y-56130000D01*
X103995500Y-55788483D01*
X104015185Y-55721444D01*
X104067989Y-55675689D01*
X104137147Y-55665745D01*
X104200703Y-55694770D01*
X104215354Y-55709819D01*
X104253589Y-55756410D01*
X104343258Y-55829998D01*
X104413550Y-55887685D01*
X104596046Y-55985232D01*
X104794066Y-56045300D01*
X104794065Y-56045300D01*
X104812529Y-56047118D01*
X105000000Y-56065583D01*
X105205934Y-56045300D01*
X105403954Y-55985232D01*
X105586450Y-55887685D01*
X105746410Y-55756410D01*
X105877685Y-55596450D01*
X105975232Y-55413954D01*
X105993873Y-55352503D01*
X109062008Y-55352503D01*
X109081852Y-55477800D01*
X109081852Y-55477801D01*
X109083711Y-55481449D01*
X109139450Y-55590842D01*
X109139452Y-55590844D01*
X109139454Y-55590847D01*
X109229152Y-55680545D01*
X109229154Y-55680546D01*
X109229158Y-55680550D01*
X109342196Y-55738146D01*
X109342197Y-55738146D01*
X109342199Y-55738147D01*
X109467497Y-55757992D01*
X109467500Y-55757992D01*
X109467503Y-55757992D01*
X109592800Y-55738147D01*
X109592801Y-55738147D01*
X109592802Y-55738146D01*
X109592804Y-55738146D01*
X109705842Y-55680550D01*
X109795550Y-55590842D01*
X109853146Y-55477804D01*
X109853146Y-55477802D01*
X109853147Y-55477801D01*
X109853147Y-55477800D01*
X109872992Y-55352503D01*
X109872992Y-55352496D01*
X109853147Y-55227199D01*
X109853147Y-55227198D01*
X109830538Y-55182826D01*
X109829100Y-55180003D01*
X119234008Y-55180003D01*
X119253852Y-55305300D01*
X119253852Y-55305301D01*
X119255737Y-55309000D01*
X119311450Y-55418342D01*
X119311452Y-55418344D01*
X119311454Y-55418347D01*
X119401152Y-55508045D01*
X119401154Y-55508046D01*
X119401158Y-55508050D01*
X119514196Y-55565646D01*
X119514201Y-55565646D01*
X119520333Y-55567640D01*
X119578007Y-55607078D01*
X119604485Y-55666172D01*
X119622238Y-55778265D01*
X119635706Y-55804696D01*
X119679836Y-55891306D01*
X119679838Y-55891308D01*
X119679840Y-55891311D01*
X119769538Y-55981009D01*
X119769540Y-55981010D01*
X119769544Y-55981014D01*
X119882582Y-56038610D01*
X119882583Y-56038610D01*
X119882585Y-56038611D01*
X120007883Y-56058456D01*
X120007886Y-56058456D01*
X120007889Y-56058456D01*
X120133186Y-56038611D01*
X120133187Y-56038611D01*
X120133188Y-56038610D01*
X120133190Y-56038610D01*
X120246228Y-55981014D01*
X120335936Y-55891306D01*
X120393532Y-55778268D01*
X120393532Y-55778266D01*
X120393533Y-55778265D01*
X120393533Y-55778264D01*
X120413378Y-55652967D01*
X120413378Y-55652960D01*
X120393533Y-55527663D01*
X120393533Y-55527662D01*
X120383539Y-55508048D01*
X120335936Y-55414622D01*
X120335932Y-55414618D01*
X120335931Y-55414616D01*
X120246233Y-55324918D01*
X120246230Y-55324916D01*
X120246228Y-55324914D01*
X120133190Y-55267318D01*
X120133189Y-55267317D01*
X120133184Y-55267315D01*
X120127050Y-55265322D01*
X120069376Y-55225883D01*
X120042900Y-55166790D01*
X120025147Y-55054699D01*
X120025147Y-55054698D01*
X120022100Y-55048718D01*
X119967550Y-54941658D01*
X119967546Y-54941654D01*
X119967545Y-54941652D01*
X119877847Y-54851954D01*
X119877844Y-54851952D01*
X119877842Y-54851950D01*
X119764804Y-54794354D01*
X119764803Y-54794353D01*
X119764800Y-54794352D01*
X119639503Y-54774508D01*
X119639497Y-54774508D01*
X119514199Y-54794352D01*
X119514198Y-54794352D01*
X119467107Y-54818347D01*
X119401158Y-54851950D01*
X119401157Y-54851951D01*
X119401152Y-54851954D01*
X119311454Y-54941652D01*
X119311451Y-54941657D01*
X119311450Y-54941658D01*
X119299227Y-54965647D01*
X119253852Y-55054698D01*
X119253852Y-55054699D01*
X119234008Y-55179996D01*
X119234008Y-55180003D01*
X109829100Y-55180003D01*
X109795550Y-55114158D01*
X109795546Y-55114154D01*
X109795545Y-55114152D01*
X109705847Y-55024454D01*
X109705844Y-55024452D01*
X109705842Y-55024450D01*
X109592804Y-54966854D01*
X109592803Y-54966853D01*
X109592800Y-54966852D01*
X109467503Y-54947008D01*
X109467497Y-54947008D01*
X109342199Y-54966852D01*
X109342198Y-54966852D01*
X109266837Y-55005251D01*
X109229158Y-55024450D01*
X109229157Y-55024451D01*
X109229152Y-55024454D01*
X109139454Y-55114152D01*
X109139451Y-55114157D01*
X109139450Y-55114158D01*
X109121750Y-55148897D01*
X109081852Y-55227198D01*
X109081852Y-55227199D01*
X109062008Y-55352496D01*
X109062008Y-55352503D01*
X105993873Y-55352503D01*
X106035300Y-55215934D01*
X106055583Y-55010000D01*
X106035300Y-54804066D01*
X105975232Y-54606046D01*
X105877685Y-54423550D01*
X105811871Y-54343355D01*
X105800914Y-54330003D01*
X113284508Y-54330003D01*
X113304352Y-54455300D01*
X113304352Y-54455301D01*
X113314706Y-54475621D01*
X113361950Y-54568342D01*
X113361952Y-54568344D01*
X113361954Y-54568347D01*
X113451652Y-54658045D01*
X113451654Y-54658046D01*
X113451658Y-54658050D01*
X113564696Y-54715646D01*
X113686767Y-54734979D01*
X113749898Y-54764907D01*
X113777577Y-54807304D01*
X113779526Y-54806311D01*
X113783955Y-54815004D01*
X113783956Y-54815006D01*
X113841552Y-54928044D01*
X113841554Y-54928046D01*
X113841556Y-54928049D01*
X113931254Y-55017747D01*
X113931256Y-55017748D01*
X113931260Y-55017752D01*
X114044298Y-55075348D01*
X114044299Y-55075348D01*
X114044301Y-55075349D01*
X114169599Y-55095194D01*
X114169602Y-55095194D01*
X114169605Y-55095194D01*
X114294902Y-55075349D01*
X114294903Y-55075349D01*
X114294904Y-55075348D01*
X114294906Y-55075348D01*
X114407944Y-55017752D01*
X114497652Y-54928044D01*
X114555248Y-54815006D01*
X114555248Y-54815004D01*
X114555249Y-54815003D01*
X114555249Y-54815002D01*
X114575094Y-54689705D01*
X114575094Y-54689698D01*
X114555249Y-54564401D01*
X114555249Y-54564400D01*
X114550205Y-54554500D01*
X114497652Y-54451360D01*
X114497648Y-54451356D01*
X114497647Y-54451354D01*
X114407949Y-54361656D01*
X114407946Y-54361654D01*
X114407944Y-54361652D01*
X114294906Y-54304056D01*
X114294905Y-54304055D01*
X114294902Y-54304054D01*
X114172838Y-54284722D01*
X114109703Y-54254793D01*
X114082027Y-54212397D01*
X114080076Y-54213392D01*
X114075646Y-54204698D01*
X114075646Y-54204696D01*
X114018050Y-54091658D01*
X114018046Y-54091654D01*
X114018045Y-54091652D01*
X113928347Y-54001954D01*
X113928344Y-54001952D01*
X113928342Y-54001950D01*
X113815304Y-53944354D01*
X113815303Y-53944353D01*
X113815300Y-53944352D01*
X113690003Y-53924508D01*
X113689997Y-53924508D01*
X113564699Y-53944352D01*
X113564698Y-53944352D01*
X113496880Y-53978908D01*
X113451658Y-54001950D01*
X113451657Y-54001951D01*
X113451652Y-54001954D01*
X113361954Y-54091652D01*
X113361951Y-54091657D01*
X113361950Y-54091658D01*
X113351599Y-54111973D01*
X113304352Y-54204698D01*
X113304352Y-54204699D01*
X113284508Y-54329996D01*
X113284508Y-54330003D01*
X105800914Y-54330003D01*
X105746410Y-54263589D01*
X105596562Y-54140614D01*
X105586450Y-54132315D01*
X105403954Y-54034768D01*
X105205934Y-53974700D01*
X105205932Y-53974699D01*
X105205934Y-53974699D01*
X105000000Y-53954417D01*
X104794067Y-53974699D01*
X104596043Y-54034769D01*
X104489624Y-54091652D01*
X104413550Y-54132315D01*
X104413548Y-54132316D01*
X104413547Y-54132317D01*
X104253589Y-54263590D01*
X104215353Y-54310181D01*
X104157607Y-54349515D01*
X104087763Y-54351386D01*
X104027994Y-54315198D01*
X103997279Y-54252442D01*
X103995500Y-54231516D01*
X103995500Y-53830003D01*
X110984508Y-53830003D01*
X111004352Y-53955300D01*
X111004352Y-53955301D01*
X111009385Y-53965178D01*
X111061950Y-54068342D01*
X111061952Y-54068344D01*
X111061954Y-54068347D01*
X111151652Y-54158045D01*
X111151654Y-54158046D01*
X111151658Y-54158050D01*
X111264696Y-54215646D01*
X111264697Y-54215646D01*
X111264699Y-54215647D01*
X111389997Y-54235492D01*
X111390000Y-54235492D01*
X111390003Y-54235492D01*
X111515300Y-54215647D01*
X111515301Y-54215647D01*
X111515302Y-54215646D01*
X111515304Y-54215646D01*
X111628342Y-54158050D01*
X111639384Y-54147007D01*
X111700705Y-54113523D01*
X111770396Y-54118505D01*
X111783353Y-54124199D01*
X111864696Y-54165646D01*
X111864697Y-54165646D01*
X111864699Y-54165647D01*
X111989997Y-54185492D01*
X111990000Y-54185492D01*
X111990003Y-54185492D01*
X112115300Y-54165647D01*
X112115301Y-54165647D01*
X112115302Y-54165646D01*
X112115304Y-54165646D01*
X112228342Y-54108050D01*
X112318050Y-54018342D01*
X112375646Y-53905304D01*
X112375646Y-53905302D01*
X112375647Y-53905301D01*
X112375647Y-53905300D01*
X112395492Y-53780003D01*
X112395492Y-53779996D01*
X112375647Y-53654699D01*
X112375647Y-53654698D01*
X112375646Y-53654696D01*
X112318050Y-53541658D01*
X112318046Y-53541654D01*
X112318045Y-53541652D01*
X112305896Y-53529503D01*
X117384508Y-53529503D01*
X117404352Y-53654800D01*
X117404352Y-53654801D01*
X117420891Y-53687260D01*
X117461950Y-53767842D01*
X117461952Y-53767844D01*
X117461954Y-53767847D01*
X117551652Y-53857545D01*
X117551656Y-53857548D01*
X117551658Y-53857550D01*
X117664696Y-53915146D01*
X117664698Y-53915146D01*
X117667628Y-53916639D01*
X117718424Y-53964614D01*
X117733806Y-54007726D01*
X117754852Y-54140611D01*
X117763738Y-54158050D01*
X117812450Y-54253652D01*
X117812452Y-54253654D01*
X117812454Y-54253657D01*
X117902152Y-54343355D01*
X117902154Y-54343356D01*
X117902158Y-54343360D01*
X118015196Y-54400956D01*
X118015197Y-54400956D01*
X118015199Y-54400957D01*
X118140497Y-54420802D01*
X118140500Y-54420802D01*
X118140503Y-54420802D01*
X118265800Y-54400957D01*
X118265801Y-54400957D01*
X118265802Y-54400956D01*
X118265804Y-54400956D01*
X118378842Y-54343360D01*
X118468550Y-54253652D01*
X118476894Y-54237277D01*
X120487208Y-54237277D01*
X120507052Y-54362574D01*
X120507052Y-54362575D01*
X120525505Y-54398791D01*
X120564650Y-54475616D01*
X120564652Y-54475618D01*
X120564654Y-54475621D01*
X120654352Y-54565319D01*
X120654354Y-54565320D01*
X120654358Y-54565324D01*
X120767396Y-54622920D01*
X120767397Y-54622920D01*
X120767399Y-54622921D01*
X120892697Y-54642766D01*
X120892700Y-54642766D01*
X120892703Y-54642766D01*
X121018000Y-54622921D01*
X121018001Y-54622921D01*
X121018002Y-54622920D01*
X121018004Y-54622920D01*
X121102233Y-54580003D01*
X122384508Y-54580003D01*
X122404352Y-54705300D01*
X122404352Y-54705301D01*
X122419474Y-54734978D01*
X122461950Y-54818342D01*
X122461952Y-54818344D01*
X122461954Y-54818347D01*
X122551652Y-54908045D01*
X122551654Y-54908046D01*
X122551658Y-54908050D01*
X122664696Y-54965646D01*
X122664697Y-54965646D01*
X122664699Y-54965647D01*
X122789997Y-54985492D01*
X122790000Y-54985492D01*
X122790003Y-54985492D01*
X122915300Y-54965647D01*
X122915301Y-54965647D01*
X122915302Y-54965646D01*
X122915304Y-54965646D01*
X123028342Y-54908050D01*
X123118050Y-54818342D01*
X123175646Y-54705304D01*
X123175646Y-54705302D01*
X123175647Y-54705301D01*
X123175647Y-54705300D01*
X123182739Y-54660522D01*
X125055370Y-54660522D01*
X125075214Y-54785819D01*
X125075214Y-54785820D01*
X125091785Y-54818342D01*
X125132812Y-54898861D01*
X125132814Y-54898863D01*
X125132816Y-54898866D01*
X125222513Y-54988563D01*
X125222516Y-54988565D01*
X125222520Y-54988569D01*
X125222524Y-54988571D01*
X125226056Y-54991137D01*
X125229322Y-54995372D01*
X125229420Y-54995470D01*
X125229407Y-54995482D01*
X125268725Y-55046464D01*
X125274709Y-55116077D01*
X125242107Y-55177874D01*
X125240877Y-55179122D01*
X125190000Y-55230000D01*
X125190000Y-55630000D01*
X125390000Y-55830000D01*
X125790000Y-55830000D01*
X125990000Y-55630000D01*
X125990000Y-55230000D01*
X125808718Y-55048718D01*
X125775233Y-54987395D01*
X125780217Y-54917703D01*
X125785915Y-54904741D01*
X125788910Y-54898862D01*
X125788912Y-54898861D01*
X125846508Y-54785823D01*
X125846508Y-54785821D01*
X125846509Y-54785819D01*
X125866354Y-54660522D01*
X125866354Y-54660515D01*
X125846509Y-54535218D01*
X125846509Y-54535217D01*
X125846508Y-54535215D01*
X125788912Y-54422177D01*
X125788908Y-54422173D01*
X125788907Y-54422171D01*
X125699209Y-54332473D01*
X125699206Y-54332471D01*
X125699204Y-54332469D01*
X125586166Y-54274873D01*
X125586165Y-54274872D01*
X125586162Y-54274871D01*
X125460865Y-54255027D01*
X125460859Y-54255027D01*
X125335561Y-54274871D01*
X125335560Y-54274871D01*
X125278287Y-54304054D01*
X125222520Y-54332469D01*
X125222519Y-54332470D01*
X125222514Y-54332473D01*
X125132816Y-54422171D01*
X125132813Y-54422176D01*
X125132812Y-54422177D01*
X125116243Y-54454696D01*
X125075214Y-54535217D01*
X125075214Y-54535218D01*
X125055370Y-54660515D01*
X125055370Y-54660522D01*
X123182739Y-54660522D01*
X123195492Y-54580003D01*
X123195492Y-54579996D01*
X123175647Y-54454699D01*
X123175647Y-54454698D01*
X123159776Y-54423550D01*
X123118050Y-54341658D01*
X123118046Y-54341654D01*
X123118045Y-54341652D01*
X123028347Y-54251954D01*
X123028344Y-54251952D01*
X123028342Y-54251950D01*
X122915304Y-54194354D01*
X122915303Y-54194353D01*
X122915300Y-54194352D01*
X122790003Y-54174508D01*
X122789997Y-54174508D01*
X122664699Y-54194352D01*
X122664698Y-54194352D01*
X122595363Y-54229681D01*
X122551658Y-54251950D01*
X122551657Y-54251951D01*
X122551652Y-54251954D01*
X122461954Y-54341652D01*
X122461951Y-54341657D01*
X122461950Y-54341658D01*
X122451293Y-54362574D01*
X122404352Y-54454698D01*
X122404352Y-54454699D01*
X122384508Y-54579996D01*
X122384508Y-54580003D01*
X121102233Y-54580003D01*
X121131042Y-54565324D01*
X121220750Y-54475616D01*
X121278346Y-54362578D01*
X121278346Y-54362576D01*
X121278347Y-54362575D01*
X121278347Y-54362574D01*
X121298192Y-54237277D01*
X121298192Y-54237270D01*
X121278347Y-54111973D01*
X121278347Y-54111972D01*
X121257670Y-54071392D01*
X121220750Y-53998932D01*
X121220746Y-53998928D01*
X121220745Y-53998926D01*
X121131047Y-53909228D01*
X121131044Y-53909226D01*
X121131042Y-53909224D01*
X121018004Y-53851628D01*
X121018003Y-53851627D01*
X121018000Y-53851626D01*
X120892703Y-53831782D01*
X120892697Y-53831782D01*
X120767399Y-53851626D01*
X120767398Y-53851626D01*
X120692075Y-53890006D01*
X120654358Y-53909224D01*
X120654357Y-53909225D01*
X120654352Y-53909228D01*
X120564654Y-53998926D01*
X120564651Y-53998931D01*
X120564650Y-53998932D01*
X120554760Y-54018342D01*
X120507052Y-54111972D01*
X120507052Y-54111973D01*
X120487208Y-54237270D01*
X120487208Y-54237277D01*
X118476894Y-54237277D01*
X118526146Y-54140614D01*
X118526146Y-54140612D01*
X118526147Y-54140611D01*
X118526147Y-54140610D01*
X118545992Y-54015313D01*
X118545992Y-54015306D01*
X118526147Y-53890009D01*
X118526147Y-53890008D01*
X118526146Y-53890006D01*
X118468550Y-53776968D01*
X118468546Y-53776964D01*
X118468545Y-53776962D01*
X118378847Y-53687264D01*
X118378844Y-53687262D01*
X118378842Y-53687260D01*
X118265804Y-53629664D01*
X118265802Y-53629663D01*
X118262871Y-53628170D01*
X118212075Y-53580195D01*
X118196693Y-53537082D01*
X118175647Y-53404199D01*
X118175647Y-53404198D01*
X118157125Y-53367847D01*
X118118050Y-53291158D01*
X118118046Y-53291154D01*
X118118045Y-53291152D01*
X118028347Y-53201454D01*
X118028344Y-53201452D01*
X118028342Y-53201450D01*
X117915304Y-53143854D01*
X117915303Y-53143853D01*
X117915300Y-53143852D01*
X117824699Y-53129503D01*
X121734508Y-53129503D01*
X121754352Y-53254800D01*
X121754352Y-53254801D01*
X121754354Y-53254804D01*
X121811950Y-53367842D01*
X121811952Y-53367844D01*
X121811954Y-53367847D01*
X121901652Y-53457545D01*
X121901654Y-53457546D01*
X121901658Y-53457550D01*
X122014696Y-53515146D01*
X122014697Y-53515146D01*
X122014699Y-53515147D01*
X122139997Y-53534992D01*
X122140000Y-53534992D01*
X122140003Y-53534992D01*
X122265300Y-53515147D01*
X122265302Y-53515146D01*
X122265304Y-53515146D01*
X122368806Y-53462408D01*
X122437473Y-53449512D01*
X122502214Y-53475788D01*
X122535584Y-53516597D01*
X122561949Y-53568340D01*
X122561954Y-53568347D01*
X122651652Y-53658045D01*
X122651654Y-53658046D01*
X122651658Y-53658050D01*
X122764696Y-53715646D01*
X122764697Y-53715646D01*
X122764699Y-53715647D01*
X122889997Y-53735492D01*
X122890000Y-53735492D01*
X122890003Y-53735492D01*
X123015300Y-53715647D01*
X123015301Y-53715647D01*
X123015302Y-53715646D01*
X123015304Y-53715646D01*
X123128342Y-53658050D01*
X123218050Y-53568342D01*
X123275646Y-53455304D01*
X123275646Y-53455302D01*
X123275647Y-53455301D01*
X123275647Y-53455300D01*
X123295492Y-53330003D01*
X123295492Y-53329996D01*
X123275647Y-53204699D01*
X123275647Y-53204698D01*
X123244645Y-53143854D01*
X123218050Y-53091658D01*
X123218046Y-53091654D01*
X123218045Y-53091652D01*
X123128347Y-53001954D01*
X123128344Y-53001952D01*
X123128342Y-53001950D01*
X123015304Y-52944354D01*
X123015303Y-52944353D01*
X123015300Y-52944352D01*
X122890003Y-52924508D01*
X122889997Y-52924508D01*
X122764699Y-52944352D01*
X122764698Y-52944352D01*
X122661194Y-52997091D01*
X122592524Y-53009987D01*
X122527784Y-52983710D01*
X122494414Y-52942901D01*
X122468050Y-52891158D01*
X122468046Y-52891154D01*
X122468045Y-52891152D01*
X122378347Y-52801454D01*
X122378344Y-52801452D01*
X122378342Y-52801450D01*
X122265304Y-52743854D01*
X122265303Y-52743853D01*
X122265300Y-52743852D01*
X122140003Y-52724008D01*
X122139997Y-52724008D01*
X122014699Y-52743852D01*
X122014698Y-52743852D01*
X121948723Y-52777469D01*
X121901658Y-52801450D01*
X121901657Y-52801451D01*
X121901652Y-52801454D01*
X121811954Y-52891152D01*
X121811951Y-52891157D01*
X121754352Y-53004198D01*
X121754352Y-53004199D01*
X121734508Y-53129496D01*
X121734508Y-53129503D01*
X117824699Y-53129503D01*
X117790003Y-53124008D01*
X117789997Y-53124008D01*
X117664699Y-53143852D01*
X117664698Y-53143852D01*
X117602444Y-53175573D01*
X117551658Y-53201450D01*
X117551657Y-53201451D01*
X117551652Y-53201454D01*
X117461954Y-53291152D01*
X117461951Y-53291157D01*
X117461950Y-53291158D01*
X117448810Y-53316947D01*
X117404352Y-53404198D01*
X117404352Y-53404199D01*
X117384508Y-53529496D01*
X117384508Y-53529503D01*
X112305896Y-53529503D01*
X112228347Y-53451954D01*
X112228344Y-53451952D01*
X112228342Y-53451950D01*
X112115304Y-53394354D01*
X112115303Y-53394353D01*
X112115300Y-53394352D01*
X111990003Y-53374508D01*
X111989997Y-53374508D01*
X111864699Y-53394352D01*
X111864698Y-53394352D01*
X111789337Y-53432751D01*
X111751658Y-53451950D01*
X111751657Y-53451951D01*
X111751654Y-53451952D01*
X111740612Y-53462995D01*
X111679288Y-53496478D01*
X111609596Y-53491492D01*
X111596638Y-53485796D01*
X111541198Y-53457548D01*
X111515304Y-53444354D01*
X111515303Y-53444353D01*
X111515300Y-53444352D01*
X111390003Y-53424508D01*
X111389997Y-53424508D01*
X111264699Y-53444352D01*
X111264698Y-53444352D01*
X111189337Y-53482751D01*
X111151658Y-53501950D01*
X111151657Y-53501951D01*
X111151652Y-53501954D01*
X111061954Y-53591652D01*
X111061951Y-53591657D01*
X111004352Y-53704698D01*
X111004352Y-53704699D01*
X110984508Y-53829996D01*
X110984508Y-53830003D01*
X103995500Y-53830003D01*
X103995500Y-53248483D01*
X104015185Y-53181444D01*
X104067989Y-53135689D01*
X104137147Y-53125745D01*
X104200703Y-53154770D01*
X104215354Y-53169819D01*
X104253589Y-53216410D01*
X104344664Y-53291152D01*
X104413550Y-53347685D01*
X104596046Y-53445232D01*
X104794066Y-53505300D01*
X104794065Y-53505300D01*
X104812529Y-53507118D01*
X105000000Y-53525583D01*
X105205934Y-53505300D01*
X105403954Y-53445232D01*
X105586450Y-53347685D01*
X105746410Y-53216410D01*
X105877685Y-53056450D01*
X105975232Y-52873954D01*
X106018899Y-52730003D01*
X109084508Y-52730003D01*
X109104352Y-52855300D01*
X109104352Y-52855301D01*
X109122620Y-52891152D01*
X109161950Y-52968342D01*
X109161952Y-52968344D01*
X109161954Y-52968347D01*
X109251652Y-53058045D01*
X109251654Y-53058046D01*
X109251658Y-53058050D01*
X109364696Y-53115646D01*
X109364697Y-53115646D01*
X109364699Y-53115647D01*
X109489997Y-53135492D01*
X109490000Y-53135492D01*
X109490003Y-53135492D01*
X109615300Y-53115647D01*
X109615301Y-53115647D01*
X109615302Y-53115646D01*
X109615304Y-53115646D01*
X109728342Y-53058050D01*
X109818050Y-52968342D01*
X109875646Y-52855304D01*
X109875646Y-52855302D01*
X109875647Y-52855301D01*
X109875647Y-52855300D01*
X109895492Y-52730003D01*
X109895492Y-52729996D01*
X109875647Y-52604699D01*
X109875647Y-52604698D01*
X109869991Y-52593597D01*
X109818050Y-52491658D01*
X109818046Y-52491654D01*
X109818045Y-52491652D01*
X109728347Y-52401954D01*
X109728344Y-52401952D01*
X109728342Y-52401950D01*
X109615304Y-52344354D01*
X109615302Y-52344353D01*
X109607710Y-52340485D01*
X109556914Y-52292510D01*
X109540119Y-52224689D01*
X109562657Y-52158554D01*
X109607710Y-52119515D01*
X109615302Y-52115646D01*
X109615304Y-52115646D01*
X109728342Y-52058050D01*
X109818050Y-51968342D01*
X109875646Y-51855304D01*
X109875646Y-51855302D01*
X109875647Y-51855301D01*
X109875647Y-51855300D01*
X109895492Y-51730003D01*
X109895492Y-51729996D01*
X109879655Y-51630003D01*
X118284508Y-51630003D01*
X118304352Y-51755300D01*
X118304352Y-51755301D01*
X118322805Y-51791517D01*
X118361950Y-51868342D01*
X118361952Y-51868344D01*
X118361954Y-51868347D01*
X118451652Y-51958045D01*
X118451654Y-51958046D01*
X118451658Y-51958050D01*
X118564696Y-52015646D01*
X118564697Y-52015646D01*
X118564699Y-52015647D01*
X118689997Y-52035492D01*
X118690000Y-52035492D01*
X118690003Y-52035492D01*
X118815300Y-52015647D01*
X118815301Y-52015647D01*
X118815302Y-52015646D01*
X118815304Y-52015646D01*
X118928342Y-51958050D01*
X118952317Y-51934074D01*
X119013637Y-51900589D01*
X119083329Y-51905571D01*
X119127680Y-51934073D01*
X119154852Y-51961245D01*
X119154854Y-51961246D01*
X119154858Y-51961250D01*
X119267896Y-52018846D01*
X119267897Y-52018846D01*
X119267899Y-52018847D01*
X119393197Y-52038692D01*
X119393200Y-52038692D01*
X119393203Y-52038692D01*
X119518500Y-52018847D01*
X119518501Y-52018847D01*
X119518502Y-52018846D01*
X119518504Y-52018846D01*
X119631542Y-51961250D01*
X119721250Y-51871542D01*
X119778846Y-51758504D01*
X119778846Y-51758502D01*
X119778847Y-51758501D01*
X119778847Y-51758500D01*
X119798692Y-51633203D01*
X119798692Y-51633196D01*
X119778847Y-51507899D01*
X119778847Y-51507898D01*
X119777217Y-51504699D01*
X119721250Y-51394858D01*
X119721246Y-51394854D01*
X119721245Y-51394852D01*
X119631547Y-51305154D01*
X119631544Y-51305152D01*
X119631542Y-51305150D01*
X119518504Y-51247554D01*
X119518503Y-51247553D01*
X119518500Y-51247552D01*
X119393203Y-51227708D01*
X119393197Y-51227708D01*
X119267899Y-51247552D01*
X119267898Y-51247552D01*
X119192537Y-51285951D01*
X119154858Y-51305150D01*
X119154857Y-51305151D01*
X119154852Y-51305154D01*
X119130881Y-51329126D01*
X119069558Y-51362611D01*
X118999866Y-51357627D01*
X118955519Y-51329126D01*
X118928347Y-51301954D01*
X118928344Y-51301952D01*
X118928342Y-51301950D01*
X118815304Y-51244354D01*
X118815303Y-51244353D01*
X118815300Y-51244352D01*
X118690003Y-51224508D01*
X118689997Y-51224508D01*
X118564699Y-51244352D01*
X118564698Y-51244352D01*
X118489337Y-51282751D01*
X118451658Y-51301950D01*
X118451657Y-51301951D01*
X118451652Y-51301954D01*
X118361954Y-51391652D01*
X118361951Y-51391657D01*
X118361950Y-51391658D01*
X118356704Y-51401954D01*
X118304352Y-51504698D01*
X118304352Y-51504699D01*
X118284508Y-51629996D01*
X118284508Y-51630003D01*
X109879655Y-51630003D01*
X109875647Y-51604699D01*
X109875647Y-51604698D01*
X109875646Y-51604696D01*
X109818050Y-51491658D01*
X109818046Y-51491654D01*
X109818045Y-51491652D01*
X109728347Y-51401954D01*
X109728344Y-51401952D01*
X109728342Y-51401950D01*
X109615304Y-51344354D01*
X109615303Y-51344353D01*
X109615300Y-51344352D01*
X109490003Y-51324508D01*
X109489997Y-51324508D01*
X109364699Y-51344352D01*
X109364698Y-51344352D01*
X109293285Y-51380740D01*
X109251658Y-51401950D01*
X109251657Y-51401951D01*
X109251652Y-51401954D01*
X109161954Y-51491652D01*
X109161951Y-51491657D01*
X109161950Y-51491658D01*
X109153675Y-51507899D01*
X109104352Y-51604698D01*
X109104352Y-51604699D01*
X109084508Y-51729996D01*
X109084508Y-51730003D01*
X109104352Y-51855300D01*
X109104352Y-51855301D01*
X109118746Y-51883550D01*
X109161950Y-51968342D01*
X109161952Y-51968344D01*
X109161954Y-51968347D01*
X109251652Y-52058045D01*
X109251655Y-52058047D01*
X109251658Y-52058050D01*
X109304845Y-52085150D01*
X109372290Y-52119516D01*
X109423085Y-52167490D01*
X109439880Y-52235311D01*
X109417342Y-52301446D01*
X109372290Y-52340484D01*
X109251659Y-52401949D01*
X109251652Y-52401954D01*
X109161954Y-52491652D01*
X109161951Y-52491657D01*
X109104352Y-52604698D01*
X109104352Y-52604699D01*
X109084508Y-52729996D01*
X109084508Y-52730003D01*
X106018899Y-52730003D01*
X106035300Y-52675934D01*
X106055583Y-52470000D01*
X106035300Y-52264066D01*
X105975232Y-52066046D01*
X105877685Y-51883550D01*
X105803329Y-51792946D01*
X105746410Y-51723589D01*
X105586452Y-51592317D01*
X105586453Y-51592317D01*
X105586450Y-51592315D01*
X105403954Y-51494768D01*
X105205934Y-51434700D01*
X105205932Y-51434699D01*
X105205934Y-51434699D01*
X105000000Y-51414417D01*
X104794067Y-51434699D01*
X104618692Y-51487898D01*
X104606299Y-51491658D01*
X104596043Y-51494769D01*
X104557725Y-51515251D01*
X104413550Y-51592315D01*
X104413548Y-51592316D01*
X104413547Y-51592317D01*
X104253589Y-51723590D01*
X104215353Y-51770181D01*
X104157607Y-51809515D01*
X104087763Y-51811386D01*
X104027994Y-51775198D01*
X103997279Y-51712442D01*
X103995500Y-51691516D01*
X103995500Y-50708483D01*
X104015185Y-50641444D01*
X104067989Y-50595689D01*
X104137147Y-50585745D01*
X104200703Y-50614770D01*
X104215354Y-50629819D01*
X104253589Y-50676410D01*
X104300215Y-50714674D01*
X104413550Y-50807685D01*
X104596046Y-50905232D01*
X104794066Y-50965300D01*
X104794065Y-50965300D01*
X104812529Y-50967118D01*
X105000000Y-50985583D01*
X105205934Y-50965300D01*
X105403954Y-50905232D01*
X105586450Y-50807685D01*
X105746410Y-50676410D01*
X105877685Y-50516450D01*
X105975232Y-50333954D01*
X106014197Y-50205503D01*
X109084508Y-50205503D01*
X109104352Y-50330800D01*
X109104352Y-50330801D01*
X109104354Y-50330804D01*
X109161950Y-50443842D01*
X109161952Y-50443844D01*
X109161954Y-50443847D01*
X109251652Y-50533545D01*
X109251654Y-50533546D01*
X109251658Y-50533550D01*
X109364696Y-50591146D01*
X109364697Y-50591146D01*
X109364699Y-50591147D01*
X109489997Y-50610992D01*
X109490000Y-50610992D01*
X109490003Y-50610992D01*
X109615300Y-50591147D01*
X109615301Y-50591147D01*
X109615302Y-50591146D01*
X109615304Y-50591146D01*
X109728342Y-50533550D01*
X109818050Y-50443842D01*
X109875646Y-50330804D01*
X109875646Y-50330802D01*
X109875647Y-50330801D01*
X109875647Y-50330800D01*
X109895492Y-50205503D01*
X109895492Y-50205496D01*
X109875647Y-50080199D01*
X109875647Y-50080198D01*
X109869889Y-50068897D01*
X109818050Y-49967158D01*
X109818046Y-49967154D01*
X109818045Y-49967152D01*
X109728347Y-49877454D01*
X109728344Y-49877452D01*
X109728342Y-49877450D01*
X109615304Y-49819854D01*
X109615303Y-49819853D01*
X109615300Y-49819852D01*
X109490003Y-49800008D01*
X109489997Y-49800008D01*
X109364699Y-49819852D01*
X109364698Y-49819852D01*
X109289337Y-49858251D01*
X109251658Y-49877450D01*
X109251657Y-49877451D01*
X109251652Y-49877454D01*
X109161954Y-49967152D01*
X109161951Y-49967157D01*
X109104352Y-50080198D01*
X109104352Y-50080199D01*
X109084508Y-50205496D01*
X109084508Y-50205503D01*
X106014197Y-50205503D01*
X106035300Y-50135934D01*
X106055583Y-49930000D01*
X106035300Y-49724066D01*
X105975232Y-49526046D01*
X105877685Y-49343550D01*
X105825702Y-49280209D01*
X105746410Y-49183589D01*
X105586452Y-49052317D01*
X105586453Y-49052317D01*
X105586450Y-49052315D01*
X105403954Y-48954768D01*
X105325915Y-48931095D01*
X105267477Y-48892798D01*
X105239021Y-48828986D01*
X105249581Y-48759919D01*
X105295805Y-48707525D01*
X105306457Y-48701526D01*
X105649504Y-48530003D01*
X111184508Y-48530003D01*
X111204352Y-48655300D01*
X111204352Y-48655301D01*
X111204354Y-48655304D01*
X111261950Y-48768342D01*
X111261952Y-48768344D01*
X111261954Y-48768347D01*
X111351652Y-48858045D01*
X111351654Y-48858046D01*
X111351658Y-48858050D01*
X111464696Y-48915646D01*
X111464697Y-48915646D01*
X111464699Y-48915647D01*
X111589997Y-48935492D01*
X111590000Y-48935492D01*
X111590003Y-48935492D01*
X111715300Y-48915647D01*
X111715301Y-48915647D01*
X111715302Y-48915646D01*
X111715304Y-48915646D01*
X111828342Y-48858050D01*
X111918050Y-48768342D01*
X111975646Y-48655304D01*
X111975646Y-48655302D01*
X111975647Y-48655301D01*
X111975647Y-48655300D01*
X111995492Y-48530003D01*
X111995492Y-48529996D01*
X111975647Y-48404699D01*
X111975647Y-48404698D01*
X111969000Y-48391652D01*
X111918050Y-48291658D01*
X111918046Y-48291654D01*
X111918045Y-48291652D01*
X111828347Y-48201954D01*
X111828344Y-48201952D01*
X111828342Y-48201950D01*
X111715304Y-48144354D01*
X111715303Y-48144353D01*
X111715300Y-48144352D01*
X111590003Y-48124508D01*
X111589997Y-48124508D01*
X111464699Y-48144352D01*
X111464698Y-48144352D01*
X111417607Y-48168347D01*
X111351658Y-48201950D01*
X111351657Y-48201951D01*
X111351652Y-48201954D01*
X111261954Y-48291652D01*
X111261951Y-48291657D01*
X111261950Y-48291658D01*
X111256704Y-48301954D01*
X111204352Y-48404698D01*
X111204352Y-48404699D01*
X111184508Y-48529996D01*
X111184508Y-48530003D01*
X105649504Y-48530003D01*
X105926194Y-48391658D01*
X108782065Y-46963723D01*
X108788211Y-46959500D01*
X108828779Y-46931625D01*
X108828782Y-46931622D01*
X108828793Y-46931615D01*
X108878820Y-46885897D01*
X108914999Y-46842238D01*
X108947385Y-46789835D01*
X108999373Y-46743158D01*
X109068345Y-46731997D01*
X109130668Y-46758473D01*
X109145377Y-46770325D01*
X109145378Y-46770325D01*
X109145380Y-46770327D01*
X109152486Y-46774044D01*
X109216424Y-46807490D01*
X109283456Y-46827173D01*
X109283458Y-46827173D01*
X109283464Y-46827175D01*
X109341362Y-46835500D01*
X112465500Y-46835500D01*
X112532539Y-46855185D01*
X112578294Y-46907989D01*
X112589500Y-46959500D01*
X112589500Y-50813224D01*
X112587973Y-50832621D01*
X112584508Y-50854500D01*
X112589128Y-50883670D01*
X112589131Y-50883694D01*
X112604352Y-50979801D01*
X112612146Y-50995097D01*
X112661950Y-51092842D01*
X112661952Y-51092844D01*
X112661954Y-51092847D01*
X112751652Y-51182545D01*
X112751654Y-51182546D01*
X112751658Y-51182550D01*
X112864696Y-51240146D01*
X112864697Y-51240146D01*
X112864699Y-51240147D01*
X112989997Y-51259992D01*
X112990000Y-51259992D01*
X112990003Y-51259992D01*
X113115300Y-51240147D01*
X113115301Y-51240147D01*
X113115302Y-51240146D01*
X113115304Y-51240146D01*
X113228342Y-51182550D01*
X113318050Y-51092842D01*
X113367854Y-50995097D01*
X120913359Y-50995097D01*
X120933203Y-51120394D01*
X120933203Y-51120395D01*
X120950911Y-51155148D01*
X120990801Y-51233436D01*
X120990803Y-51233438D01*
X120990805Y-51233441D01*
X121080503Y-51323139D01*
X121080505Y-51323140D01*
X121080509Y-51323144D01*
X121193547Y-51380740D01*
X121193548Y-51380740D01*
X121193550Y-51380741D01*
X121318848Y-51400586D01*
X121318851Y-51400586D01*
X121318852Y-51400586D01*
X121330776Y-51398697D01*
X121356960Y-51394550D01*
X121426252Y-51403504D01*
X121479705Y-51448500D01*
X121500345Y-51515251D01*
X121498832Y-51536418D01*
X121495952Y-51554603D01*
X121495952Y-51554607D01*
X121515796Y-51679904D01*
X121515796Y-51679905D01*
X121523956Y-51695919D01*
X121573394Y-51792946D01*
X121573396Y-51792948D01*
X121573398Y-51792951D01*
X121663096Y-51882649D01*
X121663098Y-51882650D01*
X121663102Y-51882654D01*
X121776140Y-51940250D01*
X121776141Y-51940250D01*
X121776143Y-51940251D01*
X121901441Y-51960096D01*
X121901444Y-51960096D01*
X121901447Y-51960096D01*
X122026744Y-51940251D01*
X122026745Y-51940251D01*
X122026746Y-51940250D01*
X122026748Y-51940250D01*
X122139786Y-51882654D01*
X122229494Y-51792946D01*
X122287090Y-51679908D01*
X122287090Y-51679906D01*
X122287091Y-51679905D01*
X122287091Y-51679904D01*
X122306936Y-51554607D01*
X122306936Y-51554600D01*
X122287091Y-51429303D01*
X122287091Y-51429302D01*
X122284990Y-51425178D01*
X122229494Y-51316262D01*
X122229490Y-51316258D01*
X122229489Y-51316256D01*
X122139791Y-51226558D01*
X122139788Y-51226556D01*
X122139786Y-51226554D01*
X122026748Y-51168958D01*
X122026747Y-51168957D01*
X122026744Y-51168956D01*
X121901447Y-51149112D01*
X121901445Y-51149112D01*
X121901444Y-51149112D01*
X121887854Y-51151264D01*
X121863332Y-51155148D01*
X121794039Y-51146192D01*
X121740588Y-51101195D01*
X121719949Y-51034443D01*
X121721462Y-51013280D01*
X121724343Y-50995094D01*
X121724343Y-50995092D01*
X121724343Y-50995090D01*
X121704498Y-50869793D01*
X121704498Y-50869792D01*
X121696705Y-50854497D01*
X121646901Y-50756752D01*
X121646897Y-50756748D01*
X121646896Y-50756746D01*
X121557198Y-50667048D01*
X121557195Y-50667046D01*
X121557193Y-50667044D01*
X121444155Y-50609448D01*
X121444154Y-50609447D01*
X121444151Y-50609446D01*
X121318854Y-50589602D01*
X121318848Y-50589602D01*
X121193550Y-50609446D01*
X121193549Y-50609446D01*
X121125541Y-50644099D01*
X121080509Y-50667044D01*
X121080508Y-50667045D01*
X121080503Y-50667048D01*
X120990805Y-50756746D01*
X120990802Y-50756751D01*
X120990801Y-50756752D01*
X120980471Y-50777026D01*
X120933203Y-50869792D01*
X120933203Y-50869793D01*
X120913359Y-50995090D01*
X120913359Y-50995097D01*
X113367854Y-50995097D01*
X113375646Y-50979804D01*
X113375646Y-50979802D01*
X113375647Y-50979801D01*
X113391260Y-50881224D01*
X113391260Y-50881214D01*
X113395492Y-50854500D01*
X113392026Y-50832621D01*
X113390500Y-50813224D01*
X113390500Y-49230003D01*
X117184508Y-49230003D01*
X117204352Y-49355300D01*
X117204352Y-49355301D01*
X117222805Y-49391517D01*
X117261950Y-49468342D01*
X117261952Y-49468344D01*
X117261954Y-49468347D01*
X117351652Y-49558045D01*
X117351654Y-49558046D01*
X117351658Y-49558050D01*
X117464696Y-49615646D01*
X117464697Y-49615646D01*
X117464699Y-49615647D01*
X117589997Y-49635492D01*
X117590000Y-49635492D01*
X117590003Y-49635492D01*
X117715300Y-49615647D01*
X117715301Y-49615647D01*
X117715302Y-49615646D01*
X117715304Y-49615646D01*
X117828342Y-49558050D01*
X117918050Y-49468342D01*
X117975646Y-49355304D01*
X117975646Y-49355302D01*
X117975647Y-49355301D01*
X117975647Y-49355300D01*
X117995492Y-49230003D01*
X117995492Y-49229996D01*
X117975647Y-49104699D01*
X117975646Y-49104696D01*
X117966563Y-49086869D01*
X117918050Y-48991658D01*
X117918048Y-48991656D01*
X117915317Y-48986296D01*
X117902420Y-48917627D01*
X117915317Y-48873704D01*
X117918048Y-48868343D01*
X117918050Y-48868342D01*
X117975646Y-48755304D01*
X117975646Y-48755302D01*
X117975647Y-48755300D01*
X117995492Y-48630003D01*
X117995492Y-48629996D01*
X117975647Y-48504699D01*
X117975647Y-48504698D01*
X117973368Y-48500225D01*
X117923034Y-48401440D01*
X121594878Y-48401440D01*
X121614722Y-48526737D01*
X121614722Y-48526738D01*
X121616386Y-48530003D01*
X121672320Y-48639779D01*
X121672322Y-48639781D01*
X121672324Y-48639784D01*
X121759618Y-48727078D01*
X121793103Y-48788401D01*
X121788119Y-48858093D01*
X121759618Y-48902440D01*
X121688234Y-48973823D01*
X121688231Y-48973828D01*
X121688230Y-48973829D01*
X121681878Y-48986296D01*
X121630632Y-49086869D01*
X121630632Y-49086870D01*
X121610788Y-49212167D01*
X121610788Y-49212174D01*
X121630632Y-49337471D01*
X121630632Y-49337472D01*
X121633729Y-49343550D01*
X121688230Y-49450513D01*
X121688232Y-49450515D01*
X121688234Y-49450518D01*
X121777932Y-49540216D01*
X121777934Y-49540217D01*
X121777938Y-49540221D01*
X121890976Y-49597817D01*
X121890977Y-49597817D01*
X121890979Y-49597818D01*
X121895618Y-49598553D01*
X121958753Y-49628482D01*
X121995685Y-49687793D01*
X121998695Y-49740423D01*
X121984509Y-49829997D01*
X121984508Y-49830002D01*
X121984508Y-49830003D01*
X122004352Y-49955300D01*
X122004352Y-49955301D01*
X122004354Y-49955304D01*
X122061950Y-50068342D01*
X122061952Y-50068344D01*
X122061954Y-50068347D01*
X122151652Y-50158045D01*
X122151654Y-50158046D01*
X122151658Y-50158050D01*
X122156241Y-50160385D01*
X122207036Y-50208359D01*
X122223831Y-50276180D01*
X122222419Y-50290266D01*
X122207158Y-50386626D01*
X122207158Y-50386627D01*
X122227002Y-50511924D01*
X122227002Y-50511925D01*
X122236232Y-50530039D01*
X122284600Y-50624966D01*
X122284602Y-50624968D01*
X122284604Y-50624971D01*
X122374302Y-50714669D01*
X122374304Y-50714670D01*
X122374308Y-50714674D01*
X122449743Y-50753110D01*
X122500538Y-50801084D01*
X122517333Y-50868905D01*
X122515921Y-50882988D01*
X122512859Y-50902325D01*
X122512859Y-50902330D01*
X122532703Y-51027627D01*
X122532703Y-51027628D01*
X122532705Y-51027631D01*
X122590301Y-51140669D01*
X122590303Y-51140671D01*
X122590305Y-51140674D01*
X122680003Y-51230372D01*
X122680005Y-51230373D01*
X122680009Y-51230377D01*
X122793047Y-51287973D01*
X122793048Y-51287973D01*
X122793050Y-51287974D01*
X122918348Y-51307819D01*
X122918351Y-51307819D01*
X122918354Y-51307819D01*
X123043651Y-51287974D01*
X123043652Y-51287974D01*
X123043653Y-51287973D01*
X123043655Y-51287973D01*
X123156693Y-51230377D01*
X123157067Y-51230003D01*
X124984508Y-51230003D01*
X125004352Y-51355300D01*
X125004352Y-51355301D01*
X125008077Y-51362611D01*
X125061950Y-51468342D01*
X125061952Y-51468344D01*
X125061954Y-51468347D01*
X125151652Y-51558045D01*
X125151654Y-51558046D01*
X125151658Y-51558050D01*
X125264696Y-51615646D01*
X125264697Y-51615646D01*
X125264699Y-51615647D01*
X125389997Y-51635492D01*
X125390000Y-51635492D01*
X125390003Y-51635492D01*
X125515300Y-51615647D01*
X125515301Y-51615647D01*
X125515302Y-51615646D01*
X125515304Y-51615646D01*
X125628342Y-51558050D01*
X125718050Y-51468342D01*
X125775646Y-51355304D01*
X125775646Y-51355302D01*
X125775647Y-51355301D01*
X125775647Y-51355300D01*
X125795492Y-51230003D01*
X125795492Y-51229996D01*
X125775647Y-51104699D01*
X125775647Y-51104698D01*
X125773862Y-51101195D01*
X125718050Y-50991658D01*
X125718046Y-50991654D01*
X125718045Y-50991652D01*
X125628347Y-50901954D01*
X125628344Y-50901952D01*
X125628342Y-50901950D01*
X125515304Y-50844354D01*
X125515303Y-50844353D01*
X125515300Y-50844352D01*
X125390003Y-50824508D01*
X125389997Y-50824508D01*
X125264699Y-50844352D01*
X125264698Y-50844352D01*
X125192335Y-50881224D01*
X125151658Y-50901950D01*
X125151657Y-50901951D01*
X125151652Y-50901954D01*
X125061954Y-50991652D01*
X125061951Y-50991657D01*
X125061950Y-50991658D01*
X125060198Y-50995097D01*
X125004352Y-51104698D01*
X125004352Y-51104699D01*
X124984508Y-51229996D01*
X124984508Y-51230003D01*
X123157067Y-51230003D01*
X123246401Y-51140669D01*
X123303997Y-51027631D01*
X123303997Y-51027629D01*
X123303998Y-51027628D01*
X123303998Y-51027627D01*
X123323843Y-50902330D01*
X123323843Y-50902323D01*
X123303998Y-50777026D01*
X123303998Y-50777025D01*
X123272227Y-50714672D01*
X123246401Y-50663985D01*
X123246397Y-50663981D01*
X123246396Y-50663979D01*
X123156698Y-50574281D01*
X123156695Y-50574279D01*
X123156693Y-50574277D01*
X123081255Y-50535839D01*
X123030461Y-50487866D01*
X123013666Y-50420045D01*
X123015076Y-50405978D01*
X123018142Y-50386624D01*
X123009301Y-50330801D01*
X122998297Y-50261323D01*
X122998297Y-50261322D01*
X122979535Y-50224500D01*
X122940700Y-50148282D01*
X122940696Y-50148278D01*
X122940695Y-50148276D01*
X122850994Y-50058575D01*
X122846409Y-50056239D01*
X122795613Y-50008264D01*
X122778818Y-49940443D01*
X122780231Y-49926356D01*
X122795492Y-49830002D01*
X122795492Y-49829997D01*
X122780231Y-49733643D01*
X122789186Y-49664349D01*
X122834182Y-49610897D01*
X122846403Y-49603763D01*
X122850992Y-49601426D01*
X122940700Y-49511718D01*
X122998296Y-49398680D01*
X122998296Y-49398678D01*
X122998297Y-49398677D01*
X122998297Y-49398676D01*
X123018142Y-49273379D01*
X123018142Y-49273372D01*
X122998297Y-49148075D01*
X122998297Y-49148074D01*
X122998296Y-49148072D01*
X122940700Y-49035034D01*
X122940696Y-49035030D01*
X122940695Y-49035028D01*
X122850997Y-48945330D01*
X122850994Y-48945328D01*
X122850992Y-48945326D01*
X122737954Y-48887730D01*
X122737953Y-48887729D01*
X122737950Y-48887728D01*
X122612653Y-48867884D01*
X122612647Y-48867884D01*
X122487349Y-48887728D01*
X122487348Y-48887728D01*
X122415839Y-48924165D01*
X122347170Y-48937061D01*
X122282429Y-48910785D01*
X122271866Y-48901364D01*
X122257034Y-48886533D01*
X122223547Y-48825211D01*
X122228529Y-48755519D01*
X122257029Y-48711169D01*
X122328420Y-48639779D01*
X122386016Y-48526741D01*
X122386016Y-48526739D01*
X122386017Y-48526738D01*
X122386017Y-48526737D01*
X122405862Y-48401440D01*
X122405862Y-48401433D01*
X122386017Y-48276136D01*
X122386017Y-48276135D01*
X122376802Y-48258050D01*
X122328420Y-48163095D01*
X122328416Y-48163091D01*
X122328415Y-48163089D01*
X122238717Y-48073391D01*
X122238714Y-48073389D01*
X122238712Y-48073387D01*
X122125674Y-48015791D01*
X122125673Y-48015790D01*
X122125670Y-48015789D01*
X122000373Y-47995945D01*
X122000367Y-47995945D01*
X121875069Y-48015789D01*
X121875068Y-48015789D01*
X121799707Y-48054188D01*
X121762028Y-48073387D01*
X121762027Y-48073388D01*
X121762022Y-48073391D01*
X121672324Y-48163089D01*
X121672321Y-48163094D01*
X121614722Y-48276135D01*
X121614722Y-48276136D01*
X121594878Y-48401433D01*
X121594878Y-48401440D01*
X117923034Y-48401440D01*
X117918050Y-48391658D01*
X117918046Y-48391654D01*
X117918045Y-48391652D01*
X117828347Y-48301954D01*
X117828344Y-48301952D01*
X117828342Y-48301950D01*
X117715304Y-48244354D01*
X117715303Y-48244353D01*
X117715300Y-48244352D01*
X117590003Y-48224508D01*
X117589997Y-48224508D01*
X117464699Y-48244352D01*
X117464698Y-48244352D01*
X117389337Y-48282751D01*
X117351658Y-48301950D01*
X117351657Y-48301951D01*
X117351652Y-48301954D01*
X117261954Y-48391652D01*
X117261951Y-48391657D01*
X117261950Y-48391658D01*
X117242751Y-48429337D01*
X117204352Y-48504698D01*
X117204352Y-48504699D01*
X117184508Y-48629996D01*
X117184508Y-48630003D01*
X117204352Y-48755300D01*
X117204352Y-48755301D01*
X117216011Y-48778183D01*
X117256703Y-48858045D01*
X117264683Y-48873705D01*
X117277579Y-48942374D01*
X117264683Y-48986295D01*
X117204352Y-49104698D01*
X117204352Y-49104699D01*
X117184508Y-49229996D01*
X117184508Y-49230003D01*
X113390500Y-49230003D01*
X113390500Y-47930003D01*
X124884508Y-47930003D01*
X124904352Y-48055300D01*
X124904352Y-48055301D01*
X124904354Y-48055304D01*
X124961950Y-48168342D01*
X124961952Y-48168344D01*
X124961954Y-48168347D01*
X125019122Y-48225515D01*
X125052607Y-48286838D01*
X125047623Y-48356530D01*
X125019123Y-48400876D01*
X124990000Y-48429999D01*
X124990000Y-48430000D01*
X124990000Y-48830000D01*
X125190000Y-49030000D01*
X125590000Y-49030000D01*
X125790000Y-48830000D01*
X125790000Y-48430000D01*
X125695056Y-48335056D01*
X127769500Y-48335056D01*
X127783451Y-48391657D01*
X127810210Y-48500226D01*
X127889263Y-48650849D01*
X127893207Y-48655301D01*
X128002071Y-48778183D01*
X128092318Y-48840476D01*
X128142068Y-48874817D01*
X128142069Y-48874817D01*
X128142070Y-48874818D01*
X128176117Y-48887730D01*
X128290464Y-48931096D01*
X128301128Y-48935140D01*
X128377028Y-48944356D01*
X128427626Y-48950500D01*
X128427628Y-48950500D01*
X129612374Y-48950500D01*
X129654983Y-48945326D01*
X129738872Y-48935140D01*
X129897930Y-48874818D01*
X130037929Y-48778183D01*
X130150734Y-48650852D01*
X130229790Y-48500225D01*
X130270500Y-48335056D01*
X130270500Y-48164944D01*
X130229790Y-47999775D01*
X130227780Y-47995945D01*
X130150736Y-47849150D01*
X130111353Y-47804696D01*
X130037929Y-47721817D01*
X129988177Y-47687475D01*
X129897931Y-47625182D01*
X129778909Y-47580044D01*
X129723206Y-47537866D01*
X129699149Y-47472269D01*
X129714376Y-47404079D01*
X129764051Y-47354945D01*
X129775407Y-47349549D01*
X129840233Y-47322698D01*
X129960451Y-47230451D01*
X130052698Y-47110233D01*
X130110687Y-46970236D01*
X130130466Y-46820000D01*
X130110687Y-46669764D01*
X130052698Y-46529767D01*
X129960451Y-46409549D01*
X129840233Y-46317302D01*
X129840229Y-46317300D01*
X129746890Y-46278638D01*
X129700236Y-46259313D01*
X129686171Y-46257461D01*
X129587727Y-46244500D01*
X129587720Y-46244500D01*
X129512280Y-46244500D01*
X129512272Y-46244500D01*
X129399764Y-46259313D01*
X129399763Y-46259313D01*
X129259770Y-46317300D01*
X129259767Y-46317301D01*
X129259767Y-46317302D01*
X129139549Y-46409549D01*
X129057937Y-46515908D01*
X129047300Y-46529770D01*
X128989313Y-46669763D01*
X128989312Y-46669765D01*
X128969534Y-46819999D01*
X128969534Y-46820000D01*
X128989312Y-46970234D01*
X128989313Y-46970236D01*
X129047302Y-47110233D01*
X129139549Y-47230451D01*
X129259767Y-47322698D01*
X129259769Y-47322698D01*
X129265536Y-47327124D01*
X129306738Y-47383552D01*
X129310893Y-47453299D01*
X129276680Y-47514219D01*
X129214963Y-47546971D01*
X129190049Y-47549500D01*
X128427626Y-47549500D01*
X128301131Y-47564859D01*
X128301125Y-47564860D01*
X128142068Y-47625182D01*
X128002072Y-47721816D01*
X127889263Y-47849150D01*
X127810210Y-47999773D01*
X127779466Y-48124508D01*
X127769500Y-48164944D01*
X127769500Y-48335056D01*
X125695056Y-48335056D01*
X125651474Y-48291474D01*
X125617989Y-48230151D01*
X125622973Y-48160459D01*
X125628666Y-48147506D01*
X125675646Y-48055304D01*
X125675646Y-48055302D01*
X125675647Y-48055301D01*
X125675647Y-48055300D01*
X125695492Y-47930003D01*
X125695492Y-47929996D01*
X125675647Y-47804699D01*
X125675647Y-47804698D01*
X125675646Y-47804696D01*
X125618050Y-47691658D01*
X125618046Y-47691654D01*
X125618045Y-47691652D01*
X125528347Y-47601954D01*
X125528344Y-47601952D01*
X125528342Y-47601950D01*
X125415304Y-47544354D01*
X125415303Y-47544353D01*
X125415300Y-47544352D01*
X125290003Y-47524508D01*
X125289997Y-47524508D01*
X125164699Y-47544352D01*
X125164698Y-47544352D01*
X125094651Y-47580044D01*
X125051658Y-47601950D01*
X125051657Y-47601951D01*
X125051652Y-47601954D01*
X124961954Y-47691652D01*
X124961951Y-47691657D01*
X124904352Y-47804698D01*
X124904352Y-47804699D01*
X124884508Y-47929996D01*
X124884508Y-47930003D01*
X113390500Y-47930003D01*
X113390500Y-46959500D01*
X113410185Y-46892461D01*
X113462989Y-46846706D01*
X113514500Y-46835500D01*
X114638820Y-46835500D01*
X114705859Y-46855185D01*
X114751614Y-46907989D01*
X114761558Y-46977147D01*
X114756751Y-46997819D01*
X114754352Y-47005200D01*
X114734508Y-47130496D01*
X114734508Y-47130503D01*
X114754352Y-47255800D01*
X114754352Y-47255801D01*
X114754354Y-47255804D01*
X114811950Y-47368842D01*
X114811952Y-47368844D01*
X114811954Y-47368847D01*
X114901652Y-47458545D01*
X114901654Y-47458546D01*
X114901658Y-47458550D01*
X115014696Y-47516146D01*
X115014697Y-47516146D01*
X115014699Y-47516147D01*
X115139997Y-47535992D01*
X115140000Y-47535992D01*
X115140003Y-47535992D01*
X115265300Y-47516147D01*
X115265301Y-47516147D01*
X115265302Y-47516146D01*
X115265304Y-47516146D01*
X115378342Y-47458550D01*
X115468050Y-47368842D01*
X115525646Y-47255804D01*
X115525646Y-47255802D01*
X115525647Y-47255801D01*
X115525647Y-47255800D01*
X115545492Y-47130503D01*
X115545492Y-47130496D01*
X115525647Y-47005200D01*
X115523249Y-46997819D01*
X115521254Y-46927978D01*
X115557334Y-46868145D01*
X115606521Y-46843960D01*
X119698465Y-46843960D01*
X119718309Y-46969257D01*
X119718309Y-46969258D01*
X119722329Y-46977147D01*
X119775907Y-47082299D01*
X119775909Y-47082301D01*
X119775911Y-47082304D01*
X119865609Y-47172002D01*
X119865611Y-47172003D01*
X119865615Y-47172007D01*
X119978653Y-47229603D01*
X119978654Y-47229603D01*
X119978656Y-47229604D01*
X120103954Y-47249449D01*
X120103957Y-47249449D01*
X120103960Y-47249449D01*
X120229257Y-47229604D01*
X120229258Y-47229604D01*
X120229259Y-47229603D01*
X120229261Y-47229603D01*
X120342299Y-47172007D01*
X120432007Y-47082299D01*
X120489603Y-46969261D01*
X120489603Y-46969259D01*
X120489604Y-46969258D01*
X120489604Y-46969257D01*
X120509449Y-46843960D01*
X120509449Y-46843953D01*
X120489604Y-46718656D01*
X120489604Y-46718655D01*
X120464693Y-46669765D01*
X120432007Y-46605615D01*
X120432003Y-46605611D01*
X120432002Y-46605609D01*
X120342304Y-46515911D01*
X120342301Y-46515909D01*
X120342299Y-46515907D01*
X120229261Y-46458311D01*
X120229260Y-46458310D01*
X120229257Y-46458309D01*
X120103960Y-46438465D01*
X120103954Y-46438465D01*
X119978656Y-46458309D01*
X119978655Y-46458309D01*
X119903294Y-46496708D01*
X119865615Y-46515907D01*
X119865614Y-46515908D01*
X119865609Y-46515911D01*
X119775911Y-46605609D01*
X119775908Y-46605614D01*
X119718309Y-46718655D01*
X119718309Y-46718656D01*
X119698465Y-46843953D01*
X119698465Y-46843960D01*
X115606521Y-46843960D01*
X115620034Y-46837316D01*
X115641180Y-46835500D01*
X115944138Y-46835500D01*
X115944142Y-46835500D01*
X115955134Y-46834911D01*
X115955142Y-46834910D01*
X115955144Y-46834910D01*
X115955145Y-46834910D01*
X115964637Y-46833889D01*
X115986965Y-46831488D01*
X116063482Y-46807529D01*
X116124805Y-46774044D01*
X116171629Y-46738991D01*
X116280620Y-46630000D01*
X116290000Y-46630000D01*
X116290000Y-46620620D01*
X116402883Y-46507737D01*
X116410235Y-46499554D01*
X116410237Y-46499552D01*
X116410236Y-46499554D01*
X116430325Y-46474623D01*
X116467490Y-46403575D01*
X116487173Y-46336543D01*
X116487173Y-46336542D01*
X116487175Y-46336536D01*
X116495500Y-46278638D01*
X116495500Y-45744308D01*
X116495214Y-45734298D01*
X116483347Y-45671101D01*
X116461183Y-45608983D01*
X116461036Y-45606414D01*
X116411148Y-45508507D01*
X116399159Y-45471610D01*
X116395743Y-45450043D01*
X116395640Y-45449396D01*
X116395640Y-45410608D01*
X116399159Y-45388386D01*
X116411145Y-45351494D01*
X116435497Y-45303702D01*
X116436947Y-45301026D01*
X116439961Y-45295775D01*
X116439968Y-45295766D01*
X116467490Y-45237697D01*
X116487175Y-45170658D01*
X116495500Y-45112760D01*
X116495500Y-44673179D01*
X116515185Y-44606140D01*
X116567989Y-44560385D01*
X116603312Y-44550240D01*
X116737262Y-44532606D01*
X116883341Y-44472098D01*
X117008782Y-44375844D01*
X117105036Y-44250403D01*
X117119115Y-44216414D01*
X124470919Y-44216414D01*
X124490763Y-44341711D01*
X124490763Y-44341712D01*
X124490765Y-44341715D01*
X124548361Y-44454753D01*
X124548363Y-44454755D01*
X124548365Y-44454758D01*
X124638063Y-44544456D01*
X124638065Y-44544457D01*
X124638069Y-44544461D01*
X124751107Y-44602057D01*
X124751108Y-44602057D01*
X124751110Y-44602058D01*
X124876408Y-44621903D01*
X124876411Y-44621903D01*
X124876414Y-44621903D01*
X125001711Y-44602058D01*
X125001712Y-44602058D01*
X125001713Y-44602057D01*
X125001715Y-44602057D01*
X125114753Y-44544461D01*
X125204461Y-44454753D01*
X125262057Y-44341715D01*
X125262057Y-44341713D01*
X125262058Y-44341712D01*
X125262058Y-44341711D01*
X125281903Y-44216414D01*
X125281903Y-44216407D01*
X125262058Y-44091110D01*
X125262058Y-44091109D01*
X125251140Y-44069681D01*
X125204461Y-43978069D01*
X125204457Y-43978065D01*
X125204456Y-43978063D01*
X125114758Y-43888365D01*
X125114755Y-43888363D01*
X125114753Y-43888361D01*
X125001715Y-43830765D01*
X125001714Y-43830764D01*
X125001711Y-43830763D01*
X124876414Y-43810919D01*
X124876408Y-43810919D01*
X124751110Y-43830763D01*
X124751109Y-43830763D01*
X124696613Y-43858531D01*
X124638069Y-43888361D01*
X124638068Y-43888362D01*
X124638063Y-43888365D01*
X124548365Y-43978063D01*
X124548362Y-43978068D01*
X124490763Y-44091109D01*
X124490763Y-44091110D01*
X124470919Y-44216407D01*
X124470919Y-44216414D01*
X117119115Y-44216414D01*
X117165544Y-44104324D01*
X117182166Y-43978068D01*
X117186182Y-43947563D01*
X117186182Y-43947560D01*
X117165544Y-43790801D01*
X117165544Y-43790800D01*
X117105036Y-43644721D01*
X117008782Y-43519280D01*
X116928757Y-43457875D01*
X116887556Y-43401448D01*
X116883401Y-43331702D01*
X116917614Y-43270781D01*
X116979331Y-43238029D01*
X117004245Y-43235500D01*
X119344138Y-43235500D01*
X119344142Y-43235500D01*
X119355134Y-43234911D01*
X119355142Y-43234910D01*
X119355144Y-43234910D01*
X119355145Y-43234910D01*
X119364637Y-43233889D01*
X119386965Y-43231488D01*
X119463482Y-43207529D01*
X119524805Y-43174044D01*
X119571629Y-43138991D01*
X119680620Y-43030000D01*
X119690000Y-43030000D01*
X119690000Y-43020620D01*
X119802883Y-42907737D01*
X119810235Y-42899554D01*
X119810237Y-42899552D01*
X119810236Y-42899554D01*
X119830325Y-42874623D01*
X119834881Y-42865915D01*
X119867490Y-42803575D01*
X119887175Y-42736536D01*
X119895500Y-42678638D01*
X119895500Y-42280003D01*
X125269109Y-42280003D01*
X125288953Y-42405300D01*
X125288953Y-42405301D01*
X125295594Y-42418334D01*
X125346551Y-42518342D01*
X125346553Y-42518344D01*
X125346555Y-42518347D01*
X125436253Y-42608045D01*
X125436255Y-42608046D01*
X125436259Y-42608050D01*
X125549297Y-42665646D01*
X125549298Y-42665646D01*
X125549300Y-42665647D01*
X125674598Y-42685492D01*
X125674601Y-42685492D01*
X125674604Y-42685492D01*
X125799901Y-42665647D01*
X125799902Y-42665647D01*
X125799903Y-42665646D01*
X125799905Y-42665646D01*
X125912943Y-42608050D01*
X126002651Y-42518342D01*
X126060247Y-42405304D01*
X126060247Y-42405302D01*
X126060248Y-42405301D01*
X126060248Y-42405300D01*
X126080093Y-42280003D01*
X126080093Y-42279996D01*
X126060248Y-42154699D01*
X126060248Y-42154698D01*
X126035296Y-42105728D01*
X126002651Y-42041658D01*
X126002647Y-42041654D01*
X126002646Y-42041652D01*
X125912948Y-41951954D01*
X125912945Y-41951952D01*
X125912943Y-41951950D01*
X125799905Y-41894354D01*
X125799904Y-41894353D01*
X125799901Y-41894352D01*
X125674604Y-41874508D01*
X125674598Y-41874508D01*
X125549300Y-41894352D01*
X125549299Y-41894352D01*
X125473938Y-41932751D01*
X125436259Y-41951950D01*
X125436258Y-41951951D01*
X125436253Y-41951954D01*
X125346555Y-42041652D01*
X125346552Y-42041657D01*
X125288953Y-42154698D01*
X125288953Y-42154699D01*
X125269109Y-42279996D01*
X125269109Y-42280003D01*
X119895500Y-42280003D01*
X119895500Y-40154500D01*
X119915185Y-40087461D01*
X119967989Y-40041706D01*
X120019500Y-40030500D01*
X126543887Y-40030500D01*
X126610926Y-40050185D01*
X126631568Y-40066819D01*
X128786177Y-42221428D01*
X128802809Y-42242066D01*
X128805417Y-42246125D01*
X128805420Y-42246128D01*
X128844630Y-42280103D01*
X128847846Y-42283097D01*
X128858970Y-42294221D01*
X128858975Y-42294224D01*
X128858980Y-42294229D01*
X128871542Y-42303633D01*
X128874990Y-42306411D01*
X128905510Y-42332856D01*
X128914190Y-42340377D01*
X128918573Y-42342379D01*
X128941370Y-42355905D01*
X128945232Y-42358796D01*
X128993858Y-42376932D01*
X128997914Y-42378612D01*
X129020020Y-42388708D01*
X129045103Y-42400164D01*
X129045104Y-42400164D01*
X129045106Y-42400165D01*
X129049875Y-42400850D01*
X129075565Y-42407407D01*
X129080080Y-42409091D01*
X129131821Y-42412791D01*
X129136220Y-42413264D01*
X129151764Y-42415500D01*
X129167469Y-42415500D01*
X129171891Y-42415657D01*
X129223636Y-42419359D01*
X129228348Y-42418334D01*
X129254706Y-42415500D01*
X133016324Y-42415500D01*
X133083363Y-42435185D01*
X133104005Y-42451819D01*
X133958092Y-43305906D01*
X133991577Y-43367229D01*
X133994411Y-43393587D01*
X133994411Y-47508675D01*
X133974726Y-47575714D01*
X133921922Y-47621469D01*
X133852764Y-47631413D01*
X133826440Y-47624617D01*
X133668872Y-47564860D01*
X133668870Y-47564859D01*
X133668868Y-47564859D01*
X133542374Y-47549500D01*
X133542372Y-47549500D01*
X132857628Y-47549500D01*
X132857626Y-47549500D01*
X132731131Y-47564859D01*
X132731125Y-47564860D01*
X132572068Y-47625182D01*
X132432072Y-47721816D01*
X132319263Y-47849150D01*
X132240210Y-47999773D01*
X132209466Y-48124508D01*
X132199500Y-48164944D01*
X132199500Y-48335056D01*
X132213451Y-48391657D01*
X132240210Y-48500226D01*
X132319263Y-48650849D01*
X132323207Y-48655301D01*
X132432071Y-48778183D01*
X132522318Y-48840476D01*
X132572068Y-48874817D01*
X132572069Y-48874817D01*
X132572070Y-48874818D01*
X132606117Y-48887730D01*
X132720464Y-48931096D01*
X132731128Y-48935140D01*
X132807028Y-48944356D01*
X132857626Y-48950500D01*
X132857628Y-48950500D01*
X133542374Y-48950500D01*
X133584983Y-48945326D01*
X133668872Y-48935140D01*
X133826443Y-48875381D01*
X133896103Y-48870015D01*
X133957609Y-48903162D01*
X133991431Y-48964301D01*
X133994411Y-48991324D01*
X133994411Y-54181528D01*
X133974726Y-54248567D01*
X133968787Y-54257014D01*
X133914964Y-54327157D01*
X133854456Y-54473237D01*
X133854455Y-54473239D01*
X133833818Y-54629998D01*
X133833818Y-54630001D01*
X133854455Y-54786760D01*
X133854456Y-54786762D01*
X133908693Y-54917703D01*
X133914964Y-54932841D01*
X134011218Y-55058282D01*
X134132050Y-55150999D01*
X134173252Y-55207427D01*
X134177407Y-55277173D01*
X134143194Y-55338094D01*
X134132054Y-55347746D01*
X134061718Y-55401718D01*
X133965463Y-55527160D01*
X133904956Y-55673237D01*
X133904955Y-55673239D01*
X133884318Y-55829998D01*
X133884318Y-55830000D01*
X133904955Y-55986760D01*
X133904956Y-55986762D01*
X133965464Y-56132841D01*
X134061718Y-56258282D01*
X134187159Y-56354536D01*
X134333238Y-56415044D01*
X134411619Y-56425363D01*
X134489999Y-56435682D01*
X134490000Y-56435682D01*
X134490001Y-56435682D01*
X134542254Y-56428802D01*
X134646762Y-56415044D01*
X134792841Y-56354536D01*
X134918282Y-56258282D01*
X135014536Y-56132841D01*
X135075044Y-55986762D01*
X135095682Y-55830000D01*
X135088871Y-55778268D01*
X135075044Y-55673239D01*
X135075044Y-55673238D01*
X135014536Y-55527159D01*
X134918282Y-55401718D01*
X134797448Y-55308999D01*
X134756247Y-55252572D01*
X134752092Y-55182826D01*
X134786305Y-55121905D01*
X134797433Y-55112262D01*
X134867782Y-55058282D01*
X134964036Y-54932841D01*
X135024544Y-54786762D01*
X135045182Y-54630000D01*
X135042028Y-54606046D01*
X135024544Y-54473239D01*
X135024543Y-54473237D01*
X135004850Y-54425691D01*
X134995411Y-54378239D01*
X134995411Y-43202054D01*
X134998245Y-43175696D01*
X134999270Y-43170984D01*
X134995569Y-43119240D01*
X134995411Y-43114815D01*
X134995411Y-43099112D01*
X134993175Y-43083568D01*
X134992702Y-43079165D01*
X134989002Y-43027428D01*
X134987318Y-43022913D01*
X134980761Y-42997223D01*
X134980076Y-42992454D01*
X134958523Y-42945262D01*
X134956843Y-42941206D01*
X134938707Y-42892580D01*
X134935816Y-42888718D01*
X134922290Y-42865921D01*
X134920288Y-42861538D01*
X134912767Y-42852858D01*
X134886322Y-42822338D01*
X134883544Y-42818890D01*
X134874140Y-42806328D01*
X134874135Y-42806323D01*
X134874132Y-42806318D01*
X134863008Y-42795194D01*
X134860014Y-42791978D01*
X134826039Y-42752768D01*
X134826036Y-42752765D01*
X134821977Y-42750157D01*
X134801339Y-42733525D01*
X133676385Y-41608571D01*
X133659750Y-41587928D01*
X133657145Y-41583874D01*
X133657142Y-41583871D01*
X133636604Y-41566075D01*
X133617932Y-41549896D01*
X133614700Y-41546886D01*
X133603596Y-41535782D01*
X133603588Y-41535775D01*
X133591013Y-41526362D01*
X133587583Y-41523598D01*
X133548373Y-41489623D01*
X133548371Y-41489622D01*
X133548367Y-41489619D01*
X133543983Y-41487617D01*
X133521194Y-41474096D01*
X133518604Y-41472157D01*
X133517331Y-41471204D01*
X133517329Y-41471203D01*
X133468716Y-41453071D01*
X133464642Y-41451383D01*
X133417457Y-41429835D01*
X133417455Y-41429834D01*
X133412682Y-41429148D01*
X133387000Y-41422593D01*
X133382485Y-41420909D01*
X133330740Y-41417207D01*
X133326343Y-41416734D01*
X133310799Y-41414500D01*
X133295094Y-41414500D01*
X133290671Y-41414342D01*
X133273083Y-41413084D01*
X133238929Y-41410641D01*
X133238925Y-41410641D01*
X133234215Y-41411666D01*
X133207857Y-41414500D01*
X130203373Y-41414500D01*
X130136334Y-41394815D01*
X130090579Y-41342011D01*
X130080635Y-41272853D01*
X130088812Y-41243048D01*
X130098264Y-41220226D01*
X130110687Y-41190236D01*
X130130466Y-41040000D01*
X130110687Y-40889764D01*
X130052698Y-40749767D01*
X129960451Y-40629549D01*
X129840233Y-40537302D01*
X129840229Y-40537300D01*
X129775427Y-40510458D01*
X129721024Y-40466617D01*
X129698959Y-40400323D01*
X129716238Y-40332623D01*
X129767376Y-40285013D01*
X129778896Y-40279960D01*
X129897930Y-40234818D01*
X130037929Y-40138183D01*
X130150734Y-40010852D01*
X130229790Y-39860225D01*
X130270500Y-39695056D01*
X130270500Y-39695055D01*
X132199500Y-39695055D01*
X132240210Y-39860226D01*
X132319263Y-40010849D01*
X132341263Y-40035682D01*
X132432071Y-40138183D01*
X132522318Y-40200476D01*
X132572068Y-40234817D01*
X132572069Y-40234817D01*
X132572070Y-40234818D01*
X132731128Y-40295140D01*
X132807028Y-40304356D01*
X132857626Y-40310500D01*
X132857628Y-40310500D01*
X133542374Y-40310500D01*
X133584538Y-40305380D01*
X133668872Y-40295140D01*
X133827930Y-40234818D01*
X133967929Y-40138183D01*
X134080734Y-40010852D01*
X134159790Y-39860225D01*
X134200500Y-39695056D01*
X134200500Y-39524944D01*
X134159790Y-39359775D01*
X134136028Y-39314500D01*
X134080736Y-39209150D01*
X134040252Y-39163453D01*
X133967929Y-39081817D01*
X133895372Y-39031734D01*
X133827931Y-38985182D01*
X133668874Y-38924860D01*
X133668868Y-38924859D01*
X133542374Y-38909500D01*
X133542372Y-38909500D01*
X132857628Y-38909500D01*
X132857626Y-38909500D01*
X132731131Y-38924859D01*
X132731125Y-38924860D01*
X132572068Y-38985182D01*
X132453099Y-39067302D01*
X132432071Y-39081817D01*
X132425622Y-39089096D01*
X132319263Y-39209150D01*
X132240210Y-39359773D01*
X132199500Y-39524944D01*
X132199500Y-39695055D01*
X130270500Y-39695055D01*
X130270500Y-39524944D01*
X130229790Y-39359775D01*
X130206028Y-39314500D01*
X130150736Y-39209150D01*
X130110252Y-39163453D01*
X130037929Y-39081817D01*
X129965372Y-39031734D01*
X129897931Y-38985182D01*
X129738874Y-38924860D01*
X129738868Y-38924859D01*
X129612374Y-38909500D01*
X129612372Y-38909500D01*
X128427628Y-38909500D01*
X128427626Y-38909500D01*
X128301131Y-38924859D01*
X128301125Y-38924860D01*
X128142068Y-38985182D01*
X128023099Y-39067302D01*
X128002071Y-39081817D01*
X127995622Y-39089096D01*
X127889263Y-39209150D01*
X127810210Y-39359773D01*
X127769876Y-39523415D01*
X127734719Y-39583796D01*
X127672500Y-39615584D01*
X127602971Y-39608688D01*
X127561798Y-39581421D01*
X127203948Y-39223571D01*
X127187313Y-39202928D01*
X127184708Y-39198874D01*
X127184705Y-39198871D01*
X127151338Y-39169959D01*
X127145495Y-39164896D01*
X127142263Y-39161886D01*
X127131159Y-39150782D01*
X127131151Y-39150775D01*
X127118576Y-39141362D01*
X127115146Y-39138598D01*
X127075936Y-39104623D01*
X127075934Y-39104622D01*
X127075930Y-39104619D01*
X127071546Y-39102617D01*
X127048757Y-39089096D01*
X127044894Y-39086204D01*
X127044892Y-39086203D01*
X126996279Y-39068071D01*
X126992205Y-39066383D01*
X126945020Y-39044835D01*
X126945018Y-39044834D01*
X126940245Y-39044148D01*
X126914563Y-39037593D01*
X126910048Y-39035909D01*
X126858303Y-39032207D01*
X126853906Y-39031734D01*
X126838362Y-39029500D01*
X126822657Y-39029500D01*
X126818234Y-39029342D01*
X126800646Y-39028084D01*
X126766492Y-39025641D01*
X126766488Y-39025641D01*
X126761778Y-39026666D01*
X126735420Y-39029500D01*
X120019500Y-39029500D01*
X119952461Y-39009815D01*
X119906706Y-38957011D01*
X119895500Y-38905500D01*
X119895500Y-38875862D01*
X119894910Y-38864856D01*
X119894910Y-38864855D01*
X119891488Y-38833038D01*
X119891488Y-38833035D01*
X119867529Y-38756518D01*
X119867528Y-38756517D01*
X119865709Y-38750706D01*
X119867994Y-38749990D01*
X119861122Y-38691108D01*
X119891827Y-38628347D01*
X119895623Y-38624376D01*
X119953183Y-38566817D01*
X120014507Y-38533333D01*
X120040863Y-38530500D01*
X136139138Y-38530500D01*
X136206177Y-38550185D01*
G37*
%TD.AperFunction*%
%TD*%
%TA.AperFunction,Conductor*%
%TO.N,+5V*%
G36*
X119406177Y-38550185D02*
G01*
X119426819Y-38566819D01*
X119653681Y-38793681D01*
X119687166Y-38855004D01*
X119690000Y-38881362D01*
X119690000Y-42678638D01*
X119670315Y-42745677D01*
X119653681Y-42766319D01*
X119426319Y-42993681D01*
X119364996Y-43027166D01*
X119338638Y-43030000D01*
X116290000Y-43030000D01*
X116290000Y-43329999D01*
X116290000Y-43352406D01*
X116270315Y-43419445D01*
X116241487Y-43450782D01*
X116152218Y-43519280D01*
X116055963Y-43644722D01*
X115995456Y-43790799D01*
X115995455Y-43790801D01*
X115974818Y-43947560D01*
X115974818Y-43947563D01*
X115995455Y-44104322D01*
X115995456Y-44104324D01*
X116055964Y-44250403D01*
X116152218Y-44375844D01*
X116241486Y-44444342D01*
X116282689Y-44500769D01*
X116290000Y-44542717D01*
X116290000Y-45112760D01*
X116270315Y-45179799D01*
X116266321Y-45185642D01*
X116261951Y-45191657D01*
X116261950Y-45191658D01*
X116242751Y-45229337D01*
X116204352Y-45304698D01*
X116204352Y-45304699D01*
X116184508Y-45429996D01*
X116184508Y-45430003D01*
X116204352Y-45555300D01*
X116204352Y-45555301D01*
X116204354Y-45555304D01*
X116261950Y-45668342D01*
X116261952Y-45668344D01*
X116266318Y-45674354D01*
X116289798Y-45740160D01*
X116290000Y-45747239D01*
X116290000Y-46278638D01*
X116270315Y-46345677D01*
X116253681Y-46366319D01*
X116026319Y-46593681D01*
X115964996Y-46627166D01*
X115938638Y-46630000D01*
X109341362Y-46630000D01*
X109274323Y-46610315D01*
X109253681Y-46593681D01*
X109026319Y-46366319D01*
X108992834Y-46304996D01*
X108990000Y-46278638D01*
X108990000Y-45977226D01*
X108990531Y-45969124D01*
X108995682Y-45929999D01*
X108990531Y-45890875D01*
X108990000Y-45882773D01*
X108990000Y-45730001D01*
X109584318Y-45730001D01*
X109604955Y-45886760D01*
X109604956Y-45886762D01*
X109639071Y-45969124D01*
X109665464Y-46032841D01*
X109761718Y-46158282D01*
X109887159Y-46254536D01*
X110033238Y-46315044D01*
X110111619Y-46325363D01*
X110189999Y-46335682D01*
X110190000Y-46335682D01*
X110190001Y-46335682D01*
X110242254Y-46328802D01*
X110346762Y-46315044D01*
X110492841Y-46254536D01*
X110618282Y-46158282D01*
X110714536Y-46032841D01*
X110775044Y-45886762D01*
X110775044Y-45886761D01*
X110775439Y-45885808D01*
X110819280Y-45831404D01*
X110885574Y-45809339D01*
X110953273Y-45826618D01*
X111000884Y-45877755D01*
X111004561Y-45885808D01*
X111065462Y-46032838D01*
X111065463Y-46032839D01*
X111065464Y-46032841D01*
X111161718Y-46158282D01*
X111287159Y-46254536D01*
X111433238Y-46315044D01*
X111511619Y-46325363D01*
X111589999Y-46335682D01*
X111590000Y-46335682D01*
X111590001Y-46335682D01*
X111642254Y-46328802D01*
X111746762Y-46315044D01*
X111892841Y-46254536D01*
X112018282Y-46158282D01*
X112114536Y-46032841D01*
X112175044Y-45886762D01*
X112191989Y-45758050D01*
X112195682Y-45730001D01*
X112195682Y-45729998D01*
X112176230Y-45582244D01*
X112175044Y-45573238D01*
X112114536Y-45427159D01*
X112018282Y-45301718D01*
X111892841Y-45205464D01*
X111859510Y-45191658D01*
X111746762Y-45144956D01*
X111746760Y-45144955D01*
X111590001Y-45124318D01*
X111589999Y-45124318D01*
X111433239Y-45144955D01*
X111433237Y-45144956D01*
X111287160Y-45205463D01*
X111161718Y-45301718D01*
X111065463Y-45427160D01*
X111017650Y-45542590D01*
X111004957Y-45573237D01*
X111004561Y-45574192D01*
X110960720Y-45628595D01*
X110894426Y-45650660D01*
X110826727Y-45633381D01*
X110779116Y-45582244D01*
X110775439Y-45574192D01*
X110775044Y-45573238D01*
X110714536Y-45427159D01*
X110618282Y-45301718D01*
X110492841Y-45205464D01*
X110459510Y-45191658D01*
X110346762Y-45144956D01*
X110346760Y-45144955D01*
X110190001Y-45124318D01*
X110189999Y-45124318D01*
X110033239Y-45144955D01*
X110033237Y-45144956D01*
X109887160Y-45205463D01*
X109761718Y-45301718D01*
X109665463Y-45427160D01*
X109604956Y-45573237D01*
X109604955Y-45573239D01*
X109584318Y-45729998D01*
X109584318Y-45730001D01*
X108990000Y-45730001D01*
X108990000Y-44230001D01*
X110984318Y-44230001D01*
X111004955Y-44386760D01*
X111004956Y-44386762D01*
X111065366Y-44532606D01*
X111065464Y-44532841D01*
X111161718Y-44658282D01*
X111287159Y-44754536D01*
X111433238Y-44815044D01*
X111511619Y-44825363D01*
X111589999Y-44835682D01*
X111590000Y-44835682D01*
X111590001Y-44835682D01*
X111642254Y-44828802D01*
X111746762Y-44815044D01*
X111892841Y-44754536D01*
X112018282Y-44658282D01*
X112114536Y-44532841D01*
X112175044Y-44386762D01*
X112195682Y-44230000D01*
X112175044Y-44073238D01*
X112114536Y-43927159D01*
X112018282Y-43801718D01*
X111892841Y-43705464D01*
X111746762Y-43644956D01*
X111746760Y-43644955D01*
X111590001Y-43624318D01*
X111589999Y-43624318D01*
X111433239Y-43644955D01*
X111433237Y-43644956D01*
X111287160Y-43705463D01*
X111161718Y-43801718D01*
X111065463Y-43927160D01*
X111004956Y-44073237D01*
X111004955Y-44073239D01*
X110984318Y-44229998D01*
X110984318Y-44230001D01*
X108990000Y-44230001D01*
X108990000Y-38881362D01*
X109009685Y-38814323D01*
X109026319Y-38793681D01*
X109253181Y-38566819D01*
X109314504Y-38533334D01*
X109340862Y-38530500D01*
X119339138Y-38530500D01*
X119406177Y-38550185D01*
G37*
%TD.AperFunction*%
%TD*%
M02*
