%TF.GenerationSoftware,KiCad,Pcbnew,7.0.8*%
%TF.CreationDate,2023-10-14T12:30:27+02:00*%
%TF.ProjectId,RotorflightF7,526f746f-7266-46c6-9967-687446372e6b,rev?*%
%TF.SameCoordinates,Original*%
%TF.FileFunction,Copper,L4,Bot*%
%TF.FilePolarity,Positive*%
%FSLAX46Y46*%
G04 Gerber Fmt 4.6, Leading zero omitted, Abs format (unit mm)*
G04 Created by KiCad (PCBNEW 7.0.8) date 2023-10-14 12:30:27*
%MOMM*%
%LPD*%
G01*
G04 APERTURE LIST*
G04 Aperture macros list*
%AMRoundRect*
0 Rectangle with rounded corners*
0 $1 Rounding radius*
0 $2 $3 $4 $5 $6 $7 $8 $9 X,Y pos of 4 corners*
0 Add a 4 corners polygon primitive as box body*
4,1,4,$2,$3,$4,$5,$6,$7,$8,$9,$2,$3,0*
0 Add four circle primitives for the rounded corners*
1,1,$1+$1,$2,$3*
1,1,$1+$1,$4,$5*
1,1,$1+$1,$6,$7*
1,1,$1+$1,$8,$9*
0 Add four rect primitives between the rounded corners*
20,1,$1+$1,$2,$3,$4,$5,0*
20,1,$1+$1,$4,$5,$6,$7,0*
20,1,$1+$1,$6,$7,$8,$9,0*
20,1,$1+$1,$8,$9,$2,$3,0*%
G04 Aperture macros list end*
%TA.AperFunction,SMDPad,CuDef*%
%ADD10R,0.400000X1.900000*%
%TD*%
%TA.AperFunction,ComponentPad*%
%ADD11C,1.700000*%
%TD*%
%TA.AperFunction,ComponentPad*%
%ADD12O,1.700000X1.700000*%
%TD*%
%TA.AperFunction,ComponentPad*%
%ADD13R,1.700000X1.700000*%
%TD*%
%TA.AperFunction,ComponentPad*%
%ADD14O,2.100000X1.000000*%
%TD*%
%TA.AperFunction,ComponentPad*%
%ADD15O,1.600000X1.000000*%
%TD*%
%TA.AperFunction,SMDPad,CuDef*%
%ADD16RoundRect,0.075000X-0.075000X0.700000X-0.075000X-0.700000X0.075000X-0.700000X0.075000X0.700000X0*%
%TD*%
%TA.AperFunction,SMDPad,CuDef*%
%ADD17RoundRect,0.075000X-0.700000X0.075000X-0.700000X-0.075000X0.700000X-0.075000X0.700000X0.075000X0*%
%TD*%
%TA.AperFunction,SMDPad,CuDef*%
%ADD18RoundRect,0.140000X0.140000X0.170000X-0.140000X0.170000X-0.140000X-0.170000X0.140000X-0.170000X0*%
%TD*%
%TA.AperFunction,SMDPad,CuDef*%
%ADD19RoundRect,0.125000X0.125000X-0.200000X0.125000X0.200000X-0.125000X0.200000X-0.125000X-0.200000X0*%
%TD*%
%TA.AperFunction,SMDPad,CuDef*%
%ADD20R,4.300000X3.400000*%
%TD*%
%TA.AperFunction,SMDPad,CuDef*%
%ADD21RoundRect,0.140000X-0.170000X0.140000X-0.170000X-0.140000X0.170000X-0.140000X0.170000X0.140000X0*%
%TD*%
%TA.AperFunction,SMDPad,CuDef*%
%ADD22RoundRect,0.135000X-0.135000X-0.185000X0.135000X-0.185000X0.135000X0.185000X-0.135000X0.185000X0*%
%TD*%
%TA.AperFunction,SMDPad,CuDef*%
%ADD23RoundRect,0.135000X0.135000X0.185000X-0.135000X0.185000X-0.135000X-0.185000X0.135000X-0.185000X0*%
%TD*%
%TA.AperFunction,ViaPad*%
%ADD24C,0.400000*%
%TD*%
%TA.AperFunction,ViaPad*%
%ADD25C,0.800000*%
%TD*%
%TA.AperFunction,Conductor*%
%ADD26C,0.250000*%
%TD*%
%TA.AperFunction,Conductor*%
%ADD27C,0.300000*%
%TD*%
%TA.AperFunction,Conductor*%
%ADD28C,0.200000*%
%TD*%
G04 APERTURE END LIST*
D10*
%TO.P,Y1,1,1*%
%TO.N,Net-(U6-PH1)*%
X120590000Y-43330000D03*
%TO.P,Y1,2,2*%
%TO.N,GND*%
X119390000Y-43330000D03*
%TO.P,Y1,3,3*%
%TO.N,Net-(U6-PH0)*%
X118190000Y-43330000D03*
%TD*%
D11*
%TO.P,J2,1,Pin_1*%
%TO.N,Net-(J2-Pin_1)*%
X105000000Y-57550000D03*
D12*
%TO.P,J2,2,Pin_2*%
%TO.N,Net-(J2-Pin_2)*%
X105000000Y-55010000D03*
%TO.P,J2,3,Pin_3*%
%TO.N,Net-(J2-Pin_3)*%
X105000000Y-52470000D03*
%TO.P,J2,4,Pin_4*%
%TO.N,Net-(J2-Pin_4)*%
X105000000Y-49930000D03*
%TO.P,J2,5,Pin_5*%
%TO.N,Net-(J2-Pin_5)*%
X105000000Y-44850000D03*
%TO.P,J2,6,Pin_6*%
%TO.N,Net-(J2-Pin_6)*%
X105000000Y-42310000D03*
%TO.P,J2,7,Pin_7*%
%TO.N,Net-(J2-Pin_7)*%
X105000000Y-39770000D03*
D11*
%TO.P,J2,8,Pin_8*%
%TO.N,VBUS*%
X102460000Y-57550000D03*
D12*
%TO.P,J2,9,Pin_9*%
X102460000Y-55010000D03*
%TO.P,J2,10,Pin_10*%
X102460000Y-52470000D03*
%TO.P,J2,11,Pin_11*%
X102460000Y-49930000D03*
%TO.P,J2,12,Pin_12*%
X102460000Y-44850000D03*
%TO.P,J2,13,Pin_13*%
X102460000Y-42310000D03*
%TO.P,J2,14,Pin_14*%
X102460000Y-39770000D03*
D13*
%TO.P,J2,15,Pin_15*%
%TO.N,GND*%
X99920000Y-57550000D03*
%TO.P,J2,16,Pin_16*%
X99920000Y-55010000D03*
%TO.P,J2,17,Pin_17*%
X99920000Y-52470000D03*
%TO.P,J2,18,Pin_18*%
X99920000Y-49930000D03*
%TO.P,J2,19,Pin_19*%
X99920000Y-44850000D03*
%TO.P,J2,20,Pin_20*%
X99920000Y-42310000D03*
%TO.P,J2,21,Pin_21*%
X99920000Y-39770000D03*
%TD*%
D14*
%TO.P,J1,S1,SHIELD*%
%TO.N,GND*%
X129020000Y-48250000D03*
D15*
X133200000Y-48250000D03*
D14*
X129020000Y-39610000D03*
D15*
X133200000Y-39610000D03*
%TD*%
D16*
%TO.P,U6,1,VBAT*%
%TO.N,+3V3*%
X117140000Y-45755000D03*
%TO.P,U6,2,PC13*%
%TO.N,unconnected-(U6-PC13-Pad2)*%
X117640000Y-45755000D03*
%TO.P,U6,3,PC14*%
%TO.N,/LED_GR*%
X118140000Y-45755000D03*
%TO.P,U6,4,PC15*%
%TO.N,/LED_RD*%
X118640000Y-45755000D03*
%TO.P,U6,5,PH0*%
%TO.N,Net-(U6-PH0)*%
X119140000Y-45755000D03*
%TO.P,U6,6,PH1*%
%TO.N,Net-(U6-PH1)*%
X119640000Y-45755000D03*
%TO.P,U6,7,NRST*%
%TO.N,Net-(U6-NRST)*%
X120140000Y-45755000D03*
%TO.P,U6,8,PC0*%
%TO.N,/VBAT_ADC*%
X120640000Y-45755000D03*
%TO.P,U6,9,PC1*%
%TO.N,/Vx_ADC*%
X121140000Y-45755000D03*
%TO.P,U6,10,PC2*%
%TO.N,/5V_ADC*%
X121640000Y-45755000D03*
%TO.P,U6,11,PC3*%
%TO.N,/Vx_Curr*%
X122140000Y-45755000D03*
%TO.P,U6,12,VSSA*%
%TO.N,GND*%
X122640000Y-45755000D03*
%TO.P,U6,13,VDDA*%
%TO.N,+3V3*%
X123140000Y-45755000D03*
%TO.P,U6,14,PA0*%
%TO.N,/UART4_TX*%
X123640000Y-45755000D03*
%TO.P,U6,15,PA1*%
%TO.N,/UART4_RX*%
X124140000Y-45755000D03*
%TO.P,U6,16,PA2*%
%TO.N,/RPM*%
X124640000Y-45755000D03*
D17*
%TO.P,U6,17,PA3*%
%TO.N,/SBUS*%
X126565000Y-47680000D03*
%TO.P,U6,18,VSS*%
%TO.N,GND*%
X126565000Y-48180000D03*
%TO.P,U6,19,VDD*%
%TO.N,+3V3*%
X126565000Y-48680000D03*
%TO.P,U6,20,PA4*%
%TO.N,/BMI_NSS*%
X126565000Y-49180000D03*
%TO.P,U6,21,PA5*%
%TO.N,/BMI_SCK*%
X126565000Y-49680000D03*
%TO.P,U6,22,PA6*%
%TO.N,/BMI_MISO*%
X126565000Y-50180000D03*
%TO.P,U6,23,PA7*%
%TO.N,/BMI_MOSI*%
X126565000Y-50680000D03*
%TO.P,U6,24,PC4*%
%TO.N,/ESC_Curr*%
X126565000Y-51180000D03*
%TO.P,U6,25,PB0*%
%TO.N,/S3*%
X126565000Y-51680000D03*
%TO.P,U6,26,PB1*%
%TO.N,unconnected-(U6-PB1-Pad26)*%
X126565000Y-52180000D03*
%TO.P,U6,27,PB2*%
%TO.N,unconnected-(U6-PB2-Pad27)*%
X126565000Y-52680000D03*
%TO.P,U6,28,PB10*%
%TO.N,/UART3_TX*%
X126565000Y-53180000D03*
%TO.P,U6,29,PB11*%
%TO.N,/UART3_RX*%
X126565000Y-53680000D03*
%TO.P,U6,30,VCAP_1*%
%TO.N,Net-(U6-VCAP_1)*%
X126565000Y-54180000D03*
%TO.P,U6,31,VSS*%
%TO.N,GND*%
X126565000Y-54680000D03*
%TO.P,U6,32,VDD*%
%TO.N,+3V3*%
X126565000Y-55180000D03*
D16*
%TO.P,U6,33,PB12*%
%TO.N,/FLASH_NSS*%
X124640000Y-57105000D03*
%TO.P,U6,34,PB13*%
%TO.N,/FLASH_SCK*%
X124140000Y-57105000D03*
%TO.P,U6,35,PB14*%
%TO.N,/FLASH_MISO*%
X123640000Y-57105000D03*
%TO.P,U6,36,PB15*%
%TO.N,/FLASH_MOSI*%
X123140000Y-57105000D03*
%TO.P,U6,37,PC6*%
%TO.N,/UART6_TX*%
X122640000Y-57105000D03*
%TO.P,U6,38,PC7*%
%TO.N,/UART6_RX*%
X122140000Y-57105000D03*
%TO.P,U6,39,PC8*%
%TO.N,unconnected-(U6-PC8-Pad39)*%
X121640000Y-57105000D03*
%TO.P,U6,40,PC9*%
%TO.N,unconnected-(U6-PC9-Pad40)*%
X121140000Y-57105000D03*
%TO.P,U6,41,PA8*%
%TO.N,/LEDOUT*%
X120640000Y-57105000D03*
%TO.P,U6,42,PA9*%
%TO.N,unconnected-(U6-PA9-Pad42)*%
X120140000Y-57105000D03*
%TO.P,U6,43,PA10*%
%TO.N,/DSM*%
X119640000Y-57105000D03*
%TO.P,U6,44,PA11*%
%TO.N,/MCU_D-*%
X119140000Y-57105000D03*
%TO.P,U6,45,PA12*%
%TO.N,/MCU_D+*%
X118640000Y-57105000D03*
%TO.P,U6,46,PA13*%
%TO.N,/SWDIO*%
X118140000Y-57105000D03*
%TO.P,U6,47,VSS*%
%TO.N,GND*%
X117640000Y-57105000D03*
%TO.P,U6,48,VDD*%
%TO.N,+3V3*%
X117140000Y-57105000D03*
D17*
%TO.P,U6,49,PA14*%
%TO.N,/SWCLK*%
X115215000Y-55180000D03*
%TO.P,U6,50,PA15*%
%TO.N,/BMI_INT*%
X115215000Y-54680000D03*
%TO.P,U6,51,PC10*%
%TO.N,unconnected-(U6-PC10-Pad51)*%
X115215000Y-54180000D03*
%TO.P,U6,52,PC11*%
%TO.N,unconnected-(U6-PC11-Pad52)*%
X115215000Y-53680000D03*
%TO.P,U6,53,PC12*%
%TO.N,unconnected-(U6-PC12-Pad53)*%
X115215000Y-53180000D03*
%TO.P,U6,54,PD2*%
%TO.N,unconnected-(U6-PD2-Pad54)*%
X115215000Y-52680000D03*
%TO.P,U6,55,PB3*%
%TO.N,/TAIL*%
X115215000Y-52180000D03*
%TO.P,U6,56,PB4*%
%TO.N,/S1*%
X115215000Y-51680000D03*
%TO.P,U6,57,PB5*%
%TO.N,/S2*%
X115215000Y-51180000D03*
%TO.P,U6,58,PB6*%
%TO.N,/ESC*%
X115215000Y-50680000D03*
%TO.P,U6,59,PB7*%
%TO.N,unconnected-(U6-PB7-Pad59)*%
X115215000Y-50180000D03*
%TO.P,U6,60,BOOT0*%
%TO.N,Net-(U6-BOOT0)*%
X115215000Y-49680000D03*
%TO.P,U6,61,PB8*%
%TO.N,/BARO_SCL*%
X115215000Y-49180000D03*
%TO.P,U6,62,PB9*%
%TO.N,/BARO_SDA*%
X115215000Y-48680000D03*
%TO.P,U6,63,VSS*%
%TO.N,GND*%
X115215000Y-48180000D03*
%TO.P,U6,64,VDD*%
%TO.N,+3V3*%
X115215000Y-47680000D03*
%TD*%
D18*
%TO.P,C19,1*%
%TO.N,+3V3*%
X123370000Y-44030000D03*
%TO.P,C19,2*%
%TO.N,GND*%
X122410000Y-44030000D03*
%TD*%
%TO.P,C11,1*%
%TO.N,+3V3*%
X123370000Y-43030000D03*
%TO.P,C11,2*%
%TO.N,GND*%
X122410000Y-43030000D03*
%TD*%
D19*
%TO.P,U9,1,~{CS}*%
%TO.N,/FLASH_NSS*%
X133595000Y-57130000D03*
%TO.P,U9,2,DO(IO1)*%
%TO.N,/FLASH_MISO*%
X132325000Y-57130000D03*
%TO.P,U9,3,IO2*%
%TO.N,Net-(U9-IO2)*%
X131055000Y-57130000D03*
%TO.P,U9,4,GND*%
%TO.N,GND*%
X129785000Y-57130000D03*
%TO.P,U9,5,DI(IO0)*%
%TO.N,/FLASH_MOSI*%
X129785000Y-49630000D03*
%TO.P,U9,6,CLK*%
%TO.N,/FLASH_SCK*%
X131055000Y-49630000D03*
%TO.P,U9,7,IO3*%
%TO.N,Net-(U9-IO3)*%
X132325000Y-49630000D03*
%TO.P,U9,8,VCC*%
%TO.N,+3V3*%
X133595000Y-49630000D03*
D20*
%TO.P,U9,9*%
%TO.N,N/C*%
X131690000Y-53380000D03*
%TD*%
D21*
%TO.P,C10,1*%
%TO.N,+3V3*%
X113490000Y-47550000D03*
%TO.P,C10,2*%
%TO.N,GND*%
X113490000Y-48510000D03*
%TD*%
%TO.P,C20,1*%
%TO.N,+3V3*%
X112490000Y-47550000D03*
%TO.P,C20,2*%
%TO.N,GND*%
X112490000Y-48510000D03*
%TD*%
D22*
%TO.P,R13,1*%
%TO.N,+3V3*%
X129880000Y-58230000D03*
%TO.P,R13,2*%
%TO.N,Net-(U9-IO2)*%
X130900000Y-58230000D03*
%TD*%
D23*
%TO.P,R12,1*%
%TO.N,+3V3*%
X133500000Y-46630000D03*
%TO.P,R12,2*%
%TO.N,Net-(U9-IO3)*%
X132480000Y-46630000D03*
%TD*%
D24*
%TO.N,GND*%
X125674601Y-42280000D03*
X122790000Y-54580000D03*
D25*
X111590000Y-44230000D03*
X110190000Y-45730000D03*
X111590000Y-45730000D03*
D24*
X125290000Y-47930000D03*
D25*
X134490000Y-55830000D03*
D24*
X117690000Y-55930000D03*
X115140000Y-47130500D03*
X125542950Y-58329500D03*
X111990000Y-53780000D03*
D25*
X108290000Y-39430000D03*
D24*
X129145506Y-57351605D03*
D25*
X116580500Y-43947562D03*
D24*
X124876411Y-44216411D03*
X125460862Y-54660519D03*
X111590000Y-48530000D03*
D25*
%TO.N,+3V3*%
X120590000Y-41730000D03*
D24*
X123990000Y-55030000D03*
X116990000Y-52030000D03*
X116590000Y-45430000D03*
X119164500Y-46929500D03*
X133490000Y-45930000D03*
X114049385Y-49023357D03*
X111590000Y-47530000D03*
X116890000Y-54530000D03*
X125390000Y-46849500D03*
X117090000Y-55930000D03*
D25*
X122790000Y-41330000D03*
D24*
X127790000Y-50330000D03*
X125590000Y-55430000D03*
X125374920Y-48630923D03*
D25*
X121790000Y-41730000D03*
D24*
X127785619Y-48833662D03*
X123390000Y-42130000D03*
X129190000Y-58030000D03*
D25*
%TO.N,VBUS*%
X107590000Y-45130000D03*
X106990000Y-42130000D03*
X107390000Y-43530000D03*
X108390000Y-45930000D03*
D24*
%TO.N,+5V*%
X112990000Y-50854500D03*
D25*
X117090000Y-39530000D03*
X118890000Y-39530000D03*
X134439500Y-54630000D03*
D24*
X113690000Y-54330000D03*
D25*
X106890000Y-40630000D03*
X115690000Y-45030000D03*
D24*
%TO.N,/S1*%
X110540000Y-57304500D03*
%TO.N,/S2*%
X109738378Y-56705500D03*
%TO.N,/S3*%
X109467500Y-55352500D03*
X122140000Y-53129500D03*
X118140500Y-54015310D03*
%TO.N,/TAIL*%
X111390000Y-53830000D03*
%TO.N,/ESC*%
X109490000Y-52730000D03*
%TO.N,/RPM*%
X109490000Y-51730000D03*
X122000370Y-48401437D03*
X109490000Y-50205500D03*
%TO.N,/SBUS*%
X122016280Y-49212171D03*
%TO.N,Net-(U6-VCAP_1)*%
X122890000Y-53330000D03*
%TO.N,/MCU_D-*%
X119393200Y-51633200D03*
%TO.N,/MCU_D+*%
X118690000Y-51630000D03*
%TO.N,Net-(U6-BOOT0)*%
X117790000Y-53529500D03*
%TO.N,/BARO_SCL*%
X117590000Y-49230000D03*
%TO.N,/BARO_SDA*%
X117590000Y-48630000D03*
%TO.N,Net-(U6-NRST)*%
X120103957Y-46843957D03*
%TO.N,/UART4_TX*%
X121318851Y-50995094D03*
%TO.N,/UART4_RX*%
X121901444Y-51554604D03*
%TO.N,/LED_RD*%
X120007886Y-55652964D03*
%TO.N,/LED_GR*%
X119639500Y-55180000D03*
%TO.N,/BMI_NSS*%
X122612650Y-49273376D03*
%TO.N,/BMI_SCK*%
X122390000Y-49830000D03*
%TO.N,/BMI_MISO*%
X122918351Y-50902327D03*
%TO.N,/BMI_MOSI*%
X122612650Y-50386624D03*
%TO.N,/BMI_INT*%
X114169602Y-54689702D03*
X120892700Y-54237274D03*
X125390000Y-51230000D03*
%TD*%
D26*
%TO.N,Net-(U6-PH0)*%
X119140000Y-44914314D02*
X119140000Y-45755000D01*
X118190000Y-43964314D02*
X119140000Y-44914314D01*
X118190000Y-43330000D02*
X118190000Y-43964314D01*
%TO.N,Net-(U6-PH1)*%
X119640000Y-44914314D02*
X119640000Y-45755000D01*
X120590000Y-43964314D02*
X119640000Y-44914314D01*
X120590000Y-43330000D02*
X120590000Y-43964314D01*
D27*
%TO.N,GND*%
X125688958Y-54680000D02*
X126565000Y-54680000D01*
X111610000Y-48510000D02*
X111590000Y-48530000D01*
X112490000Y-48510000D02*
X113490000Y-48510000D01*
X112490000Y-48510000D02*
X111610000Y-48510000D01*
X129785000Y-57130000D02*
X129367111Y-57130000D01*
X117640000Y-55980000D02*
X117690000Y-55930000D01*
X113820000Y-48180000D02*
X113490000Y-48510000D01*
X117640000Y-57105000D02*
X117640000Y-55980000D01*
X122410000Y-44030000D02*
X122410000Y-43030000D01*
X125290000Y-47930000D02*
X125438958Y-47930000D01*
X122640000Y-44260000D02*
X122640000Y-45755000D01*
X129367111Y-57130000D02*
X129145506Y-57351605D01*
X122410000Y-44030000D02*
X122640000Y-44260000D01*
X115215000Y-48180000D02*
X113820000Y-48180000D01*
X125688958Y-48180000D02*
X126565000Y-48180000D01*
X125460862Y-54660519D02*
X125669477Y-54660519D01*
X125669477Y-54660519D02*
X125688958Y-54680000D01*
X125438958Y-47930000D02*
X125688958Y-48180000D01*
%TO.N,+3V3*%
X133500000Y-45940000D02*
X133490000Y-45930000D01*
X123370000Y-42150000D02*
X123390000Y-42130000D01*
X117140000Y-57105000D02*
X117140000Y-55980000D01*
X116440000Y-47680000D02*
X117140000Y-46980000D01*
X129880000Y-58230000D02*
X129390000Y-58230000D01*
X125590000Y-55430000D02*
X125840000Y-55180000D01*
X123370000Y-43030000D02*
X123370000Y-44030000D01*
X133595000Y-49630000D02*
X134344911Y-48880089D01*
X123370000Y-44030000D02*
X123140000Y-44260000D01*
X112490000Y-47550000D02*
X111610000Y-47550000D01*
X115215000Y-47680000D02*
X116440000Y-47680000D01*
X115215000Y-47680000D02*
X113620000Y-47680000D01*
X133500000Y-46630000D02*
X133500000Y-45940000D01*
X113620000Y-47680000D02*
X113490000Y-47550000D01*
X113490000Y-47550000D02*
X112490000Y-47550000D01*
X125423997Y-48680000D02*
X125374920Y-48630923D01*
X134344911Y-48880089D02*
X134344911Y-47474911D01*
X125840000Y-55180000D02*
X126565000Y-55180000D01*
X129390000Y-58230000D02*
X129190000Y-58030000D01*
X111610000Y-47550000D02*
X111590000Y-47530000D01*
X117140000Y-55980000D02*
X117090000Y-55930000D01*
X123370000Y-43030000D02*
X123370000Y-42150000D01*
X134344911Y-47474911D02*
X133500000Y-46630000D01*
X126565000Y-48680000D02*
X125423997Y-48680000D01*
X117140000Y-46980000D02*
X117140000Y-45755000D01*
X123140000Y-44260000D02*
X123140000Y-45755000D01*
D26*
%TO.N,/S1*%
X112463292Y-51829500D02*
X113393859Y-51829500D01*
X113543359Y-51680000D02*
X115215000Y-51680000D01*
X108890000Y-55893604D02*
X108890000Y-54316396D01*
X109090000Y-56093604D02*
X108890000Y-55893604D01*
X109501396Y-53705000D02*
X110587792Y-53705000D01*
X110540000Y-56764659D02*
X109868945Y-56093604D01*
X108890000Y-54316396D02*
X109501396Y-53705000D01*
X113393859Y-51829500D02*
X113543359Y-51680000D01*
X110540000Y-57304500D02*
X110540000Y-56764659D01*
X109868945Y-56093604D02*
X109090000Y-56093604D01*
X110587792Y-53705000D02*
X112463292Y-51829500D01*
%TO.N,/S2*%
X113207463Y-51379500D02*
X113406963Y-51180000D01*
X109065500Y-56705500D02*
X108440000Y-56080000D01*
X112276896Y-51379500D02*
X113207463Y-51379500D01*
X108440000Y-54130000D02*
X109315000Y-53255000D01*
X108440000Y-56080000D02*
X108440000Y-54130000D01*
X110401396Y-53255000D02*
X112276896Y-51379500D01*
X109738378Y-56705500D02*
X109065500Y-56705500D01*
X113406963Y-51180000D02*
X115215000Y-51180000D01*
X109315000Y-53255000D02*
X110401396Y-53255000D01*
%TO.N,/S3*%
X122990000Y-52330000D02*
X125074314Y-52330000D01*
X122190500Y-53129500D02*
X122990000Y-52330000D01*
X122140000Y-53129500D02*
X122190500Y-53129500D01*
X118140500Y-54021963D02*
X116507463Y-55655000D01*
X111159963Y-55352500D02*
X109467500Y-55352500D01*
X118140500Y-54015310D02*
X118140500Y-54021963D01*
X125724314Y-51680000D02*
X126565000Y-51680000D01*
X111462463Y-55655000D02*
X111159963Y-55352500D01*
X125074314Y-52330000D02*
X125724314Y-51680000D01*
X116507463Y-55655000D02*
X111462463Y-55655000D01*
%TO.N,/TAIL*%
X113679755Y-52180000D02*
X113580255Y-52279500D01*
X112649688Y-52279500D02*
X111880990Y-53048198D01*
X111880990Y-53048198D02*
X111390000Y-53539188D01*
X115215000Y-52180000D02*
X113679755Y-52180000D01*
X113090000Y-52279500D02*
X112649688Y-52279500D01*
X113580255Y-52279500D02*
X113090000Y-52279500D01*
X111390000Y-53539188D02*
X111390000Y-53830000D01*
%TO.N,/ESC*%
X110290000Y-52730000D02*
X112690000Y-50330000D01*
X109490000Y-52730000D02*
X110290000Y-52730000D01*
X112690000Y-50330000D02*
X113207963Y-50330000D01*
X113207963Y-50330000D02*
X113557963Y-50680000D01*
X113557963Y-50680000D02*
X115215000Y-50680000D01*
%TO.N,/RPM*%
X122105730Y-48401437D02*
X122252167Y-48255000D01*
X124640000Y-47201141D02*
X124640000Y-45755000D01*
X122000370Y-48401437D02*
X122105730Y-48401437D01*
X123586141Y-48255000D02*
X124640000Y-47201141D01*
X122252167Y-48255000D02*
X123586141Y-48255000D01*
X109490000Y-50205500D02*
X109490000Y-51730000D01*
%TO.N,/SBUS*%
X125072537Y-47405000D02*
X126290000Y-47405000D01*
X124765000Y-47712537D02*
X125072537Y-47405000D01*
X122087650Y-49140801D02*
X122087650Y-49055913D01*
X126290000Y-47405000D02*
X126565000Y-47680000D01*
X124115000Y-48705000D02*
X124765000Y-48055000D01*
X122016280Y-49212171D02*
X122087650Y-49140801D01*
X124765000Y-48055000D02*
X124765000Y-47712537D01*
X122438563Y-48705000D02*
X124115000Y-48705000D01*
X122087650Y-49055913D02*
X122438563Y-48705000D01*
D28*
%TO.N,Net-(U6-VCAP_1)*%
X126545519Y-54160519D02*
X123720519Y-54160519D01*
X123720519Y-54160519D02*
X122890000Y-53330000D01*
X126565000Y-54180000D02*
X126545519Y-54160519D01*
%TO.N,/MCU_D-*%
X119140000Y-57105000D02*
X119140000Y-51886400D01*
X119140000Y-51886400D02*
X119393200Y-51633200D01*
%TO.N,/MCU_D+*%
X118640000Y-51680000D02*
X118690000Y-51630000D01*
X118640000Y-57105000D02*
X118640000Y-51680000D01*
D26*
%TO.N,Net-(U6-BOOT0)*%
X118040000Y-50530000D02*
X117190000Y-49680000D01*
X118040000Y-53279500D02*
X118040000Y-50530000D01*
X117790000Y-53529500D02*
X118040000Y-53279500D01*
X117190000Y-49680000D02*
X115215000Y-49680000D01*
D27*
%TO.N,/BARO_SCL*%
X115215000Y-49180000D02*
X117540000Y-49180000D01*
X117540000Y-49180000D02*
X117590000Y-49230000D01*
%TO.N,/BARO_SDA*%
X117540000Y-48680000D02*
X117590000Y-48630000D01*
X115215000Y-48680000D02*
X117540000Y-48680000D01*
D28*
%TO.N,Net-(U6-NRST)*%
X120103957Y-45791043D02*
X120140000Y-45755000D01*
X120103957Y-46843957D02*
X120103957Y-45791043D01*
D27*
%TO.N,Net-(U9-IO3)*%
X132055089Y-47054911D02*
X132480000Y-46630000D01*
X132055089Y-49360089D02*
X132055089Y-47054911D01*
X132325000Y-49630000D02*
X132055089Y-49360089D01*
%TO.N,Net-(U9-IO2)*%
X130900000Y-57285000D02*
X131055000Y-57130000D01*
X130900000Y-58230000D02*
X130900000Y-57285000D01*
%TO.N,/UART4_TX*%
X123640000Y-46822283D02*
X123640000Y-45755000D01*
X120950370Y-49797477D02*
X120950370Y-47966512D01*
X123182283Y-47280000D02*
X123640000Y-46822283D01*
X120950370Y-47966512D02*
X121636883Y-47280000D01*
X121318851Y-50165958D02*
X120950370Y-49797477D01*
X121318851Y-50995094D02*
X121318851Y-50165958D01*
X121636883Y-47280000D02*
X123182283Y-47280000D01*
%TO.N,/UART4_RX*%
X123389389Y-47780000D02*
X124140000Y-47029389D01*
X121843989Y-47780000D02*
X123389389Y-47780000D01*
X121450370Y-49590370D02*
X121450370Y-48173619D01*
X121868351Y-51521511D02*
X121868351Y-50008351D01*
X121868351Y-50008351D02*
X121450370Y-49590370D01*
X121901444Y-51554604D02*
X121868351Y-51521511D01*
X124140000Y-47029389D02*
X124140000Y-45755000D01*
X121450370Y-48173619D02*
X121843989Y-47780000D01*
D26*
%TO.N,/LED_RD*%
X120368200Y-55292650D02*
X120368200Y-51171804D01*
X120007886Y-55652964D02*
X120368200Y-55292650D01*
X118640000Y-49443604D02*
X118640000Y-45755000D01*
X120368200Y-51171804D02*
X118640000Y-49443604D01*
%TO.N,/LED_GR*%
X119639500Y-55180000D02*
X119918200Y-54901300D01*
X119918200Y-54901300D02*
X119918200Y-51358200D01*
X118140000Y-49580000D02*
X118140000Y-45755000D01*
X119918200Y-51358200D02*
X118140000Y-49580000D01*
D27*
%TO.N,/BMI_NSS*%
X122706026Y-49180000D02*
X122612650Y-49273376D01*
X126565000Y-49180000D02*
X122706026Y-49180000D01*
%TO.N,/BMI_SCK*%
X122833844Y-49830000D02*
X122390000Y-49830000D01*
X126565000Y-49680000D02*
X122983844Y-49680000D01*
X122983844Y-49680000D02*
X122833844Y-49830000D01*
%TO.N,/BMI_MISO*%
X126565000Y-50180000D02*
X123640678Y-50180000D01*
X123640678Y-50180000D02*
X122918351Y-50902327D01*
%TO.N,/BMI_MOSI*%
X122368351Y-51208351D02*
X122368351Y-50630923D01*
X122368351Y-50630923D02*
X122612650Y-50386624D01*
X123940000Y-50680000D02*
X123167673Y-51452327D01*
X123167673Y-51452327D02*
X122612327Y-51452327D01*
X126565000Y-50680000D02*
X123940000Y-50680000D01*
X122612327Y-51452327D02*
X122368351Y-51208351D01*
D28*
%TO.N,/BMI_INT*%
X124715000Y-51905000D02*
X122618200Y-51905000D01*
X125390000Y-51230000D02*
X124715000Y-51905000D01*
X120892700Y-53630500D02*
X120892700Y-54237274D01*
X114169602Y-54689702D02*
X115205298Y-54689702D01*
X122618200Y-51905000D02*
X120892700Y-53630500D01*
X115205298Y-54689702D02*
X115215000Y-54680000D01*
%TO.N,/FLASH_NSS*%
X131865685Y-56105000D02*
X128837185Y-56105000D01*
X132970000Y-56505000D02*
X132265686Y-56505000D01*
X128837185Y-56105000D02*
X127512183Y-57430000D01*
X132265686Y-56505000D02*
X131865685Y-56105000D01*
X124965000Y-57430000D02*
X124640000Y-57105000D01*
X127512183Y-57430000D02*
X124965000Y-57430000D01*
X133595000Y-57130000D02*
X132970000Y-56505000D01*
%TO.N,/FLASH_MISO*%
X124940000Y-58180000D02*
X123909670Y-58180000D01*
X129002870Y-56505000D02*
X127677868Y-57830000D01*
X123640000Y-57910330D02*
X123640000Y-57105000D01*
X123909670Y-58180000D02*
X123640000Y-57910330D01*
X132325000Y-57130000D02*
X131700000Y-56505000D01*
X131700000Y-56505000D02*
X129002870Y-56505000D01*
X127677868Y-57830000D02*
X125290000Y-57830000D01*
X125290000Y-57830000D02*
X124940000Y-58180000D01*
%TO.N,/FLASH_MOSI*%
X125036016Y-55630000D02*
X123809670Y-55630000D01*
X129785000Y-50334314D02*
X128840000Y-51279315D01*
X123809670Y-55630000D02*
X123140000Y-56299670D01*
X123140000Y-56299670D02*
X123140000Y-57105000D01*
X128840000Y-51279315D02*
X128840000Y-54970812D01*
X126036016Y-56630000D02*
X125036016Y-55630000D01*
X127180812Y-56630000D02*
X126036016Y-56630000D01*
X128840000Y-54970812D02*
X127180812Y-56630000D01*
X129785000Y-49630000D02*
X129785000Y-50334314D01*
%TO.N,/FLASH_SCK*%
X124409670Y-56030000D02*
X124140000Y-56299670D01*
X124870330Y-56030000D02*
X124409670Y-56030000D01*
X131055000Y-49630000D02*
X129240000Y-51445000D01*
X127346498Y-57030000D02*
X125870330Y-57030000D01*
X124140000Y-56299670D02*
X124140000Y-57105000D01*
X129240000Y-55136498D02*
X127346498Y-57030000D01*
X129240000Y-51445000D02*
X129240000Y-55136498D01*
X125870330Y-57030000D02*
X124870330Y-56030000D01*
%TD*%
%TA.AperFunction,Conductor*%
%TO.N,GND*%
G36*
X102158321Y-38550185D02*
G01*
X102204076Y-38602989D01*
X102214020Y-38672147D01*
X102184995Y-38735703D01*
X102127278Y-38773160D01*
X102061278Y-38793181D01*
X102056043Y-38794769D01*
X101999258Y-38825122D01*
X101873550Y-38892315D01*
X101873548Y-38892316D01*
X101873547Y-38892317D01*
X101713589Y-39023589D01*
X101582317Y-39183547D01*
X101484769Y-39366043D01*
X101424699Y-39564067D01*
X101404417Y-39770000D01*
X101424699Y-39975932D01*
X101424700Y-39975934D01*
X101484768Y-40173954D01*
X101582315Y-40356450D01*
X101613851Y-40394877D01*
X101713589Y-40516410D01*
X101763345Y-40557243D01*
X101873550Y-40647685D01*
X102056046Y-40745232D01*
X102254066Y-40805300D01*
X102254065Y-40805300D01*
X102272529Y-40807118D01*
X102460000Y-40825583D01*
X102665934Y-40805300D01*
X102863954Y-40745232D01*
X103046450Y-40647685D01*
X103206410Y-40516410D01*
X103337685Y-40356450D01*
X103435232Y-40173954D01*
X103495300Y-39975934D01*
X103515583Y-39770000D01*
X103495300Y-39564066D01*
X103435232Y-39366046D01*
X103337685Y-39183550D01*
X103270528Y-39101718D01*
X103206410Y-39023589D01*
X103046452Y-38892317D01*
X103046453Y-38892317D01*
X103046450Y-38892315D01*
X102863954Y-38794768D01*
X102792721Y-38773160D01*
X102734284Y-38734863D01*
X102705828Y-38671051D01*
X102716388Y-38601984D01*
X102762612Y-38549591D01*
X102828718Y-38530500D01*
X104631282Y-38530500D01*
X104698321Y-38550185D01*
X104744076Y-38602989D01*
X104754020Y-38672147D01*
X104724995Y-38735703D01*
X104667278Y-38773160D01*
X104601278Y-38793181D01*
X104596043Y-38794769D01*
X104539258Y-38825122D01*
X104413550Y-38892315D01*
X104413548Y-38892316D01*
X104413547Y-38892317D01*
X104253589Y-39023589D01*
X104122317Y-39183547D01*
X104024769Y-39366043D01*
X103964699Y-39564067D01*
X103944417Y-39770000D01*
X103964699Y-39975932D01*
X103964700Y-39975934D01*
X104024768Y-40173954D01*
X104122315Y-40356450D01*
X104153851Y-40394877D01*
X104253589Y-40516410D01*
X104303345Y-40557243D01*
X104413550Y-40647685D01*
X104596046Y-40745232D01*
X104794066Y-40805300D01*
X104794065Y-40805300D01*
X104812529Y-40807118D01*
X105000000Y-40825583D01*
X105205934Y-40805300D01*
X105403954Y-40745232D01*
X105586450Y-40647685D01*
X105607998Y-40630001D01*
X106284318Y-40630001D01*
X106304955Y-40786760D01*
X106304956Y-40786762D01*
X106359954Y-40919540D01*
X106365464Y-40932841D01*
X106461718Y-41058282D01*
X106587159Y-41154536D01*
X106733238Y-41215044D01*
X106811619Y-41225363D01*
X106889999Y-41235682D01*
X106890000Y-41235682D01*
X106890001Y-41235682D01*
X106942254Y-41228802D01*
X107046762Y-41215044D01*
X107192841Y-41154536D01*
X107318282Y-41058282D01*
X107414536Y-40932841D01*
X107475044Y-40786762D01*
X107495682Y-40630000D01*
X107495622Y-40629548D01*
X107479702Y-40508621D01*
X107475044Y-40473238D01*
X107414536Y-40327159D01*
X107318282Y-40201718D01*
X107192841Y-40105464D01*
X107181576Y-40100798D01*
X107046762Y-40044956D01*
X107046760Y-40044955D01*
X106890001Y-40024318D01*
X106889999Y-40024318D01*
X106733239Y-40044955D01*
X106733237Y-40044956D01*
X106587160Y-40105463D01*
X106461718Y-40201718D01*
X106365463Y-40327160D01*
X106304956Y-40473237D01*
X106304955Y-40473239D01*
X106284318Y-40629998D01*
X106284318Y-40630001D01*
X105607998Y-40630001D01*
X105746410Y-40516410D01*
X105877685Y-40356450D01*
X105975232Y-40173954D01*
X106035300Y-39975934D01*
X106055583Y-39770000D01*
X106035300Y-39564066D01*
X106024967Y-39530001D01*
X116484318Y-39530001D01*
X116504955Y-39686760D01*
X116504956Y-39686762D01*
X116565464Y-39832841D01*
X116661718Y-39958282D01*
X116787159Y-40054536D01*
X116933238Y-40115044D01*
X117011619Y-40125363D01*
X117089999Y-40135682D01*
X117090000Y-40135682D01*
X117090001Y-40135682D01*
X117142254Y-40128802D01*
X117246762Y-40115044D01*
X117392841Y-40054536D01*
X117518282Y-39958282D01*
X117614536Y-39832841D01*
X117675044Y-39686762D01*
X117688857Y-39581840D01*
X117695682Y-39530001D01*
X118284318Y-39530001D01*
X118304955Y-39686760D01*
X118304956Y-39686762D01*
X118365464Y-39832841D01*
X118461718Y-39958282D01*
X118587159Y-40054536D01*
X118733238Y-40115044D01*
X118811619Y-40125363D01*
X118889999Y-40135682D01*
X118890000Y-40135682D01*
X118890001Y-40135682D01*
X118942254Y-40128802D01*
X119046762Y-40115044D01*
X119192841Y-40054536D01*
X119318282Y-39958282D01*
X119393696Y-39860000D01*
X127709917Y-39860000D01*
X127744663Y-39959302D01*
X127840577Y-40111948D01*
X127968051Y-40239422D01*
X128120698Y-40335336D01*
X128290858Y-40394877D01*
X128425069Y-40409999D01*
X128425070Y-40410000D01*
X128770000Y-40410000D01*
X128770000Y-39910000D01*
X129270000Y-39910000D01*
X129270000Y-40436930D01*
X129271091Y-40438929D01*
X129270000Y-40454184D01*
X129270000Y-40461362D01*
X129269487Y-40461362D01*
X129266107Y-40508621D01*
X129225413Y-40563662D01*
X129139550Y-40629548D01*
X129139549Y-40629549D01*
X129050784Y-40745230D01*
X129047300Y-40749770D01*
X128989313Y-40889763D01*
X128989312Y-40889765D01*
X128969534Y-41039999D01*
X128969534Y-41040000D01*
X128989312Y-41190234D01*
X128989313Y-41190236D01*
X129047204Y-41329998D01*
X129047302Y-41330233D01*
X129139549Y-41450451D01*
X129259767Y-41542698D01*
X129399764Y-41600687D01*
X129512280Y-41615500D01*
X129512287Y-41615500D01*
X129587713Y-41615500D01*
X129587720Y-41615500D01*
X129700236Y-41600687D01*
X129840233Y-41542698D01*
X129960451Y-41450451D01*
X130052698Y-41330233D01*
X130110687Y-41190236D01*
X130130466Y-41040000D01*
X130128775Y-41027159D01*
X130114526Y-40918922D01*
X130110687Y-40889764D01*
X130052698Y-40749767D01*
X129960451Y-40629549D01*
X129874586Y-40563662D01*
X129866221Y-40557243D01*
X129825019Y-40500815D01*
X129820864Y-40431069D01*
X129855077Y-40370149D01*
X129900756Y-40341826D01*
X129919299Y-40335337D01*
X130071948Y-40239422D01*
X130199422Y-40111948D01*
X130295336Y-39959302D01*
X130330083Y-39860000D01*
X132139917Y-39860000D01*
X132174663Y-39959302D01*
X132270577Y-40111948D01*
X132398051Y-40239422D01*
X132550698Y-40335336D01*
X132720858Y-40394877D01*
X132855069Y-40409999D01*
X132855070Y-40410000D01*
X132950000Y-40410000D01*
X132950000Y-39910000D01*
X133450000Y-39910000D01*
X133450000Y-40410000D01*
X133544930Y-40410000D01*
X133544930Y-40409999D01*
X133679141Y-40394877D01*
X133849301Y-40335336D01*
X134001948Y-40239422D01*
X134129422Y-40111948D01*
X134225336Y-39959302D01*
X134260083Y-39860000D01*
X133666111Y-39860000D01*
X133705610Y-39835543D01*
X133773201Y-39746038D01*
X133803895Y-39638160D01*
X133793546Y-39526479D01*
X133743552Y-39426078D01*
X133671069Y-39360000D01*
X134260082Y-39360000D01*
X134225336Y-39260697D01*
X134129422Y-39108051D01*
X134001948Y-38980577D01*
X133849301Y-38884663D01*
X133679141Y-38825122D01*
X133544930Y-38810000D01*
X133450000Y-38810000D01*
X133450000Y-39310000D01*
X132950000Y-39310000D01*
X132950000Y-38810000D01*
X132855070Y-38810000D01*
X132720858Y-38825122D01*
X132550698Y-38884663D01*
X132398051Y-38980577D01*
X132270577Y-39108051D01*
X132174663Y-39260697D01*
X132139917Y-39360000D01*
X132733889Y-39360000D01*
X132694390Y-39384457D01*
X132626799Y-39473962D01*
X132596105Y-39581840D01*
X132606454Y-39693521D01*
X132656448Y-39793922D01*
X132728931Y-39860000D01*
X132139917Y-39860000D01*
X130330083Y-39860000D01*
X129736111Y-39860000D01*
X129775610Y-39835543D01*
X129843201Y-39746038D01*
X129873895Y-39638160D01*
X129863546Y-39526479D01*
X129813552Y-39426078D01*
X129741069Y-39360000D01*
X130330082Y-39360000D01*
X130295336Y-39260697D01*
X130199422Y-39108051D01*
X130071948Y-38980577D01*
X129919301Y-38884663D01*
X129749141Y-38825122D01*
X129614930Y-38810000D01*
X129270000Y-38810000D01*
X129270000Y-39310000D01*
X128770000Y-39310000D01*
X128770000Y-38810000D01*
X128425070Y-38810000D01*
X128290858Y-38825122D01*
X128120698Y-38884663D01*
X127968051Y-38980577D01*
X127840577Y-39108051D01*
X127744663Y-39260697D01*
X127709917Y-39360000D01*
X128303889Y-39360000D01*
X128264390Y-39384457D01*
X128196799Y-39473962D01*
X128166105Y-39581840D01*
X128176454Y-39693521D01*
X128226448Y-39793922D01*
X128298931Y-39860000D01*
X127709917Y-39860000D01*
X119393696Y-39860000D01*
X119414536Y-39832841D01*
X119475044Y-39686762D01*
X119488857Y-39581840D01*
X119495682Y-39530001D01*
X119495682Y-39529998D01*
X119475044Y-39373239D01*
X119475044Y-39373238D01*
X119414536Y-39227159D01*
X119318282Y-39101718D01*
X119192841Y-39005464D01*
X119046762Y-38944956D01*
X119046760Y-38944955D01*
X118890001Y-38924318D01*
X118889999Y-38924318D01*
X118733239Y-38944955D01*
X118733237Y-38944956D01*
X118587160Y-39005463D01*
X118461718Y-39101718D01*
X118365463Y-39227160D01*
X118304956Y-39373237D01*
X118304955Y-39373239D01*
X118284318Y-39529998D01*
X118284318Y-39530001D01*
X117695682Y-39530001D01*
X117695682Y-39529998D01*
X117675044Y-39373239D01*
X117675044Y-39373238D01*
X117614536Y-39227159D01*
X117518282Y-39101718D01*
X117392841Y-39005464D01*
X117246762Y-38944956D01*
X117246760Y-38944955D01*
X117090001Y-38924318D01*
X117089999Y-38924318D01*
X116933239Y-38944955D01*
X116933237Y-38944956D01*
X116787160Y-39005463D01*
X116661718Y-39101718D01*
X116565463Y-39227160D01*
X116504956Y-39373237D01*
X116504955Y-39373239D01*
X116484318Y-39529998D01*
X116484318Y-39530001D01*
X106024967Y-39530001D01*
X105975232Y-39366046D01*
X105877685Y-39183550D01*
X105810528Y-39101718D01*
X105746410Y-39023589D01*
X105586452Y-38892317D01*
X105586453Y-38892317D01*
X105586450Y-38892315D01*
X105403954Y-38794768D01*
X105332721Y-38773160D01*
X105274284Y-38734863D01*
X105245828Y-38671051D01*
X105256388Y-38601984D01*
X105302612Y-38549591D01*
X105368718Y-38530500D01*
X136139138Y-38530500D01*
X136206177Y-38550185D01*
X136226819Y-38566819D01*
X136453181Y-38793181D01*
X136486666Y-38854504D01*
X136489500Y-38880862D01*
X136489500Y-58579138D01*
X136469815Y-58646177D01*
X136453181Y-58666819D01*
X136226819Y-58893181D01*
X136165496Y-58926666D01*
X136139138Y-58929500D01*
X131284839Y-58929500D01*
X131217800Y-58909815D01*
X131172045Y-58857011D01*
X131162101Y-58787853D01*
X131191126Y-58724297D01*
X131222007Y-58700988D01*
X131221517Y-58700288D01*
X131230401Y-58694066D01*
X131230404Y-58694065D01*
X131314065Y-58610404D01*
X131364068Y-58503173D01*
X131370500Y-58454316D01*
X131370500Y-58005684D01*
X131364068Y-57956827D01*
X131314065Y-57849596D01*
X131287229Y-57822760D01*
X131253744Y-57761437D01*
X131258728Y-57691745D01*
X131300600Y-57635812D01*
X131322494Y-57622703D01*
X131369579Y-57600747D01*
X131450747Y-57519579D01*
X131499259Y-57415545D01*
X131505500Y-57368139D01*
X131505499Y-57034830D01*
X131525183Y-56967793D01*
X131577987Y-56922038D01*
X131647146Y-56912094D01*
X131710701Y-56941119D01*
X131717180Y-56947151D01*
X131838181Y-57068152D01*
X131871666Y-57129475D01*
X131874500Y-57155832D01*
X131874500Y-57368132D01*
X131874501Y-57368138D01*
X131880741Y-57415545D01*
X131880742Y-57415547D01*
X131880742Y-57415548D01*
X131887390Y-57429804D01*
X131929253Y-57519579D01*
X132010421Y-57600747D01*
X132114455Y-57649259D01*
X132161861Y-57655500D01*
X132488138Y-57655499D01*
X132535545Y-57649259D01*
X132639579Y-57600747D01*
X132720747Y-57519579D01*
X132769259Y-57415545D01*
X132775500Y-57368139D01*
X132775499Y-57034830D01*
X132795183Y-56967793D01*
X132847987Y-56922038D01*
X132917146Y-56912094D01*
X132980701Y-56941119D01*
X132987180Y-56947151D01*
X133108181Y-57068152D01*
X133141666Y-57129475D01*
X133144500Y-57155832D01*
X133144500Y-57368132D01*
X133144501Y-57368138D01*
X133150741Y-57415545D01*
X133150742Y-57415547D01*
X133150742Y-57415548D01*
X133157390Y-57429804D01*
X133199253Y-57519579D01*
X133280421Y-57600747D01*
X133384455Y-57649259D01*
X133431861Y-57655500D01*
X133758138Y-57655499D01*
X133805545Y-57649259D01*
X133909579Y-57600747D01*
X133990747Y-57519579D01*
X134039259Y-57415545D01*
X134045500Y-57368139D01*
X134045499Y-56891862D01*
X134039259Y-56844455D01*
X133990747Y-56740421D01*
X133909579Y-56659253D01*
X133805545Y-56610741D01*
X133805543Y-56610740D01*
X133805544Y-56610740D01*
X133758140Y-56604500D01*
X133758139Y-56604500D01*
X133545834Y-56604500D01*
X133478795Y-56584815D01*
X133458153Y-56568181D01*
X133404671Y-56514699D01*
X133226915Y-56336944D01*
X133221278Y-56330466D01*
X133213959Y-56320774D01*
X133213958Y-56320772D01*
X133213347Y-56320215D01*
X133178624Y-56288560D01*
X133176573Y-56286602D01*
X133162797Y-56272826D01*
X133160586Y-56271311D01*
X133153853Y-56265978D01*
X133130933Y-56245084D01*
X133124470Y-56242580D01*
X133099192Y-56229256D01*
X133093481Y-56225344D01*
X133093478Y-56225343D01*
X133093479Y-56225343D01*
X133063302Y-56218244D01*
X133055094Y-56215703D01*
X133026173Y-56204500D01*
X133019249Y-56204500D01*
X132990858Y-56201206D01*
X132984119Y-56199621D01*
X132953409Y-56203905D01*
X132944834Y-56204500D01*
X132441520Y-56204500D01*
X132374481Y-56184815D01*
X132353839Y-56168181D01*
X132122605Y-55936947D01*
X132116962Y-55930463D01*
X132109643Y-55920772D01*
X132074320Y-55888570D01*
X132072270Y-55886613D01*
X132058482Y-55872825D01*
X132058479Y-55872823D01*
X132058474Y-55872819D01*
X132056261Y-55871303D01*
X132049525Y-55865967D01*
X132026618Y-55845084D01*
X132020155Y-55842580D01*
X131994874Y-55829254D01*
X131989164Y-55825342D01*
X131989161Y-55825341D01*
X131958981Y-55818243D01*
X131950771Y-55815701D01*
X131921858Y-55804500D01*
X131914932Y-55804500D01*
X131886543Y-55801206D01*
X131879803Y-55799621D01*
X131879802Y-55799621D01*
X131868441Y-55801206D01*
X131849092Y-55803905D01*
X131840518Y-55804500D01*
X129296330Y-55804500D01*
X129229291Y-55784815D01*
X129183536Y-55732011D01*
X129173592Y-55662853D01*
X129202617Y-55599297D01*
X129208649Y-55592819D01*
X129257114Y-55544354D01*
X129408059Y-55393408D01*
X129414532Y-55387777D01*
X129424224Y-55380457D01*
X129424228Y-55380456D01*
X129456459Y-55345098D01*
X129458367Y-55343100D01*
X129472174Y-55329295D01*
X129472177Y-55329290D01*
X129475504Y-55325284D01*
X129533476Y-55286283D01*
X129570903Y-55280500D01*
X133859750Y-55280500D01*
X133859751Y-55280499D01*
X133874568Y-55277552D01*
X133918229Y-55268868D01*
X133918229Y-55268867D01*
X133918231Y-55268867D01*
X133984552Y-55224552D01*
X133997628Y-55204981D01*
X134051239Y-55160176D01*
X134120563Y-55151467D01*
X134148183Y-55159310D01*
X134217093Y-55187853D01*
X134282738Y-55215044D01*
X134319198Y-55219844D01*
X134439499Y-55235682D01*
X134439500Y-55235682D01*
X134439501Y-55235682D01*
X134524041Y-55224552D01*
X134596262Y-55215044D01*
X134742341Y-55154536D01*
X134867782Y-55058282D01*
X134964036Y-54932841D01*
X135024544Y-54786762D01*
X135045182Y-54630000D01*
X135042939Y-54612965D01*
X135026253Y-54486222D01*
X135024544Y-54473238D01*
X134964036Y-54327159D01*
X134867782Y-54201718D01*
X134742341Y-54105464D01*
X134709010Y-54091658D01*
X134596262Y-54044956D01*
X134596260Y-54044955D01*
X134439501Y-54024318D01*
X134439499Y-54024318D01*
X134282739Y-54044955D01*
X134282734Y-54044957D01*
X134211952Y-54074276D01*
X134142483Y-54081745D01*
X134080004Y-54050470D01*
X134044352Y-53990380D01*
X134040500Y-53959715D01*
X134040500Y-51660249D01*
X134040499Y-51660247D01*
X134028868Y-51601770D01*
X134028867Y-51601769D01*
X133984552Y-51535447D01*
X133918230Y-51491132D01*
X133918229Y-51491131D01*
X133859752Y-51479500D01*
X133859748Y-51479500D01*
X129929833Y-51479500D01*
X129862794Y-51459815D01*
X129817039Y-51407011D01*
X129807095Y-51337853D01*
X129836120Y-51274297D01*
X129842152Y-51267819D01*
X130918153Y-50191818D01*
X130979476Y-50158333D01*
X131005834Y-50155499D01*
X131218133Y-50155499D01*
X131218138Y-50155499D01*
X131265545Y-50149259D01*
X131369579Y-50100747D01*
X131450747Y-50019579D01*
X131499259Y-49915545D01*
X131505500Y-49868139D01*
X131505499Y-49570623D01*
X131525183Y-49503586D01*
X131577987Y-49457831D01*
X131647146Y-49447887D01*
X131710701Y-49476912D01*
X131738555Y-49511610D01*
X131743384Y-49520534D01*
X131765890Y-49566571D01*
X131770154Y-49572544D01*
X131774669Y-49578345D01*
X131812364Y-49613047D01*
X131838179Y-49638861D01*
X131871666Y-49700183D01*
X131874500Y-49726543D01*
X131874500Y-49868132D01*
X131874501Y-49868138D01*
X131880741Y-49915545D01*
X131880742Y-49915547D01*
X131880742Y-49915548D01*
X131927913Y-50016706D01*
X131929253Y-50019579D01*
X132010421Y-50100747D01*
X132114455Y-50149259D01*
X132161861Y-50155500D01*
X132488138Y-50155499D01*
X132535545Y-50149259D01*
X132639579Y-50100747D01*
X132720747Y-50019579D01*
X132769259Y-49915545D01*
X132775500Y-49868139D01*
X132775499Y-49391862D01*
X132769259Y-49344455D01*
X132720747Y-49240421D01*
X132720746Y-49240420D01*
X132716162Y-49230589D01*
X132717870Y-49229792D01*
X132699785Y-49176170D01*
X132716793Y-49108402D01*
X132767739Y-49060587D01*
X132836449Y-49047906D01*
X132837573Y-49048028D01*
X132855072Y-49050000D01*
X133094386Y-49050000D01*
X133161425Y-49069685D01*
X133207180Y-49122489D01*
X133217124Y-49191647D01*
X133202042Y-49229751D01*
X133203838Y-49230589D01*
X133150740Y-49344456D01*
X133144500Y-49391860D01*
X133144500Y-49868132D01*
X133144501Y-49868138D01*
X133150741Y-49915545D01*
X133150742Y-49915547D01*
X133150742Y-49915548D01*
X133197913Y-50016706D01*
X133199253Y-50019579D01*
X133280421Y-50100747D01*
X133384455Y-50149259D01*
X133431861Y-50155500D01*
X133758138Y-50155499D01*
X133805545Y-50149259D01*
X133909579Y-50100747D01*
X133990747Y-50019579D01*
X134039259Y-49915545D01*
X134045500Y-49868139D01*
X134045499Y-49726543D01*
X134065183Y-49659504D01*
X134081813Y-49638867D01*
X134557957Y-49162723D01*
X134577813Y-49146600D01*
X134585580Y-49141526D01*
X134605784Y-49115566D01*
X134610852Y-49109828D01*
X134613286Y-49107396D01*
X134615353Y-49104501D01*
X134625951Y-49089656D01*
X134639690Y-49072004D01*
X134657428Y-49049215D01*
X134657431Y-49049205D01*
X134660917Y-49042764D01*
X134664146Y-49036159D01*
X134664150Y-49036155D01*
X134678767Y-48987055D01*
X134695411Y-48938577D01*
X134695411Y-48938571D01*
X134696603Y-48931431D01*
X134696612Y-48931361D01*
X134696625Y-48931280D01*
X134697528Y-48924041D01*
X134695411Y-48872859D01*
X134695411Y-47524122D01*
X134698050Y-47498675D01*
X134699954Y-47489596D01*
X134698181Y-47475374D01*
X134695888Y-47456972D01*
X134695411Y-47449296D01*
X134695411Y-47445873D01*
X134695410Y-47445862D01*
X134691972Y-47425267D01*
X134691822Y-47424368D01*
X134685484Y-47373519D01*
X134685480Y-47373512D01*
X134683397Y-47366514D01*
X134683387Y-47366483D01*
X134683377Y-47366451D01*
X134681003Y-47359535D01*
X134681003Y-47359530D01*
X134673401Y-47345483D01*
X134656610Y-47314456D01*
X134634109Y-47268428D01*
X134629843Y-47262454D01*
X134625328Y-47256652D01*
X134587624Y-47221942D01*
X134006819Y-46641137D01*
X133973334Y-46579814D01*
X133970500Y-46553456D01*
X133970500Y-46405683D01*
X133967284Y-46381255D01*
X133964068Y-46356827D01*
X133914065Y-46249596D01*
X133886819Y-46222350D01*
X133853334Y-46161027D01*
X133850500Y-46134669D01*
X133850500Y-46134424D01*
X133864015Y-46078130D01*
X133875646Y-46055304D01*
X133875647Y-46055300D01*
X133895492Y-45930003D01*
X133895492Y-45929996D01*
X133875647Y-45804699D01*
X133875647Y-45804698D01*
X133875646Y-45804696D01*
X133818050Y-45691658D01*
X133818046Y-45691654D01*
X133818045Y-45691652D01*
X133728347Y-45601954D01*
X133728344Y-45601952D01*
X133728342Y-45601950D01*
X133615304Y-45544354D01*
X133615303Y-45544353D01*
X133615300Y-45544352D01*
X133490003Y-45524508D01*
X133489997Y-45524508D01*
X133364699Y-45544352D01*
X133364698Y-45544352D01*
X133312569Y-45570914D01*
X133251658Y-45601950D01*
X133251657Y-45601951D01*
X133251652Y-45601954D01*
X133161954Y-45691652D01*
X133161951Y-45691657D01*
X133104352Y-45804698D01*
X133104352Y-45804699D01*
X133084508Y-45929996D01*
X133084508Y-45930003D01*
X133104352Y-46055300D01*
X133104353Y-46055303D01*
X133122817Y-46091539D01*
X133135714Y-46160208D01*
X133109438Y-46224949D01*
X133100016Y-46235514D01*
X133078266Y-46257265D01*
X133075442Y-46254442D01*
X133036958Y-46285183D01*
X132967458Y-46292352D01*
X132905114Y-46260808D01*
X132901901Y-46257101D01*
X132901736Y-46257267D01*
X132810404Y-46165935D01*
X132743354Y-46134669D01*
X132703173Y-46115932D01*
X132703171Y-46115931D01*
X132703172Y-46115931D01*
X132654317Y-46109500D01*
X132654316Y-46109500D01*
X132305684Y-46109500D01*
X132305683Y-46109500D01*
X132256828Y-46115931D01*
X132149595Y-46165935D01*
X132065935Y-46249595D01*
X132015931Y-46356828D01*
X132009500Y-46405683D01*
X132009500Y-46553455D01*
X131989815Y-46620494D01*
X131973181Y-46641135D01*
X131904476Y-46709841D01*
X131842044Y-46772273D01*
X131822195Y-46788393D01*
X131814420Y-46793473D01*
X131794232Y-46819409D01*
X131789156Y-46825159D01*
X131786723Y-46827592D01*
X131786712Y-46827605D01*
X131774043Y-46845349D01*
X131742572Y-46885783D01*
X131739064Y-46892264D01*
X131735849Y-46898843D01*
X131721227Y-46947956D01*
X131704587Y-46996427D01*
X131703383Y-47003644D01*
X131702471Y-47010957D01*
X131704589Y-47062141D01*
X131704589Y-49225459D01*
X131684904Y-49292498D01*
X131632100Y-49338253D01*
X131562942Y-49348197D01*
X131499386Y-49319172D01*
X131468207Y-49277864D01*
X131458672Y-49257416D01*
X131450747Y-49240421D01*
X131369579Y-49159253D01*
X131265545Y-49110741D01*
X131265543Y-49110740D01*
X131265544Y-49110740D01*
X131218140Y-49104500D01*
X130891867Y-49104500D01*
X130876839Y-49106478D01*
X130844455Y-49110741D01*
X130844453Y-49110742D01*
X130844451Y-49110742D01*
X130740420Y-49159253D01*
X130659253Y-49240420D01*
X130610740Y-49344456D01*
X130604500Y-49391860D01*
X130604500Y-49604166D01*
X130584815Y-49671205D01*
X130568184Y-49691843D01*
X130504974Y-49755054D01*
X130447180Y-49812848D01*
X130385857Y-49846332D01*
X130316165Y-49841348D01*
X130260232Y-49799476D01*
X130235815Y-49734012D01*
X130235499Y-49725185D01*
X130235499Y-49391862D01*
X130229259Y-49344455D01*
X130180747Y-49240421D01*
X130099579Y-49159253D01*
X130087525Y-49153632D01*
X130034451Y-49128883D01*
X129982012Y-49082710D01*
X129962860Y-49015516D01*
X129983076Y-48948635D01*
X130020886Y-48911506D01*
X130071947Y-48879422D01*
X130071948Y-48879422D01*
X130199422Y-48751948D01*
X130295336Y-48599302D01*
X130330083Y-48500000D01*
X129736111Y-48500000D01*
X129775610Y-48475543D01*
X129843201Y-48386038D01*
X129873895Y-48278160D01*
X129863546Y-48166479D01*
X129813552Y-48066078D01*
X129741069Y-48000000D01*
X130330082Y-48000000D01*
X130295336Y-47900697D01*
X130199422Y-47748051D01*
X130071948Y-47620577D01*
X129919300Y-47524662D01*
X129900752Y-47518172D01*
X129843976Y-47477449D01*
X129818230Y-47412496D01*
X129831687Y-47343935D01*
X129866220Y-47302757D01*
X129960451Y-47230451D01*
X130052698Y-47110233D01*
X130110687Y-46970236D01*
X130130466Y-46820000D01*
X130110687Y-46669764D01*
X130052698Y-46529767D01*
X129960451Y-46409549D01*
X129840233Y-46317302D01*
X129840229Y-46317300D01*
X129762691Y-46285183D01*
X129700236Y-46259313D01*
X129683434Y-46257101D01*
X129587727Y-46244500D01*
X129587720Y-46244500D01*
X129512280Y-46244500D01*
X129512272Y-46244500D01*
X129399764Y-46259313D01*
X129399763Y-46259313D01*
X129259770Y-46317300D01*
X129259767Y-46317301D01*
X129259767Y-46317302D01*
X129139549Y-46409549D01*
X129058600Y-46515044D01*
X129047300Y-46529770D01*
X128989313Y-46669763D01*
X128989312Y-46669765D01*
X128969534Y-46819999D01*
X128969534Y-46820000D01*
X128989312Y-46970234D01*
X128989313Y-46970236D01*
X129044387Y-47103197D01*
X129047302Y-47110233D01*
X129139549Y-47230451D01*
X129164308Y-47249449D01*
X129225412Y-47296337D01*
X129266614Y-47352765D01*
X129269347Y-47398638D01*
X129270000Y-47398638D01*
X129270000Y-47409602D01*
X129270769Y-47422511D01*
X129270000Y-47423899D01*
X129270000Y-47950000D01*
X128770000Y-47950000D01*
X128770000Y-47450000D01*
X128425070Y-47450000D01*
X128290858Y-47465122D01*
X128120698Y-47524663D01*
X127968051Y-47620577D01*
X127840577Y-47748051D01*
X127768678Y-47862478D01*
X127716343Y-47908769D01*
X127657709Y-47917810D01*
X127657859Y-47917882D01*
X127694580Y-47977325D01*
X127694561Y-47978358D01*
X127709917Y-48000000D01*
X128303889Y-48000000D01*
X128264390Y-48024457D01*
X128196799Y-48113962D01*
X128166105Y-48221840D01*
X128176454Y-48333521D01*
X128226448Y-48433922D01*
X128298931Y-48500000D01*
X128042717Y-48500000D01*
X127986422Y-48486485D01*
X127964947Y-48475543D01*
X127910923Y-48448016D01*
X127910922Y-48448015D01*
X127910919Y-48448014D01*
X127785622Y-48428170D01*
X127785616Y-48428170D01*
X127660318Y-48448014D01*
X127660316Y-48448015D01*
X127632514Y-48462181D01*
X127563845Y-48475076D01*
X127499105Y-48448799D01*
X127473118Y-48420585D01*
X127463623Y-48406375D01*
X127433186Y-48386038D01*
X127372495Y-48345485D01*
X127372493Y-48345484D01*
X127372490Y-48345483D01*
X127292137Y-48329500D01*
X127292133Y-48329500D01*
X126623489Y-48329500D01*
X126623488Y-48329500D01*
X125690201Y-48329500D01*
X125623162Y-48309815D01*
X125617318Y-48305820D01*
X125613263Y-48302874D01*
X125613262Y-48302873D01*
X125500224Y-48245277D01*
X125500223Y-48245276D01*
X125500220Y-48245275D01*
X125374923Y-48225431D01*
X125374917Y-48225431D01*
X125249620Y-48245275D01*
X125249259Y-48245393D01*
X125248794Y-48245406D01*
X125239976Y-48246803D01*
X125239795Y-48245663D01*
X125179418Y-48247389D01*
X125119585Y-48211309D01*
X125088756Y-48148608D01*
X125091165Y-48095368D01*
X125094264Y-48083807D01*
X125090735Y-48043478D01*
X125090500Y-48038075D01*
X125090500Y-47898725D01*
X125110185Y-47831686D01*
X125126819Y-47811044D01*
X125171044Y-47766819D01*
X125232367Y-47733334D01*
X125258725Y-47730500D01*
X125477466Y-47730500D01*
X125544505Y-47750185D01*
X125590260Y-47802989D01*
X125599082Y-47830305D01*
X125604600Y-47858045D01*
X125605485Y-47862495D01*
X125666375Y-47953624D01*
X125689684Y-47969198D01*
X125757505Y-48014515D01*
X125757508Y-48014515D01*
X125757509Y-48014516D01*
X125797686Y-48022507D01*
X125837867Y-48030500D01*
X127292132Y-48030499D01*
X127372495Y-48014515D01*
X127463624Y-47953624D01*
X127471896Y-47941244D01*
X127525506Y-47896438D01*
X127582298Y-47889303D01*
X127545069Y-47832652D01*
X127540666Y-47788224D01*
X127540500Y-47788225D01*
X127540499Y-47786547D01*
X127540282Y-47784348D01*
X127540498Y-47782140D01*
X127540500Y-47782133D01*
X127540499Y-47577868D01*
X127524515Y-47497505D01*
X127502877Y-47465122D01*
X127463624Y-47406375D01*
X127403920Y-47366483D01*
X127372495Y-47345485D01*
X127372493Y-47345484D01*
X127372490Y-47345483D01*
X127292137Y-47329500D01*
X127292133Y-47329500D01*
X126726188Y-47329500D01*
X126659149Y-47309815D01*
X126638507Y-47293181D01*
X126586762Y-47241436D01*
X126532119Y-47186793D01*
X126528474Y-47182814D01*
X126502456Y-47151807D01*
X126502455Y-47151806D01*
X126485655Y-47142106D01*
X126467392Y-47131561D01*
X126462831Y-47128655D01*
X126449687Y-47119452D01*
X126429684Y-47105446D01*
X126429681Y-47105445D01*
X126424861Y-47103197D01*
X126408055Y-47096235D01*
X126403043Y-47094411D01*
X126363190Y-47087383D01*
X126357910Y-47086212D01*
X126318808Y-47075735D01*
X126283892Y-47078790D01*
X126278481Y-47079264D01*
X126273078Y-47079500D01*
X125904249Y-47079500D01*
X125837210Y-47059815D01*
X125791455Y-47007011D01*
X125781511Y-46937853D01*
X125781776Y-46936102D01*
X125795492Y-46849502D01*
X125795492Y-46849496D01*
X125775647Y-46724199D01*
X125775647Y-46724198D01*
X125769068Y-46711286D01*
X125718050Y-46611158D01*
X125718046Y-46611154D01*
X125718045Y-46611152D01*
X125628347Y-46521454D01*
X125628344Y-46521452D01*
X125628342Y-46521450D01*
X125515304Y-46463854D01*
X125515303Y-46463853D01*
X125515300Y-46463852D01*
X125390003Y-46444008D01*
X125389997Y-46444008D01*
X125264699Y-46463852D01*
X125264695Y-46463853D01*
X125170793Y-46511699D01*
X125102124Y-46524595D01*
X125037384Y-46498318D01*
X124997127Y-46441211D01*
X124990499Y-46401219D01*
X124990499Y-45027868D01*
X124974515Y-44947505D01*
X124924891Y-44873238D01*
X124913624Y-44856375D01*
X124858995Y-44819874D01*
X124822495Y-44795485D01*
X124822493Y-44795484D01*
X124822490Y-44795483D01*
X124742135Y-44779500D01*
X124537870Y-44779500D01*
X124477867Y-44791434D01*
X124457505Y-44795485D01*
X124457504Y-44795485D01*
X124457501Y-44795486D01*
X124446220Y-44800159D01*
X124445621Y-44798714D01*
X124392204Y-44815436D01*
X124334061Y-44799481D01*
X124333781Y-44800159D01*
X124328383Y-44797923D01*
X124324825Y-44796947D01*
X124322648Y-44795547D01*
X124322494Y-44795484D01*
X124242135Y-44779500D01*
X124037870Y-44779500D01*
X123977867Y-44791434D01*
X123957505Y-44795485D01*
X123957504Y-44795485D01*
X123957501Y-44795486D01*
X123946220Y-44800159D01*
X123945621Y-44798714D01*
X123892204Y-44815436D01*
X123834061Y-44799481D01*
X123833781Y-44800159D01*
X123828383Y-44797923D01*
X123824825Y-44796947D01*
X123822648Y-44795547D01*
X123822494Y-44795484D01*
X123742136Y-44779500D01*
X123625667Y-44779500D01*
X123558628Y-44759815D01*
X123512873Y-44707011D01*
X123502929Y-44637853D01*
X123531954Y-44574297D01*
X123590732Y-44536523D01*
X123590978Y-44536451D01*
X123599479Y-44533972D01*
X123599487Y-44533972D01*
X123708316Y-44483224D01*
X123793224Y-44398316D01*
X123843972Y-44289487D01*
X123850500Y-44239901D01*
X123850499Y-43820100D01*
X123843972Y-43770513D01*
X123793224Y-43661684D01*
X123756819Y-43625279D01*
X123723334Y-43563956D01*
X123720500Y-43537598D01*
X123720500Y-43522402D01*
X123740185Y-43455363D01*
X123756819Y-43434721D01*
X123793224Y-43398316D01*
X123843972Y-43289487D01*
X123850500Y-43239901D01*
X123850499Y-42820100D01*
X123843972Y-42770513D01*
X123793224Y-42661684D01*
X123756819Y-42625279D01*
X123723334Y-42563956D01*
X123720500Y-42537598D01*
X123720500Y-42393303D01*
X123734015Y-42337008D01*
X123734691Y-42335682D01*
X123775646Y-42255304D01*
X123775646Y-42255302D01*
X123775647Y-42255301D01*
X123775647Y-42255300D01*
X123795492Y-42130003D01*
X123795492Y-42129996D01*
X123775647Y-42004699D01*
X123775647Y-42004698D01*
X123762656Y-41979202D01*
X123718050Y-41891658D01*
X123718046Y-41891654D01*
X123718045Y-41891652D01*
X123628347Y-41801954D01*
X123628344Y-41801952D01*
X123628342Y-41801950D01*
X123542639Y-41758282D01*
X123515301Y-41744352D01*
X123438906Y-41732253D01*
X123375771Y-41702324D01*
X123338840Y-41643012D01*
X123339838Y-41573150D01*
X123343736Y-41562343D01*
X123375044Y-41486762D01*
X123395682Y-41330000D01*
X123390089Y-41287520D01*
X123377282Y-41190236D01*
X123375044Y-41173238D01*
X123314536Y-41027159D01*
X123218282Y-40901718D01*
X123092841Y-40805464D01*
X123061492Y-40792479D01*
X122946762Y-40744956D01*
X122946760Y-40744955D01*
X122790001Y-40724318D01*
X122789999Y-40724318D01*
X122633239Y-40744955D01*
X122633237Y-40744956D01*
X122487160Y-40805463D01*
X122361718Y-40901718D01*
X122265463Y-41027160D01*
X122224596Y-41125822D01*
X122180755Y-41180225D01*
X122114460Y-41202290D01*
X122062583Y-41192930D01*
X121946765Y-41144957D01*
X121946760Y-41144955D01*
X121790001Y-41124318D01*
X121789999Y-41124318D01*
X121633239Y-41144955D01*
X121633237Y-41144956D01*
X121487160Y-41205463D01*
X121423362Y-41254417D01*
X121361718Y-41301718D01*
X121293878Y-41390130D01*
X121288376Y-41397300D01*
X121231948Y-41438502D01*
X121162202Y-41442657D01*
X121101281Y-41408444D01*
X121091624Y-41397300D01*
X121018282Y-41301718D01*
X120892841Y-41205464D01*
X120885178Y-41202290D01*
X120746762Y-41144956D01*
X120746760Y-41144955D01*
X120590001Y-41124318D01*
X120589999Y-41124318D01*
X120433239Y-41144955D01*
X120433237Y-41144956D01*
X120287160Y-41205463D01*
X120161718Y-41301718D01*
X120065463Y-41427160D01*
X120004956Y-41573237D01*
X120004955Y-41573239D01*
X119984318Y-41729998D01*
X119984318Y-41730001D01*
X120004955Y-41886760D01*
X120004956Y-41886762D01*
X120040775Y-41973238D01*
X120065464Y-42032841D01*
X120140017Y-42130000D01*
X115890000Y-42130000D01*
X115890000Y-44462865D01*
X115846762Y-44444956D01*
X115846760Y-44444955D01*
X115690001Y-44424318D01*
X115689999Y-44424318D01*
X115533239Y-44444955D01*
X115533237Y-44444956D01*
X115387160Y-44505463D01*
X115261718Y-44601718D01*
X115165463Y-44727160D01*
X115104956Y-44873237D01*
X115104955Y-44873239D01*
X115084318Y-45029998D01*
X115084318Y-45030001D01*
X115104955Y-45186760D01*
X115104956Y-45186762D01*
X115161933Y-45324318D01*
X115165464Y-45332841D01*
X115261718Y-45458282D01*
X115387159Y-45554536D01*
X115533238Y-45615044D01*
X115611619Y-45625363D01*
X115689999Y-45635682D01*
X115690000Y-45635682D01*
X115690001Y-45635682D01*
X115754739Y-45627159D01*
X115846762Y-45615044D01*
X115992841Y-45554536D01*
X116026338Y-45528832D01*
X116091504Y-45503639D01*
X116159949Y-45517677D01*
X116209939Y-45566490D01*
X116212302Y-45570903D01*
X116261950Y-45668342D01*
X116261952Y-45668344D01*
X116261954Y-45668347D01*
X116351652Y-45758045D01*
X116351654Y-45758046D01*
X116351658Y-45758050D01*
X116464696Y-45815646D01*
X116464697Y-45815646D01*
X116464699Y-45815647D01*
X116589997Y-45835492D01*
X116590000Y-45835492D01*
X116646102Y-45826606D01*
X116715394Y-45835560D01*
X116768847Y-45880556D01*
X116789487Y-45947307D01*
X116789500Y-45949079D01*
X116789500Y-46783456D01*
X116769815Y-46850495D01*
X116753181Y-46871137D01*
X116331137Y-47293181D01*
X116269814Y-47326666D01*
X116243456Y-47329500D01*
X114077159Y-47329500D01*
X114010120Y-47309815D01*
X113964777Y-47257905D01*
X113943224Y-47211684D01*
X113858316Y-47126776D01*
X113749487Y-47076028D01*
X113749485Y-47076027D01*
X113749486Y-47076027D01*
X113699901Y-47069500D01*
X113280105Y-47069500D01*
X113264386Y-47071569D01*
X113230513Y-47076028D01*
X113230511Y-47076029D01*
X113230509Y-47076029D01*
X113121683Y-47126776D01*
X113085279Y-47163181D01*
X113023956Y-47196666D01*
X112997598Y-47199500D01*
X112982402Y-47199500D01*
X112915363Y-47179815D01*
X112894721Y-47163181D01*
X112858316Y-47126776D01*
X112853452Y-47124508D01*
X112749487Y-47076028D01*
X112749485Y-47076027D01*
X112749486Y-47076027D01*
X112699901Y-47069500D01*
X112280105Y-47069500D01*
X112264386Y-47071569D01*
X112230513Y-47076028D01*
X112230511Y-47076029D01*
X112230509Y-47076029D01*
X112121683Y-47126776D01*
X112085279Y-47163181D01*
X112023956Y-47196666D01*
X111997598Y-47199500D01*
X111853304Y-47199500D01*
X111797010Y-47185985D01*
X111715300Y-47144352D01*
X111715301Y-47144352D01*
X111590003Y-47124508D01*
X111589997Y-47124508D01*
X111464699Y-47144352D01*
X111464698Y-47144352D01*
X111410428Y-47172005D01*
X111351658Y-47201950D01*
X111351657Y-47201951D01*
X111351652Y-47201954D01*
X111261954Y-47291652D01*
X111261951Y-47291657D01*
X111204352Y-47404698D01*
X111204352Y-47404699D01*
X111184508Y-47529996D01*
X111184508Y-47530003D01*
X111204352Y-47655300D01*
X111204352Y-47655301D01*
X111204354Y-47655304D01*
X111261950Y-47768342D01*
X111261952Y-47768344D01*
X111261954Y-47768347D01*
X111351652Y-47858045D01*
X111351654Y-47858046D01*
X111351658Y-47858050D01*
X111464696Y-47915646D01*
X111464697Y-47915646D01*
X111464699Y-47915647D01*
X111589997Y-47935492D01*
X111590000Y-47935492D01*
X111590002Y-47935492D01*
X111715300Y-47915647D01*
X111715300Y-47915646D01*
X111715304Y-47915646D01*
X111718507Y-47914013D01*
X111774799Y-47900500D01*
X111997598Y-47900500D01*
X112064637Y-47920185D01*
X112085279Y-47936819D01*
X112121684Y-47973224D01*
X112230513Y-48023972D01*
X112280099Y-48030500D01*
X112699900Y-48030499D01*
X112749487Y-48023972D01*
X112858316Y-47973224D01*
X112894721Y-47936819D01*
X112956044Y-47903334D01*
X112982402Y-47900500D01*
X112997598Y-47900500D01*
X113064637Y-47920185D01*
X113085279Y-47936819D01*
X113121684Y-47973224D01*
X113230513Y-48023972D01*
X113280099Y-48030500D01*
X113547069Y-48030499D01*
X113547079Y-48030500D01*
X113555208Y-48030500D01*
X113562885Y-48030977D01*
X113576046Y-48032617D01*
X113627242Y-48030500D01*
X114487867Y-48030500D01*
X115156512Y-48030500D01*
X116390789Y-48030500D01*
X116416234Y-48033138D01*
X116425315Y-48035043D01*
X116441005Y-48033087D01*
X116457939Y-48030977D01*
X116465615Y-48030500D01*
X116469035Y-48030500D01*
X116469040Y-48030500D01*
X116472608Y-48029904D01*
X116490539Y-48026913D01*
X116517958Y-48023494D01*
X116541393Y-48020573D01*
X116541402Y-48020568D01*
X116548451Y-48018470D01*
X116555377Y-48016092D01*
X116555381Y-48016092D01*
X116600444Y-47991704D01*
X116646484Y-47969198D01*
X116646487Y-47969194D01*
X116652453Y-47964935D01*
X116658254Y-47960419D01*
X116658258Y-47960418D01*
X116692957Y-47922724D01*
X117353046Y-47262634D01*
X117372902Y-47246511D01*
X117380669Y-47241437D01*
X117400873Y-47215477D01*
X117405941Y-47209739D01*
X117408375Y-47207307D01*
X117421044Y-47189562D01*
X117452517Y-47149126D01*
X117452518Y-47149120D01*
X117456017Y-47142656D01*
X117459235Y-47136071D01*
X117459239Y-47136067D01*
X117473858Y-47086962D01*
X117490500Y-47038488D01*
X117490500Y-47038481D01*
X117491706Y-47031256D01*
X117492617Y-47023952D01*
X117490500Y-46972770D01*
X117490500Y-46854499D01*
X117510185Y-46787460D01*
X117562989Y-46741705D01*
X117614497Y-46730499D01*
X117690500Y-46730499D01*
X117757539Y-46750184D01*
X117803294Y-46802988D01*
X117814500Y-46854499D01*
X117814500Y-48114879D01*
X117794815Y-48181918D01*
X117742011Y-48227673D01*
X117672853Y-48237617D01*
X117671103Y-48237353D01*
X117625016Y-48230054D01*
X117590000Y-48224508D01*
X117589998Y-48224508D01*
X117589997Y-48224508D01*
X117464699Y-48244352D01*
X117464698Y-48244352D01*
X117398348Y-48278160D01*
X117351658Y-48301950D01*
X117351657Y-48301950D01*
X117351653Y-48301953D01*
X117346329Y-48305821D01*
X117280522Y-48329298D01*
X117273448Y-48329500D01*
X114487870Y-48329500D01*
X114407504Y-48345485D01*
X114316375Y-48406375D01*
X114255485Y-48497505D01*
X114255483Y-48497509D01*
X114249239Y-48528902D01*
X114216854Y-48590813D01*
X114156138Y-48625387D01*
X114108226Y-48627184D01*
X114065982Y-48620493D01*
X114049385Y-48617865D01*
X114049384Y-48617865D01*
X114049382Y-48617865D01*
X113924084Y-48637709D01*
X113924083Y-48637709D01*
X113859270Y-48670734D01*
X113811043Y-48695307D01*
X113811042Y-48695308D01*
X113811037Y-48695311D01*
X113721339Y-48785009D01*
X113721336Y-48785014D01*
X113721335Y-48785015D01*
X113708511Y-48810183D01*
X113663737Y-48898055D01*
X113663737Y-48898056D01*
X113643893Y-49023353D01*
X113643893Y-49023360D01*
X113663737Y-49148657D01*
X113663737Y-49148658D01*
X113681536Y-49183589D01*
X113721335Y-49261699D01*
X113721337Y-49261701D01*
X113721339Y-49261704D01*
X113811037Y-49351402D01*
X113811039Y-49351403D01*
X113811043Y-49351407D01*
X113924081Y-49409003D01*
X113924082Y-49409003D01*
X113924084Y-49409004D01*
X114049382Y-49428849D01*
X114049385Y-49428849D01*
X114049387Y-49428849D01*
X114100565Y-49420743D01*
X114169858Y-49429697D01*
X114223310Y-49474693D01*
X114243950Y-49541445D01*
X114241581Y-49567406D01*
X114239500Y-49577868D01*
X114239500Y-49782129D01*
X114243056Y-49800008D01*
X114252605Y-49848017D01*
X114255486Y-49862498D01*
X114260159Y-49873780D01*
X114258714Y-49874378D01*
X114275436Y-49927788D01*
X114259482Y-49985938D01*
X114260159Y-49986219D01*
X114257926Y-49991609D01*
X114256950Y-49995168D01*
X114255550Y-49997345D01*
X114255484Y-49997505D01*
X114239500Y-50077863D01*
X114239500Y-50077865D01*
X114239500Y-50077867D01*
X114239500Y-50174529D01*
X114239501Y-50230499D01*
X114219817Y-50297539D01*
X114167013Y-50343294D01*
X114115501Y-50354500D01*
X113744151Y-50354500D01*
X113677112Y-50334815D01*
X113656470Y-50318181D01*
X113568788Y-50230499D01*
X113450082Y-50111793D01*
X113446437Y-50107814D01*
X113420419Y-50076807D01*
X113420418Y-50076806D01*
X113409021Y-50070226D01*
X113385355Y-50056561D01*
X113380794Y-50053655D01*
X113367650Y-50044452D01*
X113347647Y-50030446D01*
X113347644Y-50030445D01*
X113342824Y-50028197D01*
X113326018Y-50021235D01*
X113321006Y-50019411D01*
X113281153Y-50012383D01*
X113275873Y-50011212D01*
X113236771Y-50000735D01*
X113201855Y-50003790D01*
X113196444Y-50004264D01*
X113191041Y-50004500D01*
X112706922Y-50004500D01*
X112701518Y-50004264D01*
X112696107Y-50003790D01*
X112661192Y-50000735D01*
X112661191Y-50000735D01*
X112622091Y-50011212D01*
X112616811Y-50012383D01*
X112576959Y-50019410D01*
X112571961Y-50021229D01*
X112555117Y-50028206D01*
X112550313Y-50030446D01*
X112517166Y-50053656D01*
X112512606Y-50056562D01*
X112477548Y-50076804D01*
X112477540Y-50076810D01*
X112451523Y-50107815D01*
X112447868Y-50111804D01*
X111305689Y-51253985D01*
X110191493Y-52368181D01*
X110130170Y-52401666D01*
X110103812Y-52404500D01*
X109763116Y-52404500D01*
X109706823Y-52390985D01*
X109615304Y-52344354D01*
X109615302Y-52344353D01*
X109607710Y-52340485D01*
X109556914Y-52292510D01*
X109540119Y-52224689D01*
X109562657Y-52158554D01*
X109607710Y-52119515D01*
X109615302Y-52115646D01*
X109615304Y-52115646D01*
X109728342Y-52058050D01*
X109818050Y-51968342D01*
X109875646Y-51855304D01*
X109875646Y-51855302D01*
X109875647Y-51855301D01*
X109875647Y-51855300D01*
X109895492Y-51730003D01*
X109895492Y-51729996D01*
X109875647Y-51604699D01*
X109875647Y-51604698D01*
X109874102Y-51601666D01*
X109829014Y-51513176D01*
X109815500Y-51456884D01*
X109815500Y-50478615D01*
X109829015Y-50422321D01*
X109875646Y-50330804D01*
X109875773Y-50330003D01*
X109895492Y-50205503D01*
X109895492Y-50205496D01*
X109875647Y-50080199D01*
X109875647Y-50080198D01*
X109871839Y-50072724D01*
X109818050Y-49967158D01*
X109818046Y-49967154D01*
X109818045Y-49967152D01*
X109728347Y-49877454D01*
X109728344Y-49877452D01*
X109728342Y-49877450D01*
X109615304Y-49819854D01*
X109615303Y-49819853D01*
X109615300Y-49819852D01*
X109490003Y-49800008D01*
X109489997Y-49800008D01*
X109364699Y-49819852D01*
X109364698Y-49819852D01*
X109312730Y-49846332D01*
X109251658Y-49877450D01*
X109251657Y-49877451D01*
X109251652Y-49877454D01*
X109161954Y-49967152D01*
X109161951Y-49967157D01*
X109161950Y-49967158D01*
X109143198Y-50003960D01*
X109104352Y-50080198D01*
X109104352Y-50080199D01*
X109084508Y-50205496D01*
X109084508Y-50205503D01*
X109104352Y-50330800D01*
X109104353Y-50330803D01*
X109120579Y-50362647D01*
X109150984Y-50422321D01*
X109164500Y-50478615D01*
X109164500Y-51456884D01*
X109150985Y-51513176D01*
X109149929Y-51515251D01*
X109104352Y-51604698D01*
X109104352Y-51604699D01*
X109084508Y-51729996D01*
X109084508Y-51730003D01*
X109104352Y-51855300D01*
X109104352Y-51855301D01*
X109118746Y-51883550D01*
X109161950Y-51968342D01*
X109161952Y-51968344D01*
X109161954Y-51968347D01*
X109251652Y-52058045D01*
X109251655Y-52058047D01*
X109251658Y-52058050D01*
X109290553Y-52077868D01*
X109372290Y-52119516D01*
X109423085Y-52167490D01*
X109439880Y-52235311D01*
X109417342Y-52301446D01*
X109372290Y-52340484D01*
X109251659Y-52401949D01*
X109251652Y-52401954D01*
X109161954Y-52491652D01*
X109161951Y-52491657D01*
X109161950Y-52491658D01*
X109158971Y-52497505D01*
X109104352Y-52604698D01*
X109104352Y-52604699D01*
X109084508Y-52729996D01*
X109084508Y-52730003D01*
X109104352Y-52855301D01*
X109112854Y-52871986D01*
X109125750Y-52940655D01*
X109099473Y-53005395D01*
X109097358Y-53007986D01*
X109076525Y-53032814D01*
X109072869Y-53036803D01*
X108221803Y-53887870D01*
X108217814Y-53891525D01*
X108186805Y-53917545D01*
X108166562Y-53952606D01*
X108163656Y-53957166D01*
X108140446Y-53990313D01*
X108138206Y-53995117D01*
X108131229Y-54011961D01*
X108129410Y-54016959D01*
X108122383Y-54056811D01*
X108121212Y-54062091D01*
X108110735Y-54101191D01*
X108114264Y-54141513D01*
X108114500Y-54146920D01*
X108114500Y-56063078D01*
X108114264Y-56068485D01*
X108110735Y-56108808D01*
X108121212Y-56147910D01*
X108122383Y-56153190D01*
X108129411Y-56193043D01*
X108131235Y-56198055D01*
X108138197Y-56214861D01*
X108140445Y-56219681D01*
X108140446Y-56219684D01*
X108147147Y-56229254D01*
X108163655Y-56252831D01*
X108166561Y-56257392D01*
X108186806Y-56292455D01*
X108217815Y-56318475D01*
X108221805Y-56322131D01*
X108823363Y-56923689D01*
X108827018Y-56927678D01*
X108853041Y-56958690D01*
X108853043Y-56958691D01*
X108853045Y-56958694D01*
X108853047Y-56958695D01*
X108853048Y-56958696D01*
X108888099Y-56978933D01*
X108892662Y-56981839D01*
X108925816Y-57005054D01*
X108925819Y-57005054D01*
X108930676Y-57007320D01*
X108947433Y-57014260D01*
X108952453Y-57016087D01*
X108952455Y-57016088D01*
X108988306Y-57022409D01*
X108992308Y-57023115D01*
X108997580Y-57024283D01*
X109036693Y-57034764D01*
X109077022Y-57031235D01*
X109082424Y-57031000D01*
X109465262Y-57031000D01*
X109521554Y-57044514D01*
X109613074Y-57091146D01*
X109613075Y-57091146D01*
X109613077Y-57091147D01*
X109738375Y-57110992D01*
X109738378Y-57110992D01*
X109738381Y-57110992D01*
X109863678Y-57091147D01*
X109863680Y-57091146D01*
X109863682Y-57091146D01*
X109976720Y-57033550D01*
X109976722Y-57033547D01*
X109979573Y-57032095D01*
X110048242Y-57019198D01*
X110112983Y-57045474D01*
X110153240Y-57102579D01*
X110156233Y-57172385D01*
X110154435Y-57178673D01*
X110134508Y-57304496D01*
X110134508Y-57304503D01*
X110154352Y-57429800D01*
X110154352Y-57429801D01*
X110154354Y-57429804D01*
X110211950Y-57542842D01*
X110211952Y-57542844D01*
X110211954Y-57542847D01*
X110301652Y-57632545D01*
X110301654Y-57632546D01*
X110301658Y-57632550D01*
X110414696Y-57690146D01*
X110414697Y-57690146D01*
X110414699Y-57690147D01*
X110539997Y-57709992D01*
X110540000Y-57709992D01*
X110540003Y-57709992D01*
X110665300Y-57690147D01*
X110665301Y-57690147D01*
X110665302Y-57690146D01*
X110665304Y-57690146D01*
X110778342Y-57632550D01*
X110868050Y-57542842D01*
X110925646Y-57429804D01*
X110925646Y-57429802D01*
X110925647Y-57429801D01*
X110925647Y-57429800D01*
X110945492Y-57304503D01*
X110945492Y-57304496D01*
X110925647Y-57179199D01*
X110925647Y-57179198D01*
X110925646Y-57179196D01*
X110879014Y-57087676D01*
X110865500Y-57031384D01*
X110865500Y-56781579D01*
X110865736Y-56776172D01*
X110869264Y-56735852D01*
X110858782Y-56696735D01*
X110857616Y-56691477D01*
X110850588Y-56651614D01*
X110850586Y-56651611D01*
X110850586Y-56651609D01*
X110848760Y-56646592D01*
X110841820Y-56629835D01*
X110839554Y-56624978D01*
X110839554Y-56624975D01*
X110816339Y-56591821D01*
X110813433Y-56587258D01*
X110793196Y-56552207D01*
X110793195Y-56552206D01*
X110793194Y-56552204D01*
X110762177Y-56526177D01*
X110758193Y-56522526D01*
X110125348Y-55889681D01*
X110091863Y-55828358D01*
X110096847Y-55758666D01*
X110138719Y-55702733D01*
X110204183Y-55678316D01*
X110213029Y-55678000D01*
X110973775Y-55678000D01*
X111040814Y-55697685D01*
X111061456Y-55714319D01*
X111220326Y-55873189D01*
X111223981Y-55877178D01*
X111250004Y-55908190D01*
X111250006Y-55908191D01*
X111250008Y-55908194D01*
X111250010Y-55908195D01*
X111250011Y-55908196D01*
X111285062Y-55928433D01*
X111289625Y-55931339D01*
X111322779Y-55954554D01*
X111322782Y-55954554D01*
X111327639Y-55956820D01*
X111344396Y-55963760D01*
X111349416Y-55965587D01*
X111349418Y-55965588D01*
X111385269Y-55971909D01*
X111389271Y-55972615D01*
X111394543Y-55973783D01*
X111433656Y-55984264D01*
X111473985Y-55980735D01*
X111479387Y-55980500D01*
X116490541Y-55980500D01*
X116495944Y-55980735D01*
X116536270Y-55984264D01*
X116555995Y-55978978D01*
X116625841Y-55980639D01*
X116683705Y-56019799D01*
X116698757Y-56047203D01*
X116699924Y-56046609D01*
X116704353Y-56055303D01*
X116704354Y-56055304D01*
X116751546Y-56147923D01*
X116761949Y-56168340D01*
X116765819Y-56173666D01*
X116789298Y-56239473D01*
X116789500Y-56246551D01*
X116789500Y-57832129D01*
X116805485Y-57912495D01*
X116866375Y-58003624D01*
X116897900Y-58024688D01*
X116957505Y-58064515D01*
X116957508Y-58064515D01*
X116957509Y-58064516D01*
X116984533Y-58069891D01*
X117037867Y-58080500D01*
X117242132Y-58080499D01*
X117322495Y-58064515D01*
X117413624Y-58003624D01*
X117474515Y-57912495D01*
X117490500Y-57832133D01*
X117490500Y-57110992D01*
X117490500Y-56029211D01*
X117493139Y-56003765D01*
X117493159Y-56003669D01*
X117495043Y-55994685D01*
X117492899Y-55977488D01*
X117493473Y-55942743D01*
X117494392Y-55936947D01*
X117495492Y-55930000D01*
X117495473Y-55929877D01*
X117475647Y-55804699D01*
X117475647Y-55804698D01*
X117473060Y-55799621D01*
X117418050Y-55691658D01*
X117418046Y-55691654D01*
X117418045Y-55691652D01*
X117328347Y-55601954D01*
X117328344Y-55601952D01*
X117328342Y-55601950D01*
X117276699Y-55575636D01*
X117225905Y-55527663D01*
X117209110Y-55459842D01*
X117231648Y-55393707D01*
X117245309Y-55377478D01*
X118127819Y-54494969D01*
X118189142Y-54461484D01*
X118258834Y-54466468D01*
X118314767Y-54508340D01*
X118339184Y-54573804D01*
X118339500Y-54582650D01*
X118339500Y-56005500D01*
X118319815Y-56072539D01*
X118267011Y-56118294D01*
X118215501Y-56129500D01*
X118037870Y-56129500D01*
X117957504Y-56145485D01*
X117866375Y-56206375D01*
X117805485Y-56297505D01*
X117805483Y-56297509D01*
X117789500Y-56377862D01*
X117789500Y-57832129D01*
X117805485Y-57912495D01*
X117866375Y-58003624D01*
X117897900Y-58024688D01*
X117957505Y-58064515D01*
X117957508Y-58064515D01*
X117957509Y-58064516D01*
X117984533Y-58069891D01*
X118037867Y-58080500D01*
X118242132Y-58080499D01*
X118322495Y-58064515D01*
X118322498Y-58064512D01*
X118333778Y-58059841D01*
X118334376Y-58061286D01*
X118387782Y-58044563D01*
X118445943Y-58060516D01*
X118446223Y-58059842D01*
X118451590Y-58062065D01*
X118455162Y-58063045D01*
X118457351Y-58064451D01*
X118457506Y-58064516D01*
X118510957Y-58075147D01*
X118537867Y-58080500D01*
X118742132Y-58080499D01*
X118822495Y-58064515D01*
X118822498Y-58064512D01*
X118833778Y-58059841D01*
X118834376Y-58061286D01*
X118887782Y-58044563D01*
X118945943Y-58060516D01*
X118946223Y-58059842D01*
X118951590Y-58062065D01*
X118955162Y-58063045D01*
X118957351Y-58064451D01*
X118957506Y-58064516D01*
X119010957Y-58075147D01*
X119037867Y-58080500D01*
X119242132Y-58080499D01*
X119322495Y-58064515D01*
X119322498Y-58064512D01*
X119333778Y-58059841D01*
X119334376Y-58061286D01*
X119387782Y-58044563D01*
X119445943Y-58060516D01*
X119446223Y-58059842D01*
X119451590Y-58062065D01*
X119455162Y-58063045D01*
X119457351Y-58064451D01*
X119457506Y-58064516D01*
X119510957Y-58075147D01*
X119537867Y-58080500D01*
X119742132Y-58080499D01*
X119822495Y-58064515D01*
X119822498Y-58064512D01*
X119833778Y-58059841D01*
X119834376Y-58061286D01*
X119887782Y-58044563D01*
X119945943Y-58060516D01*
X119946223Y-58059842D01*
X119951590Y-58062065D01*
X119955162Y-58063045D01*
X119957351Y-58064451D01*
X119957506Y-58064516D01*
X120010957Y-58075147D01*
X120037867Y-58080500D01*
X120242132Y-58080499D01*
X120322495Y-58064515D01*
X120322498Y-58064512D01*
X120333778Y-58059841D01*
X120334376Y-58061286D01*
X120387782Y-58044563D01*
X120445943Y-58060516D01*
X120446223Y-58059842D01*
X120451590Y-58062065D01*
X120455162Y-58063045D01*
X120457351Y-58064451D01*
X120457506Y-58064516D01*
X120510957Y-58075147D01*
X120537867Y-58080500D01*
X120742132Y-58080499D01*
X120822495Y-58064515D01*
X120822498Y-58064512D01*
X120833778Y-58059841D01*
X120834376Y-58061286D01*
X120887782Y-58044563D01*
X120945943Y-58060516D01*
X120946223Y-58059842D01*
X120951590Y-58062065D01*
X120955162Y-58063045D01*
X120957351Y-58064451D01*
X120957506Y-58064516D01*
X121010957Y-58075147D01*
X121037867Y-58080500D01*
X121242132Y-58080499D01*
X121322495Y-58064515D01*
X121322498Y-58064512D01*
X121333778Y-58059841D01*
X121334376Y-58061286D01*
X121387782Y-58044563D01*
X121445943Y-58060516D01*
X121446223Y-58059842D01*
X121451590Y-58062065D01*
X121455162Y-58063045D01*
X121457351Y-58064451D01*
X121457506Y-58064516D01*
X121510957Y-58075147D01*
X121537867Y-58080500D01*
X121742132Y-58080499D01*
X121822495Y-58064515D01*
X121822498Y-58064512D01*
X121833778Y-58059841D01*
X121834376Y-58061286D01*
X121887782Y-58044563D01*
X121945943Y-58060516D01*
X121946223Y-58059842D01*
X121951590Y-58062065D01*
X121955162Y-58063045D01*
X121957351Y-58064451D01*
X121957506Y-58064516D01*
X122010957Y-58075147D01*
X122037867Y-58080500D01*
X122242132Y-58080499D01*
X122322495Y-58064515D01*
X122322498Y-58064512D01*
X122333778Y-58059841D01*
X122334376Y-58061286D01*
X122387782Y-58044563D01*
X122445943Y-58060516D01*
X122446223Y-58059842D01*
X122451590Y-58062065D01*
X122455162Y-58063045D01*
X122457351Y-58064451D01*
X122457506Y-58064516D01*
X122510957Y-58075147D01*
X122537867Y-58080500D01*
X122742132Y-58080499D01*
X122822495Y-58064515D01*
X122822498Y-58064512D01*
X122833778Y-58059841D01*
X122834376Y-58061286D01*
X122887782Y-58044563D01*
X122945943Y-58060516D01*
X122946223Y-58059842D01*
X122951590Y-58062065D01*
X122955162Y-58063045D01*
X122957351Y-58064451D01*
X122957506Y-58064516D01*
X123010957Y-58075147D01*
X123037867Y-58080500D01*
X123242132Y-58080499D01*
X123291412Y-58070697D01*
X123361003Y-58076926D01*
X123407233Y-58108771D01*
X123414079Y-58116279D01*
X123414081Y-58116282D01*
X123429049Y-58127585D01*
X123438826Y-58134969D01*
X123445311Y-58140612D01*
X123652748Y-58348049D01*
X123658391Y-58354533D01*
X123665711Y-58364226D01*
X123665712Y-58364228D01*
X123680531Y-58377737D01*
X123701045Y-58396439D01*
X123703093Y-58398394D01*
X123716873Y-58412174D01*
X123719083Y-58413688D01*
X123725813Y-58419018D01*
X123730000Y-58422835D01*
X123748735Y-58439915D01*
X123748736Y-58439915D01*
X123748737Y-58439916D01*
X123755191Y-58442416D01*
X123780476Y-58455744D01*
X123784289Y-58458355D01*
X123786189Y-58459657D01*
X123816380Y-58466757D01*
X123824575Y-58469295D01*
X123853497Y-58480500D01*
X123860422Y-58480500D01*
X123888810Y-58483793D01*
X123895551Y-58485379D01*
X123926261Y-58481094D01*
X123934836Y-58480500D01*
X124877159Y-58480500D01*
X124885733Y-58481095D01*
X124897761Y-58482772D01*
X124897761Y-58482771D01*
X124897765Y-58482773D01*
X124940920Y-58480778D01*
X124945510Y-58480566D01*
X124948373Y-58480500D01*
X124967843Y-58480500D01*
X124967844Y-58480500D01*
X124970469Y-58480009D01*
X124979021Y-58479016D01*
X124980245Y-58478959D01*
X125009992Y-58477585D01*
X125016322Y-58474789D01*
X125043629Y-58466332D01*
X125050433Y-58465061D01*
X125076797Y-58448736D01*
X125084392Y-58444733D01*
X125112765Y-58432206D01*
X125117661Y-58427309D01*
X125140069Y-58409561D01*
X125145952Y-58405919D01*
X125164642Y-58381167D01*
X125170274Y-58374695D01*
X125378153Y-58166816D01*
X125439475Y-58133334D01*
X125465833Y-58130500D01*
X127615026Y-58130500D01*
X127623600Y-58131095D01*
X127635628Y-58132772D01*
X127635628Y-58132771D01*
X127635632Y-58132773D01*
X127678787Y-58130778D01*
X127683377Y-58130566D01*
X127686240Y-58130500D01*
X127705711Y-58130500D01*
X127705712Y-58130500D01*
X127708337Y-58130009D01*
X127716889Y-58129016D01*
X127718266Y-58128952D01*
X127747859Y-58127585D01*
X127754189Y-58124789D01*
X127781498Y-58116332D01*
X127788301Y-58115061D01*
X127814663Y-58098737D01*
X127822263Y-58094732D01*
X127826115Y-58093030D01*
X127850633Y-58082206D01*
X127855529Y-58077309D01*
X127877937Y-58059561D01*
X127883820Y-58055919D01*
X127902517Y-58031158D01*
X127908134Y-58024703D01*
X129091022Y-56841819D01*
X129152345Y-56808334D01*
X129178703Y-56805500D01*
X130480500Y-56805500D01*
X130547539Y-56825185D01*
X130593294Y-56877989D01*
X130604500Y-56929500D01*
X130604500Y-57053028D01*
X130589551Y-57112052D01*
X130583976Y-57122352D01*
X130580760Y-57128932D01*
X130566138Y-57178045D01*
X130549498Y-57226516D01*
X130548294Y-57233733D01*
X130547382Y-57241046D01*
X130549500Y-57292230D01*
X130549500Y-57734669D01*
X130529815Y-57801708D01*
X130513181Y-57822350D01*
X130478264Y-57857267D01*
X130475440Y-57854443D01*
X130436958Y-57885183D01*
X130367458Y-57892352D01*
X130305114Y-57860808D01*
X130301901Y-57857101D01*
X130301736Y-57857267D01*
X130210404Y-57765935D01*
X130197342Y-57759844D01*
X130103173Y-57715932D01*
X130103171Y-57715931D01*
X130103172Y-57715931D01*
X130054317Y-57709500D01*
X130054316Y-57709500D01*
X129705684Y-57709500D01*
X129705683Y-57709500D01*
X129656827Y-57715931D01*
X129656826Y-57715931D01*
X129589229Y-57747453D01*
X129520152Y-57757945D01*
X129456368Y-57729425D01*
X129449155Y-57722763D01*
X129428342Y-57701950D01*
X129315304Y-57644354D01*
X129315303Y-57644353D01*
X129315300Y-57644352D01*
X129190003Y-57624508D01*
X129189997Y-57624508D01*
X129064699Y-57644352D01*
X129064698Y-57644352D01*
X128989337Y-57682751D01*
X128951658Y-57701950D01*
X128951657Y-57701951D01*
X128951652Y-57701954D01*
X128861954Y-57791652D01*
X128861951Y-57791657D01*
X128861950Y-57791658D01*
X128846312Y-57822350D01*
X128804352Y-57904698D01*
X128804352Y-57904699D01*
X128784508Y-58029996D01*
X128784508Y-58030003D01*
X128804352Y-58155299D01*
X128804353Y-58155302D01*
X128804354Y-58155304D01*
X128861950Y-58268342D01*
X128861952Y-58268344D01*
X128861954Y-58268347D01*
X128951652Y-58358045D01*
X128951654Y-58358046D01*
X128951658Y-58358050D01*
X129064696Y-58415646D01*
X129064698Y-58415646D01*
X129073392Y-58420076D01*
X129071986Y-58422835D01*
X129116222Y-58453073D01*
X129124049Y-58463760D01*
X129128561Y-58470666D01*
X129128565Y-58470671D01*
X129154505Y-58490860D01*
X129160268Y-58495950D01*
X129162694Y-58498376D01*
X129180441Y-58511047D01*
X129220874Y-58542517D01*
X129220875Y-58542517D01*
X129220876Y-58542518D01*
X129227318Y-58546004D01*
X129233931Y-58549238D01*
X129233934Y-58549240D01*
X129245201Y-58552594D01*
X129283045Y-58563862D01*
X129331506Y-58580498D01*
X129331512Y-58580500D01*
X129331518Y-58580500D01*
X129338768Y-58581710D01*
X129346046Y-58582617D01*
X129380146Y-58581207D01*
X129447941Y-58598104D01*
X129472951Y-58617420D01*
X129549596Y-58694065D01*
X129558483Y-58700288D01*
X129557424Y-58701799D01*
X129600004Y-58739289D01*
X129619157Y-58806482D01*
X129598942Y-58873363D01*
X129545778Y-58918699D01*
X129495161Y-58929500D01*
X100901340Y-58929500D01*
X100834301Y-58909815D01*
X100788546Y-58857011D01*
X100778602Y-58787853D01*
X100807627Y-58724297D01*
X100851255Y-58692065D01*
X100942474Y-58651788D01*
X100942479Y-58651785D01*
X101021785Y-58572479D01*
X101021788Y-58572474D01*
X101067089Y-58469877D01*
X101067089Y-58469875D01*
X101069999Y-58444794D01*
X101070000Y-58444791D01*
X101070000Y-57800000D01*
X100353686Y-57800000D01*
X100379493Y-57759844D01*
X100420000Y-57621889D01*
X100420000Y-57550000D01*
X101404417Y-57550000D01*
X101424699Y-57755932D01*
X101438067Y-57800000D01*
X101484768Y-57953954D01*
X101582315Y-58136450D01*
X101585731Y-58140612D01*
X101713589Y-58296410D01*
X101796227Y-58364228D01*
X101873550Y-58427685D01*
X102056046Y-58525232D01*
X102254066Y-58585300D01*
X102254065Y-58585300D01*
X102272529Y-58587118D01*
X102460000Y-58605583D01*
X102665934Y-58585300D01*
X102863954Y-58525232D01*
X103046450Y-58427685D01*
X103206410Y-58296410D01*
X103337685Y-58136450D01*
X103435232Y-57953954D01*
X103495300Y-57755934D01*
X103515583Y-57550000D01*
X103944417Y-57550000D01*
X103964699Y-57755932D01*
X103978067Y-57800000D01*
X104024768Y-57953954D01*
X104122315Y-58136450D01*
X104125731Y-58140612D01*
X104253589Y-58296410D01*
X104336227Y-58364228D01*
X104413550Y-58427685D01*
X104596046Y-58525232D01*
X104794066Y-58585300D01*
X104794065Y-58585300D01*
X104812529Y-58587118D01*
X105000000Y-58605583D01*
X105205934Y-58585300D01*
X105403954Y-58525232D01*
X105586450Y-58427685D01*
X105746410Y-58296410D01*
X105877685Y-58136450D01*
X105975232Y-57953954D01*
X106035300Y-57755934D01*
X106055583Y-57550000D01*
X106035300Y-57344066D01*
X105975232Y-57146046D01*
X105877685Y-56963550D01*
X105818852Y-56891861D01*
X105746410Y-56803589D01*
X105586452Y-56672317D01*
X105586453Y-56672317D01*
X105586450Y-56672315D01*
X105403954Y-56574768D01*
X105205934Y-56514700D01*
X105205932Y-56514699D01*
X105205934Y-56514699D01*
X105000000Y-56494417D01*
X104794067Y-56514699D01*
X104596043Y-56574769D01*
X104502122Y-56624972D01*
X104413550Y-56672315D01*
X104413548Y-56672316D01*
X104413547Y-56672317D01*
X104253589Y-56803589D01*
X104122317Y-56963547D01*
X104122315Y-56963550D01*
X104099880Y-57005522D01*
X104024769Y-57146043D01*
X104024768Y-57146045D01*
X104024768Y-57146046D01*
X104017898Y-57168692D01*
X103964699Y-57344067D01*
X103944417Y-57550000D01*
X103515583Y-57550000D01*
X103495300Y-57344066D01*
X103435232Y-57146046D01*
X103337685Y-56963550D01*
X103278852Y-56891861D01*
X103206410Y-56803589D01*
X103046452Y-56672317D01*
X103046453Y-56672317D01*
X103046450Y-56672315D01*
X102863954Y-56574768D01*
X102665934Y-56514700D01*
X102665932Y-56514699D01*
X102665934Y-56514699D01*
X102460000Y-56494417D01*
X102254067Y-56514699D01*
X102056043Y-56574769D01*
X101962122Y-56624972D01*
X101873550Y-56672315D01*
X101873548Y-56672316D01*
X101873547Y-56672317D01*
X101713589Y-56803589D01*
X101582317Y-56963547D01*
X101582315Y-56963550D01*
X101559880Y-57005522D01*
X101484769Y-57146043D01*
X101484768Y-57146045D01*
X101484768Y-57146046D01*
X101477898Y-57168692D01*
X101424699Y-57344067D01*
X101404417Y-57550000D01*
X100420000Y-57550000D01*
X100420000Y-57478111D01*
X100379493Y-57340156D01*
X100353686Y-57300000D01*
X101069999Y-57300000D01*
X101069999Y-56655214D01*
X101069997Y-56655191D01*
X101067091Y-56630130D01*
X101067090Y-56630126D01*
X101021788Y-56527525D01*
X101021785Y-56527520D01*
X100942479Y-56448214D01*
X100942474Y-56448211D01*
X100839877Y-56402910D01*
X100830877Y-56400462D01*
X100831381Y-56398606D01*
X100777824Y-56375893D01*
X100738461Y-56318167D01*
X100736555Y-56248323D01*
X100772713Y-56188537D01*
X100830988Y-56159976D01*
X100830870Y-56159540D01*
X100833141Y-56158922D01*
X100835453Y-56157789D01*
X100839381Y-56157224D01*
X100839873Y-56157090D01*
X100942474Y-56111788D01*
X100942479Y-56111785D01*
X101021785Y-56032479D01*
X101021788Y-56032474D01*
X101067089Y-55929877D01*
X101067089Y-55929875D01*
X101069999Y-55904794D01*
X101070000Y-55904791D01*
X101070000Y-55260000D01*
X100353686Y-55260000D01*
X100379493Y-55219844D01*
X100420000Y-55081889D01*
X100420000Y-55010000D01*
X101404417Y-55010000D01*
X101424699Y-55215932D01*
X101450311Y-55300363D01*
X101484768Y-55413954D01*
X101582315Y-55596450D01*
X101586829Y-55601950D01*
X101713589Y-55756410D01*
X101801259Y-55828358D01*
X101873550Y-55887685D01*
X102056046Y-55985232D01*
X102254066Y-56045300D01*
X102254065Y-56045300D01*
X102267356Y-56046609D01*
X102460000Y-56065583D01*
X102665934Y-56045300D01*
X102863954Y-55985232D01*
X103046450Y-55887685D01*
X103206410Y-55756410D01*
X103337685Y-55596450D01*
X103435232Y-55413954D01*
X103495300Y-55215934D01*
X103515583Y-55010000D01*
X103944417Y-55010000D01*
X103964699Y-55215932D01*
X103990311Y-55300363D01*
X104024768Y-55413954D01*
X104122315Y-55596450D01*
X104126829Y-55601950D01*
X104253589Y-55756410D01*
X104341259Y-55828358D01*
X104413550Y-55887685D01*
X104596046Y-55985232D01*
X104794066Y-56045300D01*
X104794065Y-56045300D01*
X104807356Y-56046609D01*
X105000000Y-56065583D01*
X105205934Y-56045300D01*
X105403954Y-55985232D01*
X105586450Y-55887685D01*
X105746410Y-55756410D01*
X105877685Y-55596450D01*
X105975232Y-55413954D01*
X106035300Y-55215934D01*
X106055583Y-55010000D01*
X106035300Y-54804066D01*
X105975232Y-54606046D01*
X105877685Y-54423550D01*
X105825702Y-54360209D01*
X105746410Y-54263589D01*
X105604246Y-54146920D01*
X105586450Y-54132315D01*
X105403954Y-54034768D01*
X105205934Y-53974700D01*
X105205932Y-53974699D01*
X105205934Y-53974699D01*
X105000000Y-53954417D01*
X104794067Y-53974699D01*
X104630495Y-54024318D01*
X104597708Y-54034264D01*
X104596043Y-54034769D01*
X104508159Y-54081745D01*
X104413550Y-54132315D01*
X104413548Y-54132316D01*
X104413547Y-54132317D01*
X104253589Y-54263589D01*
X104122347Y-54423511D01*
X104122315Y-54423550D01*
X104094485Y-54475616D01*
X104024769Y-54606043D01*
X103964699Y-54804067D01*
X103944417Y-55010000D01*
X103515583Y-55010000D01*
X103495300Y-54804066D01*
X103435232Y-54606046D01*
X103337685Y-54423550D01*
X103285702Y-54360209D01*
X103206410Y-54263589D01*
X103064246Y-54146920D01*
X103046450Y-54132315D01*
X102863954Y-54034768D01*
X102665934Y-53974700D01*
X102665932Y-53974699D01*
X102665934Y-53974699D01*
X102460000Y-53954417D01*
X102254067Y-53974699D01*
X102090495Y-54024318D01*
X102057708Y-54034264D01*
X102056043Y-54034769D01*
X101968159Y-54081745D01*
X101873550Y-54132315D01*
X101873548Y-54132316D01*
X101873547Y-54132317D01*
X101713589Y-54263589D01*
X101582347Y-54423511D01*
X101582315Y-54423550D01*
X101554485Y-54475616D01*
X101484769Y-54606043D01*
X101424699Y-54804067D01*
X101404417Y-55010000D01*
X100420000Y-55010000D01*
X100420000Y-54938111D01*
X100379493Y-54800156D01*
X100353686Y-54760000D01*
X101069999Y-54760000D01*
X101069999Y-54115214D01*
X101069997Y-54115191D01*
X101067091Y-54090130D01*
X101067090Y-54090126D01*
X101021788Y-53987525D01*
X101021785Y-53987520D01*
X100942479Y-53908214D01*
X100942474Y-53908211D01*
X100839877Y-53862910D01*
X100830877Y-53860462D01*
X100831381Y-53858606D01*
X100777824Y-53835893D01*
X100738461Y-53778167D01*
X100736555Y-53708323D01*
X100772713Y-53648537D01*
X100830988Y-53619976D01*
X100830870Y-53619540D01*
X100833141Y-53618922D01*
X100835453Y-53617789D01*
X100839381Y-53617224D01*
X100839873Y-53617090D01*
X100942474Y-53571788D01*
X100942479Y-53571785D01*
X101021785Y-53492479D01*
X101021788Y-53492474D01*
X101067089Y-53389877D01*
X101067089Y-53389875D01*
X101069999Y-53364794D01*
X101070000Y-53364791D01*
X101070000Y-52720000D01*
X100353686Y-52720000D01*
X100379493Y-52679844D01*
X100420000Y-52541889D01*
X100420000Y-52470000D01*
X101404417Y-52470000D01*
X101424699Y-52675932D01*
X101441101Y-52730003D01*
X101484715Y-52873780D01*
X101484769Y-52873956D01*
X101484995Y-52874378D01*
X101582315Y-53056450D01*
X101611209Y-53091658D01*
X101713589Y-53216410D01*
X101793669Y-53282129D01*
X101873550Y-53347685D01*
X102056046Y-53445232D01*
X102254066Y-53505300D01*
X102254065Y-53505300D01*
X102272529Y-53507118D01*
X102460000Y-53525583D01*
X102665934Y-53505300D01*
X102863954Y-53445232D01*
X103046450Y-53347685D01*
X103206410Y-53216410D01*
X103337685Y-53056450D01*
X103435232Y-52873954D01*
X103495300Y-52675934D01*
X103515583Y-52470000D01*
X103944417Y-52470000D01*
X103964699Y-52675932D01*
X103981101Y-52730003D01*
X104024715Y-52873780D01*
X104024769Y-52873956D01*
X104024995Y-52874378D01*
X104122315Y-53056450D01*
X104151209Y-53091658D01*
X104253589Y-53216410D01*
X104333669Y-53282129D01*
X104413550Y-53347685D01*
X104596046Y-53445232D01*
X104794066Y-53505300D01*
X104794065Y-53505300D01*
X104812529Y-53507118D01*
X105000000Y-53525583D01*
X105205934Y-53505300D01*
X105403954Y-53445232D01*
X105586450Y-53347685D01*
X105746410Y-53216410D01*
X105877685Y-53056450D01*
X105975232Y-52873954D01*
X106035300Y-52675934D01*
X106055583Y-52470000D01*
X106035300Y-52264066D01*
X105975232Y-52066046D01*
X105877685Y-51883550D01*
X105794455Y-51782133D01*
X105746410Y-51723589D01*
X105628677Y-51626969D01*
X105586450Y-51592315D01*
X105403954Y-51494768D01*
X105205934Y-51434700D01*
X105205932Y-51434699D01*
X105205934Y-51434699D01*
X105000000Y-51414417D01*
X104794067Y-51434699D01*
X104646378Y-51479500D01*
X104606299Y-51491658D01*
X104596043Y-51494769D01*
X104518125Y-51536418D01*
X104413550Y-51592315D01*
X104413548Y-51592316D01*
X104413547Y-51592317D01*
X104253589Y-51723589D01*
X104123050Y-51882654D01*
X104122315Y-51883550D01*
X104084451Y-51954388D01*
X104024769Y-52066043D01*
X103964699Y-52264067D01*
X103944417Y-52470000D01*
X103515583Y-52470000D01*
X103495300Y-52264066D01*
X103435232Y-52066046D01*
X103337685Y-51883550D01*
X103254455Y-51782133D01*
X103206410Y-51723589D01*
X103088677Y-51626969D01*
X103046450Y-51592315D01*
X102863954Y-51494768D01*
X102665934Y-51434700D01*
X102665932Y-51434699D01*
X102665934Y-51434699D01*
X102460000Y-51414417D01*
X102254067Y-51434699D01*
X102106378Y-51479500D01*
X102066299Y-51491658D01*
X102056043Y-51494769D01*
X101978125Y-51536418D01*
X101873550Y-51592315D01*
X101873548Y-51592316D01*
X101873547Y-51592317D01*
X101713589Y-51723589D01*
X101583050Y-51882654D01*
X101582315Y-51883550D01*
X101544451Y-51954388D01*
X101484769Y-52066043D01*
X101424699Y-52264067D01*
X101404417Y-52470000D01*
X100420000Y-52470000D01*
X100420000Y-52398111D01*
X100379493Y-52260156D01*
X100353686Y-52220000D01*
X101069999Y-52220000D01*
X101069999Y-51575214D01*
X101069997Y-51575191D01*
X101067091Y-51550130D01*
X101067090Y-51550126D01*
X101021788Y-51447525D01*
X101021785Y-51447520D01*
X100942479Y-51368214D01*
X100942474Y-51368211D01*
X100839877Y-51322910D01*
X100830877Y-51320462D01*
X100831381Y-51318606D01*
X100777824Y-51295893D01*
X100738461Y-51238167D01*
X100736555Y-51168323D01*
X100772713Y-51108537D01*
X100830988Y-51079976D01*
X100830870Y-51079540D01*
X100833141Y-51078922D01*
X100835453Y-51077789D01*
X100839381Y-51077224D01*
X100839873Y-51077090D01*
X100942474Y-51031788D01*
X100942479Y-51031785D01*
X101021785Y-50952479D01*
X101021788Y-50952474D01*
X101067089Y-50849877D01*
X101067089Y-50849875D01*
X101069999Y-50824794D01*
X101070000Y-50824791D01*
X101070000Y-50180000D01*
X100353686Y-50180000D01*
X100379493Y-50139844D01*
X100420000Y-50001889D01*
X100420000Y-49930000D01*
X101404417Y-49930000D01*
X101424699Y-50135932D01*
X101438067Y-50180000D01*
X101483812Y-50330804D01*
X101484769Y-50333956D01*
X101489760Y-50343294D01*
X101582315Y-50516450D01*
X101582317Y-50516452D01*
X101713589Y-50676410D01*
X101765553Y-50719055D01*
X101873550Y-50807685D01*
X102056046Y-50905232D01*
X102254066Y-50965300D01*
X102254065Y-50965300D01*
X102272529Y-50967118D01*
X102460000Y-50985583D01*
X102665934Y-50965300D01*
X102863954Y-50905232D01*
X103046450Y-50807685D01*
X103206410Y-50676410D01*
X103337685Y-50516450D01*
X103435232Y-50333954D01*
X103495300Y-50135934D01*
X103515583Y-49930000D01*
X103944417Y-49930000D01*
X103964699Y-50135932D01*
X103978067Y-50180000D01*
X104023812Y-50330804D01*
X104024769Y-50333956D01*
X104029760Y-50343294D01*
X104122315Y-50516450D01*
X104122317Y-50516452D01*
X104253589Y-50676410D01*
X104305553Y-50719055D01*
X104413550Y-50807685D01*
X104596046Y-50905232D01*
X104794066Y-50965300D01*
X104794065Y-50965300D01*
X104812529Y-50967118D01*
X105000000Y-50985583D01*
X105205934Y-50965300D01*
X105403954Y-50905232D01*
X105586450Y-50807685D01*
X105746410Y-50676410D01*
X105877685Y-50516450D01*
X105975232Y-50333954D01*
X106035300Y-50135934D01*
X106055583Y-49930000D01*
X106035300Y-49724066D01*
X105975232Y-49526046D01*
X105877685Y-49343550D01*
X105784327Y-49229792D01*
X105746410Y-49183589D01*
X105610440Y-49072003D01*
X105586450Y-49052315D01*
X105403954Y-48954768D01*
X105205934Y-48894700D01*
X105205932Y-48894699D01*
X105205934Y-48894699D01*
X105000000Y-48874417D01*
X104794067Y-48894699D01*
X104596043Y-48954769D01*
X104492479Y-49010126D01*
X104413550Y-49052315D01*
X104413548Y-49052316D01*
X104413547Y-49052317D01*
X104253589Y-49183589D01*
X104138574Y-49323738D01*
X104122315Y-49343550D01*
X104096489Y-49391867D01*
X104024769Y-49526043D01*
X103964699Y-49724067D01*
X103944417Y-49930000D01*
X103515583Y-49930000D01*
X103495300Y-49724066D01*
X103435232Y-49526046D01*
X103337685Y-49343550D01*
X103244327Y-49229792D01*
X103206410Y-49183589D01*
X103070440Y-49072003D01*
X103046450Y-49052315D01*
X102863954Y-48954768D01*
X102665934Y-48894700D01*
X102665932Y-48894699D01*
X102665934Y-48894699D01*
X102460000Y-48874417D01*
X102254067Y-48894699D01*
X102056043Y-48954769D01*
X101952479Y-49010126D01*
X101873550Y-49052315D01*
X101873548Y-49052316D01*
X101873547Y-49052317D01*
X101713589Y-49183589D01*
X101598574Y-49323738D01*
X101582315Y-49343550D01*
X101556489Y-49391867D01*
X101484769Y-49526043D01*
X101424699Y-49724067D01*
X101404417Y-49930000D01*
X100420000Y-49930000D01*
X100420000Y-49858111D01*
X100379493Y-49720156D01*
X100353686Y-49680000D01*
X101069999Y-49680000D01*
X101069999Y-49035214D01*
X101069997Y-49035191D01*
X101067091Y-49010130D01*
X101067090Y-49010126D01*
X101021788Y-48907525D01*
X101021785Y-48907520D01*
X100942479Y-48828214D01*
X100942474Y-48828211D01*
X100839876Y-48782910D01*
X100814794Y-48780000D01*
X100170000Y-48780000D01*
X100170000Y-49494498D01*
X100062315Y-49445320D01*
X99955763Y-49430000D01*
X99884237Y-49430000D01*
X99777685Y-49445320D01*
X99670000Y-49494498D01*
X99670000Y-48780000D01*
X99025214Y-48780000D01*
X99025191Y-48780002D01*
X99000130Y-48782908D01*
X99000126Y-48782909D01*
X98897525Y-48828211D01*
X98888046Y-48834705D01*
X98886334Y-48832206D01*
X98840858Y-48857039D01*
X98771166Y-48852055D01*
X98715233Y-48810183D01*
X98690816Y-48744719D01*
X98690500Y-48735873D01*
X98690500Y-46044127D01*
X98710185Y-45977088D01*
X98762989Y-45931333D01*
X98832147Y-45921389D01*
X98887199Y-45946530D01*
X98888046Y-45945295D01*
X98895149Y-45950161D01*
X98895703Y-45950414D01*
X98896216Y-45950892D01*
X98897525Y-45951788D01*
X99000123Y-45997089D01*
X99025206Y-45999999D01*
X99669999Y-45999999D01*
X99670000Y-45999998D01*
X99670000Y-45285501D01*
X99777685Y-45334680D01*
X99884237Y-45350000D01*
X99955763Y-45350000D01*
X100062315Y-45334680D01*
X100170000Y-45285501D01*
X100170000Y-45999999D01*
X100814786Y-45999999D01*
X100814808Y-45999997D01*
X100839869Y-45997091D01*
X100839873Y-45997090D01*
X100942474Y-45951788D01*
X100942479Y-45951785D01*
X101021785Y-45872479D01*
X101021788Y-45872474D01*
X101067089Y-45769877D01*
X101067089Y-45769875D01*
X101069999Y-45744794D01*
X101070000Y-45744791D01*
X101070000Y-45100000D01*
X100353686Y-45100000D01*
X100379493Y-45059844D01*
X100420000Y-44921889D01*
X100420000Y-44850000D01*
X101404417Y-44850000D01*
X101424699Y-45055932D01*
X101447167Y-45129998D01*
X101484768Y-45253954D01*
X101582315Y-45436450D01*
X101582317Y-45436452D01*
X101713589Y-45596410D01*
X101751059Y-45627160D01*
X101873550Y-45727685D01*
X102056046Y-45825232D01*
X102254066Y-45885300D01*
X102254065Y-45885300D01*
X102272529Y-45887118D01*
X102460000Y-45905583D01*
X102665934Y-45885300D01*
X102863954Y-45825232D01*
X103046450Y-45727685D01*
X103206410Y-45596410D01*
X103337685Y-45436450D01*
X103435232Y-45253954D01*
X103495300Y-45055934D01*
X103515583Y-44850000D01*
X103944417Y-44850000D01*
X103964699Y-45055932D01*
X103987167Y-45129998D01*
X104024768Y-45253954D01*
X104122315Y-45436450D01*
X104122317Y-45436452D01*
X104253589Y-45596410D01*
X104291059Y-45627160D01*
X104413550Y-45727685D01*
X104596046Y-45825232D01*
X104794066Y-45885300D01*
X104794065Y-45885300D01*
X104812529Y-45887118D01*
X105000000Y-45905583D01*
X105205934Y-45885300D01*
X105403954Y-45825232D01*
X105586450Y-45727685D01*
X105746410Y-45596410D01*
X105877685Y-45436450D01*
X105975232Y-45253954D01*
X106012832Y-45130001D01*
X106984318Y-45130001D01*
X107004955Y-45286760D01*
X107004956Y-45286762D01*
X107065464Y-45432841D01*
X107161718Y-45558282D01*
X107287159Y-45654536D01*
X107433238Y-45715044D01*
X107590000Y-45735682D01*
X107653564Y-45727313D01*
X107722595Y-45738078D01*
X107774852Y-45784457D01*
X107793738Y-45851726D01*
X107792686Y-45866437D01*
X107784318Y-45929998D01*
X107784318Y-45930001D01*
X107804955Y-46086760D01*
X107804956Y-46086762D01*
X107837750Y-46165935D01*
X107865464Y-46232841D01*
X107961718Y-46358282D01*
X108087159Y-46454536D01*
X108233238Y-46515044D01*
X108311619Y-46525363D01*
X108389999Y-46535682D01*
X108390000Y-46535682D01*
X108390001Y-46535682D01*
X108442254Y-46528802D01*
X108546762Y-46515044D01*
X108692841Y-46454536D01*
X108818282Y-46358282D01*
X108914536Y-46232841D01*
X108975044Y-46086762D01*
X108992932Y-45950892D01*
X108995682Y-45930001D01*
X108995682Y-45929998D01*
X108979186Y-45804698D01*
X108975044Y-45773238D01*
X108914536Y-45627159D01*
X108818282Y-45501718D01*
X108692841Y-45405464D01*
X108646104Y-45386105D01*
X108546762Y-45344956D01*
X108546760Y-45344955D01*
X108390001Y-45324318D01*
X108389999Y-45324318D01*
X108326437Y-45332686D01*
X108257402Y-45321920D01*
X108205146Y-45275540D01*
X108186261Y-45208271D01*
X108187311Y-45193580D01*
X108195682Y-45130000D01*
X108191732Y-45100000D01*
X108175044Y-44973239D01*
X108175044Y-44973238D01*
X108114536Y-44827159D01*
X108018282Y-44701718D01*
X107892841Y-44605464D01*
X107883797Y-44601718D01*
X107746762Y-44544956D01*
X107746760Y-44544955D01*
X107590001Y-44524318D01*
X107589999Y-44524318D01*
X107433239Y-44544955D01*
X107433237Y-44544956D01*
X107287160Y-44605463D01*
X107161718Y-44701718D01*
X107065463Y-44827160D01*
X107004956Y-44973237D01*
X107004955Y-44973239D01*
X106984318Y-45129998D01*
X106984318Y-45130001D01*
X106012832Y-45130001D01*
X106035300Y-45055934D01*
X106055583Y-44850000D01*
X106035300Y-44644066D01*
X105975232Y-44446046D01*
X105877685Y-44263550D01*
X105825702Y-44200209D01*
X105746410Y-44103589D01*
X105586452Y-43972317D01*
X105586453Y-43972317D01*
X105586450Y-43972315D01*
X105403954Y-43874768D01*
X105205934Y-43814700D01*
X105205932Y-43814699D01*
X105205934Y-43814699D01*
X105000000Y-43794417D01*
X104794067Y-43814699D01*
X104596043Y-43874769D01*
X104540444Y-43904488D01*
X104413550Y-43972315D01*
X104413548Y-43972316D01*
X104413547Y-43972317D01*
X104253589Y-44103589D01*
X104122317Y-44263547D01*
X104122315Y-44263550D01*
X104083643Y-44335898D01*
X104024769Y-44446043D01*
X103964699Y-44644067D01*
X103944417Y-44850000D01*
X103515583Y-44850000D01*
X103495300Y-44644066D01*
X103435232Y-44446046D01*
X103337685Y-44263550D01*
X103285702Y-44200209D01*
X103206410Y-44103589D01*
X103046452Y-43972317D01*
X103046453Y-43972317D01*
X103046450Y-43972315D01*
X102863954Y-43874768D01*
X102665934Y-43814700D01*
X102665932Y-43814699D01*
X102665934Y-43814699D01*
X102460000Y-43794417D01*
X102254067Y-43814699D01*
X102056043Y-43874769D01*
X102000444Y-43904488D01*
X101873550Y-43972315D01*
X101873548Y-43972316D01*
X101873547Y-43972317D01*
X101713589Y-44103589D01*
X101582317Y-44263547D01*
X101582315Y-44263550D01*
X101543643Y-44335898D01*
X101484769Y-44446043D01*
X101424699Y-44644067D01*
X101404417Y-44850000D01*
X100420000Y-44850000D01*
X100420000Y-44778111D01*
X100379493Y-44640156D01*
X100353686Y-44600000D01*
X101069999Y-44600000D01*
X101069999Y-43955214D01*
X101069997Y-43955191D01*
X101067091Y-43930130D01*
X101067090Y-43930126D01*
X101021788Y-43827525D01*
X101021785Y-43827520D01*
X100942479Y-43748214D01*
X100942474Y-43748211D01*
X100839877Y-43702910D01*
X100830877Y-43700462D01*
X100831381Y-43698606D01*
X100777824Y-43675893D01*
X100738461Y-43618167D01*
X100736555Y-43548323D01*
X100747636Y-43530001D01*
X106784318Y-43530001D01*
X106804955Y-43686760D01*
X106804956Y-43686762D01*
X106860188Y-43820105D01*
X106865464Y-43832841D01*
X106961718Y-43958282D01*
X107087159Y-44054536D01*
X107233238Y-44115044D01*
X107311619Y-44125363D01*
X107389999Y-44135682D01*
X107390000Y-44135682D01*
X107390001Y-44135682D01*
X107442254Y-44128802D01*
X107546762Y-44115044D01*
X107692841Y-44054536D01*
X107818282Y-43958282D01*
X107914536Y-43832841D01*
X107975044Y-43686762D01*
X107995682Y-43530000D01*
X107986324Y-43458922D01*
X107979264Y-43405295D01*
X107975044Y-43373238D01*
X107914536Y-43227159D01*
X107818282Y-43101718D01*
X107692841Y-43005464D01*
X107546762Y-42944956D01*
X107546760Y-42944955D01*
X107390001Y-42924318D01*
X107389999Y-42924318D01*
X107226611Y-42945828D01*
X107225481Y-42945651D01*
X107219739Y-42950509D01*
X107217026Y-42951671D01*
X107087160Y-43005463D01*
X106961718Y-43101718D01*
X106865463Y-43227160D01*
X106804956Y-43373237D01*
X106804955Y-43373239D01*
X106784318Y-43529998D01*
X106784318Y-43530001D01*
X100747636Y-43530001D01*
X100772713Y-43488537D01*
X100830988Y-43459976D01*
X100830870Y-43459540D01*
X100833141Y-43458922D01*
X100835453Y-43457789D01*
X100839381Y-43457224D01*
X100839873Y-43457090D01*
X100942474Y-43411788D01*
X100942479Y-43411785D01*
X101021785Y-43332479D01*
X101021788Y-43332474D01*
X101067089Y-43229877D01*
X101067089Y-43229875D01*
X101069999Y-43204794D01*
X101070000Y-43204791D01*
X101070000Y-42560000D01*
X100353686Y-42560000D01*
X100379493Y-42519844D01*
X100420000Y-42381889D01*
X100420000Y-42310000D01*
X101404417Y-42310000D01*
X101424699Y-42515932D01*
X101437546Y-42558282D01*
X101484768Y-42713954D01*
X101582315Y-42896450D01*
X101582317Y-42896452D01*
X101713589Y-43056410D01*
X101768798Y-43101718D01*
X101873550Y-43187685D01*
X102056046Y-43285232D01*
X102254066Y-43345300D01*
X102254065Y-43345300D01*
X102272529Y-43347118D01*
X102460000Y-43365583D01*
X102665934Y-43345300D01*
X102863954Y-43285232D01*
X103046450Y-43187685D01*
X103206410Y-43056410D01*
X103337685Y-42896450D01*
X103435232Y-42713954D01*
X103495300Y-42515934D01*
X103515583Y-42310000D01*
X103944417Y-42310000D01*
X103964699Y-42515932D01*
X103977546Y-42558282D01*
X104024768Y-42713954D01*
X104122315Y-42896450D01*
X104122317Y-42896452D01*
X104253589Y-43056410D01*
X104308798Y-43101718D01*
X104413550Y-43187685D01*
X104596046Y-43285232D01*
X104794066Y-43345300D01*
X104794065Y-43345300D01*
X104812529Y-43347118D01*
X105000000Y-43365583D01*
X105205934Y-43345300D01*
X105403954Y-43285232D01*
X105586450Y-43187685D01*
X105746410Y-43056410D01*
X105877685Y-42896450D01*
X105975232Y-42713954D01*
X106035300Y-42515934D01*
X106055583Y-42310000D01*
X106037854Y-42130001D01*
X106384318Y-42130001D01*
X106404955Y-42286760D01*
X106404956Y-42286762D01*
X106435394Y-42360247D01*
X106465464Y-42432841D01*
X106561718Y-42558282D01*
X106687159Y-42654536D01*
X106833238Y-42715044D01*
X106911619Y-42725363D01*
X106989999Y-42735682D01*
X106990000Y-42735682D01*
X107146762Y-42715044D01*
X107146764Y-42715042D01*
X107153387Y-42714171D01*
X107154518Y-42714347D01*
X107160261Y-42709490D01*
X107162920Y-42708351D01*
X107292841Y-42654536D01*
X107418282Y-42558282D01*
X107514536Y-42432841D01*
X107575044Y-42286762D01*
X107591958Y-42158286D01*
X107595682Y-42130001D01*
X107595682Y-42129998D01*
X107579186Y-42004698D01*
X107575044Y-41973238D01*
X107514536Y-41827159D01*
X107418282Y-41701718D01*
X107292841Y-41605464D01*
X107281308Y-41600687D01*
X107146762Y-41544956D01*
X107146760Y-41544955D01*
X106990001Y-41524318D01*
X106989999Y-41524318D01*
X106833239Y-41544955D01*
X106833237Y-41544956D01*
X106687160Y-41605463D01*
X106561718Y-41701718D01*
X106465463Y-41827160D01*
X106404956Y-41973237D01*
X106404955Y-41973239D01*
X106384318Y-42129998D01*
X106384318Y-42130001D01*
X106037854Y-42130001D01*
X106035300Y-42104066D01*
X105975232Y-41906046D01*
X105877685Y-41723550D01*
X105811590Y-41643012D01*
X105746410Y-41563589D01*
X105608549Y-41450451D01*
X105586450Y-41432315D01*
X105403954Y-41334768D01*
X105205934Y-41274700D01*
X105205932Y-41274699D01*
X105205934Y-41274699D01*
X105000000Y-41254417D01*
X104794067Y-41274699D01*
X104596043Y-41334769D01*
X104492479Y-41390126D01*
X104413550Y-41432315D01*
X104413548Y-41432316D01*
X104413547Y-41432317D01*
X104253589Y-41563589D01*
X104122317Y-41723547D01*
X104122315Y-41723550D01*
X104118867Y-41730001D01*
X104024769Y-41906043D01*
X103964699Y-42104067D01*
X103944417Y-42310000D01*
X103515583Y-42310000D01*
X103495300Y-42104066D01*
X103435232Y-41906046D01*
X103337685Y-41723550D01*
X103271590Y-41643012D01*
X103206410Y-41563589D01*
X103068549Y-41450451D01*
X103046450Y-41432315D01*
X102863954Y-41334768D01*
X102665934Y-41274700D01*
X102665932Y-41274699D01*
X102665934Y-41274699D01*
X102460000Y-41254417D01*
X102254067Y-41274699D01*
X102056043Y-41334769D01*
X101952479Y-41390126D01*
X101873550Y-41432315D01*
X101873548Y-41432316D01*
X101873547Y-41432317D01*
X101713589Y-41563589D01*
X101582317Y-41723547D01*
X101582315Y-41723550D01*
X101578867Y-41730001D01*
X101484769Y-41906043D01*
X101424699Y-42104067D01*
X101404417Y-42310000D01*
X100420000Y-42310000D01*
X100420000Y-42238111D01*
X100379493Y-42100156D01*
X100353686Y-42060000D01*
X101069999Y-42060000D01*
X101069999Y-41415214D01*
X101069997Y-41415191D01*
X101067091Y-41390130D01*
X101067090Y-41390126D01*
X101021788Y-41287525D01*
X101021785Y-41287520D01*
X100942479Y-41208214D01*
X100942474Y-41208211D01*
X100839877Y-41162910D01*
X100830877Y-41160462D01*
X100831381Y-41158606D01*
X100777824Y-41135893D01*
X100738461Y-41078167D01*
X100736555Y-41008323D01*
X100772713Y-40948537D01*
X100830988Y-40919976D01*
X100830870Y-40919540D01*
X100833141Y-40918922D01*
X100835453Y-40917789D01*
X100839381Y-40917224D01*
X100839873Y-40917090D01*
X100942474Y-40871788D01*
X100942479Y-40871785D01*
X101021785Y-40792479D01*
X101021788Y-40792474D01*
X101067089Y-40689877D01*
X101067089Y-40689875D01*
X101069999Y-40664794D01*
X101070000Y-40664791D01*
X101070000Y-40020000D01*
X100353686Y-40020000D01*
X100379493Y-39979844D01*
X100420000Y-39841889D01*
X100420000Y-39698111D01*
X100379493Y-39560156D01*
X100353686Y-39520000D01*
X101069999Y-39520000D01*
X101069999Y-38875214D01*
X101069997Y-38875191D01*
X101067091Y-38850130D01*
X101067090Y-38850126D01*
X101021788Y-38747525D01*
X101021785Y-38747520D01*
X101016446Y-38742181D01*
X100982961Y-38680858D01*
X100987945Y-38611166D01*
X101029817Y-38555233D01*
X101095281Y-38530816D01*
X101104127Y-38530500D01*
X102091282Y-38530500D01*
X102158321Y-38550185D01*
G37*
%TD.AperFunction*%
%TA.AperFunction,Conductor*%
G36*
X129270000Y-49050000D02*
G01*
X129284386Y-49050000D01*
X129351425Y-49069685D01*
X129397180Y-49122489D01*
X129407124Y-49191647D01*
X129392042Y-49229751D01*
X129393838Y-49230589D01*
X129340740Y-49344456D01*
X129334500Y-49391860D01*
X129334500Y-49868132D01*
X129334501Y-49868138D01*
X129340741Y-49915545D01*
X129340742Y-49915547D01*
X129340742Y-49915548D01*
X129389253Y-50019579D01*
X129444327Y-50074653D01*
X129477812Y-50135976D01*
X129472828Y-50205668D01*
X129444327Y-50250015D01*
X128671948Y-51022395D01*
X128665464Y-51028037D01*
X128655768Y-51035359D01*
X128623559Y-51070689D01*
X128621585Y-51072757D01*
X128607827Y-51086515D01*
X128607822Y-51086521D01*
X128606306Y-51088735D01*
X128600976Y-51095463D01*
X128580083Y-51118381D01*
X128580083Y-51118382D01*
X128577578Y-51124848D01*
X128564257Y-51150120D01*
X128560343Y-51155834D01*
X128560342Y-51155836D01*
X128553242Y-51186016D01*
X128550702Y-51194222D01*
X128539500Y-51223140D01*
X128539500Y-51230066D01*
X128536206Y-51258456D01*
X128534621Y-51265192D01*
X128534621Y-51265196D01*
X128537344Y-51284719D01*
X128538905Y-51295905D01*
X128539500Y-51304481D01*
X128539500Y-54794979D01*
X128519815Y-54862018D01*
X128503181Y-54882660D01*
X127092660Y-56293181D01*
X127031337Y-56326666D01*
X127004979Y-56329500D01*
X126211849Y-56329500D01*
X126144810Y-56309815D01*
X126124168Y-56293181D01*
X125790494Y-55959507D01*
X125757009Y-55898184D01*
X125761993Y-55828492D01*
X125803865Y-55772559D01*
X125821875Y-55761344D01*
X125828342Y-55758050D01*
X125918050Y-55668342D01*
X125951877Y-55601954D01*
X125953788Y-55598204D01*
X126001763Y-55547408D01*
X126064272Y-55530500D01*
X126604030Y-55530500D01*
X126604042Y-55530499D01*
X127292130Y-55530499D01*
X127292132Y-55530499D01*
X127372495Y-55514515D01*
X127463624Y-55453624D01*
X127524515Y-55362495D01*
X127540500Y-55282133D01*
X127540499Y-55077868D01*
X127524515Y-54997505D01*
X127484829Y-54938111D01*
X127463624Y-54906375D01*
X127406632Y-54868295D01*
X127372495Y-54845485D01*
X127372493Y-54845484D01*
X127372490Y-54845483D01*
X127292137Y-54829500D01*
X127292133Y-54829500D01*
X126623489Y-54829500D01*
X126623488Y-54829500D01*
X125889206Y-54829500D01*
X125863761Y-54826861D01*
X125854685Y-54824958D01*
X125854682Y-54824958D01*
X125822068Y-54829023D01*
X125814392Y-54829500D01*
X125810960Y-54829500D01*
X125796619Y-54831892D01*
X125789448Y-54833089D01*
X125772621Y-54835186D01*
X125738607Y-54839427D01*
X125738606Y-54839427D01*
X125738601Y-54839428D01*
X125731575Y-54841519D01*
X125724623Y-54843906D01*
X125724619Y-54843907D01*
X125724619Y-54843908D01*
X125691154Y-54862018D01*
X125679555Y-54868295D01*
X125633512Y-54890803D01*
X125627566Y-54895048D01*
X125621742Y-54899581D01*
X125587042Y-54937275D01*
X125508362Y-55015955D01*
X125472407Y-55037992D01*
X125473391Y-55039923D01*
X125351659Y-55101949D01*
X125351652Y-55101954D01*
X125261954Y-55191652D01*
X125261949Y-55191659D01*
X125225164Y-55263852D01*
X125177189Y-55314648D01*
X125109368Y-55331442D01*
X125092373Y-55329500D01*
X125092189Y-55329500D01*
X125085265Y-55329500D01*
X125056874Y-55326206D01*
X125050135Y-55324621D01*
X125019425Y-55328905D01*
X125010850Y-55329500D01*
X124489238Y-55329500D01*
X124422199Y-55309815D01*
X124376444Y-55257011D01*
X124366500Y-55187853D01*
X124373762Y-55164950D01*
X124372631Y-55164583D01*
X124375647Y-55155300D01*
X124395492Y-55030003D01*
X124395492Y-55029996D01*
X124375647Y-54904699D01*
X124375647Y-54904698D01*
X124373040Y-54899581D01*
X124318050Y-54791658D01*
X124318046Y-54791654D01*
X124318045Y-54791652D01*
X124228347Y-54701954D01*
X124228338Y-54701947D01*
X124215690Y-54695503D01*
X124164894Y-54647529D01*
X124148099Y-54579708D01*
X124170637Y-54513573D01*
X124225352Y-54470122D01*
X124271985Y-54461019D01*
X125639828Y-54461019D01*
X125706867Y-54480704D01*
X125708714Y-54481913D01*
X125757505Y-54514515D01*
X125757508Y-54514515D01*
X125757509Y-54514516D01*
X125797686Y-54522507D01*
X125837867Y-54530500D01*
X127292132Y-54530499D01*
X127372495Y-54514515D01*
X127463624Y-54453624D01*
X127524515Y-54362495D01*
X127540500Y-54282133D01*
X127540499Y-54077868D01*
X127524515Y-53997505D01*
X127524513Y-53997502D01*
X127519841Y-53986222D01*
X127521285Y-53985623D01*
X127504563Y-53932211D01*
X127520517Y-53874056D01*
X127519842Y-53873777D01*
X127522070Y-53868396D01*
X127523049Y-53864831D01*
X127524452Y-53862647D01*
X127524516Y-53862493D01*
X127534088Y-53814365D01*
X127540500Y-53782133D01*
X127540499Y-53577868D01*
X127524515Y-53497505D01*
X127524513Y-53497502D01*
X127519841Y-53486222D01*
X127521285Y-53485623D01*
X127504563Y-53432211D01*
X127520517Y-53374056D01*
X127519842Y-53373777D01*
X127522070Y-53368396D01*
X127523049Y-53364831D01*
X127524452Y-53362647D01*
X127524516Y-53362493D01*
X127535582Y-53306855D01*
X127540500Y-53282133D01*
X127540499Y-53077868D01*
X127524515Y-52997505D01*
X127524513Y-52997502D01*
X127519841Y-52986222D01*
X127521285Y-52985623D01*
X127504563Y-52932211D01*
X127520517Y-52874056D01*
X127519842Y-52873777D01*
X127522070Y-52868396D01*
X127523049Y-52864831D01*
X127524452Y-52862647D01*
X127524516Y-52862493D01*
X127540499Y-52782136D01*
X127540500Y-52782133D01*
X127540499Y-52577868D01*
X127524515Y-52497505D01*
X127524513Y-52497502D01*
X127519841Y-52486222D01*
X127521285Y-52485623D01*
X127504563Y-52432211D01*
X127520517Y-52374056D01*
X127519842Y-52373777D01*
X127522070Y-52368396D01*
X127523049Y-52364831D01*
X127524452Y-52362647D01*
X127524516Y-52362493D01*
X127540499Y-52282136D01*
X127540500Y-52282133D01*
X127540499Y-52077868D01*
X127524515Y-51997505D01*
X127524513Y-51997502D01*
X127519841Y-51986222D01*
X127521285Y-51985623D01*
X127504563Y-51932211D01*
X127520517Y-51874056D01*
X127519842Y-51873777D01*
X127522070Y-51868396D01*
X127523049Y-51864831D01*
X127524452Y-51862647D01*
X127524516Y-51862493D01*
X127538605Y-51791658D01*
X127540500Y-51782133D01*
X127540499Y-51577868D01*
X127524515Y-51497505D01*
X127524513Y-51497502D01*
X127519841Y-51486222D01*
X127521285Y-51485623D01*
X127504563Y-51432211D01*
X127520517Y-51374056D01*
X127519842Y-51373777D01*
X127522070Y-51368396D01*
X127523049Y-51364831D01*
X127524452Y-51362647D01*
X127524516Y-51362493D01*
X127537293Y-51298256D01*
X127540500Y-51282133D01*
X127540499Y-51077868D01*
X127524515Y-50997505D01*
X127524513Y-50997502D01*
X127519841Y-50986222D01*
X127521285Y-50985623D01*
X127504563Y-50932211D01*
X127520517Y-50874056D01*
X127519842Y-50873777D01*
X127522070Y-50868396D01*
X127523049Y-50864831D01*
X127524452Y-50862647D01*
X127524514Y-50862497D01*
X127524514Y-50862496D01*
X127524515Y-50862495D01*
X127533855Y-50815538D01*
X127566239Y-50753630D01*
X127626954Y-50719055D01*
X127674869Y-50717258D01*
X127789997Y-50735492D01*
X127790000Y-50735492D01*
X127790003Y-50735492D01*
X127915300Y-50715647D01*
X127915301Y-50715647D01*
X127915302Y-50715646D01*
X127915304Y-50715646D01*
X128028342Y-50658050D01*
X128118050Y-50568342D01*
X128175646Y-50455304D01*
X128175646Y-50455302D01*
X128175647Y-50455301D01*
X128175647Y-50455300D01*
X128195492Y-50330003D01*
X128195492Y-50329996D01*
X128175647Y-50204699D01*
X128175647Y-50204698D01*
X128169084Y-50191818D01*
X128118050Y-50091658D01*
X128118046Y-50091654D01*
X128118045Y-50091652D01*
X128028347Y-50001954D01*
X128028344Y-50001952D01*
X128028342Y-50001950D01*
X127915304Y-49944354D01*
X127915303Y-49944353D01*
X127915300Y-49944352D01*
X127790003Y-49924508D01*
X127790002Y-49924508D01*
X127790000Y-49924508D01*
X127769291Y-49927788D01*
X127678865Y-49942109D01*
X127609572Y-49933153D01*
X127556121Y-49888156D01*
X127535482Y-49821404D01*
X127537853Y-49795439D01*
X127540500Y-49782133D01*
X127540499Y-49577868D01*
X127524515Y-49497505D01*
X127524513Y-49497502D01*
X127519841Y-49486222D01*
X127521285Y-49485623D01*
X127504563Y-49432211D01*
X127520517Y-49374056D01*
X127519842Y-49373777D01*
X127522070Y-49368396D01*
X127523049Y-49364831D01*
X127524452Y-49362647D01*
X127524514Y-49362496D01*
X127524513Y-49362496D01*
X127524515Y-49362495D01*
X127533015Y-49319761D01*
X127565398Y-49257852D01*
X127626114Y-49223277D01*
X127674028Y-49221480D01*
X127719799Y-49228729D01*
X127785617Y-49239154D01*
X127785619Y-49239154D01*
X127785622Y-49239154D01*
X127910919Y-49219309D01*
X127910920Y-49219309D01*
X127910921Y-49219308D01*
X127910923Y-49219308D01*
X128023961Y-49161712D01*
X128113669Y-49072004D01*
X128113673Y-49071996D01*
X128116875Y-49067590D01*
X128172204Y-49024923D01*
X128241817Y-49018942D01*
X128258150Y-49023432D01*
X128290860Y-49034878D01*
X128290859Y-49034878D01*
X128425069Y-49049999D01*
X128425070Y-49050000D01*
X128770000Y-49050000D01*
X128770000Y-48550000D01*
X129270000Y-48550000D01*
X129270000Y-49050000D01*
G37*
%TD.AperFunction*%
%TA.AperFunction,Conductor*%
G36*
X121744099Y-53306583D02*
G01*
X121800033Y-53348454D01*
X121811248Y-53366465D01*
X121811947Y-53367838D01*
X121811954Y-53367847D01*
X121901652Y-53457545D01*
X121901654Y-53457546D01*
X121901658Y-53457550D01*
X122014696Y-53515146D01*
X122014697Y-53515146D01*
X122014699Y-53515147D01*
X122139997Y-53534992D01*
X122140000Y-53534992D01*
X122140003Y-53534992D01*
X122265300Y-53515147D01*
X122265302Y-53515146D01*
X122265304Y-53515146D01*
X122368806Y-53462408D01*
X122437473Y-53449512D01*
X122502214Y-53475788D01*
X122535584Y-53516597D01*
X122561949Y-53568340D01*
X122561954Y-53568347D01*
X122651652Y-53658045D01*
X122651654Y-53658046D01*
X122651658Y-53658050D01*
X122764696Y-53715646D01*
X122827062Y-53725523D01*
X122890194Y-53755451D01*
X122895344Y-53760315D01*
X123463597Y-54328568D01*
X123469240Y-54335052D01*
X123476560Y-54344745D01*
X123476561Y-54344747D01*
X123496116Y-54362574D01*
X123511894Y-54376958D01*
X123513942Y-54378913D01*
X123527722Y-54392693D01*
X123529932Y-54394207D01*
X123536662Y-54399537D01*
X123547295Y-54409230D01*
X123559583Y-54420433D01*
X123559584Y-54420433D01*
X123559586Y-54420435D01*
X123566049Y-54422938D01*
X123591326Y-54436262D01*
X123597038Y-54440175D01*
X123627221Y-54447273D01*
X123635422Y-54449813D01*
X123664346Y-54461019D01*
X123671270Y-54461019D01*
X123699660Y-54464312D01*
X123706400Y-54465898D01*
X123706400Y-54465897D01*
X123717586Y-54468529D01*
X123717202Y-54470161D01*
X123770638Y-54488565D01*
X123813911Y-54543422D01*
X123820657Y-54612965D01*
X123788735Y-54675116D01*
X123755167Y-54700161D01*
X123751663Y-54701946D01*
X123751652Y-54701954D01*
X123661954Y-54791652D01*
X123661951Y-54791657D01*
X123661950Y-54791658D01*
X123644983Y-54824958D01*
X123604352Y-54904698D01*
X123604352Y-54904699D01*
X123584508Y-55029996D01*
X123584508Y-55030003D01*
X123604352Y-55155300D01*
X123604353Y-55155304D01*
X123648762Y-55242461D01*
X123661658Y-55311130D01*
X123635381Y-55375870D01*
X123605698Y-55402276D01*
X123603715Y-55404084D01*
X123585032Y-55428824D01*
X123579390Y-55435307D01*
X122971948Y-56042750D01*
X122965464Y-56048392D01*
X122955768Y-56055714D01*
X122923559Y-56091045D01*
X122921584Y-56093113D01*
X122908333Y-56106366D01*
X122847011Y-56139853D01*
X122796457Y-56140305D01*
X122742135Y-56129500D01*
X122537870Y-56129500D01*
X122477867Y-56141434D01*
X122457505Y-56145485D01*
X122457504Y-56145485D01*
X122457501Y-56145486D01*
X122446220Y-56150159D01*
X122445621Y-56148714D01*
X122392204Y-56165436D01*
X122334061Y-56149481D01*
X122333781Y-56150159D01*
X122328383Y-56147923D01*
X122324825Y-56146947D01*
X122322648Y-56145547D01*
X122322494Y-56145484D01*
X122242135Y-56129500D01*
X122037870Y-56129500D01*
X121977867Y-56141434D01*
X121957505Y-56145485D01*
X121957504Y-56145485D01*
X121957501Y-56145486D01*
X121946220Y-56150159D01*
X121945621Y-56148714D01*
X121892204Y-56165436D01*
X121834061Y-56149481D01*
X121833781Y-56150159D01*
X121828383Y-56147923D01*
X121824825Y-56146947D01*
X121822648Y-56145547D01*
X121822494Y-56145484D01*
X121742135Y-56129500D01*
X121537870Y-56129500D01*
X121477867Y-56141434D01*
X121457505Y-56145485D01*
X121457504Y-56145485D01*
X121457501Y-56145486D01*
X121446220Y-56150159D01*
X121445621Y-56148714D01*
X121392204Y-56165436D01*
X121334061Y-56149481D01*
X121333781Y-56150159D01*
X121328383Y-56147923D01*
X121324825Y-56146947D01*
X121322648Y-56145547D01*
X121322494Y-56145484D01*
X121242135Y-56129500D01*
X121037870Y-56129500D01*
X120977867Y-56141434D01*
X120957505Y-56145485D01*
X120957504Y-56145485D01*
X120957501Y-56145486D01*
X120946220Y-56150159D01*
X120945621Y-56148714D01*
X120892204Y-56165436D01*
X120834061Y-56149481D01*
X120833781Y-56150159D01*
X120828383Y-56147923D01*
X120824825Y-56146947D01*
X120822648Y-56145547D01*
X120822494Y-56145484D01*
X120742135Y-56129500D01*
X120537870Y-56129500D01*
X120477867Y-56141434D01*
X120457505Y-56145485D01*
X120457504Y-56145485D01*
X120457501Y-56145486D01*
X120446220Y-56150159D01*
X120445621Y-56148714D01*
X120392204Y-56165436D01*
X120334060Y-56149481D01*
X120333780Y-56150159D01*
X120328381Y-56147922D01*
X120324825Y-56146947D01*
X120321111Y-56144560D01*
X120312342Y-56138701D01*
X120313157Y-56137479D01*
X120269318Y-56102152D01*
X120247252Y-56035859D01*
X120264530Y-55968159D01*
X120283488Y-55943753D01*
X120335936Y-55891306D01*
X120393532Y-55778268D01*
X120396755Y-55757911D01*
X120426683Y-55694777D01*
X120431530Y-55689644D01*
X120586404Y-55534770D01*
X120590366Y-55531139D01*
X120621394Y-55505105D01*
X120641638Y-55470040D01*
X120644535Y-55465491D01*
X120667754Y-55432334D01*
X120667754Y-55432331D01*
X120670019Y-55427474D01*
X120676947Y-55410749D01*
X120678784Y-55405700D01*
X120678788Y-55405695D01*
X120685819Y-55365812D01*
X120686977Y-55360590D01*
X120697464Y-55321457D01*
X120693935Y-55281131D01*
X120693700Y-55275728D01*
X120693700Y-54756433D01*
X120713385Y-54689394D01*
X120766189Y-54643639D01*
X120835347Y-54633695D01*
X120837098Y-54633960D01*
X120892698Y-54642766D01*
X120892700Y-54642766D01*
X120892703Y-54642766D01*
X121018000Y-54622921D01*
X121018001Y-54622921D01*
X121018002Y-54622920D01*
X121018004Y-54622920D01*
X121131042Y-54565324D01*
X121220750Y-54475616D01*
X121278346Y-54362578D01*
X121278346Y-54362576D01*
X121278347Y-54362575D01*
X121278347Y-54362574D01*
X121298192Y-54237277D01*
X121298192Y-54237270D01*
X121278347Y-54111973D01*
X121278347Y-54111972D01*
X121275031Y-54105464D01*
X121220750Y-53998932D01*
X121220747Y-53998929D01*
X121220746Y-53998927D01*
X121216879Y-53993603D01*
X121193402Y-53927796D01*
X121193200Y-53920722D01*
X121193200Y-53806332D01*
X121212885Y-53739293D01*
X121229515Y-53718655D01*
X121613087Y-53335082D01*
X121674408Y-53301599D01*
X121744099Y-53306583D01*
G37*
%TD.AperFunction*%
%TA.AperFunction,Conductor*%
G36*
X114182539Y-52525185D02*
G01*
X114228294Y-52577989D01*
X114239500Y-52629499D01*
X114239500Y-52782129D01*
X114255486Y-52862498D01*
X114260159Y-52873780D01*
X114258714Y-52874378D01*
X114275436Y-52927788D01*
X114259482Y-52985938D01*
X114260159Y-52986219D01*
X114257926Y-52991609D01*
X114256950Y-52995168D01*
X114255550Y-52997345D01*
X114255484Y-52997505D01*
X114239500Y-53077863D01*
X114239500Y-53282129D01*
X114241295Y-53291152D01*
X114252692Y-53348454D01*
X114255486Y-53362498D01*
X114260159Y-53373780D01*
X114258714Y-53374378D01*
X114275436Y-53427788D01*
X114259482Y-53485938D01*
X114260159Y-53486219D01*
X114257926Y-53491609D01*
X114256950Y-53495168D01*
X114255550Y-53497345D01*
X114255484Y-53497505D01*
X114239500Y-53577863D01*
X114239500Y-53782129D01*
X114243663Y-53803058D01*
X114255202Y-53861074D01*
X114255486Y-53862498D01*
X114260159Y-53873780D01*
X114258714Y-53874378D01*
X114275436Y-53927788D01*
X114259482Y-53985938D01*
X114260159Y-53986219D01*
X114257926Y-53991609D01*
X114256950Y-53995168D01*
X114255550Y-53997345D01*
X114255484Y-53997504D01*
X114245054Y-54049942D01*
X114212669Y-54111853D01*
X114151953Y-54146427D01*
X114082184Y-54142687D01*
X114025512Y-54101820D01*
X114023116Y-54098632D01*
X114018051Y-54091660D01*
X114018050Y-54091658D01*
X114018047Y-54091655D01*
X114018045Y-54091652D01*
X113928347Y-54001954D01*
X113928344Y-54001952D01*
X113928342Y-54001950D01*
X113815304Y-53944354D01*
X113815303Y-53944353D01*
X113815300Y-53944352D01*
X113690003Y-53924508D01*
X113689997Y-53924508D01*
X113564699Y-53944352D01*
X113564698Y-53944352D01*
X113497814Y-53978432D01*
X113451658Y-54001950D01*
X113451657Y-54001951D01*
X113451652Y-54001954D01*
X113361954Y-54091652D01*
X113361951Y-54091657D01*
X113361950Y-54091658D01*
X113351599Y-54111973D01*
X113304352Y-54204698D01*
X113304352Y-54204699D01*
X113284508Y-54329996D01*
X113284508Y-54330003D01*
X113304352Y-54455300D01*
X113304352Y-54455301D01*
X113314706Y-54475621D01*
X113361950Y-54568342D01*
X113361952Y-54568344D01*
X113361954Y-54568347D01*
X113451652Y-54658045D01*
X113451654Y-54658046D01*
X113451658Y-54658050D01*
X113564696Y-54715646D01*
X113686767Y-54734979D01*
X113749898Y-54764907D01*
X113777577Y-54807304D01*
X113779526Y-54806311D01*
X113783955Y-54815004D01*
X113783956Y-54815006D01*
X113841552Y-54928044D01*
X113841554Y-54928046D01*
X113841556Y-54928049D01*
X113931254Y-55017747D01*
X113931256Y-55017748D01*
X113931260Y-55017752D01*
X114044298Y-55075348D01*
X114044300Y-55075349D01*
X114092778Y-55083027D01*
X114155912Y-55112956D01*
X114192844Y-55172267D01*
X114191846Y-55242130D01*
X114153237Y-55300363D01*
X114089273Y-55328477D01*
X114073380Y-55329500D01*
X111648651Y-55329500D01*
X111581612Y-55309815D01*
X111560970Y-55293181D01*
X111482831Y-55215042D01*
X111402082Y-55134293D01*
X111398437Y-55130314D01*
X111372419Y-55099307D01*
X111372418Y-55099306D01*
X111361021Y-55092726D01*
X111337355Y-55079061D01*
X111332794Y-55076155D01*
X111319650Y-55066952D01*
X111299647Y-55052946D01*
X111299644Y-55052945D01*
X111294824Y-55050697D01*
X111278018Y-55043735D01*
X111273006Y-55041911D01*
X111233153Y-55034883D01*
X111227873Y-55033712D01*
X111188771Y-55023235D01*
X111153855Y-55026290D01*
X111148444Y-55026764D01*
X111143041Y-55027000D01*
X109740616Y-55027000D01*
X109684323Y-55013485D01*
X109592804Y-54966854D01*
X109592803Y-54966853D01*
X109592800Y-54966852D01*
X109467503Y-54947008D01*
X109467497Y-54947008D01*
X109358897Y-54964208D01*
X109289604Y-54955253D01*
X109236152Y-54910257D01*
X109215513Y-54843505D01*
X109215500Y-54841735D01*
X109215500Y-54502584D01*
X109235185Y-54435545D01*
X109251819Y-54414903D01*
X109599903Y-54066819D01*
X109661226Y-54033334D01*
X109687584Y-54030500D01*
X110570870Y-54030500D01*
X110576273Y-54030735D01*
X110616599Y-54034264D01*
X110655732Y-54023777D01*
X110660954Y-54022619D01*
X110700837Y-54015588D01*
X110700842Y-54015584D01*
X110705891Y-54013747D01*
X110722616Y-54006819D01*
X110727473Y-54004554D01*
X110727476Y-54004554D01*
X110760633Y-53981335D01*
X110765182Y-53978438D01*
X110800247Y-53958194D01*
X110807730Y-53949275D01*
X110865897Y-53910571D01*
X110935757Y-53909457D01*
X110995130Y-53946290D01*
X111013207Y-53972680D01*
X111061949Y-54068340D01*
X111061954Y-54068347D01*
X111151652Y-54158045D01*
X111151654Y-54158046D01*
X111151658Y-54158050D01*
X111264696Y-54215646D01*
X111264697Y-54215646D01*
X111264699Y-54215647D01*
X111389997Y-54235492D01*
X111390000Y-54235492D01*
X111390003Y-54235492D01*
X111515300Y-54215647D01*
X111515301Y-54215647D01*
X111515302Y-54215646D01*
X111515304Y-54215646D01*
X111628342Y-54158050D01*
X111718050Y-54068342D01*
X111775646Y-53955304D01*
X111775646Y-53955302D01*
X111775647Y-53955301D01*
X111775647Y-53955300D01*
X111795492Y-53830003D01*
X111795492Y-53829996D01*
X111774120Y-53695056D01*
X111776462Y-53694684D01*
X111774852Y-53638584D01*
X111807099Y-53582414D01*
X112131288Y-53258226D01*
X112748195Y-52641319D01*
X112809518Y-52607834D01*
X112835876Y-52605000D01*
X113061525Y-52605000D01*
X113563333Y-52605000D01*
X113568736Y-52605235D01*
X113609062Y-52608764D01*
X113648195Y-52598277D01*
X113653417Y-52597119D01*
X113693300Y-52590088D01*
X113693305Y-52590084D01*
X113698354Y-52588247D01*
X113715079Y-52581319D01*
X113719936Y-52579054D01*
X113719939Y-52579054D01*
X113753117Y-52555821D01*
X113757628Y-52552947D01*
X113786858Y-52536072D01*
X113802108Y-52527269D01*
X113803113Y-52529010D01*
X113854553Y-52506498D01*
X113870251Y-52505500D01*
X114115500Y-52505500D01*
X114182539Y-52525185D01*
G37*
%TD.AperFunction*%
%TA.AperFunction,Conductor*%
G36*
X133074835Y-46999143D02*
G01*
X133078093Y-47002903D01*
X133078264Y-47002733D01*
X133085935Y-47010404D01*
X133169596Y-47094065D01*
X133276827Y-47144068D01*
X133325683Y-47150500D01*
X133325684Y-47150500D01*
X133473456Y-47150500D01*
X133540495Y-47170185D01*
X133561137Y-47186819D01*
X133612637Y-47238319D01*
X133646122Y-47299642D01*
X133641138Y-47369334D01*
X133599266Y-47425267D01*
X133533802Y-47449684D01*
X133524956Y-47450000D01*
X133450000Y-47450000D01*
X133450000Y-47950000D01*
X132950000Y-47950000D01*
X132950000Y-47450000D01*
X132855070Y-47450000D01*
X132720858Y-47465122D01*
X132570543Y-47517719D01*
X132500764Y-47521280D01*
X132440137Y-47486551D01*
X132407910Y-47424557D01*
X132405589Y-47400677D01*
X132405589Y-47274500D01*
X132425274Y-47207461D01*
X132478078Y-47161706D01*
X132529589Y-47150500D01*
X132654317Y-47150500D01*
X132670601Y-47148356D01*
X132703173Y-47144068D01*
X132810404Y-47094065D01*
X132894065Y-47010404D01*
X132894065Y-47010403D01*
X132901736Y-47002733D01*
X132904564Y-47005561D01*
X132942977Y-46974843D01*
X133012474Y-46967635D01*
X133074835Y-46999143D01*
G37*
%TD.AperFunction*%
%TA.AperFunction,Conductor*%
G36*
X122789500Y-44828352D02*
G01*
X122789500Y-46482129D01*
X122805485Y-46562495D01*
X122866375Y-46653624D01*
X122939371Y-46702398D01*
X122984176Y-46756010D01*
X122992883Y-46825335D01*
X122962729Y-46888362D01*
X122903286Y-46925082D01*
X122870480Y-46929500D01*
X122409520Y-46929500D01*
X122342481Y-46909815D01*
X122296726Y-46857011D01*
X122286782Y-46787853D01*
X122315807Y-46724297D01*
X122340629Y-46702398D01*
X122389468Y-46669765D01*
X122413624Y-46653624D01*
X122474515Y-46562495D01*
X122490500Y-46482133D01*
X122490499Y-45027868D01*
X122474515Y-44947505D01*
X122424891Y-44873238D01*
X122413624Y-44856375D01*
X122361175Y-44821330D01*
X122789500Y-44828352D01*
G37*
%TD.AperFunction*%
%TA.AperFunction,Conductor*%
G36*
X118319007Y-44755065D02*
G01*
X118254344Y-44779184D01*
X118245499Y-44779500D01*
X118037870Y-44779500D01*
X117977867Y-44791434D01*
X117957505Y-44795485D01*
X117957504Y-44795485D01*
X117957501Y-44795486D01*
X117946220Y-44800159D01*
X117945621Y-44798714D01*
X117892204Y-44815436D01*
X117834061Y-44799481D01*
X117833781Y-44800159D01*
X117828383Y-44797923D01*
X117824825Y-44796947D01*
X117822648Y-44795547D01*
X117822494Y-44795484D01*
X117742135Y-44779500D01*
X117537870Y-44779500D01*
X117477867Y-44791434D01*
X117457505Y-44795485D01*
X117457504Y-44795485D01*
X117457501Y-44795486D01*
X117446220Y-44800159D01*
X117445621Y-44798714D01*
X117392204Y-44815436D01*
X117334061Y-44799481D01*
X117333781Y-44800159D01*
X117328383Y-44797923D01*
X117324825Y-44796947D01*
X117322648Y-44795547D01*
X117322494Y-44795484D01*
X117242135Y-44779500D01*
X117037870Y-44779500D01*
X116957504Y-44795485D01*
X116866375Y-44856375D01*
X116805485Y-44947505D01*
X116800810Y-44958791D01*
X116797351Y-44957358D01*
X116774916Y-45000233D01*
X116714195Y-45034799D01*
X116666300Y-45036592D01*
X116605754Y-45027003D01*
X116590000Y-45024508D01*
X116589999Y-45024508D01*
X116589997Y-45024508D01*
X116464699Y-45044352D01*
X116464692Y-45044354D01*
X116464400Y-45044504D01*
X116464006Y-45044577D01*
X116455417Y-45047369D01*
X116455055Y-45046257D01*
X116395729Y-45057394D01*
X116330991Y-45031111D01*
X116290739Y-44974001D01*
X116285176Y-44950199D01*
X116275044Y-44873239D01*
X116275044Y-44873238D01*
X116215713Y-44730000D01*
X116790000Y-44730000D01*
X118319007Y-44755065D01*
G37*
%TD.AperFunction*%
%TA.AperFunction,Conductor*%
G36*
X120950920Y-44798211D02*
G01*
X120946220Y-44800159D01*
X120945621Y-44798714D01*
X120892204Y-44815436D01*
X120834061Y-44799481D01*
X120833781Y-44800159D01*
X120828383Y-44797923D01*
X120824825Y-44796947D01*
X120823544Y-44796123D01*
X120950920Y-44798211D01*
G37*
%TD.AperFunction*%
%TA.AperFunction,Conductor*%
G36*
X121422528Y-44805943D02*
G01*
X121392204Y-44815436D01*
X121353485Y-44804811D01*
X121422528Y-44805943D01*
G37*
%TD.AperFunction*%
%TA.AperFunction,Conductor*%
G36*
X121897647Y-44813731D02*
G01*
X121892204Y-44815436D01*
X121885253Y-44813528D01*
X121897647Y-44813731D01*
G37*
%TD.AperFunction*%
%TA.AperFunction,Conductor*%
G36*
X122896028Y-43289487D02*
G01*
X122896029Y-43289489D01*
X122896029Y-43289490D01*
X122946776Y-43398316D01*
X122983181Y-43434721D01*
X123016666Y-43496044D01*
X123019500Y-43522402D01*
X123019500Y-43537598D01*
X122999815Y-43604637D01*
X122983181Y-43625279D01*
X122946776Y-43661683D01*
X122896027Y-43770514D01*
X122890000Y-43816299D01*
X122890000Y-43243691D01*
X122896028Y-43289487D01*
G37*
%TD.AperFunction*%
%TA.AperFunction,Conductor*%
G36*
X122517415Y-41867068D02*
G01*
X122633238Y-41915044D01*
X122790000Y-41935682D01*
X122855448Y-41927065D01*
X122924481Y-41937830D01*
X122976737Y-41984209D01*
X122995623Y-42051478D01*
X122994105Y-42069401D01*
X122984508Y-42129996D01*
X122984508Y-42130003D01*
X123004352Y-42255300D01*
X123004353Y-42255303D01*
X123005984Y-42258503D01*
X123019500Y-42314799D01*
X123019500Y-42537598D01*
X122999815Y-42604637D01*
X122983181Y-42625279D01*
X122946776Y-42661683D01*
X122896027Y-42770514D01*
X122890000Y-42816299D01*
X122890000Y-42130000D01*
X122239983Y-42130000D01*
X122314536Y-42032841D01*
X122355404Y-41934176D01*
X122399243Y-41879774D01*
X122465537Y-41857709D01*
X122517415Y-41867068D01*
G37*
%TD.AperFunction*%
%TA.AperFunction,Conductor*%
G36*
X121278718Y-42051554D02*
G01*
X121288372Y-42062695D01*
X121324286Y-42109500D01*
X121340016Y-42130000D01*
X121039983Y-42130000D01*
X121091625Y-42062699D01*
X121148052Y-42021497D01*
X121217798Y-42017342D01*
X121278718Y-42051554D01*
G37*
%TD.AperFunction*%
%TD*%
%TA.AperFunction,Conductor*%
%TO.N,GND*%
G36*
X121361716Y-42158280D02*
G01*
X121361718Y-42158282D01*
X121487159Y-42254536D01*
X121633238Y-42315044D01*
X121711619Y-42325363D01*
X121789999Y-42335682D01*
X121790000Y-42335682D01*
X121790001Y-42335682D01*
X121842254Y-42328802D01*
X121946762Y-42315044D01*
X122092841Y-42254536D01*
X122218282Y-42158282D01*
X122239983Y-42130000D01*
X122890000Y-42130000D01*
X122890000Y-42816299D01*
X122889500Y-42820098D01*
X122889500Y-43239894D01*
X122890000Y-43243691D01*
X122890000Y-43816299D01*
X122889500Y-43820098D01*
X122889500Y-43967932D01*
X122869815Y-44034971D01*
X122866418Y-44039984D01*
X122858956Y-44050436D01*
X122827483Y-44090872D01*
X122823975Y-44097353D01*
X122820760Y-44103932D01*
X122806138Y-44153045D01*
X122789498Y-44201516D01*
X122788294Y-44208733D01*
X122787382Y-44216046D01*
X122789415Y-44265197D01*
X122789500Y-44267231D01*
X122789500Y-44828352D01*
X122361175Y-44821330D01*
X122336452Y-44804811D01*
X122322495Y-44795485D01*
X122322493Y-44795484D01*
X122322490Y-44795483D01*
X122242135Y-44779500D01*
X122037870Y-44779500D01*
X121977867Y-44791434D01*
X121957505Y-44795485D01*
X121957504Y-44795485D01*
X121957501Y-44795486D01*
X121946220Y-44800159D01*
X121945621Y-44798714D01*
X121897647Y-44813731D01*
X121885253Y-44813528D01*
X121834061Y-44799481D01*
X121833781Y-44800159D01*
X121828383Y-44797923D01*
X121824825Y-44796947D01*
X121822648Y-44795547D01*
X121822494Y-44795484D01*
X121742135Y-44779500D01*
X121537870Y-44779500D01*
X121477867Y-44791434D01*
X121457505Y-44795485D01*
X121457504Y-44795485D01*
X121457501Y-44795486D01*
X121446220Y-44800159D01*
X121445621Y-44798714D01*
X121422528Y-44805943D01*
X121353485Y-44804811D01*
X121334061Y-44799481D01*
X121333781Y-44800159D01*
X121328383Y-44797923D01*
X121324825Y-44796947D01*
X121322648Y-44795547D01*
X121322494Y-44795484D01*
X121242135Y-44779500D01*
X121037870Y-44779500D01*
X120977867Y-44791434D01*
X120957505Y-44795485D01*
X120957504Y-44795485D01*
X120957501Y-44795486D01*
X120950920Y-44798211D01*
X120823544Y-44796123D01*
X120822648Y-44795547D01*
X120822494Y-44795484D01*
X120742136Y-44779500D01*
X120534500Y-44779500D01*
X120467461Y-44759815D01*
X120421706Y-44707011D01*
X120411762Y-44637853D01*
X120440787Y-44574297D01*
X120446783Y-44567856D01*
X120497823Y-44516815D01*
X120559146Y-44483333D01*
X120585502Y-44480500D01*
X120809750Y-44480500D01*
X120809751Y-44480499D01*
X120824568Y-44477552D01*
X120868229Y-44468868D01*
X120868229Y-44468867D01*
X120868231Y-44468867D01*
X120934552Y-44424552D01*
X120978867Y-44358231D01*
X120978867Y-44358229D01*
X120978868Y-44358229D01*
X120990499Y-44299752D01*
X120990500Y-44299750D01*
X120990500Y-42360249D01*
X120990499Y-42360247D01*
X120976485Y-42289790D01*
X120978149Y-42289458D01*
X120972216Y-42234274D01*
X121003490Y-42171795D01*
X121017538Y-42159025D01*
X121018277Y-42158285D01*
X121018282Y-42158282D01*
X121039983Y-42130000D01*
X121340016Y-42130000D01*
X121361716Y-42158280D01*
G37*
%TD.AperFunction*%
%TA.AperFunction,Conductor*%
G36*
X120161718Y-42158282D02*
G01*
X120161720Y-42158283D01*
X120161722Y-42158286D01*
X120167465Y-42164029D01*
X120166447Y-42165046D01*
X120202441Y-42214340D01*
X120206597Y-42284086D01*
X120201439Y-42300223D01*
X120189500Y-42360247D01*
X120189500Y-43853125D01*
X120169815Y-43920164D01*
X120153181Y-43940806D01*
X119477680Y-44616306D01*
X119416357Y-44649791D01*
X119346665Y-44644807D01*
X119302318Y-44616306D01*
X118626819Y-43940807D01*
X118593334Y-43879484D01*
X118590500Y-43853126D01*
X118590500Y-42360249D01*
X118590499Y-42360247D01*
X118578868Y-42301770D01*
X118578867Y-42301769D01*
X118534552Y-42235447D01*
X118468230Y-42191132D01*
X118468229Y-42191131D01*
X118409752Y-42179500D01*
X118409748Y-42179500D01*
X117970252Y-42179500D01*
X117970247Y-42179500D01*
X117911770Y-42191131D01*
X117911769Y-42191132D01*
X117845447Y-42235447D01*
X117801132Y-42301769D01*
X117801131Y-42301770D01*
X117789500Y-42360247D01*
X117789500Y-44299752D01*
X117801131Y-44358229D01*
X117801132Y-44358230D01*
X117845447Y-44424552D01*
X117911769Y-44468867D01*
X117911770Y-44468868D01*
X117970247Y-44480499D01*
X117970250Y-44480500D01*
X117970252Y-44480500D01*
X118194498Y-44480500D01*
X118261537Y-44500185D01*
X118282179Y-44516819D01*
X118333179Y-44567819D01*
X118366664Y-44629142D01*
X118361680Y-44698834D01*
X118319808Y-44754767D01*
X118319007Y-44755065D01*
X116790000Y-44730000D01*
X116215713Y-44730000D01*
X116214536Y-44727159D01*
X116118282Y-44601718D01*
X115992841Y-44505464D01*
X115980096Y-44500185D01*
X115932570Y-44480499D01*
X115890000Y-44462865D01*
X115890000Y-42130000D01*
X120140017Y-42130000D01*
X120161718Y-42158282D01*
G37*
%TD.AperFunction*%
%TD*%
M02*
