%TF.GenerationSoftware,KiCad,Pcbnew,7.0.8*%
%TF.CreationDate,2023-10-14T12:30:27+02:00*%
%TF.ProjectId,RotorflightF7,526f746f-7266-46c6-9967-687446372e6b,rev?*%
%TF.SameCoordinates,Original*%
%TF.FileFunction,Soldermask,Top*%
%TF.FilePolarity,Negative*%
%FSLAX46Y46*%
G04 Gerber Fmt 4.6, Leading zero omitted, Abs format (unit mm)*
G04 Created by KiCad (PCBNEW 7.0.8) date 2023-10-14 12:30:27*
%MOMM*%
%LPD*%
G01*
G04 APERTURE LIST*
G04 Aperture macros list*
%AMRoundRect*
0 Rectangle with rounded corners*
0 $1 Rounding radius*
0 $2 $3 $4 $5 $6 $7 $8 $9 X,Y pos of 4 corners*
0 Add a 4 corners polygon primitive as box body*
4,1,4,$2,$3,$4,$5,$6,$7,$8,$9,$2,$3,0*
0 Add four circle primitives for the rounded corners*
1,1,$1+$1,$2,$3*
1,1,$1+$1,$4,$5*
1,1,$1+$1,$6,$7*
1,1,$1+$1,$8,$9*
0 Add four rect primitives between the rounded corners*
20,1,$1+$1,$2,$3,$4,$5,0*
20,1,$1+$1,$4,$5,$6,$7,0*
20,1,$1+$1,$6,$7,$8,$9,0*
20,1,$1+$1,$8,$9,$2,$3,0*%
G04 Aperture macros list end*
%ADD10RoundRect,0.150000X-0.700000X0.150000X-0.700000X-0.150000X0.700000X-0.150000X0.700000X0.150000X0*%
%ADD11RoundRect,0.250000X-1.150000X0.250000X-1.150000X-0.250000X1.150000X-0.250000X1.150000X0.250000X0*%
%ADD12RoundRect,0.140000X0.170000X-0.140000X0.170000X0.140000X-0.170000X0.140000X-0.170000X-0.140000X0*%
%ADD13RoundRect,0.225000X-0.225000X-0.375000X0.225000X-0.375000X0.225000X0.375000X-0.225000X0.375000X0*%
%ADD14RoundRect,0.150000X-0.512500X-0.150000X0.512500X-0.150000X0.512500X0.150000X-0.512500X0.150000X0*%
%ADD15RoundRect,0.135000X0.135000X0.185000X-0.135000X0.185000X-0.135000X-0.185000X0.135000X-0.185000X0*%
%ADD16RoundRect,0.218750X0.218750X0.256250X-0.218750X0.256250X-0.218750X-0.256250X0.218750X-0.256250X0*%
%ADD17RoundRect,0.062500X0.337500X0.062500X-0.337500X0.062500X-0.337500X-0.062500X0.337500X-0.062500X0*%
%ADD18R,1.300000X2.200000*%
%ADD19RoundRect,0.140000X-0.140000X-0.170000X0.140000X-0.170000X0.140000X0.170000X-0.140000X0.170000X0*%
%ADD20RoundRect,0.135000X-0.135000X-0.185000X0.135000X-0.185000X0.135000X0.185000X-0.135000X0.185000X0*%
%ADD21RoundRect,0.225000X-0.225000X-0.250000X0.225000X-0.250000X0.225000X0.250000X-0.225000X0.250000X0*%
%ADD22RoundRect,0.140000X0.140000X0.170000X-0.140000X0.170000X-0.140000X-0.170000X0.140000X-0.170000X0*%
%ADD23R,1.150000X3.600000*%
%ADD24R,0.500000X0.350000*%
%ADD25RoundRect,0.102000X0.125000X-0.237500X0.125000X0.237500X-0.125000X0.237500X-0.125000X-0.237500X0*%
%ADD26RoundRect,0.102000X0.237500X0.125000X-0.237500X0.125000X-0.237500X-0.125000X0.237500X-0.125000X0*%
%ADD27C,1.700000*%
%ADD28O,1.700000X1.700000*%
%ADD29R,1.700000X1.700000*%
%ADD30RoundRect,0.150000X0.512500X0.150000X-0.512500X0.150000X-0.512500X-0.150000X0.512500X-0.150000X0*%
%ADD31RoundRect,0.200000X0.800000X-0.200000X0.800000X0.200000X-0.800000X0.200000X-0.800000X-0.200000X0*%
%ADD32RoundRect,0.225000X0.225000X0.250000X-0.225000X0.250000X-0.225000X-0.250000X0.225000X-0.250000X0*%
%ADD33RoundRect,0.140000X-0.170000X0.140000X-0.170000X-0.140000X0.170000X-0.140000X0.170000X0.140000X0*%
%ADD34RoundRect,0.225000X-0.250000X0.225000X-0.250000X-0.225000X0.250000X-0.225000X0.250000X0.225000X0*%
%ADD35C,0.650000*%
%ADD36R,1.450000X0.600000*%
%ADD37R,1.450000X0.300000*%
%ADD38O,2.100000X1.000000*%
%ADD39O,1.600000X1.000000*%
G04 APERTURE END LIST*
D10*
%TO.C,J3*%
X131090000Y-52155000D03*
X131090000Y-53405000D03*
X131090000Y-54655000D03*
X131090000Y-55905000D03*
D11*
X134440000Y-50305000D03*
X134440000Y-57755000D03*
%TD*%
D12*
%TO.C,C18*%
X124690000Y-55510000D03*
X124690000Y-54550000D03*
%TD*%
%TO.C,C14*%
X126290000Y-48710000D03*
X126290000Y-47750000D03*
%TD*%
D13*
%TO.C,D1*%
X122840000Y-40030000D03*
X126140000Y-40030000D03*
%TD*%
D14*
%TO.C,U5*%
X118652500Y-40780000D03*
X118652500Y-41730000D03*
X118652500Y-42680000D03*
X120927500Y-42680000D03*
X120927500Y-40780000D03*
%TD*%
D15*
%TO.C,R9*%
X126400000Y-46130000D03*
X125380000Y-46130000D03*
%TD*%
D16*
%TO.C,D3*%
X123277500Y-56310000D03*
X121702500Y-56310000D03*
%TD*%
D17*
%TO.C,U3*%
X112965000Y-56330000D03*
X112965000Y-55830000D03*
X112965000Y-55330000D03*
X112965000Y-54830000D03*
X112965000Y-54330000D03*
X110415000Y-54330000D03*
X110415000Y-54830000D03*
X110415000Y-55330000D03*
X110415000Y-55830000D03*
X110415000Y-56330000D03*
D18*
X111690000Y-55330000D03*
%TD*%
D19*
%TO.C,C12*%
X117010000Y-46130000D03*
X117970000Y-46130000D03*
%TD*%
D20*
%TO.C,R14*%
X116980000Y-50330000D03*
X118000000Y-50330000D03*
%TD*%
D16*
%TO.C,D2*%
X123277500Y-57830000D03*
X121702500Y-57830000D03*
%TD*%
D15*
%TO.C,R1*%
X108700000Y-56730000D03*
X107680000Y-56730000D03*
%TD*%
D21*
%TO.C,C1*%
X108415000Y-44130000D03*
X109965000Y-44130000D03*
%TD*%
D15*
%TO.C,R10*%
X125700000Y-53530000D03*
X124680000Y-53530000D03*
%TD*%
D14*
%TO.C,U2*%
X108252500Y-40680000D03*
X108252500Y-41630000D03*
X108252500Y-42580000D03*
X110527500Y-42580000D03*
X110527500Y-41630000D03*
X110527500Y-40680000D03*
%TD*%
D22*
%TO.C,C2*%
X110970000Y-39430000D03*
X110010000Y-39430000D03*
%TD*%
D20*
%TO.C,R19*%
X119480000Y-56580000D03*
X120500000Y-56580000D03*
%TD*%
D15*
%TO.C,R6*%
X108700000Y-51730000D03*
X107680000Y-51730000D03*
%TD*%
D23*
%TO.C,L1*%
X112315000Y-41230000D03*
X115265000Y-41230000D03*
%TD*%
D20*
%TO.C,R17*%
X128180000Y-52630000D03*
X129200000Y-52630000D03*
%TD*%
%TO.C,R16*%
X128180000Y-51630000D03*
X129200000Y-51630000D03*
%TD*%
D15*
%TO.C,R7*%
X108700000Y-50730000D03*
X107680000Y-50730000D03*
%TD*%
D22*
%TO.C,C16*%
X124670000Y-47530000D03*
X123710000Y-47530000D03*
%TD*%
D24*
%TO.C,U8*%
X118290000Y-47255000D03*
X118290000Y-47905000D03*
X118290000Y-48555000D03*
X118290000Y-49205000D03*
X116690000Y-49205000D03*
X116690000Y-48555000D03*
X116690000Y-47905000D03*
X116690000Y-47255000D03*
%TD*%
D15*
%TO.C,R2*%
X108700000Y-55730000D03*
X107680000Y-55730000D03*
%TD*%
D25*
%TO.C,U7*%
X123440000Y-50992500D03*
X123940000Y-50992500D03*
X124440000Y-50992500D03*
X124940000Y-50992500D03*
D26*
X125102500Y-50330000D03*
X125102500Y-49830000D03*
X125102500Y-49330000D03*
D25*
X124940000Y-48667500D03*
X124440000Y-48667500D03*
X123940000Y-48667500D03*
X123440000Y-48667500D03*
D26*
X123277500Y-49330000D03*
X123277500Y-49830000D03*
X123277500Y-50330000D03*
%TD*%
D17*
%TO.C,U1*%
X112965000Y-53230000D03*
X112965000Y-52730000D03*
X112965000Y-52230000D03*
X112965000Y-51730000D03*
X112965000Y-51230000D03*
X110415000Y-51230000D03*
X110415000Y-51730000D03*
X110415000Y-52230000D03*
X110415000Y-52730000D03*
X110415000Y-53230000D03*
D18*
X111690000Y-52230000D03*
%TD*%
D27*
%TO.C,J2*%
X105000000Y-57550000D03*
D28*
X105000000Y-55010000D03*
X105000000Y-52470000D03*
X105000000Y-49930000D03*
X105000000Y-44850000D03*
X105000000Y-42310000D03*
X105000000Y-39770000D03*
D27*
X102460000Y-57550000D03*
D28*
X102460000Y-55010000D03*
X102460000Y-52470000D03*
X102460000Y-49930000D03*
X102460000Y-44850000D03*
X102460000Y-42310000D03*
X102460000Y-39770000D03*
D29*
X99920000Y-57550000D03*
X99920000Y-55010000D03*
X99920000Y-52470000D03*
X99920000Y-49930000D03*
X99920000Y-44850000D03*
X99920000Y-42310000D03*
X99920000Y-39770000D03*
%TD*%
D30*
%TO.C,U4*%
X125927500Y-44880000D03*
X125927500Y-43930000D03*
X125927500Y-42980000D03*
X123652500Y-42980000D03*
X123652500Y-43930000D03*
X123652500Y-44880000D03*
%TD*%
D15*
%TO.C,R8*%
X126200000Y-41730000D03*
X125180000Y-41730000D03*
%TD*%
D31*
%TO.C,SW1*%
X127990000Y-58030000D03*
X127990000Y-53830000D03*
%TD*%
D12*
%TO.C,C15*%
X115690000Y-48710000D03*
X115690000Y-47750000D03*
%TD*%
D32*
%TO.C,C9*%
X121165000Y-44230000D03*
X119615000Y-44230000D03*
%TD*%
D33*
%TO.C,C8*%
X123590000Y-53350000D03*
X123590000Y-54310000D03*
%TD*%
D20*
%TO.C,R11*%
X118880000Y-46130000D03*
X119900000Y-46130000D03*
%TD*%
D19*
%TO.C,C17*%
X116910000Y-55230000D03*
X117870000Y-55230000D03*
%TD*%
D32*
%TO.C,C4*%
X114565000Y-44230000D03*
X113015000Y-44230000D03*
%TD*%
%TO.C,C3*%
X114565000Y-45730000D03*
X113015000Y-45730000D03*
%TD*%
D15*
%TO.C,R5*%
X108700000Y-52730000D03*
X107680000Y-52730000D03*
%TD*%
%TO.C,R3*%
X108700000Y-54730000D03*
X107680000Y-54730000D03*
%TD*%
D20*
%TO.C,R18*%
X119480000Y-57580000D03*
X120500000Y-57580000D03*
%TD*%
%TO.C,R15*%
X116980000Y-51330000D03*
X118000000Y-51330000D03*
%TD*%
D15*
%TO.C,R4*%
X108700000Y-53730000D03*
X107680000Y-53730000D03*
%TD*%
D34*
%TO.C,C5*%
X116990000Y-40855000D03*
X116990000Y-42405000D03*
%TD*%
D12*
%TO.C,C13*%
X126290000Y-50610000D03*
X126290000Y-49650000D03*
%TD*%
D35*
%TO.C,J1*%
X129550000Y-46820000D03*
X129550000Y-41040000D03*
D36*
X128105000Y-47180000D03*
X128105000Y-46380000D03*
D37*
X128105000Y-45180000D03*
X128105000Y-44180000D03*
X128105000Y-43680000D03*
X128105000Y-42680000D03*
D36*
X128105000Y-41480000D03*
X128105000Y-40680000D03*
X128105000Y-40680000D03*
X128105000Y-41480000D03*
D37*
X128105000Y-42180000D03*
X128105000Y-43180000D03*
X128105000Y-44680000D03*
X128105000Y-45680000D03*
D36*
X128105000Y-46380000D03*
X128105000Y-47180000D03*
D38*
X129020000Y-48250000D03*
D39*
X133200000Y-48250000D03*
D38*
X129020000Y-39610000D03*
D39*
X133200000Y-39610000D03*
%TD*%
M02*
