%TF.GenerationSoftware,KiCad,Pcbnew,7.0.8*%
%TF.CreationDate,2023-10-14T12:30:27+02:00*%
%TF.ProjectId,RotorflightF7,526f746f-7266-46c6-9967-687446372e6b,rev?*%
%TF.SameCoordinates,Original*%
%TF.FileFunction,Paste,Bot*%
%TF.FilePolarity,Positive*%
%FSLAX46Y46*%
G04 Gerber Fmt 4.6, Leading zero omitted, Abs format (unit mm)*
G04 Created by KiCad (PCBNEW 7.0.8) date 2023-10-14 12:30:27*
%MOMM*%
%LPD*%
G01*
G04 APERTURE LIST*
G04 Aperture macros list*
%AMRoundRect*
0 Rectangle with rounded corners*
0 $1 Rounding radius*
0 $2 $3 $4 $5 $6 $7 $8 $9 X,Y pos of 4 corners*
0 Add a 4 corners polygon primitive as box body*
4,1,4,$2,$3,$4,$5,$6,$7,$8,$9,$2,$3,0*
0 Add four circle primitives for the rounded corners*
1,1,$1+$1,$2,$3*
1,1,$1+$1,$4,$5*
1,1,$1+$1,$6,$7*
1,1,$1+$1,$8,$9*
0 Add four rect primitives between the rounded corners*
20,1,$1+$1,$2,$3,$4,$5,0*
20,1,$1+$1,$4,$5,$6,$7,0*
20,1,$1+$1,$6,$7,$8,$9,0*
20,1,$1+$1,$8,$9,$2,$3,0*%
G04 Aperture macros list end*
%ADD10R,0.400000X1.900000*%
%ADD11RoundRect,0.075000X-0.075000X0.700000X-0.075000X-0.700000X0.075000X-0.700000X0.075000X0.700000X0*%
%ADD12RoundRect,0.075000X-0.700000X0.075000X-0.700000X-0.075000X0.700000X-0.075000X0.700000X0.075000X0*%
%ADD13RoundRect,0.140000X0.140000X0.170000X-0.140000X0.170000X-0.140000X-0.170000X0.140000X-0.170000X0*%
%ADD14RoundRect,0.250000X0.615000X-0.435000X0.615000X0.435000X-0.615000X0.435000X-0.615000X-0.435000X0*%
%ADD15RoundRect,0.125000X0.125000X-0.200000X0.125000X0.200000X-0.125000X0.200000X-0.125000X-0.200000X0*%
%ADD16RoundRect,0.140000X-0.170000X0.140000X-0.170000X-0.140000X0.170000X-0.140000X0.170000X0.140000X0*%
%ADD17RoundRect,0.135000X-0.135000X-0.185000X0.135000X-0.185000X0.135000X0.185000X-0.135000X0.185000X0*%
%ADD18RoundRect,0.135000X0.135000X0.185000X-0.135000X0.185000X-0.135000X-0.185000X0.135000X-0.185000X0*%
G04 APERTURE END LIST*
D10*
%TO.C,Y1*%
X120590000Y-43330000D03*
X119390000Y-43330000D03*
X118190000Y-43330000D03*
%TD*%
D11*
%TO.C,U6*%
X117140000Y-45755000D03*
X117640000Y-45755000D03*
X118140000Y-45755000D03*
X118640000Y-45755000D03*
X119140000Y-45755000D03*
X119640000Y-45755000D03*
X120140000Y-45755000D03*
X120640000Y-45755000D03*
X121140000Y-45755000D03*
X121640000Y-45755000D03*
X122140000Y-45755000D03*
X122640000Y-45755000D03*
X123140000Y-45755000D03*
X123640000Y-45755000D03*
X124140000Y-45755000D03*
X124640000Y-45755000D03*
D12*
X126565000Y-47680000D03*
X126565000Y-48180000D03*
X126565000Y-48680000D03*
X126565000Y-49180000D03*
X126565000Y-49680000D03*
X126565000Y-50180000D03*
X126565000Y-50680000D03*
X126565000Y-51180000D03*
X126565000Y-51680000D03*
X126565000Y-52180000D03*
X126565000Y-52680000D03*
X126565000Y-53180000D03*
X126565000Y-53680000D03*
X126565000Y-54180000D03*
X126565000Y-54680000D03*
X126565000Y-55180000D03*
D11*
X124640000Y-57105000D03*
X124140000Y-57105000D03*
X123640000Y-57105000D03*
X123140000Y-57105000D03*
X122640000Y-57105000D03*
X122140000Y-57105000D03*
X121640000Y-57105000D03*
X121140000Y-57105000D03*
X120640000Y-57105000D03*
X120140000Y-57105000D03*
X119640000Y-57105000D03*
X119140000Y-57105000D03*
X118640000Y-57105000D03*
X118140000Y-57105000D03*
X117640000Y-57105000D03*
X117140000Y-57105000D03*
D12*
X115215000Y-55180000D03*
X115215000Y-54680000D03*
X115215000Y-54180000D03*
X115215000Y-53680000D03*
X115215000Y-53180000D03*
X115215000Y-52680000D03*
X115215000Y-52180000D03*
X115215000Y-51680000D03*
X115215000Y-51180000D03*
X115215000Y-50680000D03*
X115215000Y-50180000D03*
X115215000Y-49680000D03*
X115215000Y-49180000D03*
X115215000Y-48680000D03*
X115215000Y-48180000D03*
X115215000Y-47680000D03*
%TD*%
D13*
%TO.C,C19*%
X123370000Y-44030000D03*
X122410000Y-44030000D03*
%TD*%
%TO.C,C11*%
X123370000Y-43030000D03*
X122410000Y-43030000D03*
%TD*%
D14*
%TO.C,U9*%
X130615000Y-54230000D03*
X132765000Y-54230000D03*
X130615000Y-52530000D03*
X132765000Y-52530000D03*
D15*
X133595000Y-57130000D03*
X132325000Y-57130000D03*
X131055000Y-57130000D03*
X129785000Y-57130000D03*
X129785000Y-49630000D03*
X131055000Y-49630000D03*
X132325000Y-49630000D03*
X133595000Y-49630000D03*
%TD*%
D16*
%TO.C,C10*%
X113490000Y-47550000D03*
X113490000Y-48510000D03*
%TD*%
%TO.C,C20*%
X112490000Y-47550000D03*
X112490000Y-48510000D03*
%TD*%
D17*
%TO.C,R13*%
X129880000Y-58230000D03*
X130900000Y-58230000D03*
%TD*%
D18*
%TO.C,R12*%
X133500000Y-46630000D03*
X132480000Y-46630000D03*
%TD*%
M02*
