%TF.GenerationSoftware,KiCad,Pcbnew,7.0.8*%
%TF.CreationDate,2023-10-14T12:30:27+02:00*%
%TF.ProjectId,RotorflightF7,526f746f-7266-46c6-9967-687446372e6b,rev?*%
%TF.SameCoordinates,Original*%
%TF.FileFunction,Copper,L3,Inr*%
%TF.FilePolarity,Positive*%
%FSLAX46Y46*%
G04 Gerber Fmt 4.6, Leading zero omitted, Abs format (unit mm)*
G04 Created by KiCad (PCBNEW 7.0.8) date 2023-10-14 12:30:27*
%MOMM*%
%LPD*%
G01*
G04 APERTURE LIST*
%TA.AperFunction,ComponentPad*%
%ADD10C,1.700000*%
%TD*%
%TA.AperFunction,ComponentPad*%
%ADD11O,1.700000X1.700000*%
%TD*%
%TA.AperFunction,ComponentPad*%
%ADD12R,1.700000X1.700000*%
%TD*%
%TA.AperFunction,ComponentPad*%
%ADD13O,2.100000X1.000000*%
%TD*%
%TA.AperFunction,ComponentPad*%
%ADD14O,1.600000X1.000000*%
%TD*%
%TA.AperFunction,ViaPad*%
%ADD15C,0.400000*%
%TD*%
%TA.AperFunction,ViaPad*%
%ADD16C,0.800000*%
%TD*%
%TA.AperFunction,Conductor*%
%ADD17C,0.400000*%
%TD*%
G04 APERTURE END LIST*
D10*
%TO.N,Net-(J2-Pin_1)*%
%TO.C,J2*%
X105000000Y-57550000D03*
D11*
%TO.N,Net-(J2-Pin_2)*%
X105000000Y-55010000D03*
%TO.N,Net-(J2-Pin_3)*%
X105000000Y-52470000D03*
%TO.N,Net-(J2-Pin_4)*%
X105000000Y-49930000D03*
%TO.N,Net-(J2-Pin_5)*%
X105000000Y-44850000D03*
%TO.N,Net-(J2-Pin_6)*%
X105000000Y-42310000D03*
%TO.N,Net-(J2-Pin_7)*%
X105000000Y-39770000D03*
D10*
%TO.N,VBUS*%
X102460000Y-57550000D03*
D11*
X102460000Y-55010000D03*
X102460000Y-52470000D03*
X102460000Y-49930000D03*
X102460000Y-44850000D03*
X102460000Y-42310000D03*
X102460000Y-39770000D03*
D12*
%TO.N,GND*%
X99920000Y-57550000D03*
X99920000Y-55010000D03*
X99920000Y-52470000D03*
X99920000Y-49930000D03*
X99920000Y-44850000D03*
X99920000Y-42310000D03*
X99920000Y-39770000D03*
%TD*%
D13*
%TO.N,GND*%
%TO.C,J1*%
X129020000Y-48250000D03*
D14*
X133200000Y-48250000D03*
D13*
X129020000Y-39610000D03*
D14*
X133200000Y-39610000D03*
%TD*%
D15*
%TO.N,GND*%
X125674601Y-42280000D03*
X122790000Y-54580000D03*
D16*
X111590000Y-44230000D03*
X110190000Y-45730000D03*
X111590000Y-45730000D03*
D15*
X125290000Y-47930000D03*
D16*
X134490000Y-55830000D03*
D15*
X117690000Y-55930000D03*
X115140000Y-47130500D03*
X125542950Y-58329500D03*
X111990000Y-53780000D03*
D16*
X108290000Y-39430000D03*
D15*
X129145506Y-57351605D03*
D16*
X116580500Y-43947562D03*
D15*
X124876411Y-44216411D03*
X125460862Y-54660519D03*
X111590000Y-48530000D03*
D16*
%TO.N,+3V3*%
X120590000Y-41730000D03*
D15*
X123990000Y-55030000D03*
X116990000Y-52030000D03*
X116590000Y-45430000D03*
X119164500Y-46929500D03*
X133490000Y-45930000D03*
X114049385Y-49023357D03*
X111590000Y-47530000D03*
X116890000Y-54530000D03*
X125390000Y-46849500D03*
X117090000Y-55930000D03*
D16*
X122790000Y-41330000D03*
D15*
X127790000Y-50330000D03*
X125590000Y-55430000D03*
X125374920Y-48630923D03*
D16*
X121790000Y-41730000D03*
D15*
X127785619Y-48833662D03*
X123390000Y-42130000D03*
X129190000Y-58030000D03*
D16*
%TO.N,VBUS*%
X107590000Y-45130000D03*
X106990000Y-42130000D03*
X107390000Y-43530000D03*
X108390000Y-45930000D03*
D15*
%TO.N,+5V*%
X112990000Y-50854500D03*
D16*
X117090000Y-39530000D03*
X118890000Y-39530000D03*
X134439500Y-54630000D03*
D15*
X113690000Y-54330000D03*
D16*
X106890000Y-40630000D03*
X115690000Y-45030000D03*
D15*
%TO.N,/S1*%
X110540000Y-57304500D03*
%TO.N,/S2*%
X109738378Y-56705500D03*
%TO.N,/S3*%
X109467500Y-55352500D03*
X122140000Y-53129500D03*
X118140500Y-54015310D03*
%TO.N,/TAIL*%
X111390000Y-53830000D03*
%TO.N,/ESC*%
X109490000Y-52730000D03*
%TO.N,/RPM*%
X109490000Y-51730000D03*
X122000370Y-48401437D03*
X109490000Y-50205500D03*
%TO.N,/SBUS*%
X122016280Y-49212171D03*
%TO.N,Net-(U6-VCAP_1)*%
X122890000Y-53330000D03*
%TO.N,/MCU_D-*%
X119393200Y-51633200D03*
%TO.N,/MCU_D+*%
X118690000Y-51630000D03*
%TO.N,Net-(U6-BOOT0)*%
X117790000Y-53529500D03*
%TO.N,/BARO_SCL*%
X117590000Y-49230000D03*
%TO.N,/BARO_SDA*%
X117590000Y-48630000D03*
%TO.N,Net-(U6-NRST)*%
X120103957Y-46843957D03*
%TO.N,/UART4_TX*%
X121318851Y-50995094D03*
%TO.N,/UART4_RX*%
X121901444Y-51554604D03*
%TO.N,/LED_RD*%
X120007886Y-55652964D03*
%TO.N,/LED_GR*%
X119639500Y-55180000D03*
%TO.N,/BMI_NSS*%
X122612650Y-49273376D03*
%TO.N,/BMI_SCK*%
X122390000Y-49830000D03*
%TO.N,/BMI_MISO*%
X122918351Y-50902327D03*
%TO.N,/BMI_MOSI*%
X122612650Y-50386624D03*
%TO.N,/BMI_INT*%
X114169602Y-54689702D03*
X120892700Y-54237274D03*
X125390000Y-51230000D03*
%TD*%
D17*
%TO.N,+5V*%
X112990000Y-53630000D02*
X113690000Y-54330000D01*
X112990000Y-50854500D02*
X112990000Y-53630000D01*
%TD*%
%TA.AperFunction,Conductor*%
%TO.N,GND*%
G36*
X102158321Y-38550185D02*
G01*
X102204076Y-38602989D01*
X102214020Y-38672147D01*
X102184995Y-38735703D01*
X102127278Y-38773160D01*
X102061278Y-38793181D01*
X102056043Y-38794769D01*
X101945898Y-38853643D01*
X101873550Y-38892315D01*
X101873548Y-38892316D01*
X101873547Y-38892317D01*
X101713589Y-39023589D01*
X101582317Y-39183547D01*
X101484769Y-39366043D01*
X101424699Y-39564067D01*
X101404417Y-39770000D01*
X101424699Y-39975932D01*
X101438067Y-40020000D01*
X101484768Y-40173954D01*
X101582315Y-40356450D01*
X101582317Y-40356452D01*
X101713589Y-40516410D01*
X101810209Y-40595702D01*
X101873550Y-40647685D01*
X102056046Y-40745232D01*
X102254066Y-40805300D01*
X102254065Y-40805300D01*
X102272529Y-40807118D01*
X102460000Y-40825583D01*
X102665934Y-40805300D01*
X102863954Y-40745232D01*
X103046450Y-40647685D01*
X103206410Y-40516410D01*
X103337685Y-40356450D01*
X103435232Y-40173954D01*
X103495300Y-39975934D01*
X103515583Y-39770000D01*
X103495300Y-39564066D01*
X103435232Y-39366046D01*
X103337685Y-39183550D01*
X103254503Y-39082192D01*
X103206410Y-39023589D01*
X103046452Y-38892317D01*
X103046453Y-38892317D01*
X103046450Y-38892315D01*
X102863954Y-38794768D01*
X102792721Y-38773160D01*
X102734284Y-38734863D01*
X102705828Y-38671051D01*
X102716388Y-38601984D01*
X102762612Y-38549591D01*
X102828718Y-38530500D01*
X104631282Y-38530500D01*
X104698321Y-38550185D01*
X104744076Y-38602989D01*
X104754020Y-38672147D01*
X104724995Y-38735703D01*
X104667278Y-38773160D01*
X104601278Y-38793181D01*
X104596043Y-38794769D01*
X104485898Y-38853643D01*
X104413550Y-38892315D01*
X104413548Y-38892316D01*
X104413547Y-38892317D01*
X104253589Y-39023589D01*
X104122317Y-39183547D01*
X104024769Y-39366043D01*
X103964699Y-39564067D01*
X103944417Y-39770000D01*
X103964699Y-39975932D01*
X103978067Y-40020000D01*
X104024768Y-40173954D01*
X104122315Y-40356450D01*
X104122317Y-40356452D01*
X104253589Y-40516410D01*
X104350209Y-40595702D01*
X104413550Y-40647685D01*
X104596046Y-40745232D01*
X104794066Y-40805300D01*
X104794065Y-40805300D01*
X104812529Y-40807118D01*
X105000000Y-40825583D01*
X105205934Y-40805300D01*
X105403954Y-40745232D01*
X105586450Y-40647685D01*
X105607998Y-40630001D01*
X106284318Y-40630001D01*
X106304955Y-40786760D01*
X106304956Y-40786762D01*
X106313917Y-40808397D01*
X106365464Y-40932841D01*
X106461718Y-41058282D01*
X106587159Y-41154536D01*
X106733238Y-41215044D01*
X106811619Y-41225363D01*
X106889999Y-41235682D01*
X106890000Y-41235682D01*
X106890001Y-41235682D01*
X106942254Y-41228802D01*
X107046762Y-41215044D01*
X107192841Y-41154536D01*
X107318282Y-41058282D01*
X107414536Y-40932841D01*
X107475044Y-40786762D01*
X107495682Y-40630000D01*
X107475044Y-40473238D01*
X107414536Y-40327159D01*
X107318282Y-40201718D01*
X107192841Y-40105464D01*
X107181576Y-40100798D01*
X107046762Y-40044956D01*
X107046760Y-40044955D01*
X106890001Y-40024318D01*
X106889999Y-40024318D01*
X106733239Y-40044955D01*
X106733237Y-40044956D01*
X106587160Y-40105463D01*
X106461718Y-40201718D01*
X106365463Y-40327160D01*
X106304956Y-40473237D01*
X106304955Y-40473239D01*
X106284318Y-40629998D01*
X106284318Y-40630001D01*
X105607998Y-40630001D01*
X105746410Y-40516410D01*
X105877685Y-40356450D01*
X105975232Y-40173954D01*
X106035300Y-39975934D01*
X106055583Y-39770000D01*
X106035300Y-39564066D01*
X106024967Y-39530001D01*
X116484318Y-39530001D01*
X116504955Y-39686760D01*
X116504956Y-39686762D01*
X116565464Y-39832841D01*
X116661718Y-39958282D01*
X116787159Y-40054536D01*
X116933238Y-40115044D01*
X117011619Y-40125363D01*
X117089999Y-40135682D01*
X117090000Y-40135682D01*
X117090001Y-40135682D01*
X117142254Y-40128802D01*
X117246762Y-40115044D01*
X117392841Y-40054536D01*
X117518282Y-39958282D01*
X117614536Y-39832841D01*
X117675044Y-39686762D01*
X117688857Y-39581840D01*
X117695682Y-39530001D01*
X118284318Y-39530001D01*
X118304955Y-39686760D01*
X118304956Y-39686762D01*
X118365464Y-39832841D01*
X118461718Y-39958282D01*
X118587159Y-40054536D01*
X118733238Y-40115044D01*
X118811619Y-40125363D01*
X118889999Y-40135682D01*
X118890000Y-40135682D01*
X118890001Y-40135682D01*
X118942254Y-40128802D01*
X119046762Y-40115044D01*
X119192841Y-40054536D01*
X119318282Y-39958282D01*
X119393696Y-39860000D01*
X127810672Y-39860000D01*
X127810683Y-39860048D01*
X127889680Y-40010567D01*
X128002400Y-40137801D01*
X128002406Y-40137807D01*
X128142303Y-40234369D01*
X128142301Y-40234369D01*
X128301248Y-40294650D01*
X128301250Y-40294651D01*
X128427657Y-40310000D01*
X128770000Y-40310000D01*
X128770000Y-39910000D01*
X129270000Y-39910000D01*
X129270000Y-40310000D01*
X129296505Y-40336505D01*
X129329990Y-40397828D01*
X129325006Y-40467520D01*
X129283134Y-40523453D01*
X129266597Y-40532870D01*
X129266809Y-40533236D01*
X129259770Y-40537299D01*
X129139549Y-40629549D01*
X129050784Y-40745230D01*
X129047300Y-40749770D01*
X128989313Y-40889763D01*
X128989312Y-40889765D01*
X128969534Y-41039999D01*
X128969534Y-41040000D01*
X128989312Y-41190234D01*
X128989313Y-41190236D01*
X129047204Y-41329998D01*
X129047302Y-41330233D01*
X129139549Y-41450451D01*
X129259767Y-41542698D01*
X129399764Y-41600687D01*
X129512280Y-41615500D01*
X129512287Y-41615500D01*
X129587713Y-41615500D01*
X129587720Y-41615500D01*
X129700236Y-41600687D01*
X129840233Y-41542698D01*
X129960451Y-41450451D01*
X130052698Y-41330233D01*
X130110687Y-41190236D01*
X130130466Y-41040000D01*
X130128775Y-41027159D01*
X130110687Y-40889765D01*
X130110687Y-40889764D01*
X130052698Y-40749767D01*
X129960451Y-40629549D01*
X129840233Y-40537302D01*
X129840229Y-40537300D01*
X129774753Y-40510179D01*
X129720350Y-40466338D01*
X129698285Y-40400044D01*
X129715564Y-40332345D01*
X129766701Y-40284734D01*
X129778235Y-40279676D01*
X129897695Y-40234370D01*
X129897696Y-40234369D01*
X130037593Y-40137807D01*
X130037599Y-40137801D01*
X130150319Y-40010567D01*
X130229316Y-39860048D01*
X130229328Y-39860000D01*
X132240672Y-39860000D01*
X132240683Y-39860048D01*
X132319680Y-40010567D01*
X132432400Y-40137801D01*
X132432406Y-40137807D01*
X132572303Y-40234369D01*
X132572301Y-40234369D01*
X132731248Y-40294650D01*
X132731250Y-40294651D01*
X132857657Y-40310000D01*
X132950000Y-40310000D01*
X132950000Y-39910000D01*
X133450000Y-39910000D01*
X133450000Y-40310000D01*
X133542343Y-40310000D01*
X133668749Y-40294651D01*
X133668751Y-40294650D01*
X133827697Y-40234369D01*
X133967593Y-40137807D01*
X133967599Y-40137801D01*
X134080319Y-40010567D01*
X134159316Y-39860048D01*
X134159328Y-39860000D01*
X133666111Y-39860000D01*
X133705610Y-39835543D01*
X133773201Y-39746038D01*
X133803895Y-39638160D01*
X133793546Y-39526479D01*
X133743552Y-39426078D01*
X133671069Y-39360000D01*
X134159328Y-39360000D01*
X134159316Y-39359951D01*
X134080319Y-39209432D01*
X133967599Y-39082198D01*
X133967593Y-39082192D01*
X133827696Y-38985630D01*
X133827698Y-38985630D01*
X133668751Y-38925349D01*
X133668749Y-38925348D01*
X133542343Y-38910000D01*
X133450000Y-38910000D01*
X133450000Y-39310000D01*
X132950000Y-39310000D01*
X132950000Y-38910000D01*
X132857657Y-38910000D01*
X132731250Y-38925348D01*
X132731248Y-38925349D01*
X132572302Y-38985630D01*
X132432406Y-39082192D01*
X132432400Y-39082198D01*
X132319680Y-39209432D01*
X132240683Y-39359951D01*
X132240672Y-39360000D01*
X132733889Y-39360000D01*
X132694390Y-39384457D01*
X132626799Y-39473962D01*
X132596105Y-39581840D01*
X132606454Y-39693521D01*
X132656448Y-39793922D01*
X132728931Y-39860000D01*
X132240672Y-39860000D01*
X130229328Y-39860000D01*
X129736111Y-39860000D01*
X129775610Y-39835543D01*
X129843201Y-39746038D01*
X129873895Y-39638160D01*
X129863546Y-39526479D01*
X129813552Y-39426078D01*
X129741069Y-39360000D01*
X130229328Y-39360000D01*
X130229316Y-39359951D01*
X130150319Y-39209432D01*
X130037599Y-39082198D01*
X130037593Y-39082192D01*
X129897696Y-38985630D01*
X129897698Y-38985630D01*
X129738751Y-38925349D01*
X129738749Y-38925348D01*
X129612343Y-38910000D01*
X129270000Y-38910000D01*
X129270000Y-39310000D01*
X128770000Y-39310000D01*
X128770000Y-38910000D01*
X128427657Y-38910000D01*
X128301250Y-38925348D01*
X128301248Y-38925349D01*
X128142302Y-38985630D01*
X128002406Y-39082192D01*
X128002400Y-39082198D01*
X127889680Y-39209432D01*
X127810683Y-39359951D01*
X127810672Y-39360000D01*
X128303889Y-39360000D01*
X128264390Y-39384457D01*
X128196799Y-39473962D01*
X128166105Y-39581840D01*
X128176454Y-39693521D01*
X128226448Y-39793922D01*
X128298931Y-39860000D01*
X127810672Y-39860000D01*
X119393696Y-39860000D01*
X119414536Y-39832841D01*
X119475044Y-39686762D01*
X119488857Y-39581840D01*
X119495682Y-39530001D01*
X119495682Y-39529998D01*
X119475044Y-39373239D01*
X119475044Y-39373238D01*
X119414536Y-39227159D01*
X119318282Y-39101718D01*
X119192841Y-39005464D01*
X119046762Y-38944956D01*
X119046760Y-38944955D01*
X118890001Y-38924318D01*
X118889999Y-38924318D01*
X118733239Y-38944955D01*
X118733237Y-38944956D01*
X118587160Y-39005463D01*
X118461718Y-39101718D01*
X118365463Y-39227160D01*
X118304956Y-39373237D01*
X118304955Y-39373239D01*
X118284318Y-39529998D01*
X118284318Y-39530001D01*
X117695682Y-39530001D01*
X117695682Y-39529998D01*
X117675044Y-39373239D01*
X117675044Y-39373238D01*
X117614536Y-39227159D01*
X117518282Y-39101718D01*
X117392841Y-39005464D01*
X117246762Y-38944956D01*
X117246760Y-38944955D01*
X117090001Y-38924318D01*
X117089999Y-38924318D01*
X116933239Y-38944955D01*
X116933237Y-38944956D01*
X116787160Y-39005463D01*
X116661718Y-39101718D01*
X116565463Y-39227160D01*
X116504956Y-39373237D01*
X116504955Y-39373239D01*
X116484318Y-39529998D01*
X116484318Y-39530001D01*
X106024967Y-39530001D01*
X105975232Y-39366046D01*
X105877685Y-39183550D01*
X105794503Y-39082192D01*
X105746410Y-39023589D01*
X105586452Y-38892317D01*
X105586453Y-38892317D01*
X105586450Y-38892315D01*
X105403954Y-38794768D01*
X105332721Y-38773160D01*
X105274284Y-38734863D01*
X105245828Y-38671051D01*
X105256388Y-38601984D01*
X105302612Y-38549591D01*
X105368718Y-38530500D01*
X136139138Y-38530500D01*
X136206177Y-38550185D01*
X136226819Y-38566819D01*
X136453181Y-38793181D01*
X136486666Y-38854504D01*
X136489500Y-38880862D01*
X136489500Y-58579138D01*
X136469815Y-58646177D01*
X136453181Y-58666819D01*
X136226819Y-58893181D01*
X136165496Y-58926666D01*
X136139138Y-58929500D01*
X99040862Y-58929500D01*
X98973823Y-58909815D01*
X98953181Y-58893181D01*
X98846258Y-58786258D01*
X98812773Y-58724935D01*
X98817757Y-58655243D01*
X98859629Y-58599310D01*
X98925093Y-58574893D01*
X98981396Y-58584018D01*
X98991967Y-58588397D01*
X99050297Y-58599999D01*
X99050301Y-58600000D01*
X99670000Y-58600000D01*
X99670000Y-57985501D01*
X99777685Y-58034680D01*
X99884237Y-58050000D01*
X99955763Y-58050000D01*
X100062315Y-58034680D01*
X100170000Y-57985501D01*
X100170000Y-58600000D01*
X100789699Y-58600000D01*
X100789702Y-58599999D01*
X100848033Y-58588397D01*
X100848034Y-58588396D01*
X100914191Y-58544191D01*
X100958396Y-58478034D01*
X100958397Y-58478033D01*
X100969999Y-58419702D01*
X100970000Y-58419699D01*
X100970000Y-57800000D01*
X100353686Y-57800000D01*
X100379493Y-57759844D01*
X100420000Y-57621889D01*
X100420000Y-57550000D01*
X101404417Y-57550000D01*
X101424699Y-57755932D01*
X101438067Y-57800000D01*
X101484768Y-57953954D01*
X101582315Y-58136450D01*
X101582317Y-58136452D01*
X101713589Y-58296410D01*
X101788699Y-58358050D01*
X101873550Y-58427685D01*
X102056046Y-58525232D01*
X102254066Y-58585300D01*
X102254065Y-58585300D01*
X102272529Y-58587118D01*
X102460000Y-58605583D01*
X102665934Y-58585300D01*
X102863954Y-58525232D01*
X103046450Y-58427685D01*
X103206410Y-58296410D01*
X103337685Y-58136450D01*
X103435232Y-57953954D01*
X103495300Y-57755934D01*
X103515583Y-57550000D01*
X103944417Y-57550000D01*
X103964699Y-57755932D01*
X103978067Y-57800000D01*
X104024768Y-57953954D01*
X104122315Y-58136450D01*
X104122317Y-58136452D01*
X104253589Y-58296410D01*
X104328699Y-58358050D01*
X104413550Y-58427685D01*
X104596046Y-58525232D01*
X104794066Y-58585300D01*
X104794065Y-58585300D01*
X104812529Y-58587118D01*
X105000000Y-58605583D01*
X105205934Y-58585300D01*
X105403954Y-58525232D01*
X105586450Y-58427685D01*
X105746410Y-58296410D01*
X105877685Y-58136450D01*
X105934583Y-58030003D01*
X128784508Y-58030003D01*
X128804352Y-58155300D01*
X128804352Y-58155301D01*
X128804354Y-58155304D01*
X128861950Y-58268342D01*
X128861952Y-58268344D01*
X128861954Y-58268347D01*
X128951652Y-58358045D01*
X128951654Y-58358046D01*
X128951658Y-58358050D01*
X129064696Y-58415646D01*
X129064697Y-58415646D01*
X129064699Y-58415647D01*
X129189997Y-58435492D01*
X129190000Y-58435492D01*
X129190003Y-58435492D01*
X129315300Y-58415647D01*
X129315301Y-58415647D01*
X129315302Y-58415646D01*
X129315304Y-58415646D01*
X129428342Y-58358050D01*
X129518050Y-58268342D01*
X129575646Y-58155304D01*
X129575646Y-58155302D01*
X129575647Y-58155301D01*
X129575647Y-58155300D01*
X129595492Y-58030003D01*
X129595492Y-58029996D01*
X129575647Y-57904699D01*
X129575647Y-57904698D01*
X129563469Y-57880798D01*
X129518050Y-57791658D01*
X129518046Y-57791654D01*
X129518045Y-57791652D01*
X129428347Y-57701954D01*
X129428344Y-57701952D01*
X129428342Y-57701950D01*
X129315304Y-57644354D01*
X129315303Y-57644353D01*
X129315300Y-57644352D01*
X129190003Y-57624508D01*
X129189997Y-57624508D01*
X129064699Y-57644352D01*
X129064698Y-57644352D01*
X128989337Y-57682751D01*
X128951658Y-57701950D01*
X128951657Y-57701951D01*
X128951652Y-57701954D01*
X128861954Y-57791652D01*
X128861951Y-57791657D01*
X128804352Y-57904698D01*
X128804352Y-57904699D01*
X128784508Y-58029996D01*
X128784508Y-58030003D01*
X105934583Y-58030003D01*
X105975232Y-57953954D01*
X106035300Y-57755934D01*
X106055583Y-57550000D01*
X106035300Y-57344066D01*
X105975232Y-57146046D01*
X105877685Y-56963550D01*
X105774332Y-56837613D01*
X105746410Y-56803589D01*
X105626890Y-56705503D01*
X109332886Y-56705503D01*
X109352730Y-56830800D01*
X109352730Y-56830801D01*
X109356201Y-56837613D01*
X109410328Y-56943842D01*
X109410330Y-56943844D01*
X109410332Y-56943847D01*
X109500030Y-57033545D01*
X109500032Y-57033546D01*
X109500036Y-57033550D01*
X109613074Y-57091146D01*
X109613075Y-57091146D01*
X109613077Y-57091147D01*
X109738375Y-57110992D01*
X109738378Y-57110992D01*
X109738381Y-57110992D01*
X109863678Y-57091147D01*
X109863680Y-57091146D01*
X109863682Y-57091146D01*
X109976720Y-57033550D01*
X109976722Y-57033547D01*
X109979573Y-57032095D01*
X110048242Y-57019198D01*
X110112983Y-57045474D01*
X110153240Y-57102579D01*
X110156233Y-57172385D01*
X110154435Y-57178673D01*
X110134508Y-57304496D01*
X110134508Y-57304503D01*
X110154352Y-57429800D01*
X110154352Y-57429801D01*
X110154354Y-57429804D01*
X110211950Y-57542842D01*
X110211952Y-57542844D01*
X110211954Y-57542847D01*
X110301652Y-57632545D01*
X110301654Y-57632546D01*
X110301658Y-57632550D01*
X110414696Y-57690146D01*
X110414697Y-57690146D01*
X110414699Y-57690147D01*
X110539997Y-57709992D01*
X110540000Y-57709992D01*
X110540003Y-57709992D01*
X110665300Y-57690147D01*
X110665301Y-57690147D01*
X110665302Y-57690146D01*
X110665304Y-57690146D01*
X110778342Y-57632550D01*
X110868050Y-57542842D01*
X110925646Y-57429804D01*
X110925646Y-57429802D01*
X110925647Y-57429801D01*
X110925647Y-57429800D01*
X110945492Y-57304503D01*
X110945492Y-57304496D01*
X110925647Y-57179199D01*
X110925647Y-57179198D01*
X110925646Y-57179196D01*
X110868050Y-57066158D01*
X110868046Y-57066154D01*
X110868045Y-57066152D01*
X110778347Y-56976454D01*
X110778344Y-56976452D01*
X110778342Y-56976450D01*
X110665304Y-56918854D01*
X110665303Y-56918853D01*
X110665300Y-56918852D01*
X110540003Y-56899008D01*
X110539997Y-56899008D01*
X110414699Y-56918852D01*
X110414698Y-56918852D01*
X110326981Y-56963547D01*
X110301658Y-56976450D01*
X110301657Y-56976450D01*
X110298803Y-56977905D01*
X110230134Y-56990801D01*
X110165393Y-56964525D01*
X110125136Y-56907418D01*
X110122144Y-56837613D01*
X110123942Y-56831320D01*
X110124025Y-56830800D01*
X110143870Y-56705500D01*
X110143870Y-56705496D01*
X110124025Y-56580199D01*
X110124025Y-56580198D01*
X110121258Y-56574768D01*
X110066428Y-56467158D01*
X110066424Y-56467154D01*
X110066423Y-56467152D01*
X109976725Y-56377454D01*
X109976722Y-56377452D01*
X109976720Y-56377450D01*
X109863682Y-56319854D01*
X109863681Y-56319853D01*
X109863678Y-56319852D01*
X109738381Y-56300008D01*
X109738375Y-56300008D01*
X109613077Y-56319852D01*
X109613076Y-56319852D01*
X109537715Y-56358251D01*
X109500036Y-56377450D01*
X109500035Y-56377451D01*
X109500030Y-56377454D01*
X109410332Y-56467152D01*
X109410329Y-56467157D01*
X109352730Y-56580198D01*
X109352730Y-56580199D01*
X109332886Y-56705496D01*
X109332886Y-56705503D01*
X105626890Y-56705503D01*
X105586452Y-56672317D01*
X105586453Y-56672317D01*
X105586450Y-56672315D01*
X105403954Y-56574768D01*
X105205934Y-56514700D01*
X105205932Y-56514699D01*
X105205934Y-56514699D01*
X105000000Y-56494417D01*
X104794067Y-56514699D01*
X104596043Y-56574769D01*
X104485898Y-56633643D01*
X104413550Y-56672315D01*
X104413548Y-56672316D01*
X104413547Y-56672317D01*
X104253589Y-56803589D01*
X104122317Y-56963547D01*
X104122315Y-56963550D01*
X104115418Y-56976454D01*
X104024769Y-57146043D01*
X103964699Y-57344067D01*
X103944417Y-57550000D01*
X103515583Y-57550000D01*
X103495300Y-57344066D01*
X103435232Y-57146046D01*
X103337685Y-56963550D01*
X103234332Y-56837613D01*
X103206410Y-56803589D01*
X103046452Y-56672317D01*
X103046453Y-56672317D01*
X103046450Y-56672315D01*
X102863954Y-56574768D01*
X102665934Y-56514700D01*
X102665932Y-56514699D01*
X102665934Y-56514699D01*
X102460000Y-56494417D01*
X102254067Y-56514699D01*
X102056043Y-56574769D01*
X101945898Y-56633643D01*
X101873550Y-56672315D01*
X101873548Y-56672316D01*
X101873547Y-56672317D01*
X101713589Y-56803589D01*
X101582317Y-56963547D01*
X101582315Y-56963550D01*
X101575418Y-56976454D01*
X101484769Y-57146043D01*
X101424699Y-57344067D01*
X101404417Y-57550000D01*
X100420000Y-57550000D01*
X100420000Y-57478111D01*
X100379493Y-57340156D01*
X100353686Y-57300000D01*
X100970000Y-57300000D01*
X100970000Y-56680301D01*
X100969999Y-56680297D01*
X100958397Y-56621966D01*
X100958396Y-56621965D01*
X100914191Y-56555808D01*
X100848034Y-56511603D01*
X100848033Y-56511602D01*
X100789702Y-56500000D01*
X100170000Y-56500000D01*
X100170000Y-57114498D01*
X100062315Y-57065320D01*
X99955763Y-57050000D01*
X99884237Y-57050000D01*
X99777685Y-57065320D01*
X99670000Y-57114498D01*
X99670000Y-56500000D01*
X99050297Y-56500000D01*
X98991966Y-56511602D01*
X98991965Y-56511603D01*
X98925807Y-56555808D01*
X98917601Y-56568090D01*
X98863989Y-56612894D01*
X98794663Y-56621601D01*
X98731636Y-56591446D01*
X98694918Y-56532002D01*
X98690500Y-56499198D01*
X98690500Y-56060801D01*
X98710185Y-55993762D01*
X98762989Y-55948007D01*
X98832147Y-55938063D01*
X98895703Y-55967088D01*
X98917603Y-55991911D01*
X98925808Y-56004192D01*
X98991965Y-56048396D01*
X98991966Y-56048397D01*
X99050297Y-56059999D01*
X99050301Y-56060000D01*
X99670000Y-56060000D01*
X99670000Y-55445501D01*
X99777685Y-55494680D01*
X99884237Y-55510000D01*
X99955763Y-55510000D01*
X100062315Y-55494680D01*
X100170000Y-55445501D01*
X100170000Y-56060000D01*
X100789699Y-56060000D01*
X100789702Y-56059999D01*
X100848033Y-56048397D01*
X100848034Y-56048396D01*
X100914191Y-56004191D01*
X100958396Y-55938034D01*
X100958397Y-55938033D01*
X100969999Y-55879702D01*
X100970000Y-55879699D01*
X100970000Y-55260000D01*
X100353686Y-55260000D01*
X100379493Y-55219844D01*
X100420000Y-55081889D01*
X100420000Y-55010000D01*
X101404417Y-55010000D01*
X101424699Y-55215932D01*
X101440599Y-55268347D01*
X101467808Y-55358045D01*
X101484769Y-55413956D01*
X101485125Y-55414622D01*
X101582315Y-55596450D01*
X101582317Y-55596452D01*
X101713589Y-55756410D01*
X101785771Y-55815647D01*
X101873550Y-55887685D01*
X102056046Y-55985232D01*
X102254066Y-56045300D01*
X102254065Y-56045300D01*
X102272529Y-56047118D01*
X102460000Y-56065583D01*
X102665934Y-56045300D01*
X102863954Y-55985232D01*
X103046450Y-55887685D01*
X103206410Y-55756410D01*
X103337685Y-55596450D01*
X103435232Y-55413954D01*
X103495300Y-55215934D01*
X103515583Y-55010000D01*
X103944417Y-55010000D01*
X103964699Y-55215932D01*
X103980599Y-55268347D01*
X104007808Y-55358045D01*
X104024769Y-55413956D01*
X104025125Y-55414622D01*
X104122315Y-55596450D01*
X104122317Y-55596452D01*
X104253589Y-55756410D01*
X104325771Y-55815647D01*
X104413550Y-55887685D01*
X104596046Y-55985232D01*
X104794066Y-56045300D01*
X104794065Y-56045300D01*
X104812529Y-56047118D01*
X105000000Y-56065583D01*
X105205934Y-56045300D01*
X105403954Y-55985232D01*
X105507279Y-55930003D01*
X116684508Y-55930003D01*
X116704352Y-56055300D01*
X116704352Y-56055301D01*
X116709591Y-56065582D01*
X116761950Y-56168342D01*
X116761952Y-56168344D01*
X116761954Y-56168347D01*
X116851652Y-56258045D01*
X116851654Y-56258046D01*
X116851658Y-56258050D01*
X116964696Y-56315646D01*
X116964697Y-56315646D01*
X116964699Y-56315647D01*
X117089997Y-56335492D01*
X117090000Y-56335492D01*
X117090003Y-56335492D01*
X117215300Y-56315647D01*
X117215301Y-56315647D01*
X117215302Y-56315646D01*
X117215304Y-56315646D01*
X117328342Y-56258050D01*
X117418050Y-56168342D01*
X117475646Y-56055304D01*
X117475646Y-56055302D01*
X117475647Y-56055301D01*
X117475647Y-56055300D01*
X117495492Y-55930003D01*
X117495492Y-55929996D01*
X117475647Y-55804699D01*
X117475647Y-55804698D01*
X117462180Y-55778268D01*
X117418050Y-55691658D01*
X117418046Y-55691654D01*
X117418045Y-55691652D01*
X117328347Y-55601954D01*
X117328344Y-55601952D01*
X117328342Y-55601950D01*
X117215304Y-55544354D01*
X117215303Y-55544353D01*
X117215300Y-55544352D01*
X117090003Y-55524508D01*
X117089997Y-55524508D01*
X116964699Y-55544352D01*
X116964698Y-55544352D01*
X116891972Y-55581409D01*
X116851658Y-55601950D01*
X116851657Y-55601951D01*
X116851652Y-55601954D01*
X116761954Y-55691652D01*
X116761951Y-55691657D01*
X116704352Y-55804698D01*
X116704352Y-55804699D01*
X116684508Y-55929996D01*
X116684508Y-55930003D01*
X105507279Y-55930003D01*
X105586450Y-55887685D01*
X105746410Y-55756410D01*
X105877685Y-55596450D01*
X105975232Y-55413954D01*
X105993873Y-55352503D01*
X109062008Y-55352503D01*
X109081852Y-55477800D01*
X109081852Y-55477801D01*
X109081854Y-55477804D01*
X109139450Y-55590842D01*
X109139452Y-55590844D01*
X109139454Y-55590847D01*
X109229152Y-55680545D01*
X109229154Y-55680546D01*
X109229158Y-55680550D01*
X109342196Y-55738146D01*
X109342197Y-55738146D01*
X109342199Y-55738147D01*
X109467497Y-55757992D01*
X109467500Y-55757992D01*
X109467503Y-55757992D01*
X109592800Y-55738147D01*
X109592801Y-55738147D01*
X109592802Y-55738146D01*
X109592804Y-55738146D01*
X109705842Y-55680550D01*
X109795550Y-55590842D01*
X109853146Y-55477804D01*
X109853146Y-55477802D01*
X109853147Y-55477801D01*
X109853147Y-55477800D01*
X109872992Y-55352503D01*
X109872992Y-55352496D01*
X109853147Y-55227199D01*
X109853147Y-55227198D01*
X109835038Y-55191658D01*
X109829100Y-55180003D01*
X119234008Y-55180003D01*
X119253852Y-55305300D01*
X119253852Y-55305301D01*
X119253854Y-55305304D01*
X119311450Y-55418342D01*
X119311452Y-55418344D01*
X119311454Y-55418347D01*
X119401152Y-55508045D01*
X119401154Y-55508046D01*
X119401158Y-55508050D01*
X119514196Y-55565646D01*
X119514201Y-55565646D01*
X119520333Y-55567640D01*
X119578007Y-55607078D01*
X119604485Y-55666172D01*
X119622238Y-55778265D01*
X119622240Y-55778268D01*
X119679836Y-55891306D01*
X119679838Y-55891308D01*
X119679840Y-55891311D01*
X119769538Y-55981009D01*
X119769540Y-55981010D01*
X119769544Y-55981014D01*
X119882582Y-56038610D01*
X119882583Y-56038610D01*
X119882585Y-56038611D01*
X120007883Y-56058456D01*
X120007886Y-56058456D01*
X120007889Y-56058456D01*
X120133186Y-56038611D01*
X120133187Y-56038611D01*
X120133188Y-56038610D01*
X120133190Y-56038610D01*
X120246228Y-55981014D01*
X120335936Y-55891306D01*
X120393532Y-55778268D01*
X120393532Y-55778266D01*
X120393533Y-55778265D01*
X120393533Y-55778264D01*
X120413378Y-55652967D01*
X120413378Y-55652960D01*
X120393533Y-55527663D01*
X120393533Y-55527662D01*
X120391926Y-55524508D01*
X120335936Y-55414622D01*
X120335932Y-55414618D01*
X120335931Y-55414616D01*
X120246233Y-55324918D01*
X120246230Y-55324916D01*
X120246228Y-55324914D01*
X120133190Y-55267318D01*
X120133189Y-55267317D01*
X120133184Y-55267315D01*
X120127050Y-55265322D01*
X120069376Y-55225883D01*
X120042900Y-55166790D01*
X120025147Y-55054699D01*
X120025147Y-55054698D01*
X120012564Y-55030003D01*
X123584508Y-55030003D01*
X123604352Y-55155300D01*
X123604352Y-55155301D01*
X123604354Y-55155304D01*
X123661950Y-55268342D01*
X123661952Y-55268344D01*
X123661954Y-55268347D01*
X123751652Y-55358045D01*
X123751654Y-55358046D01*
X123751658Y-55358050D01*
X123864696Y-55415646D01*
X123864697Y-55415646D01*
X123864699Y-55415647D01*
X123989997Y-55435492D01*
X123990000Y-55435492D01*
X123990003Y-55435492D01*
X124024659Y-55430003D01*
X125184508Y-55430003D01*
X125204352Y-55555300D01*
X125204352Y-55555301D01*
X125217655Y-55581409D01*
X125261950Y-55668342D01*
X125261952Y-55668344D01*
X125261954Y-55668347D01*
X125351652Y-55758045D01*
X125351654Y-55758046D01*
X125351658Y-55758050D01*
X125464696Y-55815646D01*
X125464697Y-55815646D01*
X125464699Y-55815647D01*
X125589997Y-55835492D01*
X125590000Y-55835492D01*
X125590003Y-55835492D01*
X125715300Y-55815647D01*
X125715301Y-55815647D01*
X125715302Y-55815646D01*
X125715304Y-55815646D01*
X125828342Y-55758050D01*
X125918050Y-55668342D01*
X125975646Y-55555304D01*
X125975646Y-55555302D01*
X125975647Y-55555301D01*
X125975647Y-55555300D01*
X125995492Y-55430003D01*
X125995492Y-55429996D01*
X125975647Y-55304699D01*
X125975647Y-55304698D01*
X125957125Y-55268347D01*
X125918050Y-55191658D01*
X125918046Y-55191654D01*
X125918045Y-55191652D01*
X125828347Y-55101954D01*
X125828344Y-55101952D01*
X125828342Y-55101950D01*
X125715304Y-55044354D01*
X125715303Y-55044353D01*
X125715300Y-55044352D01*
X125590003Y-55024508D01*
X125589997Y-55024508D01*
X125464699Y-55044352D01*
X125464698Y-55044352D01*
X125403867Y-55075348D01*
X125351658Y-55101950D01*
X125351657Y-55101951D01*
X125351652Y-55101954D01*
X125261954Y-55191652D01*
X125261951Y-55191657D01*
X125261950Y-55191658D01*
X125244511Y-55225883D01*
X125204352Y-55304698D01*
X125204352Y-55304699D01*
X125184508Y-55429996D01*
X125184508Y-55430003D01*
X124024659Y-55430003D01*
X124115300Y-55415647D01*
X124115301Y-55415647D01*
X124115302Y-55415646D01*
X124115304Y-55415646D01*
X124228342Y-55358050D01*
X124318050Y-55268342D01*
X124375646Y-55155304D01*
X124375646Y-55155302D01*
X124375647Y-55155301D01*
X124375647Y-55155300D01*
X124395492Y-55030003D01*
X124395492Y-55029996D01*
X124375647Y-54904699D01*
X124375647Y-54904698D01*
X124375646Y-54904696D01*
X124318050Y-54791658D01*
X124318046Y-54791654D01*
X124318045Y-54791652D01*
X124228347Y-54701954D01*
X124228344Y-54701952D01*
X124228342Y-54701950D01*
X124115304Y-54644354D01*
X124115303Y-54644353D01*
X124115300Y-54644352D01*
X124024686Y-54630001D01*
X133833818Y-54630001D01*
X133854455Y-54786760D01*
X133854456Y-54786762D01*
X133907841Y-54915646D01*
X133914964Y-54932841D01*
X134011218Y-55058282D01*
X134136659Y-55154536D01*
X134282738Y-55215044D01*
X134319198Y-55219844D01*
X134439499Y-55235682D01*
X134439500Y-55235682D01*
X134439501Y-55235682D01*
X134503935Y-55227199D01*
X134596262Y-55215044D01*
X134742341Y-55154536D01*
X134867782Y-55058282D01*
X134964036Y-54932841D01*
X135024544Y-54786762D01*
X135045182Y-54630000D01*
X135042028Y-54606046D01*
X135024544Y-54473239D01*
X135024544Y-54473238D01*
X134964036Y-54327159D01*
X134867782Y-54201718D01*
X134742341Y-54105464D01*
X134709010Y-54091658D01*
X134596262Y-54044956D01*
X134596260Y-54044955D01*
X134439501Y-54024318D01*
X134439499Y-54024318D01*
X134282739Y-54044955D01*
X134282737Y-54044956D01*
X134136660Y-54105463D01*
X134011218Y-54201718D01*
X133914963Y-54327160D01*
X133854456Y-54473237D01*
X133854455Y-54473239D01*
X133833818Y-54629998D01*
X133833818Y-54630001D01*
X124024686Y-54630001D01*
X123990003Y-54624508D01*
X123989997Y-54624508D01*
X123864699Y-54644352D01*
X123864698Y-54644352D01*
X123796303Y-54679202D01*
X123751658Y-54701950D01*
X123751657Y-54701951D01*
X123751652Y-54701954D01*
X123661954Y-54791652D01*
X123661951Y-54791657D01*
X123661950Y-54791658D01*
X123654484Y-54806311D01*
X123604352Y-54904698D01*
X123604352Y-54904699D01*
X123584508Y-55029996D01*
X123584508Y-55030003D01*
X120012564Y-55030003D01*
X119967550Y-54941658D01*
X119967546Y-54941654D01*
X119967545Y-54941652D01*
X119877847Y-54851954D01*
X119877844Y-54851952D01*
X119877842Y-54851950D01*
X119764804Y-54794354D01*
X119764803Y-54794353D01*
X119764800Y-54794352D01*
X119639503Y-54774508D01*
X119639497Y-54774508D01*
X119514199Y-54794352D01*
X119514198Y-54794352D01*
X119438837Y-54832751D01*
X119401158Y-54851950D01*
X119401157Y-54851951D01*
X119401152Y-54851954D01*
X119311454Y-54941652D01*
X119311451Y-54941657D01*
X119253852Y-55054698D01*
X119253852Y-55054699D01*
X119234008Y-55179996D01*
X119234008Y-55180003D01*
X109829100Y-55180003D01*
X109795550Y-55114158D01*
X109795546Y-55114154D01*
X109795545Y-55114152D01*
X109705847Y-55024454D01*
X109705844Y-55024452D01*
X109705842Y-55024450D01*
X109592804Y-54966854D01*
X109592803Y-54966853D01*
X109592800Y-54966852D01*
X109467503Y-54947008D01*
X109467497Y-54947008D01*
X109342199Y-54966852D01*
X109342198Y-54966852D01*
X109266837Y-55005251D01*
X109229158Y-55024450D01*
X109229157Y-55024451D01*
X109229152Y-55024454D01*
X109139454Y-55114152D01*
X109139451Y-55114157D01*
X109081852Y-55227198D01*
X109081852Y-55227199D01*
X109062008Y-55352496D01*
X109062008Y-55352503D01*
X105993873Y-55352503D01*
X106035300Y-55215934D01*
X106055583Y-55010000D01*
X106035300Y-54804066D01*
X105975232Y-54606046D01*
X105877685Y-54423550D01*
X105811871Y-54343355D01*
X105746410Y-54263589D01*
X105603018Y-54145912D01*
X105586450Y-54132315D01*
X105403954Y-54034768D01*
X105205934Y-53974700D01*
X105205932Y-53974699D01*
X105205934Y-53974699D01*
X105000000Y-53954417D01*
X104794067Y-53974699D01*
X104596043Y-54034769D01*
X104489613Y-54091658D01*
X104413550Y-54132315D01*
X104413548Y-54132316D01*
X104413547Y-54132317D01*
X104253589Y-54263589D01*
X104124570Y-54420802D01*
X104122315Y-54423550D01*
X104094485Y-54475616D01*
X104024769Y-54606043D01*
X103964699Y-54804067D01*
X103944417Y-55010000D01*
X103515583Y-55010000D01*
X103495300Y-54804066D01*
X103435232Y-54606046D01*
X103337685Y-54423550D01*
X103271871Y-54343355D01*
X103206410Y-54263589D01*
X103063018Y-54145912D01*
X103046450Y-54132315D01*
X102863954Y-54034768D01*
X102665934Y-53974700D01*
X102665932Y-53974699D01*
X102665934Y-53974699D01*
X102460000Y-53954417D01*
X102254067Y-53974699D01*
X102056043Y-54034769D01*
X101949613Y-54091658D01*
X101873550Y-54132315D01*
X101873548Y-54132316D01*
X101873547Y-54132317D01*
X101713589Y-54263589D01*
X101584570Y-54420802D01*
X101582315Y-54423550D01*
X101554485Y-54475616D01*
X101484769Y-54606043D01*
X101424699Y-54804067D01*
X101404417Y-55010000D01*
X100420000Y-55010000D01*
X100420000Y-54938111D01*
X100379493Y-54800156D01*
X100353686Y-54760000D01*
X100970000Y-54760000D01*
X100970000Y-54140301D01*
X100969999Y-54140297D01*
X100958397Y-54081966D01*
X100958396Y-54081965D01*
X100914191Y-54015808D01*
X100848034Y-53971603D01*
X100848033Y-53971602D01*
X100789702Y-53960000D01*
X100170000Y-53960000D01*
X100170000Y-54574498D01*
X100062315Y-54525320D01*
X99955763Y-54510000D01*
X99884237Y-54510000D01*
X99777685Y-54525320D01*
X99670000Y-54574498D01*
X99670000Y-53960000D01*
X99050297Y-53960000D01*
X98991966Y-53971602D01*
X98991965Y-53971603D01*
X98925807Y-54015808D01*
X98917601Y-54028090D01*
X98863989Y-54072894D01*
X98794663Y-54081601D01*
X98731636Y-54051446D01*
X98694918Y-53992002D01*
X98690500Y-53959198D01*
X98690500Y-53830003D01*
X110984508Y-53830003D01*
X111004352Y-53955300D01*
X111004352Y-53955301D01*
X111012658Y-53971602D01*
X111061950Y-54068342D01*
X111061952Y-54068344D01*
X111061954Y-54068347D01*
X111151652Y-54158045D01*
X111151654Y-54158046D01*
X111151658Y-54158050D01*
X111264696Y-54215646D01*
X111264697Y-54215646D01*
X111264699Y-54215647D01*
X111389997Y-54235492D01*
X111390000Y-54235492D01*
X111390003Y-54235492D01*
X111515300Y-54215647D01*
X111515301Y-54215647D01*
X111515302Y-54215646D01*
X111515304Y-54215646D01*
X111628342Y-54158050D01*
X111718050Y-54068342D01*
X111775646Y-53955304D01*
X111775646Y-53955302D01*
X111775647Y-53955301D01*
X111775647Y-53955300D01*
X111795492Y-53830003D01*
X111795492Y-53829996D01*
X111775647Y-53704699D01*
X111775647Y-53704698D01*
X111766762Y-53687260D01*
X111718050Y-53591658D01*
X111718046Y-53591654D01*
X111718045Y-53591652D01*
X111628347Y-53501954D01*
X111628344Y-53501952D01*
X111628342Y-53501950D01*
X111515304Y-53444354D01*
X111515303Y-53444353D01*
X111515300Y-53444352D01*
X111390003Y-53424508D01*
X111389997Y-53424508D01*
X111264699Y-53444352D01*
X111264698Y-53444352D01*
X111189337Y-53482751D01*
X111151658Y-53501950D01*
X111151657Y-53501951D01*
X111151652Y-53501954D01*
X111061954Y-53591652D01*
X111061951Y-53591657D01*
X111004352Y-53704698D01*
X111004352Y-53704699D01*
X110984508Y-53829996D01*
X110984508Y-53830003D01*
X98690500Y-53830003D01*
X98690500Y-53520801D01*
X98710185Y-53453762D01*
X98762989Y-53408007D01*
X98832147Y-53398063D01*
X98895703Y-53427088D01*
X98917603Y-53451911D01*
X98925808Y-53464192D01*
X98991965Y-53508396D01*
X98991966Y-53508397D01*
X99050297Y-53519999D01*
X99050301Y-53520000D01*
X99670000Y-53520000D01*
X99670000Y-52905501D01*
X99777685Y-52954680D01*
X99884237Y-52970000D01*
X99955763Y-52970000D01*
X100062315Y-52954680D01*
X100170000Y-52905501D01*
X100170000Y-53520000D01*
X100789699Y-53520000D01*
X100789702Y-53519999D01*
X100848033Y-53508397D01*
X100848034Y-53508396D01*
X100914191Y-53464191D01*
X100958396Y-53398034D01*
X100958397Y-53398033D01*
X100969999Y-53339702D01*
X100970000Y-53339699D01*
X100970000Y-52720000D01*
X100353686Y-52720000D01*
X100379493Y-52679844D01*
X100420000Y-52541889D01*
X100420000Y-52470000D01*
X101404417Y-52470000D01*
X101424699Y-52675932D01*
X101441101Y-52730003D01*
X101484768Y-52873954D01*
X101582315Y-53056450D01*
X101611209Y-53091658D01*
X101713589Y-53216410D01*
X101804664Y-53291152D01*
X101873550Y-53347685D01*
X102056046Y-53445232D01*
X102254066Y-53505300D01*
X102254065Y-53505300D01*
X102272529Y-53507118D01*
X102460000Y-53525583D01*
X102665934Y-53505300D01*
X102863954Y-53445232D01*
X103046450Y-53347685D01*
X103206410Y-53216410D01*
X103337685Y-53056450D01*
X103435232Y-52873954D01*
X103495300Y-52675934D01*
X103515583Y-52470000D01*
X103944417Y-52470000D01*
X103964699Y-52675932D01*
X103981101Y-52730003D01*
X104024768Y-52873954D01*
X104122315Y-53056450D01*
X104151209Y-53091658D01*
X104253589Y-53216410D01*
X104344664Y-53291152D01*
X104413550Y-53347685D01*
X104596046Y-53445232D01*
X104794066Y-53505300D01*
X104794065Y-53505300D01*
X104812529Y-53507118D01*
X105000000Y-53525583D01*
X105205934Y-53505300D01*
X105403954Y-53445232D01*
X105586450Y-53347685D01*
X105746410Y-53216410D01*
X105877685Y-53056450D01*
X105975232Y-52873954D01*
X106018899Y-52730003D01*
X109084508Y-52730003D01*
X109104352Y-52855300D01*
X109104352Y-52855301D01*
X109122620Y-52891152D01*
X109161950Y-52968342D01*
X109161952Y-52968344D01*
X109161954Y-52968347D01*
X109251652Y-53058045D01*
X109251654Y-53058046D01*
X109251658Y-53058050D01*
X109364696Y-53115646D01*
X109364697Y-53115646D01*
X109364699Y-53115647D01*
X109489997Y-53135492D01*
X109490000Y-53135492D01*
X109490003Y-53135492D01*
X109615300Y-53115647D01*
X109615301Y-53115647D01*
X109615302Y-53115646D01*
X109615304Y-53115646D01*
X109728342Y-53058050D01*
X109818050Y-52968342D01*
X109875646Y-52855304D01*
X109875646Y-52855302D01*
X109875647Y-52855301D01*
X109875647Y-52855300D01*
X109895492Y-52730003D01*
X109895492Y-52729996D01*
X109875647Y-52604699D01*
X109875647Y-52604698D01*
X109875646Y-52604696D01*
X109818050Y-52491658D01*
X109818046Y-52491654D01*
X109818045Y-52491652D01*
X109728347Y-52401954D01*
X109728344Y-52401952D01*
X109728342Y-52401950D01*
X109615304Y-52344354D01*
X109615302Y-52344353D01*
X109607710Y-52340485D01*
X109556914Y-52292510D01*
X109540119Y-52224689D01*
X109562657Y-52158554D01*
X109607710Y-52119515D01*
X109615302Y-52115646D01*
X109615304Y-52115646D01*
X109728342Y-52058050D01*
X109818050Y-51968342D01*
X109875646Y-51855304D01*
X109875646Y-51855302D01*
X109875647Y-51855301D01*
X109875647Y-51855300D01*
X109895492Y-51730003D01*
X109895492Y-51729996D01*
X109875647Y-51604699D01*
X109875647Y-51604698D01*
X109873405Y-51600297D01*
X109818050Y-51491658D01*
X109818046Y-51491654D01*
X109818045Y-51491652D01*
X109728347Y-51401954D01*
X109728344Y-51401952D01*
X109728342Y-51401950D01*
X109615304Y-51344354D01*
X109615303Y-51344353D01*
X109615300Y-51344352D01*
X109490003Y-51324508D01*
X109489997Y-51324508D01*
X109364699Y-51344352D01*
X109364698Y-51344352D01*
X109293285Y-51380740D01*
X109251658Y-51401950D01*
X109251657Y-51401951D01*
X109251652Y-51401954D01*
X109161954Y-51491652D01*
X109161951Y-51491657D01*
X109161950Y-51491658D01*
X109149929Y-51515251D01*
X109104352Y-51604698D01*
X109104352Y-51604699D01*
X109084508Y-51729996D01*
X109084508Y-51730003D01*
X109104352Y-51855300D01*
X109104352Y-51855301D01*
X109118746Y-51883550D01*
X109161950Y-51968342D01*
X109161952Y-51968344D01*
X109161954Y-51968347D01*
X109251652Y-52058045D01*
X109251655Y-52058047D01*
X109251658Y-52058050D01*
X109304845Y-52085150D01*
X109372290Y-52119516D01*
X109423085Y-52167490D01*
X109439880Y-52235311D01*
X109417342Y-52301446D01*
X109372290Y-52340484D01*
X109251659Y-52401949D01*
X109251652Y-52401954D01*
X109161954Y-52491652D01*
X109161951Y-52491657D01*
X109104352Y-52604698D01*
X109104352Y-52604699D01*
X109084508Y-52729996D01*
X109084508Y-52730003D01*
X106018899Y-52730003D01*
X106035300Y-52675934D01*
X106055583Y-52470000D01*
X106035300Y-52264066D01*
X105975232Y-52066046D01*
X105877685Y-51883550D01*
X105802267Y-51791652D01*
X105746410Y-51723589D01*
X105628677Y-51626969D01*
X105586450Y-51592315D01*
X105403954Y-51494768D01*
X105205934Y-51434700D01*
X105205932Y-51434699D01*
X105205934Y-51434699D01*
X105000000Y-51414417D01*
X104794067Y-51434699D01*
X104683145Y-51468347D01*
X104606299Y-51491658D01*
X104596043Y-51494769D01*
X104485898Y-51553643D01*
X104413550Y-51592315D01*
X104413548Y-51592316D01*
X104413547Y-51592317D01*
X104253589Y-51723589D01*
X104123050Y-51882654D01*
X104122315Y-51883550D01*
X104083643Y-51955898D01*
X104024769Y-52066043D01*
X103964699Y-52264067D01*
X103944417Y-52470000D01*
X103515583Y-52470000D01*
X103495300Y-52264066D01*
X103435232Y-52066046D01*
X103337685Y-51883550D01*
X103262267Y-51791652D01*
X103206410Y-51723589D01*
X103088677Y-51626969D01*
X103046450Y-51592315D01*
X102863954Y-51494768D01*
X102665934Y-51434700D01*
X102665932Y-51434699D01*
X102665934Y-51434699D01*
X102460000Y-51414417D01*
X102254067Y-51434699D01*
X102143145Y-51468347D01*
X102066299Y-51491658D01*
X102056043Y-51494769D01*
X101945898Y-51553643D01*
X101873550Y-51592315D01*
X101873548Y-51592316D01*
X101873547Y-51592317D01*
X101713589Y-51723589D01*
X101583050Y-51882654D01*
X101582315Y-51883550D01*
X101543643Y-51955898D01*
X101484769Y-52066043D01*
X101424699Y-52264067D01*
X101404417Y-52470000D01*
X100420000Y-52470000D01*
X100420000Y-52398111D01*
X100379493Y-52260156D01*
X100353686Y-52220000D01*
X100970000Y-52220000D01*
X100970000Y-51600301D01*
X100969999Y-51600297D01*
X100958397Y-51541966D01*
X100958396Y-51541965D01*
X100914191Y-51475808D01*
X100848034Y-51431603D01*
X100848033Y-51431602D01*
X100789702Y-51420000D01*
X100170000Y-51420000D01*
X100170000Y-52034498D01*
X100062315Y-51985320D01*
X99955763Y-51970000D01*
X99884237Y-51970000D01*
X99777685Y-51985320D01*
X99670000Y-52034498D01*
X99670000Y-51420000D01*
X99050297Y-51420000D01*
X98991966Y-51431602D01*
X98991965Y-51431603D01*
X98925807Y-51475808D01*
X98917601Y-51488090D01*
X98863989Y-51532894D01*
X98794663Y-51541601D01*
X98731636Y-51511446D01*
X98694918Y-51452002D01*
X98690500Y-51419198D01*
X98690500Y-50980801D01*
X98710185Y-50913762D01*
X98762989Y-50868007D01*
X98832147Y-50858063D01*
X98895703Y-50887088D01*
X98917603Y-50911911D01*
X98925808Y-50924192D01*
X98991965Y-50968396D01*
X98991966Y-50968397D01*
X99050297Y-50979999D01*
X99050301Y-50980000D01*
X99670000Y-50980000D01*
X99670000Y-50365501D01*
X99777685Y-50414680D01*
X99884237Y-50430000D01*
X99955763Y-50430000D01*
X100062315Y-50414680D01*
X100170000Y-50365501D01*
X100170000Y-50980000D01*
X100789699Y-50980000D01*
X100789702Y-50979999D01*
X100848033Y-50968397D01*
X100848034Y-50968396D01*
X100914191Y-50924191D01*
X100958396Y-50858034D01*
X100958397Y-50858033D01*
X100969999Y-50799702D01*
X100970000Y-50799699D01*
X100970000Y-50180000D01*
X100353686Y-50180000D01*
X100379493Y-50139844D01*
X100420000Y-50001889D01*
X100420000Y-49930000D01*
X101404417Y-49930000D01*
X101424699Y-50135932D01*
X101438067Y-50180000D01*
X101484768Y-50333954D01*
X101582315Y-50516450D01*
X101596347Y-50533548D01*
X101713589Y-50676410D01*
X101777914Y-50729199D01*
X101873550Y-50807685D01*
X102056046Y-50905232D01*
X102254066Y-50965300D01*
X102254065Y-50965300D01*
X102272529Y-50967118D01*
X102460000Y-50985583D01*
X102665934Y-50965300D01*
X102863954Y-50905232D01*
X103046450Y-50807685D01*
X103206410Y-50676410D01*
X103337685Y-50516450D01*
X103435232Y-50333954D01*
X103495300Y-50135934D01*
X103515583Y-49930000D01*
X103944417Y-49930000D01*
X103964699Y-50135932D01*
X103978067Y-50180000D01*
X104024768Y-50333954D01*
X104122315Y-50516450D01*
X104136347Y-50533548D01*
X104253589Y-50676410D01*
X104317914Y-50729199D01*
X104413550Y-50807685D01*
X104596046Y-50905232D01*
X104794066Y-50965300D01*
X104794065Y-50965300D01*
X104812529Y-50967118D01*
X105000000Y-50985583D01*
X105205934Y-50965300D01*
X105403954Y-50905232D01*
X105498866Y-50854500D01*
X112584508Y-50854500D01*
X112587973Y-50876376D01*
X112589500Y-50895775D01*
X112589500Y-53693429D01*
X112589501Y-53693439D01*
X112596346Y-53714507D01*
X112600887Y-53733418D01*
X112604354Y-53755304D01*
X112604355Y-53755307D01*
X112614412Y-53775045D01*
X112621857Y-53793018D01*
X112628704Y-53814090D01*
X112641726Y-53832014D01*
X112651890Y-53848600D01*
X112661950Y-53868342D01*
X112682864Y-53889256D01*
X112682893Y-53889287D01*
X113194564Y-54400956D01*
X113361950Y-54568342D01*
X113451658Y-54658050D01*
X113471395Y-54668106D01*
X113487981Y-54678269D01*
X113505910Y-54691296D01*
X113505912Y-54691296D01*
X113505913Y-54691297D01*
X113526974Y-54698140D01*
X113544953Y-54705586D01*
X113564696Y-54715646D01*
X113586581Y-54719111D01*
X113605504Y-54723655D01*
X113626563Y-54730498D01*
X113626567Y-54730499D01*
X113648718Y-54730499D01*
X113668107Y-54732024D01*
X113686762Y-54734979D01*
X113749896Y-54764906D01*
X113777576Y-54807304D01*
X113779526Y-54806311D01*
X113783955Y-54815004D01*
X113783956Y-54815006D01*
X113841552Y-54928044D01*
X113841554Y-54928046D01*
X113841556Y-54928049D01*
X113931254Y-55017747D01*
X113931256Y-55017748D01*
X113931260Y-55017752D01*
X114044298Y-55075348D01*
X114044299Y-55075348D01*
X114044301Y-55075349D01*
X114169599Y-55095194D01*
X114169602Y-55095194D01*
X114169605Y-55095194D01*
X114294902Y-55075349D01*
X114294903Y-55075349D01*
X114294904Y-55075348D01*
X114294906Y-55075348D01*
X114407944Y-55017752D01*
X114497652Y-54928044D01*
X114555248Y-54815006D01*
X114555248Y-54815004D01*
X114555249Y-54815003D01*
X114555249Y-54815002D01*
X114575094Y-54689705D01*
X114575094Y-54689698D01*
X114555249Y-54564401D01*
X114555249Y-54564400D01*
X114555248Y-54564398D01*
X114537723Y-54530003D01*
X116484508Y-54530003D01*
X116504352Y-54655300D01*
X116504352Y-54655301D01*
X116516058Y-54678274D01*
X116561950Y-54768342D01*
X116561952Y-54768344D01*
X116561954Y-54768347D01*
X116651652Y-54858045D01*
X116651654Y-54858046D01*
X116651658Y-54858050D01*
X116764696Y-54915646D01*
X116764697Y-54915646D01*
X116764699Y-54915647D01*
X116889997Y-54935492D01*
X116890000Y-54935492D01*
X116890003Y-54935492D01*
X117015300Y-54915647D01*
X117015301Y-54915647D01*
X117015302Y-54915646D01*
X117015304Y-54915646D01*
X117128342Y-54858050D01*
X117218050Y-54768342D01*
X117275646Y-54655304D01*
X117275646Y-54655302D01*
X117275647Y-54655301D01*
X117275647Y-54655300D01*
X117295492Y-54530003D01*
X117295492Y-54529996D01*
X117275647Y-54404699D01*
X117275647Y-54404698D01*
X117273740Y-54400956D01*
X117218050Y-54291658D01*
X117218046Y-54291654D01*
X117218045Y-54291652D01*
X117128347Y-54201954D01*
X117128344Y-54201952D01*
X117128342Y-54201950D01*
X117015304Y-54144354D01*
X117015303Y-54144353D01*
X117015300Y-54144352D01*
X116890003Y-54124508D01*
X116889997Y-54124508D01*
X116764699Y-54144352D01*
X116764698Y-54144352D01*
X116702077Y-54176260D01*
X116651658Y-54201950D01*
X116651657Y-54201951D01*
X116651652Y-54201954D01*
X116561954Y-54291652D01*
X116561951Y-54291657D01*
X116504352Y-54404698D01*
X116504352Y-54404699D01*
X116484508Y-54529996D01*
X116484508Y-54530003D01*
X114537723Y-54530003D01*
X114497652Y-54451360D01*
X114497648Y-54451356D01*
X114497647Y-54451354D01*
X114407949Y-54361656D01*
X114407946Y-54361654D01*
X114407944Y-54361652D01*
X114294906Y-54304056D01*
X114294905Y-54304055D01*
X114294902Y-54304054D01*
X114172838Y-54284722D01*
X114109703Y-54254793D01*
X114082031Y-54212396D01*
X114080077Y-54213392D01*
X114065586Y-54184952D01*
X114058140Y-54166974D01*
X114051297Y-54145913D01*
X114051296Y-54145912D01*
X114051296Y-54145910D01*
X114038269Y-54127981D01*
X114028104Y-54111392D01*
X114025083Y-54105463D01*
X114018050Y-54091658D01*
X113928342Y-54001950D01*
X113681696Y-53755304D01*
X113455896Y-53529503D01*
X117384508Y-53529503D01*
X117404352Y-53654800D01*
X117404352Y-53654801D01*
X117420891Y-53687260D01*
X117461950Y-53767842D01*
X117461952Y-53767844D01*
X117461954Y-53767847D01*
X117551652Y-53857545D01*
X117551656Y-53857548D01*
X117551658Y-53857550D01*
X117664696Y-53915146D01*
X117664698Y-53915146D01*
X117667628Y-53916639D01*
X117718424Y-53964614D01*
X117733806Y-54007726D01*
X117754852Y-54140611D01*
X117763737Y-54158048D01*
X117812450Y-54253652D01*
X117812452Y-54253654D01*
X117812454Y-54253657D01*
X117902152Y-54343355D01*
X117902154Y-54343356D01*
X117902158Y-54343360D01*
X118015196Y-54400956D01*
X118015197Y-54400956D01*
X118015199Y-54400957D01*
X118140497Y-54420802D01*
X118140500Y-54420802D01*
X118140503Y-54420802D01*
X118265800Y-54400957D01*
X118265801Y-54400957D01*
X118265802Y-54400956D01*
X118265804Y-54400956D01*
X118378842Y-54343360D01*
X118468550Y-54253652D01*
X118476894Y-54237277D01*
X120487208Y-54237277D01*
X120507052Y-54362574D01*
X120507052Y-54362575D01*
X120507054Y-54362578D01*
X120564650Y-54475616D01*
X120564652Y-54475618D01*
X120564654Y-54475621D01*
X120654352Y-54565319D01*
X120654354Y-54565320D01*
X120654358Y-54565324D01*
X120767396Y-54622920D01*
X120767397Y-54622920D01*
X120767399Y-54622921D01*
X120892697Y-54642766D01*
X120892700Y-54642766D01*
X120892703Y-54642766D01*
X121018000Y-54622921D01*
X121018001Y-54622921D01*
X121018002Y-54622920D01*
X121018004Y-54622920D01*
X121131042Y-54565324D01*
X121220750Y-54475616D01*
X121278346Y-54362578D01*
X121278346Y-54362576D01*
X121278347Y-54362575D01*
X121278347Y-54362574D01*
X121298192Y-54237277D01*
X121298192Y-54237270D01*
X121278347Y-54111973D01*
X121278347Y-54111972D01*
X121275031Y-54105464D01*
X121220750Y-53998932D01*
X121220746Y-53998928D01*
X121220745Y-53998926D01*
X121131047Y-53909228D01*
X121131044Y-53909226D01*
X121131042Y-53909224D01*
X121018004Y-53851628D01*
X121018003Y-53851627D01*
X121018000Y-53851626D01*
X120892703Y-53831782D01*
X120892697Y-53831782D01*
X120767399Y-53851626D01*
X120767398Y-53851626D01*
X120693577Y-53889241D01*
X120654358Y-53909224D01*
X120654357Y-53909225D01*
X120654352Y-53909228D01*
X120564654Y-53998926D01*
X120564651Y-53998931D01*
X120564650Y-53998932D01*
X120556051Y-54015808D01*
X120507052Y-54111972D01*
X120507052Y-54111973D01*
X120487208Y-54237270D01*
X120487208Y-54237277D01*
X118476894Y-54237277D01*
X118526146Y-54140614D01*
X118526146Y-54140612D01*
X118526147Y-54140611D01*
X118526147Y-54140610D01*
X118545992Y-54015313D01*
X118545992Y-54015306D01*
X118526147Y-53890009D01*
X118526147Y-53890008D01*
X118525756Y-53889241D01*
X118468550Y-53776968D01*
X118468546Y-53776964D01*
X118468545Y-53776962D01*
X118378847Y-53687264D01*
X118378844Y-53687262D01*
X118378842Y-53687260D01*
X118265804Y-53629664D01*
X118265802Y-53629663D01*
X118262871Y-53628170D01*
X118212075Y-53580195D01*
X118196693Y-53537082D01*
X118175647Y-53404199D01*
X118175647Y-53404198D01*
X118157125Y-53367847D01*
X118118050Y-53291158D01*
X118118046Y-53291154D01*
X118118045Y-53291152D01*
X118028347Y-53201454D01*
X118028344Y-53201452D01*
X118028342Y-53201450D01*
X117915304Y-53143854D01*
X117915303Y-53143853D01*
X117915300Y-53143852D01*
X117824699Y-53129503D01*
X121734508Y-53129503D01*
X121754352Y-53254800D01*
X121754352Y-53254801D01*
X121754354Y-53254804D01*
X121811950Y-53367842D01*
X121811952Y-53367844D01*
X121811954Y-53367847D01*
X121901652Y-53457545D01*
X121901654Y-53457546D01*
X121901658Y-53457550D01*
X122014696Y-53515146D01*
X122014697Y-53515146D01*
X122014699Y-53515147D01*
X122139997Y-53534992D01*
X122140000Y-53534992D01*
X122140003Y-53534992D01*
X122265300Y-53515147D01*
X122265302Y-53515146D01*
X122265304Y-53515146D01*
X122368806Y-53462408D01*
X122437473Y-53449512D01*
X122502214Y-53475788D01*
X122535584Y-53516597D01*
X122561949Y-53568340D01*
X122561954Y-53568347D01*
X122651652Y-53658045D01*
X122651654Y-53658046D01*
X122651658Y-53658050D01*
X122764696Y-53715646D01*
X122764697Y-53715646D01*
X122764699Y-53715647D01*
X122889997Y-53735492D01*
X122890000Y-53735492D01*
X122890003Y-53735492D01*
X123015300Y-53715647D01*
X123015301Y-53715647D01*
X123015302Y-53715646D01*
X123015304Y-53715646D01*
X123128342Y-53658050D01*
X123218050Y-53568342D01*
X123275646Y-53455304D01*
X123275646Y-53455302D01*
X123275647Y-53455301D01*
X123275647Y-53455300D01*
X123295492Y-53330003D01*
X123295492Y-53329996D01*
X123275647Y-53204699D01*
X123275647Y-53204698D01*
X123244645Y-53143854D01*
X123218050Y-53091658D01*
X123218046Y-53091654D01*
X123218045Y-53091652D01*
X123128347Y-53001954D01*
X123128344Y-53001952D01*
X123128342Y-53001950D01*
X123015304Y-52944354D01*
X123015303Y-52944353D01*
X123015300Y-52944352D01*
X122890003Y-52924508D01*
X122889997Y-52924508D01*
X122764699Y-52944352D01*
X122764698Y-52944352D01*
X122661194Y-52997091D01*
X122592524Y-53009987D01*
X122527784Y-52983710D01*
X122494414Y-52942901D01*
X122468050Y-52891158D01*
X122468046Y-52891154D01*
X122468045Y-52891152D01*
X122378347Y-52801454D01*
X122378344Y-52801452D01*
X122378342Y-52801450D01*
X122265304Y-52743854D01*
X122265303Y-52743853D01*
X122265300Y-52743852D01*
X122140003Y-52724008D01*
X122139997Y-52724008D01*
X122014699Y-52743852D01*
X122014698Y-52743852D01*
X121939337Y-52782251D01*
X121901658Y-52801450D01*
X121901657Y-52801451D01*
X121901652Y-52801454D01*
X121811954Y-52891152D01*
X121811951Y-52891157D01*
X121754352Y-53004198D01*
X121754352Y-53004199D01*
X121734508Y-53129496D01*
X121734508Y-53129503D01*
X117824699Y-53129503D01*
X117790003Y-53124008D01*
X117789997Y-53124008D01*
X117664699Y-53143852D01*
X117664698Y-53143852D01*
X117589337Y-53182251D01*
X117551658Y-53201450D01*
X117551657Y-53201451D01*
X117551652Y-53201454D01*
X117461954Y-53291152D01*
X117461951Y-53291157D01*
X117404352Y-53404198D01*
X117404352Y-53404199D01*
X117384508Y-53529496D01*
X117384508Y-53529503D01*
X113455896Y-53529503D01*
X113426819Y-53500426D01*
X113393334Y-53439103D01*
X113390500Y-53412745D01*
X113390500Y-52030003D01*
X116584508Y-52030003D01*
X116604352Y-52155300D01*
X116604352Y-52155301D01*
X116604354Y-52155304D01*
X116661950Y-52268342D01*
X116661952Y-52268344D01*
X116661954Y-52268347D01*
X116751652Y-52358045D01*
X116751654Y-52358046D01*
X116751658Y-52358050D01*
X116864696Y-52415646D01*
X116864697Y-52415646D01*
X116864699Y-52415647D01*
X116989997Y-52435492D01*
X116990000Y-52435492D01*
X116990003Y-52435492D01*
X117115300Y-52415647D01*
X117115301Y-52415647D01*
X117115302Y-52415646D01*
X117115304Y-52415646D01*
X117228342Y-52358050D01*
X117318050Y-52268342D01*
X117375646Y-52155304D01*
X117375646Y-52155302D01*
X117375647Y-52155301D01*
X117375647Y-52155300D01*
X117395492Y-52030003D01*
X117395492Y-52029996D01*
X117375647Y-51904699D01*
X117375647Y-51904698D01*
X117373553Y-51900589D01*
X117318050Y-51791658D01*
X117318046Y-51791654D01*
X117318045Y-51791652D01*
X117228347Y-51701954D01*
X117228344Y-51701952D01*
X117228342Y-51701950D01*
X117115304Y-51644354D01*
X117115303Y-51644353D01*
X117115300Y-51644352D01*
X117024699Y-51630003D01*
X118284508Y-51630003D01*
X118304352Y-51755300D01*
X118304352Y-51755301D01*
X118304354Y-51755304D01*
X118361950Y-51868342D01*
X118361952Y-51868344D01*
X118361954Y-51868347D01*
X118451652Y-51958045D01*
X118451654Y-51958046D01*
X118451658Y-51958050D01*
X118564696Y-52015646D01*
X118564697Y-52015646D01*
X118564699Y-52015647D01*
X118689997Y-52035492D01*
X118690000Y-52035492D01*
X118690003Y-52035492D01*
X118815300Y-52015647D01*
X118815301Y-52015647D01*
X118815302Y-52015646D01*
X118815304Y-52015646D01*
X118928342Y-51958050D01*
X118952317Y-51934074D01*
X119013637Y-51900589D01*
X119083329Y-51905571D01*
X119127680Y-51934073D01*
X119154852Y-51961245D01*
X119154854Y-51961246D01*
X119154858Y-51961250D01*
X119267896Y-52018846D01*
X119267897Y-52018846D01*
X119267899Y-52018847D01*
X119393197Y-52038692D01*
X119393200Y-52038692D01*
X119393203Y-52038692D01*
X119518500Y-52018847D01*
X119518501Y-52018847D01*
X119518502Y-52018846D01*
X119518504Y-52018846D01*
X119631542Y-51961250D01*
X119721250Y-51871542D01*
X119778846Y-51758504D01*
X119778846Y-51758502D01*
X119778847Y-51758501D01*
X119778847Y-51758500D01*
X119798692Y-51633203D01*
X119798692Y-51633196D01*
X119778847Y-51507899D01*
X119778847Y-51507898D01*
X119777217Y-51504699D01*
X119721250Y-51394858D01*
X119721246Y-51394854D01*
X119721245Y-51394852D01*
X119631547Y-51305154D01*
X119631544Y-51305152D01*
X119631542Y-51305150D01*
X119518504Y-51247554D01*
X119518503Y-51247553D01*
X119518500Y-51247552D01*
X119393203Y-51227708D01*
X119393197Y-51227708D01*
X119267899Y-51247552D01*
X119267898Y-51247552D01*
X119192537Y-51285951D01*
X119154858Y-51305150D01*
X119154857Y-51305151D01*
X119154852Y-51305154D01*
X119130881Y-51329126D01*
X119069558Y-51362611D01*
X118999866Y-51357627D01*
X118955519Y-51329126D01*
X118928347Y-51301954D01*
X118928344Y-51301952D01*
X118928342Y-51301950D01*
X118815304Y-51244354D01*
X118815303Y-51244353D01*
X118815300Y-51244352D01*
X118690003Y-51224508D01*
X118689997Y-51224508D01*
X118564699Y-51244352D01*
X118564698Y-51244352D01*
X118489337Y-51282751D01*
X118451658Y-51301950D01*
X118451657Y-51301951D01*
X118451652Y-51301954D01*
X118361954Y-51391652D01*
X118361951Y-51391657D01*
X118361950Y-51391658D01*
X118356704Y-51401954D01*
X118304352Y-51504698D01*
X118304352Y-51504699D01*
X118284508Y-51629996D01*
X118284508Y-51630003D01*
X117024699Y-51630003D01*
X116990003Y-51624508D01*
X116989997Y-51624508D01*
X116864699Y-51644352D01*
X116864698Y-51644352D01*
X116794918Y-51679908D01*
X116751658Y-51701950D01*
X116751657Y-51701951D01*
X116751652Y-51701954D01*
X116661954Y-51791652D01*
X116661951Y-51791657D01*
X116661950Y-51791658D01*
X116645613Y-51823722D01*
X116604352Y-51904698D01*
X116604352Y-51904699D01*
X116584508Y-52029996D01*
X116584508Y-52030003D01*
X113390500Y-52030003D01*
X113390500Y-50995097D01*
X120913359Y-50995097D01*
X120933203Y-51120394D01*
X120933203Y-51120395D01*
X120950911Y-51155148D01*
X120990801Y-51233436D01*
X120990803Y-51233438D01*
X120990805Y-51233441D01*
X121080503Y-51323139D01*
X121080505Y-51323140D01*
X121080509Y-51323144D01*
X121193547Y-51380740D01*
X121193548Y-51380740D01*
X121193550Y-51380741D01*
X121318848Y-51400586D01*
X121318851Y-51400586D01*
X121318852Y-51400586D01*
X121330776Y-51398697D01*
X121356960Y-51394550D01*
X121426252Y-51403504D01*
X121479705Y-51448500D01*
X121500345Y-51515251D01*
X121498832Y-51536418D01*
X121495952Y-51554603D01*
X121495952Y-51554607D01*
X121515796Y-51679904D01*
X121515796Y-51679905D01*
X121527031Y-51701954D01*
X121573394Y-51792946D01*
X121573396Y-51792948D01*
X121573398Y-51792951D01*
X121663096Y-51882649D01*
X121663098Y-51882650D01*
X121663102Y-51882654D01*
X121776140Y-51940250D01*
X121776141Y-51940250D01*
X121776143Y-51940251D01*
X121901441Y-51960096D01*
X121901444Y-51960096D01*
X121901447Y-51960096D01*
X122026744Y-51940251D01*
X122026745Y-51940251D01*
X122026746Y-51940250D01*
X122026748Y-51940250D01*
X122139786Y-51882654D01*
X122229494Y-51792946D01*
X122287090Y-51679908D01*
X122287090Y-51679906D01*
X122287091Y-51679905D01*
X122287091Y-51679904D01*
X122306936Y-51554607D01*
X122306936Y-51554600D01*
X122287091Y-51429303D01*
X122287091Y-51429302D01*
X122281943Y-51419198D01*
X122229494Y-51316262D01*
X122229490Y-51316258D01*
X122229489Y-51316256D01*
X122139791Y-51226558D01*
X122139788Y-51226556D01*
X122139786Y-51226554D01*
X122026748Y-51168958D01*
X122026747Y-51168957D01*
X122026744Y-51168956D01*
X121901447Y-51149112D01*
X121901445Y-51149112D01*
X121901444Y-51149112D01*
X121887854Y-51151264D01*
X121863332Y-51155148D01*
X121794039Y-51146192D01*
X121740588Y-51101195D01*
X121719949Y-51034443D01*
X121721462Y-51013280D01*
X121724343Y-50995094D01*
X121724343Y-50995092D01*
X121724343Y-50995090D01*
X121704498Y-50869793D01*
X121704498Y-50869792D01*
X121704046Y-50868905D01*
X121646901Y-50756752D01*
X121646897Y-50756748D01*
X121646896Y-50756746D01*
X121557198Y-50667048D01*
X121557195Y-50667046D01*
X121557193Y-50667044D01*
X121444155Y-50609448D01*
X121444154Y-50609447D01*
X121444151Y-50609446D01*
X121318854Y-50589602D01*
X121318848Y-50589602D01*
X121193550Y-50609446D01*
X121193549Y-50609446D01*
X121118188Y-50647845D01*
X121080509Y-50667044D01*
X121080508Y-50667045D01*
X121080503Y-50667048D01*
X120990805Y-50756746D01*
X120990802Y-50756751D01*
X120990801Y-50756752D01*
X120980471Y-50777026D01*
X120933203Y-50869792D01*
X120933203Y-50869793D01*
X120913359Y-50995090D01*
X120913359Y-50995097D01*
X113390500Y-50995097D01*
X113390500Y-50895775D01*
X113392027Y-50876376D01*
X113395492Y-50854500D01*
X113395492Y-50854496D01*
X113375647Y-50729199D01*
X113375647Y-50729198D01*
X113368742Y-50715646D01*
X113318050Y-50616158D01*
X113318046Y-50616154D01*
X113318045Y-50616152D01*
X113228347Y-50526454D01*
X113228344Y-50526452D01*
X113228342Y-50526450D01*
X113115304Y-50468854D01*
X113115303Y-50468853D01*
X113115300Y-50468852D01*
X112990003Y-50449008D01*
X112989997Y-50449008D01*
X112864699Y-50468852D01*
X112864698Y-50468852D01*
X112789337Y-50507251D01*
X112751658Y-50526450D01*
X112751657Y-50526451D01*
X112751652Y-50526454D01*
X112661954Y-50616152D01*
X112661951Y-50616157D01*
X112604352Y-50729198D01*
X112604352Y-50729199D01*
X112584508Y-50854496D01*
X112584508Y-50854500D01*
X105498866Y-50854500D01*
X105586450Y-50807685D01*
X105746410Y-50676410D01*
X105877685Y-50516450D01*
X105975232Y-50333954D01*
X106014197Y-50205503D01*
X109084508Y-50205503D01*
X109104352Y-50330800D01*
X109104352Y-50330801D01*
X109104354Y-50330804D01*
X109161950Y-50443842D01*
X109161952Y-50443844D01*
X109161954Y-50443847D01*
X109251652Y-50533545D01*
X109251654Y-50533546D01*
X109251658Y-50533550D01*
X109364696Y-50591146D01*
X109364697Y-50591146D01*
X109364699Y-50591147D01*
X109489997Y-50610992D01*
X109490000Y-50610992D01*
X109490003Y-50610992D01*
X109615300Y-50591147D01*
X109615301Y-50591147D01*
X109615302Y-50591146D01*
X109615304Y-50591146D01*
X109728342Y-50533550D01*
X109818050Y-50443842D01*
X109875646Y-50330804D01*
X109875646Y-50330802D01*
X109875647Y-50330801D01*
X109875647Y-50330800D01*
X109895492Y-50205503D01*
X109895492Y-50205496D01*
X109875647Y-50080199D01*
X109875647Y-50080198D01*
X109875646Y-50080196D01*
X109818050Y-49967158D01*
X109818046Y-49967154D01*
X109818045Y-49967152D01*
X109728347Y-49877454D01*
X109728344Y-49877452D01*
X109728342Y-49877450D01*
X109615304Y-49819854D01*
X109615303Y-49819853D01*
X109615300Y-49819852D01*
X109490003Y-49800008D01*
X109489997Y-49800008D01*
X109364699Y-49819852D01*
X109364698Y-49819852D01*
X109289613Y-49858111D01*
X109251658Y-49877450D01*
X109251657Y-49877451D01*
X109251652Y-49877454D01*
X109161954Y-49967152D01*
X109161951Y-49967157D01*
X109161950Y-49967158D01*
X109142751Y-50004837D01*
X109104352Y-50080198D01*
X109104352Y-50080199D01*
X109084508Y-50205496D01*
X109084508Y-50205503D01*
X106014197Y-50205503D01*
X106035300Y-50135934D01*
X106055583Y-49930000D01*
X106035300Y-49724066D01*
X105975232Y-49526046D01*
X105877685Y-49343550D01*
X105825702Y-49280209D01*
X105746410Y-49183589D01*
X105586452Y-49052317D01*
X105586453Y-49052317D01*
X105586450Y-49052315D01*
X105532279Y-49023360D01*
X113643893Y-49023360D01*
X113663737Y-49148657D01*
X113663737Y-49148658D01*
X113663739Y-49148661D01*
X113721335Y-49261699D01*
X113721337Y-49261701D01*
X113721339Y-49261704D01*
X113811037Y-49351402D01*
X113811039Y-49351403D01*
X113811043Y-49351407D01*
X113924081Y-49409003D01*
X113924082Y-49409003D01*
X113924084Y-49409004D01*
X114049382Y-49428849D01*
X114049385Y-49428849D01*
X114049388Y-49428849D01*
X114174685Y-49409004D01*
X114174686Y-49409004D01*
X114174687Y-49409003D01*
X114174689Y-49409003D01*
X114287727Y-49351407D01*
X114377435Y-49261699D01*
X114393585Y-49230003D01*
X117184508Y-49230003D01*
X117204352Y-49355300D01*
X117204352Y-49355301D01*
X117204354Y-49355304D01*
X117261950Y-49468342D01*
X117261952Y-49468344D01*
X117261954Y-49468347D01*
X117351652Y-49558045D01*
X117351654Y-49558046D01*
X117351658Y-49558050D01*
X117464696Y-49615646D01*
X117464697Y-49615646D01*
X117464699Y-49615647D01*
X117589997Y-49635492D01*
X117590000Y-49635492D01*
X117590003Y-49635492D01*
X117715300Y-49615647D01*
X117715301Y-49615647D01*
X117715302Y-49615646D01*
X117715304Y-49615646D01*
X117828342Y-49558050D01*
X117918050Y-49468342D01*
X117975646Y-49355304D01*
X117975646Y-49355302D01*
X117975647Y-49355301D01*
X117975647Y-49355300D01*
X117995492Y-49230003D01*
X117995492Y-49229996D01*
X117975647Y-49104699D01*
X117975646Y-49104696D01*
X117966563Y-49086869D01*
X117918050Y-48991658D01*
X117918048Y-48991656D01*
X117915317Y-48986296D01*
X117902420Y-48917627D01*
X117915317Y-48873704D01*
X117918048Y-48868343D01*
X117918050Y-48868342D01*
X117975646Y-48755304D01*
X117975646Y-48755302D01*
X117975647Y-48755300D01*
X117995492Y-48630003D01*
X117995492Y-48629996D01*
X117975647Y-48504699D01*
X117975647Y-48504698D01*
X117966367Y-48486485D01*
X117923034Y-48401440D01*
X121594878Y-48401440D01*
X121614722Y-48526737D01*
X121614722Y-48526738D01*
X121614724Y-48526741D01*
X121672320Y-48639779D01*
X121672322Y-48639781D01*
X121672324Y-48639784D01*
X121759618Y-48727078D01*
X121793103Y-48788401D01*
X121788119Y-48858093D01*
X121759618Y-48902440D01*
X121688234Y-48973823D01*
X121688231Y-48973828D01*
X121688230Y-48973829D01*
X121669031Y-49011508D01*
X121630632Y-49086869D01*
X121630632Y-49086870D01*
X121610788Y-49212167D01*
X121610788Y-49212174D01*
X121630632Y-49337471D01*
X121630632Y-49337472D01*
X121639716Y-49355300D01*
X121688230Y-49450513D01*
X121688232Y-49450515D01*
X121688234Y-49450518D01*
X121777932Y-49540216D01*
X121777934Y-49540217D01*
X121777938Y-49540221D01*
X121890976Y-49597817D01*
X121890977Y-49597817D01*
X121890979Y-49597818D01*
X121895618Y-49598553D01*
X121958753Y-49628482D01*
X121995685Y-49687793D01*
X121998695Y-49740423D01*
X121984509Y-49829997D01*
X121984508Y-49830002D01*
X121984508Y-49830003D01*
X122004352Y-49955300D01*
X122004352Y-49955301D01*
X122004354Y-49955304D01*
X122061950Y-50068342D01*
X122061952Y-50068344D01*
X122061954Y-50068347D01*
X122151652Y-50158045D01*
X122151654Y-50158046D01*
X122151658Y-50158050D01*
X122156241Y-50160385D01*
X122207036Y-50208359D01*
X122223831Y-50276180D01*
X122222419Y-50290266D01*
X122207158Y-50386626D01*
X122207158Y-50386627D01*
X122227002Y-50511924D01*
X122227002Y-50511925D01*
X122234403Y-50526450D01*
X122284600Y-50624966D01*
X122284602Y-50624968D01*
X122284604Y-50624971D01*
X122374302Y-50714669D01*
X122374304Y-50714670D01*
X122374308Y-50714674D01*
X122449743Y-50753110D01*
X122500538Y-50801084D01*
X122517333Y-50868905D01*
X122515921Y-50882988D01*
X122512859Y-50902325D01*
X122512859Y-50902330D01*
X122532703Y-51027627D01*
X122532703Y-51027628D01*
X122532705Y-51027631D01*
X122590301Y-51140669D01*
X122590303Y-51140671D01*
X122590305Y-51140674D01*
X122680003Y-51230372D01*
X122680005Y-51230373D01*
X122680009Y-51230377D01*
X122793047Y-51287973D01*
X122793048Y-51287973D01*
X122793050Y-51287974D01*
X122918348Y-51307819D01*
X122918351Y-51307819D01*
X122918354Y-51307819D01*
X123043651Y-51287974D01*
X123043652Y-51287974D01*
X123043653Y-51287973D01*
X123043655Y-51287973D01*
X123156693Y-51230377D01*
X123157067Y-51230003D01*
X124984508Y-51230003D01*
X125004352Y-51355300D01*
X125004352Y-51355301D01*
X125008077Y-51362611D01*
X125061950Y-51468342D01*
X125061952Y-51468344D01*
X125061954Y-51468347D01*
X125151652Y-51558045D01*
X125151654Y-51558046D01*
X125151658Y-51558050D01*
X125264696Y-51615646D01*
X125264697Y-51615646D01*
X125264699Y-51615647D01*
X125389997Y-51635492D01*
X125390000Y-51635492D01*
X125390003Y-51635492D01*
X125515300Y-51615647D01*
X125515301Y-51615647D01*
X125515302Y-51615646D01*
X125515304Y-51615646D01*
X125628342Y-51558050D01*
X125718050Y-51468342D01*
X125775646Y-51355304D01*
X125775646Y-51355302D01*
X125775647Y-51355301D01*
X125775647Y-51355300D01*
X125795492Y-51230003D01*
X125795492Y-51229996D01*
X125775647Y-51104699D01*
X125775647Y-51104698D01*
X125773862Y-51101195D01*
X125718050Y-50991658D01*
X125718046Y-50991654D01*
X125718045Y-50991652D01*
X125628347Y-50901954D01*
X125628344Y-50901952D01*
X125628342Y-50901950D01*
X125515304Y-50844354D01*
X125515303Y-50844353D01*
X125515300Y-50844352D01*
X125390003Y-50824508D01*
X125389997Y-50824508D01*
X125264699Y-50844352D01*
X125264698Y-50844352D01*
X125189337Y-50882751D01*
X125151658Y-50901950D01*
X125151657Y-50901951D01*
X125151652Y-50901954D01*
X125061954Y-50991652D01*
X125061951Y-50991657D01*
X125061950Y-50991658D01*
X125060198Y-50995097D01*
X125004352Y-51104698D01*
X125004352Y-51104699D01*
X124984508Y-51229996D01*
X124984508Y-51230003D01*
X123157067Y-51230003D01*
X123246401Y-51140669D01*
X123303997Y-51027631D01*
X123303997Y-51027629D01*
X123303998Y-51027628D01*
X123303998Y-51027627D01*
X123323843Y-50902330D01*
X123323843Y-50902323D01*
X123303998Y-50777026D01*
X123303998Y-50777025D01*
X123291812Y-50753109D01*
X123246401Y-50663985D01*
X123246397Y-50663981D01*
X123246396Y-50663979D01*
X123156698Y-50574281D01*
X123156695Y-50574279D01*
X123156693Y-50574277D01*
X123081255Y-50535839D01*
X123030461Y-50487866D01*
X123013666Y-50420045D01*
X123015076Y-50405978D01*
X123018142Y-50386624D01*
X123009301Y-50330801D01*
X123009175Y-50330003D01*
X127384508Y-50330003D01*
X127404352Y-50455300D01*
X127404352Y-50455301D01*
X127404354Y-50455304D01*
X127461950Y-50568342D01*
X127461952Y-50568344D01*
X127461954Y-50568347D01*
X127551652Y-50658045D01*
X127551654Y-50658046D01*
X127551658Y-50658050D01*
X127664696Y-50715646D01*
X127664697Y-50715646D01*
X127664699Y-50715647D01*
X127789997Y-50735492D01*
X127790000Y-50735492D01*
X127790003Y-50735492D01*
X127915300Y-50715647D01*
X127915301Y-50715647D01*
X127915302Y-50715646D01*
X127915304Y-50715646D01*
X128028342Y-50658050D01*
X128118050Y-50568342D01*
X128175646Y-50455304D01*
X128175646Y-50455302D01*
X128175647Y-50455301D01*
X128175647Y-50455300D01*
X128195492Y-50330003D01*
X128195492Y-50329996D01*
X128175647Y-50204699D01*
X128175647Y-50204698D01*
X128175646Y-50204696D01*
X128118050Y-50091658D01*
X128118046Y-50091654D01*
X128118045Y-50091652D01*
X128028347Y-50001954D01*
X128028344Y-50001952D01*
X128028342Y-50001950D01*
X127915304Y-49944354D01*
X127915303Y-49944353D01*
X127915300Y-49944352D01*
X127790003Y-49924508D01*
X127789997Y-49924508D01*
X127664699Y-49944352D01*
X127664698Y-49944352D01*
X127589337Y-49982751D01*
X127551658Y-50001950D01*
X127551657Y-50001951D01*
X127551652Y-50001954D01*
X127461954Y-50091652D01*
X127461951Y-50091657D01*
X127404352Y-50204698D01*
X127404352Y-50204699D01*
X127384508Y-50329996D01*
X127384508Y-50330003D01*
X123009175Y-50330003D01*
X122998297Y-50261323D01*
X122998297Y-50261322D01*
X122998030Y-50260798D01*
X122940700Y-50148282D01*
X122940696Y-50148278D01*
X122940695Y-50148276D01*
X122850994Y-50058575D01*
X122846409Y-50056239D01*
X122795613Y-50008264D01*
X122778818Y-49940443D01*
X122780231Y-49926356D01*
X122795492Y-49830002D01*
X122795492Y-49829997D01*
X122780231Y-49733643D01*
X122789186Y-49664349D01*
X122834182Y-49610897D01*
X122846403Y-49603763D01*
X122850992Y-49601426D01*
X122940700Y-49511718D01*
X122998296Y-49398680D01*
X122998296Y-49398678D01*
X122998297Y-49398677D01*
X122998297Y-49398676D01*
X123018142Y-49273379D01*
X123018142Y-49273372D01*
X122998297Y-49148075D01*
X122998297Y-49148074D01*
X122976196Y-49104699D01*
X122940700Y-49035034D01*
X122940696Y-49035030D01*
X122940695Y-49035028D01*
X122850997Y-48945330D01*
X122850994Y-48945328D01*
X122850992Y-48945326D01*
X122737954Y-48887730D01*
X122737953Y-48887729D01*
X122737950Y-48887728D01*
X122612653Y-48867884D01*
X122612647Y-48867884D01*
X122487349Y-48887728D01*
X122487348Y-48887728D01*
X122415839Y-48924165D01*
X122347170Y-48937061D01*
X122282429Y-48910785D01*
X122271866Y-48901364D01*
X122257034Y-48886533D01*
X122223547Y-48825211D01*
X122228529Y-48755519D01*
X122257029Y-48711169D01*
X122328420Y-48639779D01*
X122332931Y-48630926D01*
X124969428Y-48630926D01*
X124989272Y-48756223D01*
X124989272Y-48756224D01*
X125007725Y-48792440D01*
X125046870Y-48869265D01*
X125046872Y-48869267D01*
X125046874Y-48869270D01*
X125136572Y-48958968D01*
X125136574Y-48958969D01*
X125136578Y-48958973D01*
X125249616Y-49016569D01*
X125249617Y-49016569D01*
X125249619Y-49016570D01*
X125374917Y-49036415D01*
X125374920Y-49036415D01*
X125374923Y-49036415D01*
X125500220Y-49016570D01*
X125500221Y-49016570D01*
X125500222Y-49016569D01*
X125500224Y-49016569D01*
X125613262Y-48958973D01*
X125702970Y-48869265D01*
X125721109Y-48833665D01*
X127380127Y-48833665D01*
X127399971Y-48958962D01*
X127399971Y-48958963D01*
X127407546Y-48973829D01*
X127457569Y-49072004D01*
X127457571Y-49072006D01*
X127457573Y-49072009D01*
X127547271Y-49161707D01*
X127547273Y-49161708D01*
X127547277Y-49161712D01*
X127660315Y-49219308D01*
X127660316Y-49219308D01*
X127660318Y-49219309D01*
X127785616Y-49239154D01*
X127785619Y-49239154D01*
X127785622Y-49239154D01*
X127910919Y-49219309D01*
X127910920Y-49219309D01*
X127910921Y-49219308D01*
X127910923Y-49219308D01*
X128023961Y-49161712D01*
X128113669Y-49072004D01*
X128152215Y-48996352D01*
X128200187Y-48945559D01*
X128268007Y-48928763D01*
X128293676Y-48934035D01*
X128293967Y-48932856D01*
X128301250Y-48934651D01*
X128427657Y-48950000D01*
X128770000Y-48950000D01*
X128770000Y-48550000D01*
X129270000Y-48550000D01*
X129270000Y-48950000D01*
X129612343Y-48950000D01*
X129738749Y-48934651D01*
X129738751Y-48934650D01*
X129897697Y-48874369D01*
X130037593Y-48777807D01*
X130037599Y-48777801D01*
X130150319Y-48650567D01*
X130229316Y-48500048D01*
X130229328Y-48500000D01*
X132240672Y-48500000D01*
X132240683Y-48500048D01*
X132319680Y-48650567D01*
X132432400Y-48777801D01*
X132432406Y-48777807D01*
X132572303Y-48874369D01*
X132572301Y-48874369D01*
X132731248Y-48934650D01*
X132731250Y-48934651D01*
X132857657Y-48950000D01*
X132950000Y-48950000D01*
X132950000Y-48550000D01*
X133450000Y-48550000D01*
X133450000Y-48950000D01*
X133542343Y-48950000D01*
X133668749Y-48934651D01*
X133668751Y-48934650D01*
X133827697Y-48874369D01*
X133967593Y-48777807D01*
X133967599Y-48777801D01*
X134080319Y-48650567D01*
X134159316Y-48500048D01*
X134159328Y-48500000D01*
X133666111Y-48500000D01*
X133705610Y-48475543D01*
X133773201Y-48386038D01*
X133803895Y-48278160D01*
X133793546Y-48166479D01*
X133743552Y-48066078D01*
X133671069Y-48000000D01*
X134159328Y-48000000D01*
X134159316Y-47999951D01*
X134080319Y-47849432D01*
X133967599Y-47722198D01*
X133967593Y-47722192D01*
X133827696Y-47625630D01*
X133827698Y-47625630D01*
X133668751Y-47565349D01*
X133668749Y-47565348D01*
X133542343Y-47550000D01*
X133450000Y-47550000D01*
X133450000Y-47950000D01*
X132950000Y-47950000D01*
X132950000Y-47550000D01*
X132857657Y-47550000D01*
X132731250Y-47565348D01*
X132731248Y-47565349D01*
X132572302Y-47625630D01*
X132432406Y-47722192D01*
X132432400Y-47722198D01*
X132319680Y-47849432D01*
X132240683Y-47999951D01*
X132240672Y-48000000D01*
X132733889Y-48000000D01*
X132694390Y-48024457D01*
X132626799Y-48113962D01*
X132596105Y-48221840D01*
X132606454Y-48333521D01*
X132656448Y-48433922D01*
X132728931Y-48500000D01*
X132240672Y-48500000D01*
X130229328Y-48500000D01*
X129736111Y-48500000D01*
X129775610Y-48475543D01*
X129843201Y-48386038D01*
X129873895Y-48278160D01*
X129863546Y-48166479D01*
X129813552Y-48066078D01*
X129741069Y-48000000D01*
X130229328Y-48000000D01*
X130229316Y-47999951D01*
X130150319Y-47849432D01*
X130037599Y-47722198D01*
X130037593Y-47722192D01*
X129897696Y-47625630D01*
X129897698Y-47625630D01*
X129778234Y-47580323D01*
X129722532Y-47538144D01*
X129698475Y-47472547D01*
X129713702Y-47404356D01*
X129763379Y-47355224D01*
X129774737Y-47349827D01*
X129840233Y-47322698D01*
X129960451Y-47230451D01*
X130052698Y-47110233D01*
X130110687Y-46970236D01*
X130130466Y-46820000D01*
X130110687Y-46669764D01*
X130052698Y-46529767D01*
X129960451Y-46409549D01*
X129840233Y-46317302D01*
X129840229Y-46317300D01*
X129776801Y-46291027D01*
X129700236Y-46259313D01*
X129686171Y-46257461D01*
X129587727Y-46244500D01*
X129587720Y-46244500D01*
X129512280Y-46244500D01*
X129512272Y-46244500D01*
X129399764Y-46259313D01*
X129399763Y-46259313D01*
X129259770Y-46317300D01*
X129259767Y-46317301D01*
X129259767Y-46317302D01*
X129139549Y-46409549D01*
X129057937Y-46515908D01*
X129047300Y-46529770D01*
X128989313Y-46669763D01*
X128989312Y-46669765D01*
X128969534Y-46819999D01*
X128969534Y-46820000D01*
X128989312Y-46970234D01*
X128989313Y-46970236D01*
X129047302Y-47110233D01*
X129139549Y-47230451D01*
X129259767Y-47322698D01*
X129259770Y-47322700D01*
X129266809Y-47326764D01*
X129265634Y-47328797D01*
X129310669Y-47365077D01*
X129332744Y-47431368D01*
X129315475Y-47499070D01*
X129296506Y-47523494D01*
X129270000Y-47550000D01*
X129270000Y-47950000D01*
X128770000Y-47950000D01*
X128770000Y-47550000D01*
X128427657Y-47550000D01*
X128301250Y-47565348D01*
X128301248Y-47565349D01*
X128142302Y-47625630D01*
X128002406Y-47722192D01*
X128002400Y-47722198D01*
X127889680Y-47849432D01*
X127810683Y-47999951D01*
X127810672Y-48000000D01*
X128303889Y-48000000D01*
X128264390Y-48024457D01*
X128196799Y-48113962D01*
X128166105Y-48221840D01*
X128176454Y-48333521D01*
X128226448Y-48433922D01*
X128298931Y-48500000D01*
X128042717Y-48500000D01*
X127986422Y-48486485D01*
X127964947Y-48475543D01*
X127910923Y-48448016D01*
X127910922Y-48448015D01*
X127910919Y-48448014D01*
X127785622Y-48428170D01*
X127785616Y-48428170D01*
X127660318Y-48448014D01*
X127660317Y-48448014D01*
X127606290Y-48475543D01*
X127547277Y-48505612D01*
X127547276Y-48505613D01*
X127547271Y-48505616D01*
X127457573Y-48595314D01*
X127457570Y-48595319D01*
X127399971Y-48708360D01*
X127399971Y-48708361D01*
X127380127Y-48833658D01*
X127380127Y-48833665D01*
X125721109Y-48833665D01*
X125760566Y-48756227D01*
X125760566Y-48756225D01*
X125760567Y-48756224D01*
X125760567Y-48756223D01*
X125780412Y-48630926D01*
X125780412Y-48630919D01*
X125760567Y-48505622D01*
X125760567Y-48505621D01*
X125757703Y-48500000D01*
X125702970Y-48392581D01*
X125702966Y-48392577D01*
X125702965Y-48392575D01*
X125613267Y-48302877D01*
X125613264Y-48302875D01*
X125613262Y-48302873D01*
X125500224Y-48245277D01*
X125500223Y-48245276D01*
X125500220Y-48245275D01*
X125374923Y-48225431D01*
X125374917Y-48225431D01*
X125249619Y-48245275D01*
X125249618Y-48245275D01*
X125174257Y-48283674D01*
X125136578Y-48302873D01*
X125136577Y-48302874D01*
X125136572Y-48302877D01*
X125046874Y-48392575D01*
X125046871Y-48392580D01*
X124989272Y-48505621D01*
X124989272Y-48505622D01*
X124969428Y-48630919D01*
X124969428Y-48630926D01*
X122332931Y-48630926D01*
X122386016Y-48526741D01*
X122386016Y-48526739D01*
X122386017Y-48526738D01*
X122386017Y-48526737D01*
X122405862Y-48401440D01*
X122405862Y-48401433D01*
X122386017Y-48276136D01*
X122386017Y-48276135D01*
X122370293Y-48245275D01*
X122328420Y-48163095D01*
X122328416Y-48163091D01*
X122328415Y-48163089D01*
X122238717Y-48073391D01*
X122238714Y-48073389D01*
X122238712Y-48073387D01*
X122125674Y-48015791D01*
X122125673Y-48015790D01*
X122125670Y-48015789D01*
X122000373Y-47995945D01*
X122000367Y-47995945D01*
X121875069Y-48015789D01*
X121875068Y-48015789D01*
X121799707Y-48054188D01*
X121762028Y-48073387D01*
X121762027Y-48073388D01*
X121762022Y-48073391D01*
X121672324Y-48163089D01*
X121672321Y-48163094D01*
X121614722Y-48276135D01*
X121614722Y-48276136D01*
X121594878Y-48401433D01*
X121594878Y-48401440D01*
X117923034Y-48401440D01*
X117918050Y-48391658D01*
X117918046Y-48391654D01*
X117918045Y-48391652D01*
X117828347Y-48301954D01*
X117828344Y-48301952D01*
X117828342Y-48301950D01*
X117715304Y-48244354D01*
X117715303Y-48244353D01*
X117715300Y-48244352D01*
X117590003Y-48224508D01*
X117589997Y-48224508D01*
X117464699Y-48244352D01*
X117464698Y-48244352D01*
X117398348Y-48278160D01*
X117351658Y-48301950D01*
X117351657Y-48301951D01*
X117351652Y-48301954D01*
X117261954Y-48391652D01*
X117261951Y-48391657D01*
X117261950Y-48391658D01*
X117256966Y-48401440D01*
X117204352Y-48504698D01*
X117204352Y-48504699D01*
X117184508Y-48629996D01*
X117184508Y-48630003D01*
X117204352Y-48755300D01*
X117204352Y-48755301D01*
X117264683Y-48873705D01*
X117277579Y-48942374D01*
X117264683Y-48986295D01*
X117261950Y-48991657D01*
X117261950Y-48991658D01*
X117256698Y-49001966D01*
X117204352Y-49104698D01*
X117204352Y-49104699D01*
X117184508Y-49229996D01*
X117184508Y-49230003D01*
X114393585Y-49230003D01*
X114435031Y-49148661D01*
X114435031Y-49148659D01*
X114435032Y-49148658D01*
X114435032Y-49148657D01*
X114454877Y-49023360D01*
X114454877Y-49023353D01*
X114435032Y-48898056D01*
X114435032Y-48898055D01*
X114435031Y-48898053D01*
X114377435Y-48785015D01*
X114377431Y-48785011D01*
X114377430Y-48785009D01*
X114287732Y-48695311D01*
X114287729Y-48695309D01*
X114287727Y-48695307D01*
X114174689Y-48637711D01*
X114174688Y-48637710D01*
X114174685Y-48637709D01*
X114049388Y-48617865D01*
X114049382Y-48617865D01*
X113924084Y-48637709D01*
X113924083Y-48637709D01*
X113848722Y-48676108D01*
X113811043Y-48695307D01*
X113811042Y-48695308D01*
X113811037Y-48695311D01*
X113721339Y-48785009D01*
X113721336Y-48785014D01*
X113721335Y-48785015D01*
X113719610Y-48788401D01*
X113663737Y-48898055D01*
X113663737Y-48898056D01*
X113643893Y-49023353D01*
X113643893Y-49023360D01*
X105532279Y-49023360D01*
X105403954Y-48954768D01*
X105205934Y-48894700D01*
X105205932Y-48894699D01*
X105205934Y-48894699D01*
X105000000Y-48874417D01*
X104794067Y-48894699D01*
X104596043Y-48954769D01*
X104485898Y-49013643D01*
X104413550Y-49052315D01*
X104413548Y-49052316D01*
X104413547Y-49052317D01*
X104253589Y-49183589D01*
X104122317Y-49343547D01*
X104122315Y-49343550D01*
X104092849Y-49398676D01*
X104024769Y-49526043D01*
X103964699Y-49724067D01*
X103944417Y-49930000D01*
X103515583Y-49930000D01*
X103495300Y-49724066D01*
X103435232Y-49526046D01*
X103337685Y-49343550D01*
X103285702Y-49280209D01*
X103206410Y-49183589D01*
X103046452Y-49052317D01*
X103046453Y-49052317D01*
X103046450Y-49052315D01*
X102863954Y-48954768D01*
X102665934Y-48894700D01*
X102665932Y-48894699D01*
X102665934Y-48894699D01*
X102460000Y-48874417D01*
X102254067Y-48894699D01*
X102056043Y-48954769D01*
X101945898Y-49013643D01*
X101873550Y-49052315D01*
X101873548Y-49052316D01*
X101873547Y-49052317D01*
X101713589Y-49183589D01*
X101582317Y-49343547D01*
X101582315Y-49343550D01*
X101552849Y-49398676D01*
X101484769Y-49526043D01*
X101424699Y-49724067D01*
X101404417Y-49930000D01*
X100420000Y-49930000D01*
X100420000Y-49858111D01*
X100379493Y-49720156D01*
X100353686Y-49680000D01*
X100970000Y-49680000D01*
X100970000Y-49060301D01*
X100969999Y-49060297D01*
X100958397Y-49001966D01*
X100958396Y-49001965D01*
X100914191Y-48935808D01*
X100848034Y-48891603D01*
X100848033Y-48891602D01*
X100789702Y-48880000D01*
X100170000Y-48880000D01*
X100170000Y-49494498D01*
X100062315Y-49445320D01*
X99955763Y-49430000D01*
X99884237Y-49430000D01*
X99777685Y-49445320D01*
X99670000Y-49494498D01*
X99670000Y-48880000D01*
X99050297Y-48880000D01*
X98991966Y-48891602D01*
X98991965Y-48891603D01*
X98925807Y-48935808D01*
X98917601Y-48948090D01*
X98863989Y-48992894D01*
X98794663Y-49001601D01*
X98731636Y-48971446D01*
X98694918Y-48912002D01*
X98690500Y-48879198D01*
X98690500Y-47530003D01*
X111184508Y-47530003D01*
X111204352Y-47655300D01*
X111204352Y-47655301D01*
X111204354Y-47655304D01*
X111261950Y-47768342D01*
X111261952Y-47768344D01*
X111261954Y-47768347D01*
X111351652Y-47858045D01*
X111351654Y-47858046D01*
X111351658Y-47858050D01*
X111464696Y-47915646D01*
X111464697Y-47915646D01*
X111464699Y-47915647D01*
X111589997Y-47935492D01*
X111590000Y-47935492D01*
X111590003Y-47935492D01*
X111715300Y-47915647D01*
X111715301Y-47915647D01*
X111715302Y-47915646D01*
X111715304Y-47915646D01*
X111828342Y-47858050D01*
X111918050Y-47768342D01*
X111975646Y-47655304D01*
X111975646Y-47655302D01*
X111975647Y-47655301D01*
X111975647Y-47655300D01*
X111995492Y-47530003D01*
X111995492Y-47529996D01*
X111975647Y-47404699D01*
X111975647Y-47404698D01*
X111970960Y-47395500D01*
X111918050Y-47291658D01*
X111918046Y-47291654D01*
X111918045Y-47291652D01*
X111828347Y-47201954D01*
X111828344Y-47201952D01*
X111828342Y-47201950D01*
X111715304Y-47144354D01*
X111715303Y-47144353D01*
X111715300Y-47144352D01*
X111590003Y-47124508D01*
X111589997Y-47124508D01*
X111464699Y-47144352D01*
X111464698Y-47144352D01*
X111410428Y-47172005D01*
X111351658Y-47201950D01*
X111351657Y-47201951D01*
X111351652Y-47201954D01*
X111261954Y-47291652D01*
X111261951Y-47291657D01*
X111204352Y-47404698D01*
X111204352Y-47404699D01*
X111184508Y-47529996D01*
X111184508Y-47530003D01*
X98690500Y-47530003D01*
X98690500Y-46929503D01*
X118759008Y-46929503D01*
X118778852Y-47054800D01*
X118778852Y-47054801D01*
X118792862Y-47082296D01*
X118836450Y-47167842D01*
X118836452Y-47167844D01*
X118836454Y-47167847D01*
X118926152Y-47257545D01*
X118926154Y-47257546D01*
X118926158Y-47257550D01*
X119039196Y-47315146D01*
X119039197Y-47315146D01*
X119039199Y-47315147D01*
X119164497Y-47334992D01*
X119164500Y-47334992D01*
X119164503Y-47334992D01*
X119289800Y-47315147D01*
X119289801Y-47315147D01*
X119289802Y-47315146D01*
X119289804Y-47315146D01*
X119402842Y-47257550D01*
X119492550Y-47167842D01*
X119545538Y-47063845D01*
X119593510Y-47013053D01*
X119661331Y-46996258D01*
X119727466Y-47018795D01*
X119766504Y-47063846D01*
X119775905Y-47082296D01*
X119775911Y-47082304D01*
X119865609Y-47172002D01*
X119865611Y-47172003D01*
X119865615Y-47172007D01*
X119978653Y-47229603D01*
X119978654Y-47229603D01*
X119978656Y-47229604D01*
X120103954Y-47249449D01*
X120103957Y-47249449D01*
X120103960Y-47249449D01*
X120229257Y-47229604D01*
X120229258Y-47229604D01*
X120229259Y-47229603D01*
X120229261Y-47229603D01*
X120342299Y-47172007D01*
X120432007Y-47082299D01*
X120489603Y-46969261D01*
X120489603Y-46969259D01*
X120489604Y-46969258D01*
X120489604Y-46969257D01*
X120508571Y-46849503D01*
X124984508Y-46849503D01*
X125004352Y-46974800D01*
X125004352Y-46974801D01*
X125004354Y-46974804D01*
X125061950Y-47087842D01*
X125061952Y-47087844D01*
X125061954Y-47087847D01*
X125151652Y-47177545D01*
X125151654Y-47177546D01*
X125151658Y-47177550D01*
X125264696Y-47235146D01*
X125264697Y-47235146D01*
X125264699Y-47235147D01*
X125389997Y-47254992D01*
X125390000Y-47254992D01*
X125390003Y-47254992D01*
X125515300Y-47235147D01*
X125515301Y-47235147D01*
X125515302Y-47235146D01*
X125515304Y-47235146D01*
X125628342Y-47177550D01*
X125718050Y-47087842D01*
X125775646Y-46974804D01*
X125775646Y-46974802D01*
X125775647Y-46974801D01*
X125775647Y-46974800D01*
X125795492Y-46849503D01*
X125795492Y-46849496D01*
X125775647Y-46724199D01*
X125775647Y-46724198D01*
X125768213Y-46709608D01*
X125718050Y-46611158D01*
X125718046Y-46611154D01*
X125718045Y-46611152D01*
X125628347Y-46521454D01*
X125628344Y-46521452D01*
X125628342Y-46521450D01*
X125515304Y-46463854D01*
X125515303Y-46463853D01*
X125515300Y-46463852D01*
X125390003Y-46444008D01*
X125389997Y-46444008D01*
X125264699Y-46463852D01*
X125264698Y-46463852D01*
X125189337Y-46502251D01*
X125151658Y-46521450D01*
X125151657Y-46521451D01*
X125151652Y-46521454D01*
X125061954Y-46611152D01*
X125061951Y-46611157D01*
X125004352Y-46724198D01*
X125004352Y-46724199D01*
X124984508Y-46849496D01*
X124984508Y-46849503D01*
X120508571Y-46849503D01*
X120509449Y-46843960D01*
X120509449Y-46843953D01*
X120489604Y-46718656D01*
X120489604Y-46718655D01*
X120475594Y-46691159D01*
X120432007Y-46605615D01*
X120432003Y-46605611D01*
X120432002Y-46605609D01*
X120342304Y-46515911D01*
X120342301Y-46515909D01*
X120342299Y-46515907D01*
X120229261Y-46458311D01*
X120229260Y-46458310D01*
X120229257Y-46458309D01*
X120103960Y-46438465D01*
X120103954Y-46438465D01*
X119978656Y-46458309D01*
X119978655Y-46458309D01*
X119903294Y-46496708D01*
X119865615Y-46515907D01*
X119865614Y-46515908D01*
X119865609Y-46515911D01*
X119775911Y-46605609D01*
X119775906Y-46605616D01*
X119722919Y-46709608D01*
X119674945Y-46760403D01*
X119607124Y-46777198D01*
X119540989Y-46754660D01*
X119501951Y-46709608D01*
X119499182Y-46704175D01*
X119492550Y-46691158D01*
X119492547Y-46691155D01*
X119492545Y-46691152D01*
X119402847Y-46601454D01*
X119402844Y-46601452D01*
X119402842Y-46601450D01*
X119289804Y-46543854D01*
X119289803Y-46543853D01*
X119289800Y-46543852D01*
X119164503Y-46524008D01*
X119164497Y-46524008D01*
X119039199Y-46543852D01*
X119039198Y-46543852D01*
X118963837Y-46582251D01*
X118926158Y-46601450D01*
X118926157Y-46601451D01*
X118926152Y-46601454D01*
X118836454Y-46691152D01*
X118836451Y-46691157D01*
X118836450Y-46691158D01*
X118827049Y-46709608D01*
X118778852Y-46804198D01*
X118778852Y-46804199D01*
X118759008Y-46929496D01*
X118759008Y-46929503D01*
X98690500Y-46929503D01*
X98690500Y-45900801D01*
X98710185Y-45833762D01*
X98762989Y-45788007D01*
X98832147Y-45778063D01*
X98895703Y-45807088D01*
X98917603Y-45831911D01*
X98925808Y-45844192D01*
X98991965Y-45888396D01*
X98991966Y-45888397D01*
X99050297Y-45899999D01*
X99050301Y-45900000D01*
X99670000Y-45900000D01*
X99670000Y-45285501D01*
X99777685Y-45334680D01*
X99884237Y-45350000D01*
X99955763Y-45350000D01*
X100062315Y-45334680D01*
X100170000Y-45285501D01*
X100170000Y-45900000D01*
X100789699Y-45900000D01*
X100789702Y-45899999D01*
X100848033Y-45888397D01*
X100848034Y-45888396D01*
X100914191Y-45844191D01*
X100958396Y-45778034D01*
X100958397Y-45778033D01*
X100969999Y-45719702D01*
X100970000Y-45719699D01*
X100970000Y-45100000D01*
X100353686Y-45100000D01*
X100379493Y-45059844D01*
X100420000Y-44921889D01*
X100420000Y-44850000D01*
X101404417Y-44850000D01*
X101424699Y-45055932D01*
X101438659Y-45101951D01*
X101484768Y-45253954D01*
X101582315Y-45436450D01*
X101582317Y-45436452D01*
X101713589Y-45596410D01*
X101751059Y-45627160D01*
X101873550Y-45727685D01*
X102056046Y-45825232D01*
X102254066Y-45885300D01*
X102254065Y-45885300D01*
X102272529Y-45887118D01*
X102460000Y-45905583D01*
X102665934Y-45885300D01*
X102863954Y-45825232D01*
X103046450Y-45727685D01*
X103206410Y-45596410D01*
X103337685Y-45436450D01*
X103435232Y-45253954D01*
X103495300Y-45055934D01*
X103515583Y-44850000D01*
X103944417Y-44850000D01*
X103964699Y-45055932D01*
X103978659Y-45101951D01*
X104024768Y-45253954D01*
X104122315Y-45436450D01*
X104122317Y-45436452D01*
X104253589Y-45596410D01*
X104291059Y-45627160D01*
X104413550Y-45727685D01*
X104596046Y-45825232D01*
X104794066Y-45885300D01*
X104794065Y-45885300D01*
X104812529Y-45887118D01*
X105000000Y-45905583D01*
X105205934Y-45885300D01*
X105403954Y-45825232D01*
X105586450Y-45727685D01*
X105746410Y-45596410D01*
X105877685Y-45436450D01*
X105975232Y-45253954D01*
X106012832Y-45130001D01*
X106984318Y-45130001D01*
X107004955Y-45286760D01*
X107004956Y-45286762D01*
X107064285Y-45429996D01*
X107065464Y-45432841D01*
X107161718Y-45558282D01*
X107287159Y-45654536D01*
X107433238Y-45715044D01*
X107590000Y-45735682D01*
X107653564Y-45727313D01*
X107722595Y-45738078D01*
X107774852Y-45784457D01*
X107793738Y-45851726D01*
X107792686Y-45866437D01*
X107784318Y-45929998D01*
X107784318Y-45930001D01*
X107804955Y-46086760D01*
X107804956Y-46086762D01*
X107865464Y-46232841D01*
X107961718Y-46358282D01*
X108087159Y-46454536D01*
X108233238Y-46515044D01*
X108281927Y-46521454D01*
X108389999Y-46535682D01*
X108390000Y-46535682D01*
X108390001Y-46535682D01*
X108478673Y-46524008D01*
X108546762Y-46515044D01*
X108692841Y-46454536D01*
X108818282Y-46358282D01*
X108914536Y-46232841D01*
X108975044Y-46086762D01*
X108995682Y-45930003D01*
X133084508Y-45930003D01*
X133104352Y-46055300D01*
X133104352Y-46055301D01*
X133104354Y-46055304D01*
X133161950Y-46168342D01*
X133161952Y-46168344D01*
X133161954Y-46168347D01*
X133251652Y-46258045D01*
X133251654Y-46258046D01*
X133251658Y-46258050D01*
X133364696Y-46315646D01*
X133364697Y-46315646D01*
X133364699Y-46315647D01*
X133489997Y-46335492D01*
X133490000Y-46335492D01*
X133490003Y-46335492D01*
X133615300Y-46315647D01*
X133615301Y-46315647D01*
X133615302Y-46315646D01*
X133615304Y-46315646D01*
X133728342Y-46258050D01*
X133818050Y-46168342D01*
X133875646Y-46055304D01*
X133875646Y-46055302D01*
X133875647Y-46055301D01*
X133875647Y-46055300D01*
X133895492Y-45930003D01*
X133895492Y-45929996D01*
X133875647Y-45804699D01*
X133875647Y-45804698D01*
X133867142Y-45788007D01*
X133818050Y-45691658D01*
X133818046Y-45691654D01*
X133818045Y-45691652D01*
X133728347Y-45601954D01*
X133728344Y-45601952D01*
X133728342Y-45601950D01*
X133615304Y-45544354D01*
X133615303Y-45544353D01*
X133615300Y-45544352D01*
X133490003Y-45524508D01*
X133489997Y-45524508D01*
X133364699Y-45544352D01*
X133364698Y-45544352D01*
X133312569Y-45570914D01*
X133251658Y-45601950D01*
X133251657Y-45601951D01*
X133251652Y-45601954D01*
X133161954Y-45691652D01*
X133161951Y-45691657D01*
X133104352Y-45804698D01*
X133104352Y-45804699D01*
X133084508Y-45929996D01*
X133084508Y-45930003D01*
X108995682Y-45930003D01*
X108995682Y-45930000D01*
X108995681Y-45929996D01*
X108979186Y-45804698D01*
X108975044Y-45773238D01*
X108914536Y-45627159D01*
X108818282Y-45501718D01*
X108692841Y-45405464D01*
X108646104Y-45386105D01*
X108546762Y-45344956D01*
X108546760Y-45344955D01*
X108390001Y-45324318D01*
X108389999Y-45324318D01*
X108326437Y-45332686D01*
X108257402Y-45321920D01*
X108205146Y-45275540D01*
X108186261Y-45208271D01*
X108187311Y-45193580D01*
X108195682Y-45130000D01*
X108191732Y-45100000D01*
X108182517Y-45030001D01*
X115084318Y-45030001D01*
X115104955Y-45186760D01*
X115104956Y-45186762D01*
X115161933Y-45324318D01*
X115165464Y-45332841D01*
X115261718Y-45458282D01*
X115387159Y-45554536D01*
X115533238Y-45615044D01*
X115611619Y-45625363D01*
X115689999Y-45635682D01*
X115690000Y-45635682D01*
X115690001Y-45635682D01*
X115754739Y-45627159D01*
X115846762Y-45615044D01*
X115992841Y-45554536D01*
X116026338Y-45528832D01*
X116091504Y-45503639D01*
X116159949Y-45517677D01*
X116209939Y-45566490D01*
X116212302Y-45570903D01*
X116261950Y-45668342D01*
X116261952Y-45668344D01*
X116261954Y-45668347D01*
X116351652Y-45758045D01*
X116351654Y-45758046D01*
X116351658Y-45758050D01*
X116464696Y-45815646D01*
X116464697Y-45815646D01*
X116464699Y-45815647D01*
X116589997Y-45835492D01*
X116590000Y-45835492D01*
X116590003Y-45835492D01*
X116715300Y-45815647D01*
X116715301Y-45815647D01*
X116715302Y-45815646D01*
X116715304Y-45815646D01*
X116828342Y-45758050D01*
X116918050Y-45668342D01*
X116975646Y-45555304D01*
X116975646Y-45555302D01*
X116975647Y-45555301D01*
X116975647Y-45555300D01*
X116995492Y-45430003D01*
X116995492Y-45429996D01*
X116975647Y-45304699D01*
X116975647Y-45304698D01*
X116960790Y-45275540D01*
X116918050Y-45191658D01*
X116918046Y-45191654D01*
X116918045Y-45191652D01*
X116828347Y-45101954D01*
X116828344Y-45101952D01*
X116828342Y-45101950D01*
X116715304Y-45044354D01*
X116715303Y-45044353D01*
X116715300Y-45044352D01*
X116590003Y-45024508D01*
X116589997Y-45024508D01*
X116464699Y-45044352D01*
X116464692Y-45044354D01*
X116464400Y-45044504D01*
X116464006Y-45044577D01*
X116455417Y-45047369D01*
X116455055Y-45046257D01*
X116395729Y-45057394D01*
X116330991Y-45031111D01*
X116290739Y-44974001D01*
X116285176Y-44950199D01*
X116275044Y-44873239D01*
X116275044Y-44873238D01*
X116214536Y-44727159D01*
X116118282Y-44601718D01*
X115992841Y-44505464D01*
X115846762Y-44444956D01*
X115846760Y-44444955D01*
X115690001Y-44424318D01*
X115689999Y-44424318D01*
X115533239Y-44444955D01*
X115533237Y-44444956D01*
X115387160Y-44505463D01*
X115261718Y-44601718D01*
X115165463Y-44727160D01*
X115104956Y-44873237D01*
X115104955Y-44873239D01*
X115084318Y-45029998D01*
X115084318Y-45030001D01*
X108182517Y-45030001D01*
X108175044Y-44973239D01*
X108175044Y-44973238D01*
X108114536Y-44827159D01*
X108018282Y-44701718D01*
X107892841Y-44605464D01*
X107883797Y-44601718D01*
X107746762Y-44544956D01*
X107746760Y-44544955D01*
X107590001Y-44524318D01*
X107589999Y-44524318D01*
X107433239Y-44544955D01*
X107433237Y-44544956D01*
X107287160Y-44605463D01*
X107161718Y-44701718D01*
X107065463Y-44827160D01*
X107004956Y-44973237D01*
X107004955Y-44973239D01*
X106984318Y-45129998D01*
X106984318Y-45130001D01*
X106012832Y-45130001D01*
X106035300Y-45055934D01*
X106055583Y-44850000D01*
X106035300Y-44644066D01*
X105975232Y-44446046D01*
X105877685Y-44263550D01*
X105825702Y-44200209D01*
X105746410Y-44103589D01*
X105586452Y-43972317D01*
X105586453Y-43972317D01*
X105586450Y-43972315D01*
X105403954Y-43874768D01*
X105205934Y-43814700D01*
X105205932Y-43814699D01*
X105205934Y-43814699D01*
X105000000Y-43794417D01*
X104794067Y-43814699D01*
X104596043Y-43874769D01*
X104485898Y-43933643D01*
X104413550Y-43972315D01*
X104413548Y-43972316D01*
X104413547Y-43972317D01*
X104253589Y-44103589D01*
X104122317Y-44263547D01*
X104024769Y-44446043D01*
X103964699Y-44644067D01*
X103944417Y-44850000D01*
X103515583Y-44850000D01*
X103495300Y-44644066D01*
X103435232Y-44446046D01*
X103337685Y-44263550D01*
X103285702Y-44200209D01*
X103206410Y-44103589D01*
X103046452Y-43972317D01*
X103046453Y-43972317D01*
X103046450Y-43972315D01*
X102863954Y-43874768D01*
X102665934Y-43814700D01*
X102665932Y-43814699D01*
X102665934Y-43814699D01*
X102460000Y-43794417D01*
X102254067Y-43814699D01*
X102056043Y-43874769D01*
X101945898Y-43933643D01*
X101873550Y-43972315D01*
X101873548Y-43972316D01*
X101873547Y-43972317D01*
X101713589Y-44103589D01*
X101582317Y-44263547D01*
X101484769Y-44446043D01*
X101424699Y-44644067D01*
X101404417Y-44850000D01*
X100420000Y-44850000D01*
X100420000Y-44778111D01*
X100379493Y-44640156D01*
X100353686Y-44600000D01*
X100970000Y-44600000D01*
X100970000Y-43980301D01*
X100969999Y-43980297D01*
X100958397Y-43921966D01*
X100958396Y-43921965D01*
X100914191Y-43855808D01*
X100848034Y-43811603D01*
X100848033Y-43811602D01*
X100789702Y-43800000D01*
X100170000Y-43800000D01*
X100170000Y-44414498D01*
X100062315Y-44365320D01*
X99955763Y-44350000D01*
X99884237Y-44350000D01*
X99777685Y-44365320D01*
X99670000Y-44414498D01*
X99670000Y-43800000D01*
X99050297Y-43800000D01*
X98991966Y-43811602D01*
X98991965Y-43811603D01*
X98925807Y-43855808D01*
X98917601Y-43868090D01*
X98863989Y-43912894D01*
X98794663Y-43921601D01*
X98731636Y-43891446D01*
X98694918Y-43832002D01*
X98690500Y-43799198D01*
X98690500Y-43530001D01*
X106784318Y-43530001D01*
X106804955Y-43686760D01*
X106804956Y-43686762D01*
X106856666Y-43811602D01*
X106865464Y-43832841D01*
X106961718Y-43958282D01*
X107087159Y-44054536D01*
X107233238Y-44115044D01*
X107311619Y-44125363D01*
X107389999Y-44135682D01*
X107390000Y-44135682D01*
X107390001Y-44135682D01*
X107442254Y-44128802D01*
X107546762Y-44115044D01*
X107692841Y-44054536D01*
X107818282Y-43958282D01*
X107914536Y-43832841D01*
X107975044Y-43686762D01*
X107995682Y-43530000D01*
X107975044Y-43373238D01*
X107914536Y-43227159D01*
X107818282Y-43101718D01*
X107692841Y-43005464D01*
X107546762Y-42944956D01*
X107546760Y-42944955D01*
X107390001Y-42924318D01*
X107389999Y-42924318D01*
X107226611Y-42945828D01*
X107225481Y-42945651D01*
X107219739Y-42950509D01*
X107217026Y-42951671D01*
X107087160Y-43005463D01*
X106961718Y-43101718D01*
X106865463Y-43227160D01*
X106804956Y-43373237D01*
X106804955Y-43373239D01*
X106784318Y-43529998D01*
X106784318Y-43530001D01*
X98690500Y-43530001D01*
X98690500Y-43360801D01*
X98710185Y-43293762D01*
X98762989Y-43248007D01*
X98832147Y-43238063D01*
X98895703Y-43267088D01*
X98917603Y-43291911D01*
X98925808Y-43304192D01*
X98991965Y-43348396D01*
X98991966Y-43348397D01*
X99050297Y-43359999D01*
X99050301Y-43360000D01*
X99670000Y-43360000D01*
X99670000Y-42745501D01*
X99777685Y-42794680D01*
X99884237Y-42810000D01*
X99955763Y-42810000D01*
X100062315Y-42794680D01*
X100170000Y-42745501D01*
X100170000Y-43360000D01*
X100789699Y-43360000D01*
X100789702Y-43359999D01*
X100848033Y-43348397D01*
X100848034Y-43348396D01*
X100914191Y-43304191D01*
X100958396Y-43238034D01*
X100958397Y-43238033D01*
X100969999Y-43179702D01*
X100970000Y-43179699D01*
X100970000Y-42560000D01*
X100353686Y-42560000D01*
X100379493Y-42519844D01*
X100420000Y-42381889D01*
X100420000Y-42310000D01*
X101404417Y-42310000D01*
X101424699Y-42515932D01*
X101437546Y-42558282D01*
X101484768Y-42713954D01*
X101582315Y-42896450D01*
X101582317Y-42896452D01*
X101713589Y-43056410D01*
X101768798Y-43101718D01*
X101873550Y-43187685D01*
X102056046Y-43285232D01*
X102254066Y-43345300D01*
X102254065Y-43345300D01*
X102272529Y-43347118D01*
X102460000Y-43365583D01*
X102665934Y-43345300D01*
X102863954Y-43285232D01*
X103046450Y-43187685D01*
X103206410Y-43056410D01*
X103337685Y-42896450D01*
X103435232Y-42713954D01*
X103495300Y-42515934D01*
X103515583Y-42310000D01*
X103944417Y-42310000D01*
X103964699Y-42515932D01*
X103977546Y-42558282D01*
X104024768Y-42713954D01*
X104122315Y-42896450D01*
X104122317Y-42896452D01*
X104253589Y-43056410D01*
X104308798Y-43101718D01*
X104413550Y-43187685D01*
X104596046Y-43285232D01*
X104794066Y-43345300D01*
X104794065Y-43345300D01*
X104812529Y-43347118D01*
X105000000Y-43365583D01*
X105205934Y-43345300D01*
X105403954Y-43285232D01*
X105586450Y-43187685D01*
X105746410Y-43056410D01*
X105877685Y-42896450D01*
X105975232Y-42713954D01*
X106035300Y-42515934D01*
X106055583Y-42310000D01*
X106037854Y-42130001D01*
X106384318Y-42130001D01*
X106404955Y-42286760D01*
X106404956Y-42286762D01*
X106414581Y-42310000D01*
X106465464Y-42432841D01*
X106561718Y-42558282D01*
X106687159Y-42654536D01*
X106833238Y-42715044D01*
X106911619Y-42725363D01*
X106989999Y-42735682D01*
X106990000Y-42735682D01*
X107146762Y-42715044D01*
X107146764Y-42715042D01*
X107153387Y-42714171D01*
X107154518Y-42714347D01*
X107160261Y-42709490D01*
X107162920Y-42708351D01*
X107292841Y-42654536D01*
X107418282Y-42558282D01*
X107514536Y-42432841D01*
X107575044Y-42286762D01*
X107595682Y-42130000D01*
X107595681Y-42129996D01*
X107579186Y-42004698D01*
X107575044Y-41973238D01*
X107514536Y-41827159D01*
X107439984Y-41730001D01*
X119984318Y-41730001D01*
X120004955Y-41886760D01*
X120004956Y-41886762D01*
X120040775Y-41973238D01*
X120065464Y-42032841D01*
X120161718Y-42158282D01*
X120287159Y-42254536D01*
X120433238Y-42315044D01*
X120511619Y-42325363D01*
X120589999Y-42335682D01*
X120590000Y-42335682D01*
X120590001Y-42335682D01*
X120642254Y-42328802D01*
X120746762Y-42315044D01*
X120892841Y-42254536D01*
X121018282Y-42158282D01*
X121091625Y-42062699D01*
X121148052Y-42021497D01*
X121217798Y-42017342D01*
X121278718Y-42051554D01*
X121288372Y-42062695D01*
X121324286Y-42109500D01*
X121340016Y-42130000D01*
X121361718Y-42158282D01*
X121487159Y-42254536D01*
X121633238Y-42315044D01*
X121711619Y-42325363D01*
X121789999Y-42335682D01*
X121790000Y-42335682D01*
X121790001Y-42335682D01*
X121842254Y-42328802D01*
X121946762Y-42315044D01*
X122092841Y-42254536D01*
X122218282Y-42158282D01*
X122314536Y-42032841D01*
X122355404Y-41934176D01*
X122399243Y-41879774D01*
X122465537Y-41857709D01*
X122517415Y-41867068D01*
X122633238Y-41915044D01*
X122790000Y-41935682D01*
X122855448Y-41927065D01*
X122924481Y-41937830D01*
X122976737Y-41984209D01*
X122995623Y-42051478D01*
X122994105Y-42069401D01*
X122984508Y-42129996D01*
X122984508Y-42130003D01*
X123004352Y-42255300D01*
X123004352Y-42255301D01*
X123004354Y-42255304D01*
X123061950Y-42368342D01*
X123061952Y-42368344D01*
X123061954Y-42368347D01*
X123151652Y-42458045D01*
X123151654Y-42458046D01*
X123151658Y-42458050D01*
X123264696Y-42515646D01*
X123264697Y-42515646D01*
X123264699Y-42515647D01*
X123389997Y-42535492D01*
X123390000Y-42535492D01*
X123390003Y-42535492D01*
X123515300Y-42515647D01*
X123515301Y-42515647D01*
X123515302Y-42515646D01*
X123515304Y-42515646D01*
X123628342Y-42458050D01*
X123718050Y-42368342D01*
X123775646Y-42255304D01*
X123775646Y-42255302D01*
X123775647Y-42255301D01*
X123775647Y-42255300D01*
X123795492Y-42130003D01*
X123795492Y-42129996D01*
X123775647Y-42004699D01*
X123775647Y-42004698D01*
X123762656Y-41979202D01*
X123718050Y-41891658D01*
X123718046Y-41891654D01*
X123718045Y-41891652D01*
X123628347Y-41801954D01*
X123628344Y-41801952D01*
X123628342Y-41801950D01*
X123542639Y-41758282D01*
X123515301Y-41744352D01*
X123438906Y-41732253D01*
X123375771Y-41702324D01*
X123338840Y-41643012D01*
X123339838Y-41573150D01*
X123343736Y-41562343D01*
X123375044Y-41486762D01*
X123395682Y-41330000D01*
X123390679Y-41292002D01*
X123377282Y-41190236D01*
X123375044Y-41173238D01*
X123314536Y-41027159D01*
X123218282Y-40901718D01*
X123092841Y-40805464D01*
X123047690Y-40786762D01*
X122946762Y-40744956D01*
X122946760Y-40744955D01*
X122790001Y-40724318D01*
X122789999Y-40724318D01*
X122633239Y-40744955D01*
X122633237Y-40744956D01*
X122487160Y-40805463D01*
X122361718Y-40901718D01*
X122265463Y-41027160D01*
X122224596Y-41125822D01*
X122180755Y-41180225D01*
X122114460Y-41202290D01*
X122062583Y-41192930D01*
X121946765Y-41144957D01*
X121946760Y-41144955D01*
X121790001Y-41124318D01*
X121789999Y-41124318D01*
X121633239Y-41144955D01*
X121633237Y-41144956D01*
X121487160Y-41205463D01*
X121487159Y-41205464D01*
X121361718Y-41301718D01*
X121300143Y-41381965D01*
X121288376Y-41397300D01*
X121231948Y-41438502D01*
X121162202Y-41442657D01*
X121101281Y-41408444D01*
X121091624Y-41397300D01*
X121079858Y-41381966D01*
X121018282Y-41301718D01*
X120892841Y-41205464D01*
X120885178Y-41202290D01*
X120746762Y-41144956D01*
X120746760Y-41144955D01*
X120590001Y-41124318D01*
X120589999Y-41124318D01*
X120433239Y-41144955D01*
X120433237Y-41144956D01*
X120287160Y-41205463D01*
X120161718Y-41301718D01*
X120065463Y-41427160D01*
X120004956Y-41573237D01*
X120004955Y-41573239D01*
X119984318Y-41729998D01*
X119984318Y-41730001D01*
X107439984Y-41730001D01*
X107418282Y-41701718D01*
X107292841Y-41605464D01*
X107281308Y-41600687D01*
X107146762Y-41544956D01*
X107146760Y-41544955D01*
X106990001Y-41524318D01*
X106989999Y-41524318D01*
X106833239Y-41544955D01*
X106833237Y-41544956D01*
X106687160Y-41605463D01*
X106561718Y-41701718D01*
X106465463Y-41827160D01*
X106404956Y-41973237D01*
X106404955Y-41973239D01*
X106384318Y-42129998D01*
X106384318Y-42130001D01*
X106037854Y-42130001D01*
X106035300Y-42104066D01*
X105975232Y-41906046D01*
X105877685Y-41723550D01*
X105811590Y-41643012D01*
X105746410Y-41563589D01*
X105608549Y-41450451D01*
X105586450Y-41432315D01*
X105403954Y-41334768D01*
X105205934Y-41274700D01*
X105205932Y-41274699D01*
X105205934Y-41274699D01*
X105000000Y-41254417D01*
X104794067Y-41274699D01*
X104596043Y-41334769D01*
X104485898Y-41393643D01*
X104413550Y-41432315D01*
X104413548Y-41432316D01*
X104413547Y-41432317D01*
X104253589Y-41563589D01*
X104122317Y-41723547D01*
X104122315Y-41723550D01*
X104118867Y-41730001D01*
X104024769Y-41906043D01*
X103964699Y-42104067D01*
X103944417Y-42310000D01*
X103515583Y-42310000D01*
X103495300Y-42104066D01*
X103435232Y-41906046D01*
X103337685Y-41723550D01*
X103271590Y-41643012D01*
X103206410Y-41563589D01*
X103068549Y-41450451D01*
X103046450Y-41432315D01*
X102863954Y-41334768D01*
X102665934Y-41274700D01*
X102665932Y-41274699D01*
X102665934Y-41274699D01*
X102460000Y-41254417D01*
X102254067Y-41274699D01*
X102056043Y-41334769D01*
X101945898Y-41393643D01*
X101873550Y-41432315D01*
X101873548Y-41432316D01*
X101873547Y-41432317D01*
X101713589Y-41563589D01*
X101582317Y-41723547D01*
X101582315Y-41723550D01*
X101578867Y-41730001D01*
X101484769Y-41906043D01*
X101424699Y-42104067D01*
X101404417Y-42310000D01*
X100420000Y-42310000D01*
X100420000Y-42238111D01*
X100379493Y-42100156D01*
X100353686Y-42060000D01*
X100970000Y-42060000D01*
X100970000Y-41440301D01*
X100969999Y-41440297D01*
X100958397Y-41381966D01*
X100958396Y-41381965D01*
X100914191Y-41315808D01*
X100848034Y-41271603D01*
X100848033Y-41271602D01*
X100789702Y-41260000D01*
X100170000Y-41260000D01*
X100170000Y-41874498D01*
X100062315Y-41825320D01*
X99955763Y-41810000D01*
X99884237Y-41810000D01*
X99777685Y-41825320D01*
X99670000Y-41874498D01*
X99670000Y-41260000D01*
X99050297Y-41260000D01*
X98991966Y-41271602D01*
X98991965Y-41271603D01*
X98925807Y-41315808D01*
X98917601Y-41328090D01*
X98863989Y-41372894D01*
X98794663Y-41381601D01*
X98731636Y-41351446D01*
X98694918Y-41292002D01*
X98690500Y-41259198D01*
X98690500Y-40820801D01*
X98710185Y-40753762D01*
X98762989Y-40708007D01*
X98832147Y-40698063D01*
X98895703Y-40727088D01*
X98917603Y-40751911D01*
X98925808Y-40764192D01*
X98991965Y-40808396D01*
X98991966Y-40808397D01*
X99050297Y-40819999D01*
X99050301Y-40820000D01*
X99670000Y-40820000D01*
X99670000Y-40205501D01*
X99777685Y-40254680D01*
X99884237Y-40270000D01*
X99955763Y-40270000D01*
X100062315Y-40254680D01*
X100170000Y-40205501D01*
X100170000Y-40820000D01*
X100789699Y-40820000D01*
X100789702Y-40819999D01*
X100848033Y-40808397D01*
X100848034Y-40808396D01*
X100914191Y-40764191D01*
X100958396Y-40698034D01*
X100958397Y-40698033D01*
X100969999Y-40639702D01*
X100970000Y-40639699D01*
X100970000Y-40020000D01*
X100353686Y-40020000D01*
X100379493Y-39979844D01*
X100420000Y-39841889D01*
X100420000Y-39698111D01*
X100379493Y-39560156D01*
X100353686Y-39520000D01*
X100970000Y-39520000D01*
X100970000Y-38900301D01*
X100969999Y-38900297D01*
X100958397Y-38841966D01*
X100958396Y-38841965D01*
X100914192Y-38775808D01*
X100886945Y-38757603D01*
X100842139Y-38703990D01*
X100833432Y-38634666D01*
X100863586Y-38571638D01*
X100923029Y-38534918D01*
X100955835Y-38530500D01*
X102091282Y-38530500D01*
X102158321Y-38550185D01*
G37*
%TD.AperFunction*%
%TD*%
M02*
