M48
; DRILL file {KiCad 7.0.8} date Sat Oct 14 12:30:27 2023
; FORMAT={-:-/ absolute / inch / decimal}
; #@! TF.CreationDate,2023-10-14T12:30:27+02:00
; #@! TF.GenerationSoftware,Kicad,Pcbnew,7.0.8
; #@! TF.FileFunction,Plated,1,4,PTH
FMAT,2
INCH
; #@! TA.AperFunction,Plated,PTH,ViaDrill
T1C0.0079
; #@! TA.AperFunction,Plated,PTH,ViaDrill
T2C0.0157
; #@! TA.AperFunction,Plated,PTH,ComponentDrill
T3C0.0236
; #@! TA.AperFunction,Plated,PTH,ComponentDrill
T4C0.0394
%
G90
G05
T1
X4.3097Y-2.1792
X4.3106Y-1.9766
X4.3106Y-2.0366
X4.3106Y-2.076
X4.3204Y-2.2325
X4.352Y-2.2561
X4.3854Y-2.1193
X4.3933Y-1.8713
X4.3933Y-1.9106
X4.4091Y-2.1173
X4.4484Y-2.0021
X4.476Y-2.139
X4.4901Y-1.9301
X4.4949Y-2.1531
X4.5331Y-1.8555
X4.5902Y-1.7886
X4.602Y-2.1469
X4.6059Y-2.0484
X4.6098Y-2.202
X4.6295Y-1.9146
X4.6295Y-1.9382
X4.6335Y-2.202
X4.6374Y-2.1075
X4.6512Y-2.1266
X4.6728Y-2.0327
X4.6915Y-1.8476
X4.7005Y-2.0328
X4.7102Y-2.1724
X4.7247Y-2.1911
X4.7285Y-1.8443
X4.7596Y-2.1353
X4.7763Y-2.0077
X4.7993Y-2.0297
X4.8032Y-1.9056
X4.8038Y-1.9375
X4.8087Y-2.0917
X4.8185Y-1.9618
X4.8273Y-1.9399
X4.8273Y-1.9837
X4.8343Y-2.1488
X4.8382Y-2.0996
X4.8393Y-2.004
X4.8579Y-1.6587
X4.8815Y-2.1665
X4.9164Y-1.7408
X4.9327Y-1.887
X4.936Y-1.9146
X4.9366Y-1.8445
X4.9366Y-2.0169
X4.9394Y-2.152
X4.9426Y-2.2964
X4.9445Y-2.1823
X4.9478Y-1.6646
X5.0309Y-1.9226
X5.0311Y-1.9815
X5.0845Y-2.2579
X5.0862Y-2.2846
X5.2555Y-1.8083
T2
X4.2083Y-1.5996
X4.2122Y-1.6587
X4.228Y-1.7138
X4.2358Y-1.7768
X4.2634Y-1.5524
X4.2673Y-1.8083
X4.3382Y-1.8004
X4.3933Y-1.7413
X4.3933Y-1.8004
X4.5547Y-1.7728
X4.5898Y-1.7302
X4.6098Y-1.5563
X4.6807Y-1.5563
X4.7476Y-1.6429
X4.7949Y-1.6429
X4.8343Y-1.6272
X5.2929Y-2.1508
X5.2949Y-2.198
T4
X3.9339Y-1.5657
X3.9339Y-1.6657
X3.9339Y-1.7657
X3.9339Y-1.9657
X3.9339Y-2.0657
X3.9339Y-2.1657
X3.9339Y-2.2657
X4.0339Y-1.5657
X4.0339Y-1.6657
X4.0339Y-1.7657
X4.0339Y-1.9657
X4.0339Y-2.0657
X4.0339Y-2.1657
X4.0339Y-2.2657
X4.1339Y-1.5657
X4.1339Y-1.6657
X4.1339Y-1.7657
X4.1339Y-1.9657
X4.1339Y-2.0657
X4.1339Y-2.1657
X4.1339Y-2.2657
T3
G00X5.0579Y-1.5594
M15
G01X5.1012Y-1.5594
M16
G05
G00X5.0579Y-1.8996
M15
G01X5.1012Y-1.8996
M16
G05
G00X5.2323Y-1.5594
M15
G01X5.2559Y-1.5594
M16
G05
G00X5.2323Y-1.8996
M15
G01X5.2559Y-1.8996
M16
G05
T0
M30
